<svg id="Laag_1" data-name="Laag 1" xmlns="http://www.w3.org/2000/svg" viewBox="0 0 665.5 640.97"><defs><style>.cls-1{fill:#0072bb;}.cls-2{fill:#ffd034;}.cls-3{opacity:0.2;}.cls-4{fill:#03386d;}.cls-5{fill:#ff4c3b;}.cls-6{fill:#231f20;}.cls-15,.cls-6{opacity:0.1;}.cls-7{fill:#3f3f3f;}.cls-8{fill:#4c4c4c;}.cls-9{fill:#e67e22;}.cls-10{fill:#f6b98a;}.cls-11{fill:#5e3b28;}.cls-12{fill:#dbdbdb;}.cls-13{opacity:0.6;}.cls-14{opacity:0.5;}</style></defs><title>avg</title><g id="Data_Security" data-name="Data Security"><g id="Data_Security-2" data-name="Data Security"><g id="Data"><rect class="cls-1" x="202.37" y="467.51" width="303.4" height="16.81" transform="translate(-132.96 779.27) rotate(-89.7)"/><rect class="cls-1" x="344.4" y="493.74" width="17.67" height="288.54" transform="translate(-295.89 939.69) rotate(-89.7)"/><path class="cls-2" d="M489.18,358.29c-.1,18.44-14.39,33.31-31.92,33.22l-205.49-1.06c-17.53-.09-31.67-15.11-31.58-33.55h0c.1-18.43,14.39-33.3,31.92-33.21l205.49,1.06c17.53.09,31.67,15.11,31.58,33.54Z" transform="translate(-9.3 -48.26)"/><path class="cls-2" d="M488.72,447.21c-.1,18.44-14.39,33.31-31.92,33.22l-205.49-1.06c-17.53-.09-31.67-15.11-31.57-33.55h0c.09-18.43,14.38-33.3,31.91-33.21l205.49,1.06c17.54.09,31.67,15.11,31.58,33.54Z" transform="translate(-9.3 -48.26)"/><path class="cls-2" d="M488.24,538.71c-.09,18.44-14.38,33.31-31.91,33.22l-205.49-1.07c-17.54-.09-31.67-15.1-31.58-33.54h0c.1-18.44,14.39-33.31,31.92-33.22l205.49,1.06c17.53.09,31.67,15.11,31.57,33.55Z" transform="translate(-9.3 -48.26)"/><rect class="cls-3" x="293.93" y="580.92" width="101.3" height="17.67"/><rect class="cls-1" x="296.02" y="575.19" width="97.41" height="29.14"/><rect class="cls-1" x="193.2" y="538.54" width="27.71" height="102.42"/><rect class="cls-1" x="469.95" y="538.54" width="27.71" height="102.42"/><path class="cls-4" d="M272.64,356c0,6.42-4.95,11.61-11,11.61s-11-5.19-11-11.61,4.94-11.6,11-11.6S272.64,349.6,272.64,356Z" transform="translate(-9.3 -48.26)"/><path class="cls-4" d="M461,356c0,6.42-4.95,11.61-11,11.61s-11-5.19-11-11.61,4.94-11.6,11-11.6S461,349.6,461,356Z" transform="translate(-9.3 -48.26)"/><path class="cls-4" d="M465.5,448.87c0,6.41-4.94,11.61-11,11.61s-11-5.2-11-11.61,4.95-11.61,11-11.61S465.5,442.46,465.5,448.87Z" transform="translate(-9.3 -48.26)"/><path class="cls-4" d="M465.5,538c0,6.41-4.94,11.61-11,11.61s-11-5.2-11-11.61,4.95-11.61,11-11.61S465.5,531.6,465.5,538Z" transform="translate(-9.3 -48.26)"/><path class="cls-4" d="M272.64,448.87c0,6.41-4.95,11.61-11,11.61s-11-5.2-11-11.61,4.94-11.61,11-11.61S272.64,442.46,272.64,448.87Z" transform="translate(-9.3 -48.26)"/><path class="cls-4" d="M272.64,538c0,6.41-4.95,11.61-11,11.61s-11-5.2-11-11.61,4.94-11.61,11-11.61S272.64,531.6,272.64,538Z" transform="translate(-9.3 -48.26)"/></g><g id="Security"><path class="cls-5" d="M96.49,224.5,9.3,264.09v98.2s5.15,68.39,87.19,106.35c82-38,87.19-106.35,87.19-106.35v-98.2Z" transform="translate(-9.3 -48.26)"/><path class="cls-2" d="M96.49,249.45,27.12,281v78.13s4.09,54.41,69.37,84.62c65.28-30.21,69.37-84.62,69.37-84.62V281Z" transform="translate(-9.3 -48.26)"/><path class="cls-6" d="M183.68,362.29v-98.2L96.49,224.5V468.64C178.53,430.68,183.68,362.29,183.68,362.29Z" transform="translate(-9.3 -48.26)"/><polygon class="cls-1" points="79.84 320.62 134.58 271.39 126.35 261.28 80.99 302.07 62.15 279.78 52.7 288.62 79.72 320.59 79.78 320.67 79.78 320.67 79.78 320.67 79.84 320.62"/></g><g id="Document"><path class="cls-7" d="M555.68,275.66s4.11-22.38,5.23-22.38,5.23.66,22.41,5.24S615.06,267,615.06,267s6.35,2,7.85-2.56.74-4.51,9.33-2.16,21.66,6.28,21.66,6.28,4.11,1.58,4.11,4.72v5.49l13.45,3.54s5.23,1.18,2.61,10.6S642,410.76,642,410.76Z" transform="translate(-9.3 -48.26)"/><path class="cls-2" d="M553.44,273.31s4.11-22.38,5.23-22.38,5.23.65,22.41,5.23,31.74,8.51,31.74,8.51,6.35,2,7.84-2.55.75-4.52,9.34-2.16,21.66,6.28,21.66,6.28,4.11,1.57,4.11,4.71v5.5L669.21,280s5.23,1.18,2.62,10.61S639.71,408.4,639.71,408.4Z" transform="translate(-9.3 -48.26)"/><path class="cls-8" d="M644.16,402.65,622.91,296.87s1.12-4.71-6-7.46a47.17,47.17,0,0,0-11.2-3.14s1.24-7.85-6.48-10.21-30.5-9.82-30.5-9.82l-3.36,2.35v2.75L521,256.82l-4.36,1.7,26,100L642,410.76Z" transform="translate(-9.3 -48.26)"/><path class="cls-9" d="M642,410.76,619.54,299.23s1.12-4.71-6-7.46a47.16,47.16,0,0,0-11.21-3.14s1.25-7.86-6.47-10.21-30.5-9.83-30.5-9.83L562,273.7l-44.45-14.53s-2.24-3.93,0,7.46,21.67,94.25,21.67,94.25Z" transform="translate(-9.3 -48.26)"/><g id="Man"><polygon class="cls-10" points="318.57 128.35 320.73 109.22 367.71 99.62 366.89 114.49 368.86 126.93 362.06 133.32 347.16 138.83 326.07 133.96 318.57 128.35"/><path class="cls-2" d="M321.58,175.19l7.32-7.71s7.28,18,25.12,16.9a25.92,25.92,0,0,0,23-16.1l9.41,6.91.68,17.44s-36.1,9.32-41.77,8-25.69-10.81-25.69-10.81Z" transform="translate(-9.3 -48.26)"/><path class="cls-1" d="M386.47,175.19C380,192.22,354,193.84,354,193.84s-25.95-1.62-32.44-18.65c0,0-60,14.6-64.88,72.19,0,0,24.33,47.85,97.32,52.71,73-4.86,97.33-52.71,97.33-52.71C446.49,189.79,386.47,175.19,386.47,175.19Z" transform="translate(-9.3 -48.26)"/><path class="cls-11" d="M398.23,73.4C393,54.34,354,48.26,354,48.26s-38.93,6.08-44.2,25.14-1.21,41,4.46,58,17,38.12,39.74,46.23c22.71-8.11,34.07-29.2,39.75-46.23S403.5,92.46,398.23,73.4Z" transform="translate(-9.3 -48.26)"/><path class="cls-3" d="M360.71,49.63c11.08,16.21,33.36,61.13-1.57,125.85,19.33-9.25,29.39-28.39,34.63-44.09,5.67-17,9.73-38.93,4.46-58C394.33,59.32,372.08,52.33,360.71,49.63Z" transform="translate(-9.3 -48.26)"/><path class="cls-3" d="M451.35,247.38c-4-46.88-44.46-65.27-59.39-70.49,14.54,18.76,44,62,36.53,96.29C444.85,260.16,451.35,247.38,451.35,247.38Z" transform="translate(-9.3 -48.26)"/></g></g></g><g id="Key"><path class="cls-12" d="M625.16,293.73h9.75V279a7.46,7.46,0,0,0-7.47-7.46H586.76a7.47,7.47,0,0,0-7.47,7.46v61a7.48,7.48,0,0,0,7.47,7.48h2.29V279.41h36.11Z" transform="translate(-9.3 -48.26)"/><rect class="cls-1" x="561.67" y="265.71" width="72.45" height="78.55" rx="7.47" ry="7.47"/><path class="cls-13" d="M613.66,345.79a6.47,6.47,0,1,0-9.53,5.66v15.48h6.13V351.45A6.43,6.43,0,0,0,613.66,345.79Z" transform="translate(-9.3 -48.26)"/><path class="cls-14" d="M607.19,340.82a5.1,5.1,0,0,0-2.42,9.59v15.33h4.84v-3.1h0V350.41a5.1,5.1,0,0,0-2.43-9.59Z" transform="translate(-9.3 -48.26)"/><path class="cls-15" d="M578.44,392.52H636a7.49,7.49,0,0,0,7.47-7.48v-63.6a7.48,7.48,0,0,0-3.78-6.5l-64,77A7.42,7.42,0,0,0,578.44,392.52Z" transform="translate(-9.3 -48.26)"/></g></g></svg>