<svg id="Layer_1" data-name="Layer 1" xmlns="http://www.w3.org/2000/svg" viewBox="0 0 446.51 349.92"><defs><style>.cls-1{fill:#fed298;}.cls-2{fill:#ff4c3b;}.cls-3{fill:#fff;}.cls-4{fill:#f0ba7d;}.cls-5{fill:#0072bb;}.cls-6{fill:#ecf0f1;}.cls-7{fill:#34495e;}.cls-8{fill:#ffd034;}.cls-9{fill:#fa4000;}.cls-10{fill:#e2e1e0;}.cls-11{opacity:0.5;}.cls-12{fill:#0061fa;opacity:0.06;}.cls-13{fill:#fdd7ad;}.cls-14{fill:#494949;}.cls-15{fill:#020202;opacity:0.2;}.cls-16{fill:#0068e3;}.cls-17{fill:#d1d3d3;}</style></defs><title>deal</title><path class="cls-1" d="M106.69,266.3l74.68,37.12s55.1-17.83,63.68-15c.83.27,2.24.82,4.08,1.6h0c17.12,7.21,72.54,33.68,72.54,33.68l-15.8-1c6.43,8.26,15.38,19.06,20.46,22.21,8.56,5.3-11.83,20.39-28.95,9.38s-21.6-24.46-21.6-24.46l-8.47.87,59.38,54.53,9.44,11.31c8.16,9.79-2,23.92-15.31,19.61.22.16-.54-.06-.34.48.76,2.05,2.31,7,.92,9.39-4.88,8.46-12.23,15-27.8,3.11,3.77,2.87,6.08,9.63,3.46,13.56-3.56,5.35-7.48,7.77-11.78,9.08-4.52,1.38-11.35-3-15.11-5.82,3.77,2.87,5.56,9.68,3.05,13.69-3.09,4.93-12.92,12.18-19.14,7.44l-19.57-14.91s-47.64-46.13-62.36-58.4-34.73-37.27-34.73-37.27l-88-48.82L106.7,266.3Z" transform="translate(-32.74 -118.65)"/><path class="cls-2" d="M32.74,325.54l64.42,43,68.08-89.38L83.3,201.87A223,223,0,0,0,32.74,325.54Z" transform="translate(-32.74 -118.65)"/><path class="cls-3" d="M163.42,281.59l-57.37,75.32,11,8.38L174.42,290Z" transform="translate(-32.74 -118.65)"/><path class="cls-4" d="M405.3,266.3l-74.67,37.12c-6,3-27.42-11.09-45.07-13.23-12.77-1.55-28.21,3.41-27.29,3.88l40,18.49s19.5,27,28.06,32.3-11.82,20.39-28.94,9.38-21.61-24.47-21.61-24.47l-35.39,3.65-68.24,60.3c-9.45,8.35-6.56,12.71-.2,20.85,2.9,3.73,13.57,2.47,18.05.76-10.34,7.86,4.56,28.11,19.17,17-8.83,6.73,3.84,30.47,21.53,17-8.82,11.89,9.16,20.55,16.73,18.4l5.48-1.56-1.4-1.07c-.46,0-14.78-14.69-15.65-16.47-4.9-10.06,8-23.69,19.59-13.95l10,7.66L259.65,435c-7.37-9.66-1.7-19.62,5.36-22.64,5.17-2.21,10.52.24,14.88,4.54l11,8.82-9.38-10.95s-9-10.17-.74-19.24,19.45,1.81,19.45,1.81L313.4,408.2l-11.34-13.13s-9.82-10.32-3.21-17.22c9.18-9.59,20.54-.15,29.5,9.3,2.58,2.72,5.23,6.89,7.24,8.82a145,145,0,0,0,16.56-23.21l110.41-65.14L405.31,266.3Z" transform="translate(-32.74 -118.65)"/><path class="cls-5" d="M479.25,325.54l-64.41,43-68.08-89.38,81.94-77.34a223.11,223.11,0,0,1,50.56,123.67Z" transform="translate(-32.74 -118.65)"/><path class="cls-3" d="M348.57,281.59,406,356.91l-11,8.38L337.57,290Z" transform="translate(-32.74 -118.65)"/><path class="cls-6" d="M90.89,344.8a4.08,4.08,0,1,1-4.08,4.08A4.08,4.08,0,0,1,90.89,344.8Zm-12.13-7.6a4.08,4.08,0,1,1-4.08,4.08A4.08,4.08,0,0,1,78.76,337.2Z" transform="translate(-32.74 -118.65)"/><path class="cls-3" d="M423.57,347a4.08,4.08,0,1,0,4.08,4.08A4.08,4.08,0,0,0,423.57,347Zm12.14-7.61a4.08,4.08,0,1,0,4.08,4.08A4.08,4.08,0,0,0,435.71,339.41Z" transform="translate(-32.74 -118.65)"/><g id="Web"><path class="cls-6" d="M332.66,240.81a6.16,6.16,0,0,1-5.88,6.41H185.21a6.16,6.16,0,0,1-5.87-6.41V127.06a6.16,6.16,0,0,1,5.87-6.41H326.78a6.16,6.16,0,0,1,5.88,6.41Z" transform="translate(-32.74 -118.65)"/><path class="cls-7" d="M326.78,120.65H185.21a6.16,6.16,0,0,0-5.87,6.41v24.83H332.66V127.06A6.16,6.16,0,0,0,326.78,120.65Z" transform="translate(-32.74 -118.65)"/><path class="cls-5" d="M308.33,126.35a3,3,0,1,1-2.94-3.21A3.07,3.07,0,0,1,308.33,126.35Z" transform="translate(-32.74 -118.65)"/><path class="cls-8" d="M318.05,126.35a3,3,0,1,1-2.94-3.21A3.08,3.08,0,0,1,318.05,126.35Z" transform="translate(-32.74 -118.65)"/><path class="cls-9" d="M328.17,126.35a3,3,0,1,1-2.94-3.21A3.07,3.07,0,0,1,328.17,126.35Z" transform="translate(-32.74 -118.65)"/><path class="cls-10" d="M294.45,131.31a4.77,4.77,0,0,1-4.55,5H200.3a4.76,4.76,0,0,1-4.55-5h0a4.76,4.76,0,0,1,4.55-5h89.6a4.77,4.77,0,0,1,4.55,5Z" transform="translate(-32.74 -118.65)"/><rect class="cls-2" x="154.18" y="39.12" width="91.44" height="50.56"/><rect class="cls-11" x="154.18" y="98.93" width="138.31" height="9.26"/><rect class="cls-11" x="154.1" y="112.46" width="138.3" height="9.26"/><path class="cls-12" d="M326.87,120.65H256.16V247.22h70.71a6.16,6.16,0,0,0,5.87-6.41V127.06A6.16,6.16,0,0,0,326.87,120.65Z" transform="translate(-32.74 -118.65)"/></g><path class="cls-8" d="M155.15,126.68l-46.53,46.91a4.07,4.07,0,0,0,0,5.74l32.86,32.86a4,4,0,0,0,5.74,0l45.31-46.53v-39Zm21.32,22.48a6.43,6.43,0,1,1,6.43-6.43A6.43,6.43,0,0,1,176.47,149.16Z" transform="translate(-32.74 -118.65)"/><path class="cls-8" d="M176.47,129.89a12.85,12.85,0,1,0,12.85,12.84A12.84,12.84,0,0,0,176.47,129.89Zm0,19.27a6.43,6.43,0,1,1,6.43-6.43A6.43,6.43,0,0,1,176.47,149.16Z" transform="translate(-32.74 -118.65)"/><path class="cls-13" d="M176.47,144.34a1.61,1.61,0,0,1-1.13-2.74l22.48-22.48a1.61,1.61,0,0,1,2.27,2.27l-22.48,22.48A1.62,1.62,0,0,1,176.47,144.34Z" transform="translate(-32.74 -118.65)"/><path class="cls-3" d="M142.84,189.94a12,12,0,0,1-8.46-20.43,1.62,1.62,0,0,1,2.27,0,1.6,1.6,0,0,1,0,2.27,8.76,8.76,0,0,0,6.92,14.92,4.73,4.73,0,0,0,3.31-1.78A5.27,5.27,0,0,0,148,181l-2.13-17a8.42,8.42,0,0,1,1.81-6.35,8,8,0,0,1,5.54-3A12,12,0,0,1,162.69,175a1.61,1.61,0,0,1-2.27-2.27,8.75,8.75,0,0,0-6.92-14.91,4.76,4.76,0,0,0-3.32,1.77,5.3,5.3,0,0,0-1.12,3.93l2.13,17a8.5,8.5,0,0,1-1.81,6.35,8,8,0,0,1-5.54,2.95A8.48,8.48,0,0,1,142.84,189.94Z" transform="translate(-32.74 -118.65)"/><path class="cls-3" d="M133.17,189.25a1.61,1.61,0,0,1-1.13-2.74l30.21-30.22a1.61,1.61,0,0,1,2.27,2.27l-30.21,30.22A1.62,1.62,0,0,1,133.17,189.25Z" transform="translate(-32.74 -118.65)"/><g id="Calculator"><g id="Body"><rect class="cls-14" x="266.99" y="70.54" width="51.88" height="62.76" rx="3.84" ry="3.84"/><path class="cls-15" d="M347.76,189.19H303.57a3.84,3.84,0,0,0-3.84,3.84v12.81H351.6V193A3.84,3.84,0,0,0,347.76,189.19Z" transform="translate(-32.74 -118.65)"/></g><g id="Button"><rect class="cls-5" x="271.36" y="75.45" width="43.12" height="8.43"/><path class="cls-5" d="M311.57,210.36a1.71,1.71,0,0,1-1.72,1.72h-2.72a1.72,1.72,0,0,1-1.72-1.72h0a1.72,1.72,0,0,1,1.72-1.72h2.72a1.71,1.71,0,0,1,1.72,1.72Z" transform="translate(-32.74 -118.65)"/><path class="cls-5" d="M319.42,210.48a1.72,1.72,0,0,1-1.72,1.72H315a1.72,1.72,0,0,1-1.72-1.72h0a1.72,1.72,0,0,1,1.72-1.72h2.72a1.72,1.72,0,0,1,1.72,1.72Z" transform="translate(-32.74 -118.65)"/><path class="cls-5" d="M327.47,210.48a1.72,1.72,0,0,1-1.72,1.72H323a1.72,1.72,0,0,1-1.72-1.72h0a1.72,1.72,0,0,1,1.72-1.72h2.73a1.72,1.72,0,0,1,1.72,1.72Z" transform="translate(-32.74 -118.65)"/><path class="cls-5" d="M340.76,219.82a2.82,2.82,0,0,1-2.82,2.82h-4.46a2.82,2.82,0,0,1-2.82-2.82h0a2.82,2.82,0,0,1,2.82-2.82h4.46a2.82,2.82,0,0,1,2.82,2.82Z" transform="translate(-32.74 -118.65)"/><path class="cls-5" d="M340.76,228.76a2.82,2.82,0,0,1-2.82,2.82h-4.46a2.82,2.82,0,0,1-2.82-2.82h0a2.82,2.82,0,0,1,2.82-2.82h4.46a2.82,2.82,0,0,1,2.82,2.82Z" transform="translate(-32.74 -118.65)"/><path class="cls-5" d="M340.76,237.48a2.82,2.82,0,0,1-2.82,2.82h-4.46a2.82,2.82,0,0,1-2.82-2.82h0a2.82,2.82,0,0,1,2.82-2.82h4.46a2.82,2.82,0,0,1,2.82,2.82Z" transform="translate(-32.74 -118.65)"/><path class="cls-5" d="M340.76,246.2a2.83,2.83,0,0,1-2.82,2.83h-4.46a2.83,2.83,0,0,1-2.82-2.83h0a2.82,2.82,0,0,1,2.82-2.82h4.46a2.82,2.82,0,0,1,2.82,2.82Z" transform="translate(-32.74 -118.65)"/><path class="cls-5" d="M335.39,210.36a1.72,1.72,0,0,1-1.72,1.72H331a1.72,1.72,0,0,1-1.72-1.72h0a1.72,1.72,0,0,1,1.72-1.72h2.72a1.72,1.72,0,0,1,1.72,1.72Z" transform="translate(-32.74 -118.65)"/><path class="cls-8" d="M348.28,219.82a1.72,1.72,0,0,1-1.72,1.72h-2.72a1.72,1.72,0,0,1-1.72-1.72h0a1.72,1.72,0,0,1,1.72-1.72h2.72a1.72,1.72,0,0,1,1.72,1.72Z" transform="translate(-32.74 -118.65)"/><path class="cls-8" d="M348,228.89a1.73,1.73,0,0,1-1.72,1.73h-2.72a1.73,1.73,0,0,1-1.72-1.73h0a1.72,1.72,0,0,1,1.72-1.72h2.72a1.72,1.72,0,0,1,1.72,1.72Z" transform="translate(-32.74 -118.65)"/><path class="cls-8" d="M348.28,237.48a1.72,1.72,0,0,1-1.72,1.72h-2.72a1.72,1.72,0,0,1-1.72-1.72h0a1.72,1.72,0,0,1,1.72-1.72h2.72a1.72,1.72,0,0,1,1.72,1.72Z" transform="translate(-32.74 -118.65)"/><path class="cls-9" d="M348.28,246.2a1.71,1.71,0,0,1-1.72,1.72h-2.72a1.71,1.71,0,0,1-1.72-1.72h0a1.72,1.72,0,0,1,1.72-1.72h2.72a1.72,1.72,0,0,1,1.72,1.72Z" transform="translate(-32.74 -118.65)"/><path class="cls-16" d="M340.44,209.56a.92.92,0,0,1-.92.92h-1.45a.92.92,0,0,1-.92-.92h0a.92.92,0,0,1,.92-.92h1.45a.92.92,0,0,1,.92.92Z" transform="translate(-32.74 -118.65)"/><path class="cls-9" d="M344.92,209.56a.92.92,0,0,1-.91.92h-1.46a.92.92,0,0,1-.92-.92h0a.92.92,0,0,1,.92-.92H344a.92.92,0,0,1,.91.92Z" transform="translate(-32.74 -118.65)"/><path class="cls-8" d="M349.21,209.56a.92.92,0,0,1-.92.92h-1.46a.92.92,0,0,1-.92-.92h0a.92.92,0,0,1,.92-.92h1.46a.92.92,0,0,1,.92.92Z" transform="translate(-32.74 -118.65)"/><path class="cls-17" d="M310,219.82a2.67,2.67,0,1,1-2.67-2.67A2.67,2.67,0,0,1,310,219.82Z" transform="translate(-32.74 -118.65)"/><path class="cls-17" d="M310,228.89a2.67,2.67,0,1,1-2.67-2.66A2.67,2.67,0,0,1,310,228.89Z" transform="translate(-32.74 -118.65)"/><path class="cls-17" d="M310,237.48a2.67,2.67,0,1,1-2.67-2.67A2.68,2.68,0,0,1,310,237.48Z" transform="translate(-32.74 -118.65)"/><path class="cls-17" d="M310,246.34a2.67,2.67,0,1,1-2.67-2.67A2.68,2.68,0,0,1,310,246.34Z" transform="translate(-32.74 -118.65)"/><path class="cls-17" d="M318.69,228.89a2.67,2.67,0,1,1-2.67-2.66A2.67,2.67,0,0,1,318.69,228.89Z" transform="translate(-32.74 -118.65)"/><path class="cls-17" d="M318.69,237.48a2.67,2.67,0,1,1-2.67-2.67A2.68,2.68,0,0,1,318.69,237.48Z" transform="translate(-32.74 -118.65)"/><path class="cls-17" d="M318.69,246.34a2.67,2.67,0,1,1-2.67-2.67A2.68,2.68,0,0,1,318.69,246.34Z" transform="translate(-32.74 -118.65)"/><path class="cls-17" d="M327.47,228.76a2.67,2.67,0,1,1-2.67-2.67A2.68,2.68,0,0,1,327.47,228.76Z" transform="translate(-32.74 -118.65)"/><path class="cls-17" d="M327.47,237.35a2.67,2.67,0,1,1-2.67-2.67A2.67,2.67,0,0,1,327.47,237.35Z" transform="translate(-32.74 -118.65)"/><circle class="cls-17" cx="324.8" cy="246.2" r="2.67" transform="translate(38.54 446.68) rotate(-88.7)"/><path class="cls-17" d="M318.69,219.82a2.67,2.67,0,1,1-2.67-2.67A2.67,2.67,0,0,1,318.69,219.82Z" transform="translate(-32.74 -118.65)"/><circle class="cls-17" cx="324.8" cy="219.82" r="2.67" transform="translate(-38.13 -110.47) rotate(-1.43)"/></g></g></svg>