<svg xmlns="http://www.w3.org/2000/svg" xmlns:xlink="http://www.w3.org/1999/xlink" viewBox="0 0 561.13 278.26"><defs><style>.cls-1{fill:url(#linear-gradient);}.cls-2{fill:none;}.cls-3{isolation:isolate;}.cls-4{fill:#d9d9da;}.cls-5{fill:#848484;}.cls-19,.cls-5,.cls-7{mix-blend-mode:multiply;}.cls-6{fill:#ff4c3b;}.cls-7{fill:#b7b7b7;}.cls-8{fill:#f9d6b7;}.cls-9{fill:#231f20;}.cls-10{fill:#cececf;}.cls-11{fill:#3a3436;}.cls-12{fill:#fff;}.cls-13{fill:#ffd034;}.cls-14{fill:#ebebf5;}.cls-15{mask:url(#mask);}.cls-16{clip-path:url(#clip-path);}.cls-17{opacity:0.5;}.cls-18{fill:#0072bb;}.cls-19{fill:#dbdbdb;}.cls-20{fill:#cccbe7;}.cls-21{fill:#bababe;}.cls-22{fill:#e8e8e8;}</style><linearGradient id="linear-gradient" x1="203.32" y1="142.28" x2="203.32" y2="276.22" gradientUnits="userSpaceOnUse"><stop offset="0" stop-color="#fff"/><stop offset="1"/></linearGradient><mask id="mask" x="50.03" y="16.99" width="303.09" height="142.81" maskUnits="userSpaceOnUse"><g transform="translate(0 -121.74)"><g id="_Groep_" data-name="&lt;Groep&gt;"><rect id="_Rechthoek_" data-name="&lt;Rechthoek&gt;" class="cls-1" x="75.7" y="138.72" width="255.24" height="138.05"/></g></g></mask><clipPath id="clip-path" transform="translate(0 -121.74)"><rect id="_Rechthoek_2" data-name="&lt;Rechthoek&gt;" class="cls-2" x="75.7" y="138.72" width="255.24" height="138.05"/></clipPath></defs><title>hero</title><g class="cls-3"><g id="Layer_1" data-name="Layer 1"><polygon id="_Pad_" data-name="&lt;Pad&gt;" class="cls-4" points="561.13 204.76 0 204.76 0 160.37 505.85 160.37 561.13 204.76"/><ellipse id="_Pad_2" data-name="&lt;Pad&gt;" class="cls-5" cx="203.59" cy="192" rx="156.25" ry="2.96"/><ellipse id="_Pad_3" data-name="&lt;Pad&gt;" class="cls-5" cx="421.5" cy="192" rx="29.05" ry="1.8"/><g id="_Groep_2" data-name="&lt;Groep&gt;"><rect id="_Rechthoek_3" data-name="&lt;Rechthoek&gt;" class="cls-6" x="421.04" y="215.77" width="7" height="57.42" transform="translate(47.64 -190.23) rotate(9.77)"/><rect id="_Rechthoek_4" data-name="&lt;Rechthoek&gt;" class="cls-7" x="424.51" y="216.06" width="3.5" height="57.42" transform="translate(47.72 -190.52) rotate(9.77)"/><polygon id="_Pad_4" data-name="&lt;Pad&gt;" class="cls-8" points="416.22 150.44 418.16 159.81 423.12 151.63 423.51 149.33 421.84 151.41 420.06 148.74 417.72 150.7 416.61 148.15 416.22 150.44"/><path id="_Pad_5" data-name="&lt;Pad&gt;" class="cls-9" d="M418.16,281.54l2.1-3.47-1.46-.27-1.46-.23Z" transform="translate(0 -121.74)"/></g><g id="_Groep_3" data-name="&lt;Groep&gt;"><circle id="_Pad_6" data-name="&lt;Pad&gt;" class="cls-10" cx="417.95" cy="172.88" r="0.67"/><rect id="_Rechthoek_5" data-name="&lt;Rechthoek&gt;" class="cls-9" x="414.45" y="93.29" width="7" height="70.38"/><path id="_Rechthoek_6" data-name="&lt;Rechthoek&gt;" class="cls-9" d="M416,86h3.92a2.37,2.37,0,0,1,2.37,2.37V121a0,0,0,0,1,0,0h-8.67a0,0,0,0,1,0,0V88.38A2.37,2.37,0,0,1,416,86Z"/><rect id="_Rechthoek_7" data-name="&lt;Rechthoek&gt;" class="cls-7" x="414.45" y="121.01" width="7" height="0.99"/><path id="_Pad_7" data-name="&lt;Pad&gt;" class="cls-9" d="M422.28,212.66v1h1.26v23.62a.86.86,0,0,0-.68.84v3.13a.88.88,0,0,0,.88.88h.8V212.66Z" transform="translate(0 -121.74)"/><rect id="_Rechthoek_8" data-name="&lt;Rechthoek&gt;" class="cls-11" x="414.45" y="163.68" width="7" height="2.75"/><polygon id="_Pad_8" data-name="&lt;Pad&gt;" class="cls-9" points="418.64 172.88 421.45 166.42 414.45 166.42 417.26 172.88 418.64 172.88"/></g><g id="_Groep_4" data-name="&lt;Groep&gt;"><circle id="_Pad_9" data-name="&lt;Pad&gt;" class="cls-12" cx="455.39" cy="90.34" r="0.67"/><rect id="_Rechthoek_9" data-name="&lt;Rechthoek&gt;" class="cls-6" x="435.86" y="218.28" width="7" height="70.38" transform="translate(757.55 526.76) rotate(-158.83)"/><path id="_Rechthoek_10" data-name="&lt;Rechthoek&gt;" class="cls-6" d="M428.38,259.26h3.92a2.37,2.37,0,0,1,2.37,2.37v32.63a0,0,0,0,1,0,0H426a0,0,0,0,1,0,0V261.63a2.37,2.37,0,0,1,2.37-2.37Z" transform="translate(731.71 568.51) rotate(-158.83)"/><rect id="_Rechthoek_11" data-name="&lt;Rechthoek&gt;" class="cls-7" x="433.34" y="259.49" width="7" height="0.99" transform="translate(750.32 538.43) rotate(-158.83)"/><path id="_Pad_10" data-name="&lt;Pad&gt;" class="cls-6" d="M421.76,286.93l.36-.93-1.17-.45,8.52-22a.87.87,0,0,0,.94-.53l1.13-2.93a.87.87,0,0,0-.5-1.13l-.75-.29-.53,1.37-1.23,3.19-8.88,22.92Z" transform="translate(0 -121.74)"/><rect id="_Rechthoek_12" data-name="&lt;Rechthoek&gt;" class="cls-12" x="449.06" y="218" width="7" height="2.75" transform="translate(795.37 465.63) rotate(-158.83)"/><polygon id="_Pad_11" data-name="&lt;Pad&gt;" class="cls-6" points="454.75 90.09 449.79 95.09 456.32 97.62 456.03 90.58 454.75 90.09"/></g><g id="_Groep_5" data-name="&lt;Groep&gt;"><rect id="_Rechthoek_13" data-name="&lt;Rechthoek&gt;" class="cls-13" x="405.15" y="226.91" width="7" height="57.42" transform="translate(-36.82 -50.22) rotate(-9.57)"/><rect id="_Rechthoek_14" data-name="&lt;Rechthoek&gt;" class="cls-7" x="408.63" y="226.62" width="3.5" height="57.42" transform="translate(-36.74 -49.94) rotate(-9.57)"/><polygon id="_Pad_12" data-name="&lt;Pad&gt;" class="cls-8" points="409.98 162.77 414.91 170.97 416.88 161.61 416.49 159.31 415.6 161.82 413.04 159.89 411.48 162.52 409.59 160.47 409.98 162.77"/><path id="_Pad_13" data-name="&lt;Pad&gt;" class="cls-9" d="M414.91,292.7l.83-4-1.46.23-1.46.27Z" transform="translate(0 -121.74)"/></g><g id="_Groep_6" data-name="&lt;Groep&gt;"><rect id="_Rechthoek_15" data-name="&lt;Rechthoek&gt;" class="cls-13" x="431.62" y="231.15" width="7" height="57.42" transform="translate(29.41 -165.61) rotate(5.97)"/><rect id="_Rechthoek_16" data-name="&lt;Rechthoek&gt;" class="cls-7" x="435.11" y="231.33" width="3.5" height="57.42" transform="translate(29.44 -165.79) rotate(5.97)"/><polygon id="_Pad_14" data-name="&lt;Pad&gt;" class="cls-8" points="434.63 109.21 439.04 100.72 441.59 109.94 441.35 112.25 440.31 109.8 437.87 111.89 436.14 109.37 434.38 111.52 434.63 109.21"/><path id="_Pad_15" data-name="&lt;Pad&gt;" class="cls-9" d="M439,222.45l1.09,3.91c-.49,0-1-.08-1.48-.14l-1.47-.17Z" transform="translate(0 -121.74)"/></g><g id="_Groep_7" data-name="&lt;Groep&gt;"><path id="_Pad_16" data-name="&lt;Pad&gt;" class="cls-10" d="M203.32,304.18H44.69c0,3.52,3.92,6.52,9.3,7.12l8.38.94a239.93,239.93,0,0,0,26.86,1.5H317.41a240.06,240.06,0,0,0,26.86-1.5l8.38-.94c5.37-.6,9.29-3.6,9.29-7.12H203.32Z" transform="translate(0 -121.74)"/><path id="_Pad_17" data-name="&lt;Pad&gt;" class="cls-12" d="M63.11,290.7V136.57a14.85,14.85,0,0,1,14.83-14.83H328.69a14.84,14.84,0,0,1,14.83,14.83V290.7Z" transform="translate(0 -121.74)"/><path id="_Rechthoek_17" data-name="&lt;Rechthoek&gt;" class="cls-9" d="M79.41,1.8H327.22a14.5,14.5,0,0,1,14.5,14.5V167.17a0,0,0,0,1,0,0H64.91a0,0,0,0,1,0,0V16.3A14.5,14.5,0,0,1,79.41,1.8Z"/><polygon id="_Pad_18" data-name="&lt;Pad&gt;" class="cls-10" points="341.72 167.16 64.91 167.16 44.69 182.44 361.94 182.44 341.72 167.16"/><rect id="_Rechthoek_18" data-name="&lt;Rechthoek&gt;" class="cls-14" x="75.7" y="16.99" width="255.24" height="138.05"/><g class="cls-15"><g id="_Clipgroep_" data-name="&lt;Clipgroep&gt;"><g class="cls-16"><g id="_Groep_8" data-name="&lt;Groep&gt;" class="cls-17"><polygon id="_Pad_19" data-name="&lt;Pad&gt;" class="cls-18" points="242.19 59.99 203.32 135.26 242.19 135.26 281.05 135.26 242.19 59.99"/><polygon id="_Pad_20" data-name="&lt;Pad&gt;" class="cls-19" points="281.05 135.26 242.19 59.99 250.37 101.47 242.19 103.78 242.19 135.26 281.05 135.26"/><polygon id="_Pad_21" data-name="&lt;Pad&gt;" class="cls-18" points="276.45 43.56 228.84 135.78 276.45 135.78 324.07 135.78 276.45 43.56"/><polygon id="_Pad_22" data-name="&lt;Pad&gt;" class="cls-19" points="324.07 135.78 276.45 43.56 286.49 94.39 276.45 97.22 276.45 135.78 324.07 135.78"/><polygon id="_Pad_23" data-name="&lt;Pad&gt;" class="cls-18" points="320.39 72.39 287.66 135.78 320.39 135.78 353.12 135.78 320.39 72.39"/><polygon id="_Pad_24" data-name="&lt;Pad&gt;" class="cls-19" points="353.12 135.78 320.39 72.39 327.28 107.33 320.39 109.27 320.39 135.78 353.12 135.78"/></g><g id="_Groep_9" data-name="&lt;Groep&gt;" class="cls-17"><polygon id="_Pad_25" data-name="&lt;Pad&gt;" class="cls-18" points="91.6 63.08 52.73 138.35 91.6 138.35 130.47 138.35 91.6 63.08"/><polygon id="_Pad_26" data-name="&lt;Pad&gt;" class="cls-19" points="130.47 138.35 91.6 63.08 99.78 104.57 91.6 106.88 91.6 138.35 130.47 138.35"/><polygon id="_Pad_27" data-name="&lt;Pad&gt;" class="cls-18" points="155.27 49.15 107.65 120.39 155.27 120.39 202.89 120.39 155.27 49.15"/><polygon id="_Pad_28" data-name="&lt;Pad&gt;" class="cls-19" points="202.89 120.39 155.27 49.15 165.3 88.42 155.27 90.61 155.27 120.39 202.89 120.39"/><polygon id="_Pad_29" data-name="&lt;Pad&gt;" class="cls-20" points="185.02 72.39 152.29 135.78 185.02 135.78 217.75 135.78 185.02 72.39"/><polygon id="_Pad_30" data-name="&lt;Pad&gt;" class="cls-19" points="217.75 135.78 185.02 72.39 191.91 107.33 185.02 109.27 185.02 135.78 217.75 135.78"/></g><g id="_Groep_10" data-name="&lt;Groep&gt;"><polygon id="_Pad_31" data-name="&lt;Pad&gt;" class="cls-18" points="122.51 62.2 50.03 159.79 122.51 159.79 194.99 159.79 122.51 62.2"/><polygon id="_Pad_32" data-name="&lt;Pad&gt;" class="cls-19" points="194.99 159.79 122.51 62.2 137.78 115.99 122.51 118.99 122.51 159.79 194.99 159.79"/><polygon id="_Pad_33" data-name="&lt;Pad&gt;" class="cls-18" points="206.83 40.23 118.03 159.79 206.83 159.79 295.63 159.79 206.83 40.23"/><polygon id="_Pad_34" data-name="&lt;Pad&gt;" class="cls-19" points="295.63 159.79 206.83 40.23 225.54 106.13 206.83 109.8 206.83 159.79 295.63 159.79"/><polygon id="_Pad_35" data-name="&lt;Pad&gt;" class="cls-18" points="288.76 77.61 227.72 159.79 288.76 159.79 349.8 159.79 288.76 77.61"/><polygon id="_Pad_36" data-name="&lt;Pad&gt;" class="cls-19" points="349.8 159.79 288.76 77.61 301.62 122.91 288.76 125.43 288.76 159.79 349.8 159.79"/></g></g></g></g><path id="_Pad_37" data-name="&lt;Pad&gt;" class="cls-7" d="M203.32,304.18H44.69c0,3.52,3.92,6.52,9.3,7.12l8.38.94a239.93,239.93,0,0,0,26.86,1.5H317.41a240.06,240.06,0,0,0,26.86-1.5l8.38-.94c5.37-.6,9.29-3.6,9.29-7.12H203.32Z" transform="translate(0 -121.74)"/><path id="_Pad_38" data-name="&lt;Pad&gt;" class="cls-12" d="M46.88,308.46H359.76a5.74,5.74,0,0,0,2.18-4.28H44.69A5.75,5.75,0,0,0,46.88,308.46Z" transform="translate(0 -121.74)"/><g id="_Groep_11" data-name="&lt;Groep&gt;"><polygon id="_Pad_39" data-name="&lt;Pad&gt;" class="cls-9" points="133.7 174.35 144.5 174.35 146.6 169.86 136.22 169.86 133.7 174.35"/><polygon id="_Pad_40" data-name="&lt;Pad&gt;" class="cls-9" points="121.91 174.35 132.67 174.35 135.19 169.86 124.85 169.86 121.91 174.35"/><polygon id="_Pad_41" data-name="&lt;Pad&gt;" class="cls-9" points="192.2 169.86 181.72 169.86 180.88 174.35 191.78 174.35 192.2 169.86"/><polygon id="_Pad_42" data-name="&lt;Pad&gt;" class="cls-9" points="145.49 174.35 156.32 174.35 158 169.86 147.59 169.86 145.49 174.35"/><polygon id="_Pad_43" data-name="&lt;Pad&gt;" class="cls-9" points="157.28 174.35 168.15 174.35 169.41 169.86 158.96 169.86 157.28 174.35"/><polygon id="_Pad_44" data-name="&lt;Pad&gt;" class="cls-9" points="180.81 169.86 170.34 169.86 169.08 174.35 179.97 174.35 180.81 169.86"/><polygon id="_Pad_45" data-name="&lt;Pad&gt;" class="cls-9" points="98.34 174.35 109 174.35 112.36 169.86 102.12 169.86 98.34 174.35"/><polygon id="_Pad_46" data-name="&lt;Pad&gt;" class="cls-9" points="74.78 174.35 85.33 174.35 89.53 169.86 79.4 169.86 74.78 174.35"/><polygon id="_Pad_47" data-name="&lt;Pad&gt;" class="cls-9" points="110.13 174.35 120.84 174.35 123.78 169.86 113.49 169.86 110.13 174.35"/><polygon id="_Pad_48" data-name="&lt;Pad&gt;" class="cls-9" points="69.23 179.75 80.28 179.75 84.49 175.25 73.85 175.25 69.23 179.75"/><polygon id="_Pad_49" data-name="&lt;Pad&gt;" class="cls-9" points="192.69 174.35 203.59 174.35 203.59 169.86 193.1 169.86 192.69 174.35"/><polygon id="_Pad_50" data-name="&lt;Pad&gt;" class="cls-9" points="86.56 174.35 97.17 174.35 100.95 169.86 90.76 169.86 86.56 174.35"/><polygon id="_Pad_51" data-name="&lt;Pad&gt;" class="cls-9" points="251.61 174.35 262.44 174.35 260.34 169.86 249.93 169.86 251.61 174.35"/><polygon id="_Pad_52" data-name="&lt;Pad&gt;" class="cls-9" points="287.1 174.35 297.81 174.35 294.45 169.86 284.15 169.86 287.1 174.35"/><polygon id="_Pad_53" data-name="&lt;Pad&gt;" class="cls-9" points="298.93 174.35 309.59 174.35 305.81 169.86 295.57 169.86 298.93 174.35"/><polygon id="_Pad_54" data-name="&lt;Pad&gt;" class="cls-9" points="310.77 174.35 321.37 174.35 317.17 169.86 306.98 169.86 310.77 174.35"/><polygon id="_Pad_55" data-name="&lt;Pad&gt;" class="cls-9" points="275.26 174.35 286.02 174.35 283.08 169.86 272.74 169.86 275.26 174.35"/><polygon id="_Pad_56" data-name="&lt;Pad&gt;" class="cls-9" points="333.15 174.35 328.53 169.86 318.4 169.86 322.61 174.35 333.15 174.35"/><polygon id="_Pad_57" data-name="&lt;Pad&gt;" class="cls-9" points="216.15 174.35 227.05 174.35 226.21 169.86 215.73 169.86 216.15 174.35"/><polygon id="_Pad_58" data-name="&lt;Pad&gt;" class="cls-9" points="227.97 174.35 238.85 174.35 237.59 169.86 227.13 169.86 227.97 174.35"/><polygon id="_Pad_59" data-name="&lt;Pad&gt;" class="cls-9" points="204.49 174.35 215.25 174.35 214.83 169.86 204.49 169.86 204.49 174.35"/><polygon id="_Pad_60" data-name="&lt;Pad&gt;" class="cls-9" points="239.79 174.35 250.65 174.35 248.97 169.86 238.53 169.86 239.79 174.35"/><polygon id="_Pad_61" data-name="&lt;Pad&gt;" class="cls-9" points="263.44 174.35 274.23 174.35 271.71 169.86 261.33 169.86 263.44 174.35"/><polygon id="_Pad_62" data-name="&lt;Pad&gt;" class="cls-9" points="96.41 175.25 85.72 175.25 81.52 179.75 92.63 179.75 96.41 175.25"/><polygon id="_Pad_63" data-name="&lt;Pad&gt;" class="cls-9" points="322.21 175.25 311.52 175.25 315.31 179.75 326.42 179.75 322.21 175.25"/><polygon id="_Pad_64" data-name="&lt;Pad&gt;" class="cls-9" points="286.61 175.25 275.77 175.25 278.29 179.75 289.55 179.75 286.61 175.25"/><polygon id="_Pad_65" data-name="&lt;Pad&gt;" class="cls-9" points="298.48 175.25 287.68 175.25 290.63 179.75 301.84 179.75 298.48 175.25"/><polygon id="_Pad_66" data-name="&lt;Pad&gt;" class="cls-9" points="274.74 175.25 263.86 175.25 265.96 179.75 277.26 179.75 274.74 175.25"/><polygon id="_Pad_67" data-name="&lt;Pad&gt;" class="cls-9" points="262.86 175.25 251.95 175.25 253.63 179.75 264.96 179.75 262.86 175.25"/><polygon id="_Pad_68" data-name="&lt;Pad&gt;" class="cls-9" points="310.35 175.25 299.6 175.25 302.96 179.75 314.13 179.75 310.35 175.25"/><polygon id="_Pad_69" data-name="&lt;Pad&gt;" class="cls-9" points="347.89 175.2 347.89 175.25 335.37 175.25 339.99 179.75 353.9 179.75 347.89 175.2"/><polygon id="_Pad_70" data-name="&lt;Pad&gt;" class="cls-9" points="73.49 174.35 78.11 169.86 65.81 169.86 59.87 174.35 73.49 174.35"/><polygon id="_Pad_71" data-name="&lt;Pad&gt;" class="cls-9" points="72.56 175.25 58.68 175.25 52.73 179.75 67.94 179.75 72.56 175.25"/><polygon id="_Pad_72" data-name="&lt;Pad&gt;" class="cls-9" points="250.99 175.25 240.04 175.25 241.3 179.75 252.66 179.75 250.99 175.25"/><polygon id="_Pad_73" data-name="&lt;Pad&gt;" class="cls-9" points="334.08 175.25 323.44 175.25 327.65 179.75 338.7 179.75 334.08 175.25"/><polygon id="_Pad_74" data-name="&lt;Pad&gt;" class="cls-9" points="334.44 174.35 346.77 174.35 340.82 169.86 329.82 169.86 334.44 174.35"/><polygon id="_Pad_75" data-name="&lt;Pad&gt;" class="cls-9" points="108.33 175.25 97.58 175.25 93.8 179.75 104.97 179.75 108.33 175.25"/><polygon id="_Pad_76" data-name="&lt;Pad&gt;" class="cls-9" points="155.99 175.25 145.07 175.25 142.97 179.75 154.31 179.75 155.99 175.25"/><polygon id="_Pad_77" data-name="&lt;Pad&gt;" class="cls-9" points="144.08 175.25 133.19 175.25 130.67 179.75 141.98 179.75 144.08 175.25"/><polygon id="_Pad_78" data-name="&lt;Pad&gt;" class="cls-9" points="167.9 175.25 156.95 175.25 155.27 179.75 166.64 179.75 167.9 175.25"/><polygon id="_Pad_79" data-name="&lt;Pad&gt;" class="cls-9" points="132.16 175.25 121.32 175.25 118.38 179.75 129.64 179.75 132.16 175.25"/><polygon id="_Pad_80" data-name="&lt;Pad&gt;" class="cls-9" points="120.25 175.25 109.45 175.25 106.09 179.75 117.31 179.75 120.25 175.25"/><polygon id="_Pad_81" data-name="&lt;Pad&gt;" class="cls-9" points="179.8 175.25 168.83 175.25 167.57 179.75 178.96 179.75 179.8 175.25"/><polygon id="_Pad_82" data-name="&lt;Pad&gt;" class="cls-9" points="227.22 175.25 216.23 175.25 216.65 179.75 228.06 179.75 227.22 175.25"/><polygon id="_Pad_83" data-name="&lt;Pad&gt;" class="cls-9" points="215.33 175.25 204.49 175.25 204.5 179.75 215.75 179.75 215.33 175.25"/><polygon id="_Pad_84" data-name="&lt;Pad&gt;" class="cls-9" points="191.7 175.25 180.71 175.25 179.87 179.75 191.28 179.75 191.7 175.25"/><polygon id="_Pad_85" data-name="&lt;Pad&gt;" class="cls-9" points="239.1 175.25 228.13 175.25 228.97 179.75 240.36 179.75 239.1 175.25"/><polygon id="_Pad_86" data-name="&lt;Pad&gt;" class="cls-9" points="203.59 175.25 192.6 175.25 192.18 179.75 203.6 179.75 203.59 175.25"/></g></g><rect id="_Rechthoek_19" data-name="&lt;Rechthoek&gt;" class="cls-21" y="204.76" width="561.13" height="19"/><rect id="_Rechthoek_20" data-name="&lt;Rechthoek&gt;" class="cls-21" y="223.76" width="491.5" height="54.5"/><rect id="_Rechthoek_21" data-name="&lt;Rechthoek&gt;" class="cls-7" y="223.76" width="491.5" height="10.65"/><path id="_Rechthoek_22" data-name="&lt;Rechthoek&gt;" class="cls-22" d="M400,149.93h43a0,0,0,0,1,0,0v32A10.12,10.12,0,0,1,432.88,192H410.12A10.12,10.12,0,0,1,400,181.88v-32A0,0,0,0,1,400,149.93Z"/><rect id="_Rechthoek_23" data-name="&lt;Rechthoek&gt;" class="cls-22" x="397.86" y="143.94" width="47.29" height="5.99" rx="2.61" ry="2.61"/><rect id="_Rechthoek_24" data-name="&lt;Rechthoek&gt;" class="cls-7" x="400" y="149.93" width="43" height="2.45"/></g></g></svg>