<svg id="Laag_1" data-name="Laag 1" xmlns="http://www.w3.org/2000/svg" viewBox="0 0 34.4 45.2"><defs><style>.cls-1{fill:#e9e9e0;}.cls-2{fill:#d9d7ca;}.cls-3{fill:#9777a8;}.cls-4,.cls-5{fill:#fff;}.cls-5{font-size:12.3px;font-family:MyriadPro-Regular, Myriad Pro;}</style></defs><title>jar</title><path class="cls-1" d="M966.39,518H943.17c-.65,0-1.17.52-1.17,1.54V562c0,.28.52.8,1.17.8h32.06c.65,0,1.17-.52,1.17-.8V528.38c0-.56-.08-.73-.21-.86l-9.3-9.31a.7.7,0,0,0-.5-.21Zm0,0" transform="translate(-942 -518)"/><path class="cls-2" d="M966.8,518.12v9.48h9.48Zm0,0" transform="translate(-942 -518)"/><path class="cls-3" d="M975.23,562.8H943.17a1.17,1.17,0,0,1-1.17-1.17V549.2h34.4v12.43a1.17,1.17,0,0,1-1.17,1.17Zm0,0" transform="translate(-942 -518)"/><path class="cls-4" d="M954,551.86v6.28a2,2,0,0,1-.21,1,1.75,1.75,0,0,1-.56.62,2.12,2.12,0,0,1-.8.33,4.83,4.83,0,0,1-.94.09,4.76,4.76,0,0,1-1.23-.2c-.22-.07-.45-.15-.66-.24a2,2,0,0,1-.53-.29l.56-.89a1.25,1.25,0,0,0,.31.16,3.76,3.76,0,0,0,.44.15l.5.13a3,3,0,0,0,.5,0,1.67,1.67,0,0,0,.92-.22.88.88,0,0,0,.36-.76v-6.17Zm0,0" transform="translate(-942 -518)"/><path class="cls-3" d="M952.4,533.2V530a.8.8,0,0,1,.8-.8.8.8,0,0,0,0-1.6,2.41,2.41,0,0,0-2.4,2.4v3.2a1.6,1.6,0,0,1-1.6,1.6.8.8,0,1,0,0,1.6,1.6,1.6,0,0,1,1.6,1.6v3.2a2.41,2.41,0,0,0,2.4,2.4.8.8,0,0,0,0-1.6.8.8,0,0,1-.8-.8V538a3.15,3.15,0,0,1,0-4.8Zm0,0" transform="translate(-942 -518)"/><path class="cls-3" d="M960,532.8a1.2,1.2,0,1,1-1.2-1.2,1.2,1.2,0,0,1,1.2,1.2Zm0,0" transform="translate(-942 -518)"/><path class="cls-3" d="M968.4,534.8a1.6,1.6,0,0,1-1.6-1.6V530a2.41,2.41,0,0,0-2.4-2.4.8.8,0,0,0,0,1.6.8.8,0,0,1,.8.8v3.2a3.17,3.17,0,0,1,0,4.8v3.2a.8.8,0,0,1-.8.8.8.8,0,0,0,0,1.6,2.41,2.41,0,0,0,2.4-2.4V538a1.6,1.6,0,0,1,1.6-1.6.8.8,0,1,0,0-1.6Zm0,0" transform="translate(-942 -518)"/><path class="cls-3" d="M958.8,537.2a.8.8,0,0,0-.8.8v2.4a.8.8,0,1,0,1.6,0V538a.8.8,0,0,0-.8-.8Zm0,0" transform="translate(-942 -518)"/><text class="cls-5" transform="translate(13.06 42.13)">AR</text></svg>