<svg xmlns="http://www.w3.org/2000/svg" viewBox="0 0 104.15 104"><defs><style>.cls-1{fill:#fff;}</style></defs><title>Middel 6</title><g id="Laag_2" data-name="Laag 2"><g id="Layer_1" data-name="Layer 1"><path class="cls-1" d="M50.7,33.57c-9.49.82-17.14,8.57-16.67,18.34A18.78,18.78,0,0,0,52.75,69.55C77.28,69.81,74.68,30.68,50.7,33.57Zm2,33A15.71,15.71,0,0,1,37,51.91c-.48-8,5.82-14.66,13.67-15.34C70.79,34.15,73.45,66.5,52.75,66.55Z"/><path class="cls-1" d="M103.9,52.45c-.08-2.53.81-7.62-1.46-9.53s-7.34-1.41-10.59-1.46a78.13,78.13,0,0,0-2.34-7.62c-.4-1-2-2.89-1.73-3.79.45-1.34,4.83-3.34,5.8-4.75a4.3,4.3,0,0,0,.9-3.69c-.61-2.4-3.54-4.25-5.19-5.8s-3.81-4.5-6-5.38c-3.54-1.43-7,3.42-9.37,6.11-2.84-1.66-5.72-2.57-8.7-4-2.12-1-2.51-1-3-3.18-.35-1.73.3-3.72-.13-5.54C60.9-1.45,55.35.15,51.16.49S42.05,0,41.82,5.39c-.07,1.7.81,3.94.2,5.58-.51,1.41-.91,1-2.83,1.75a43.06,43.06,0,0,0-8.36,4.06c-2.06-2.54-4.44-6-7.93-5.87-3.71.18-7.26,4.92-9.6,7.32-4.8,4.93.22,8.31,3.88,12.06A34.22,34.22,0,0,0,11.7,41.86c-3.29-.63-7.9-1.1-10.2,1.19S.23,51.53.46,54.43C.65,57,.55,60.25,3,61.62s6.38.73,9.28.32a52.84,52.84,0,0,0,2.61,7.73c.26.59,1.41,2.2,1.33,2.75,0,.15-.69.64-.94,1.08-1.4,2.45-6.32,4.68-5.11,8.29,1.13,3.38,8.18,9.45,11.55,10.75C25.45,94,28.59,90,31.13,87.38A26.11,26.11,0,0,0,42.79,92.1c-.18,3.32-1.46,7.94.58,10.33,1.53,1.79,5.15,1.4,7.12,1.45,2.63.06,6,.44,8.52-.55a4.55,4.55,0,0,0,3.13-3.65c.41-2-1.34-5.49-.46-7.06.73-1.32,5.12-2.1,6.73-3,2.68-1.42,4.91-4,7.72-1.54s4.28,7.23,8.52,4.66a28.56,28.56,0,0,0,8.43-8.6c2.09-3.46.56-4.8-2.16-7.25s-3.81-2.34-2.18-6.07A89,89,0,0,0,92,61.48c3.19.17,7.89.93,10.37-.66S104,54.89,103.9,52.45ZM99,58.39c-2.18.69-5.83,0-8.11.06a1.38,1.38,0,0,0-1.11.52,1.43,1.43,0,0,0-.33.58c-1.34,4.24-3.27,8.14-4.77,12.23a3.77,3.77,0,0,0,.73,4.31c1.3,1.67,4.46,2.77,5.24,4.71s-3.24,5.56-4.52,6.83c-.67.67-1.85,2.12-2.78,2.37-1.83.49-2.49-.82-3.79-2.33s-2.67-4-4.91-4.24c-1.58-.19-3.29,1-4.6,1.78-3.4,1.89-6.33,3.41-10.21,4.06a1.47,1.47,0,0,0-1,1c-.26,1.92.18,3.69.19,5.61,0,5.09-4.43,5-8.52,4.95-3.65-.09-5-.09-4.88-3.89a55.71,55.71,0,0,0,.18-6.19,1.54,1.54,0,0,0-1.5-1.5A22.83,22.83,0,0,1,32,84.36a1.74,1.74,0,0,0-.59-.3,1.46,1.46,0,0,0-1.54.3c-1.31,1.2-3.77,4.51-5.45,5-2.91.86-5.55-2.54-7.41-4.31-1.49-1.41-4.15-3.14-3.39-5.46.53-1.61,2.94-3.18,4.15-4.34s1.81-1.63,1.39-3.42c-.46-2-1.9-4-2.62-5.93a54.21,54.21,0,0,1-1.75-6,1.48,1.48,0,0,0-1.44-1.1c-1.57.19-3.15.35-4.73.4-2.85.1-4.37.43-5-2.74A25.55,25.55,0,0,1,3.31,49c.16-1.29.27-3.44,1.55-4.25,1.46-.93,6.09,0,7.54.31A1.53,1.53,0,0,0,14.25,44,32.84,32.84,0,0,1,20.4,30.93a1.51,1.51,0,0,0-.23-1.82c-2.16-2.47-7.1-5.25-4.75-8.76.88-1.3,3.65-4.15,5.06-4.81,4.45-2.08,6.21,1,8.68,3.9a1.32,1.32,0,0,0,2,.66,48.37,48.37,0,0,1,10.45-5,6.73,6.73,0,0,0,2.51-1.25c.86-1,.93-2.52,1-3.72s-.55-2.76-.27-4c.59-2.51,3.16-2.44,5.37-2.61,1.42-.12,3.14-.27,4.57-.37a6,6,0,0,1,3.75.67c1.29.73.69,2.13.83,3.82s-.7,3.64.32,5.35c.76,1.27,1.74,1.53,3.08,2a48.27,48.27,0,0,1,10.44,4.58,1.47,1.47,0,0,0,.36.17,1.37,1.37,0,0,0,1.66-.27c1.6-1.59,3.45-4.4,5.44-5.4,2.47-1.24,3.83,1.34,5.79,3.17s5.74,4.05,3.75,7.17c-1,1.53-3.32,2.11-4.57,3.47S84.38,30,85,31.63s1.6,2.94,2.16,4.56c.81,2.34,1.38,4.77,2.16,7.13a1.55,1.55,0,0,0,1.44,1.1c2.33.18,5.21-.05,7.45.57,3.57,1,2.63,4.36,2.73,7.46C101,55,101.73,57.54,99,58.39Z"/><path class="cls-1" d="M45.18,26.1a17.57,17.57,0,0,1,5.57-.86,1.5,1.5,0,0,0,0-3,19.88,19.88,0,0,0-6.36,1C42.56,23.8,43.34,26.7,45.18,26.1Z"/><path class="cls-1" d="M61.88,27a10.47,10.47,0,0,1,4.25,2.19c1.45,1.25,3.58-.86,2.12-2.12a13.87,13.87,0,0,0-5.57-3A1.51,1.51,0,0,0,61.88,27Z"/><path class="cls-1" d="M79.63,40.77a18.91,18.91,0,0,0-2.76-5.19A1.56,1.56,0,0,0,74.81,35a1.5,1.5,0,0,0-.53,2.05,16.67,16.67,0,0,1,2.46,4.47C77.38,43.37,80.28,42.59,79.63,40.77Z"/><path class="cls-1" d="M78.46,53.08a33.86,33.86,0,0,1-.9,5.2c-.47,1.88,2.42,2.68,2.89.8a39.15,39.15,0,0,0,1-6C81.63,51.16,78.63,51.17,78.46,53.08Z"/><path class="cls-1" d="M74.42,67.71a1.52,1.52,0,0,0-2.06.54,7.53,7.53,0,0,1-3.23,3.53c-1.69.94-.18,3.53,1.51,2.59A10.25,10.25,0,0,0,75,69.76,1.55,1.55,0,0,0,74.42,67.71Z"/><path class="cls-1" d="M58.84,77c-1.72.31-3.44.54-5.17.69-1.91.17-1.93,3.17,0,3s4-.44,6-.8S60.73,76.61,58.84,77Z"/><path class="cls-1" d="M42.69,76a15,15,0,0,1-4.87-2.39,1.51,1.51,0,0,0-2,.53,1.54,1.54,0,0,0,.54,2.06,17.06,17.06,0,0,0,5.58,2.69A1.5,1.5,0,0,0,42.69,76Z"/><path class="cls-1" d="M27.61,61.05a1.5,1.5,0,0,0-2.9.79,16.3,16.3,0,0,0,3,5.8,1.51,1.51,0,0,0,2.12,0,1.54,1.54,0,0,0,0-2.12A12.5,12.5,0,0,1,27.61,61.05Z"/><path class="cls-1" d="M26.24,50.1a30.92,30.92,0,0,1,.4-5.44c.32-1.89-2.57-2.7-2.89-.8a35.27,35.27,0,0,0-.51,6.24A1.5,1.5,0,0,0,26.24,50.1Z"/><path class="cls-1" d="M34,28.86A18.51,18.51,0,0,0,29.26,33a1.54,1.54,0,0,0,0,2.12,1.5,1.5,0,0,0,2.12,0,16.36,16.36,0,0,1,4.17-3.7C37.19,30.44,35.69,27.84,34,28.86Z"/></g></g></svg>