<svg xmlns="http://www.w3.org/2000/svg" viewBox="0 0 106.48 95.3"><defs><style>.cls-1{fill:#fff;}</style></defs><title>Middel 2</title><g id="Laag_2" data-name="Laag 2"><g id="Layer_1" data-name="Layer 1"><path class="cls-1" d="M104.61.08c-17.4,6.45-33.74,15.35-50.56,23.1-18,8.27-35.52,17.37-53.33,26-1.09.53-.91,2.56.36,2.74C12.75,53.52,24.21,56,35.69,58.7c.22,11.72-.12,23.43.08,35.14a1.51,1.51,0,0,0,2.79.76c6.08-8.72,12.21-17.44,18.74-25.84,9.06,5.47,18.15,10.92,26.76,17a1.51,1.51,0,0,0,2.2-.9c2.66-14,5.49-27.66,9.44-41.38s7.68-27.6,10.75-41.6C106.67.91,105.75-.34,104.61.08ZM45.92,59.2a1.69,1.69,0,0,0-.72,1.2,17.82,17.82,0,0,0-1.46,4.07c-1.77,7.1-3.05,14.37-5,21.42,0-9.4.16-18.8,0-28.2C56.48,42,74.83,26.75,93.47,12Q76.81,28.43,60.13,44.85L49.83,55A31.27,31.27,0,0,0,45.92,59.2Zm51.24-53C76.75,22.24,56.65,38.85,37.21,56,27,53.6,16.8,51.33,6.45,49.67,22.3,42,38,33.89,54,26.5,68.39,19.84,82.49,12.35,97.16,6.23ZM41.05,85.85c1.71-6.26,2.91-12.68,4.42-19a33.13,33.13,0,0,1,1.3-4.52q4,2.46,8,4.87C50,73.31,45.49,79.55,41.05,85.85ZM92.81,42.73c-3.75,13-6.49,26-9,39.25C72.32,74,60.11,67.1,48.25,59.74c.09-.12.17-.24.27-.35,1.38-1.64,3.14-3.08,4.67-4.58L63.59,44.6Q83,25.52,102.38,6.38C99.56,18.59,96.27,30.68,92.81,42.73Z"/><path class="cls-1" d="M26.92,48.87l10.8-5.95c1.27-.7.13-2.65-1.14-2l-10.79,6C24.52,47.63,25.65,49.58,26.92,48.87Z"/><path class="cls-1" d="M37.15,45.8l-5.08,2.64c-1.28.67-.14,2.61,1.14,1.94l5.08-2.64C39.57,47.07,38.44,45.13,37.15,45.8Z"/></g></g></svg>