<svg id="Laag_1" data-name="Laag 1" xmlns="http://www.w3.org/2000/svg" viewBox="0 0 637.34 629.7"><defs><style>.cls-1{fill:#efefef;}.cls-2{fill:#a5a5a5;}.cls-20,.cls-3{fill:#fff;}.cls-3{opacity:0.3;}.cls-4{fill:#ccc;}.cls-5{fill:#223666;}.cls-6{fill:#e2e2e2;}.cls-7{fill:#ff4c3b;}.cls-8{fill:#ffd034;}.cls-25,.cls-9{fill:#0072bb;}.cls-10{fill:#aec647;}.cls-11{fill:#f3ae1b;}.cls-12{fill:#df3f11;}.cls-13{fill:#bcdede;}.cls-14{fill:#34495e;}.cls-15{fill:#e2e1e0;}.cls-16{fill:#ff614f;}.cls-17{fill:#84e570;}.cls-18{fill:#7d57ff;}.cls-19{fill:#0b2e44;}.cls-20{opacity:0.8;}.cls-21{fill-rule:evenodd;}.cls-21,.cls-25{opacity:0.1;}.cls-22{fill:#ecf0f1;}.cls-23{fill:#c84119;}.cls-24{fill:#6bb5ce;}.cls-26{fill:#ededed;}</style></defs><title>responsive</title><g id="Responsive_Web" data-name="Responsive Web"><g id="Responsive_Web-2" data-name="Responsive Web"><g id="Line"><path class="cls-1" d="M785,412.55l2.77-5.52s-4-2-8.13-3.93c-2-.94-4.12-1.85-5.69-2.52l-1.92-.79-.76-.3-2.21,5.77,2.48,1c1.51.63,3.52,1.52,5.52,2.44C781.08,410.56,785,412.55,785,412.55Z" transform="translate(-477.84 -248.73)"/><path class="cls-1" d="M807.92,425.44l3.27-5.25s-3.81-2.4-7.72-4.65-7.85-4.43-7.85-4.43l-3,5.43s3.88,2.11,7.69,4.34S807.92,425.44,807.92,425.44Z" transform="translate(-477.84 -248.73)"/><path class="cls-1" d="M829.5,440.39l3.77-4.9-2.25-1.7c-1.34-1-3.18-2.35-5-3.68-3.67-2.62-7.42-5.13-7.42-5.13l-3.43,5.14s3.67,2.45,7.26,5c1.77,1.3,3.57,2.58,4.88,3.59Z" transform="translate(-477.84 -248.73)"/><path class="cls-1" d="M849.38,457.48l4.29-4.45-2-2c-1.23-1.16-2.91-2.67-4.58-4.19s-3.4-3-4.7-4.07l-2.17-1.8-3.93,4.76,2.11,1.76c1.27,1.06,2.91,2.52,4.58,4l4.46,4.09Z" transform="translate(-477.84 -248.73)"/><path class="cls-1" d="M867,476.8l4.85-3.84s-.68-.91-1.78-2.2-2.5-3.09-4-4.77-3-3.4-4.17-4.62l-1.94-2.07-4.47,4.27,1.88,2c1.14,1.18,2.59,2.83,4,4.48s2.83,3.35,3.89,4.6S867,476.8,867,476.8Z" transform="translate(-477.84 -248.73)"/><path class="cls-1" d="M881.53,498.41l5.39-3s-2.21-4-4.66-7.8c-1.2-1.94-2.52-3.79-3.45-5.21-.47-.71-.89-1.28-1.18-1.69s-.46-.63-.46-.63l-5,3.6.44.6c.28.39.69.95,1.14,1.63.9,1.37,2.17,3.16,3.32,5C879.41,494.59,881.53,498.41,881.53,498.41Z" transform="translate(-477.84 -248.73)"/><path class="cls-1" d="M892.16,522.09l5.85-2-1-2.68c-.29-.8-.64-1.73-1-2.74s-.84-2-1.26-3.1l-1.29-3.09-1.23-2.64-1.2-2.58L885.5,506s.46,1,1.16,2.47l1.17,2.53c.4.95.81,1.95,1.23,3s.86,2,1.21,3l1,2.62Z" transform="translate(-477.84 -248.73)"/><path class="cls-1" d="M898.09,547.33l6.13-.82s0-.28-.1-.78-.2-1.19-.33-2c-.31-1.68-.57-4-1.1-6.17s-.89-4.48-1.37-6.12l-.73-2.75-6,1.61s.27,1.06.69,2.64.83,3.71,1.31,5.84.75,4.29,1,5.9c.13.81.24,1.48.32,2S898.09,547.33,898.09,547.33Z" transform="translate(-477.84 -248.73)"/><path class="cls-1" d="M899.06,573.26l6.18.34.1-2.85c0-1.7.17-4,.1-6.26s0-4.55-.17-6.26-.18-2.84-.18-2.84l-6.16.43s.07,1.09.17,2.72.1,3.81.16,6,0,4.35-.1,6Z" transform="translate(-477.84 -248.73)"/><path class="cls-1" d="M895.37,599l6,1.36s.26-1.1.64-2.76.73-3.91,1.14-6.14.69-4.5.93-6.18.37-2.82.37-2.82l-6.14-.7s-.14,1.08-.36,2.71-.45,3.8-.89,5.95-.77,4.31-1.1,5.91Z" transform="translate(-477.84 -248.73)"/><path class="cls-1" d="M887.8,624l5.79,2.18s.39-1.06,1-2.65,1.32-3.73,2-5.88,1.46-4.29,1.87-5.94l.76-2.73-6-1.66s-.3,1.06-.74,2.64-1.15,3.67-1.81,5.76-1.35,4.18-2,5.71Z" transform="translate(-477.84 -248.73)"/><path class="cls-1" d="M877.13,647.94l5.51,2.82s.51-1,1.29-2.5,1.7-3.57,2.68-5.6,2-4.07,2.59-5.65,1.1-2.61,1.1-2.61L884.6,632l-1.07,2.54c-.6,1.53-1.59,3.5-2.52,5.5s-1.83,4-2.61,5.46S877.13,647.94,877.13,647.94Z" transform="translate(-477.84 -248.73)"/><path class="cls-1" d="M864.09,670.77l5.23,3.3,4.69-7.68c1.19-1.92,2.24-3.92,3.09-5.38l1.39-2.45-5.41-3-1.36,2.4c-.83,1.43-1.85,3.38-3,5.26Z" transform="translate(-477.84 -248.73)"/><path class="cls-1" d="M849.15,692.45l5,3.68,1.68-2.25c1-1.35,2.28-3.21,3.58-5l3.56-5.05,1.55-2.36L859.35,678l-1.52,2.31-3.5,5c-1.28,1.8-2.54,3.62-3.52,5S849.15,692.45,849.15,692.45Z" transform="translate(-477.84 -248.73)"/><path class="cls-1" d="M901,424.17l1.75-7.87s-5.91-1.25-11.87-2.29c-3-.52-6-1-8.24-1.32l-2.75-.37-1.09-.13-.93,8,3.56.47c2.17.31,5.08.77,8,1.28C895.19,423,901,424.17,901,424.17Z" transform="translate(-477.84 -248.73)"/><path class="cls-1" d="M935,432.94l2.48-7.67s-5.75-1.79-11.58-3.36-11.68-3-11.68-3l-2,7.81s5.75,1.39,11.44,3S935,432.94,935,432.94Z" transform="translate(-477.84 -248.73)"/><path class="cls-1" d="M968.05,444.75l3.24-7.4-3.49-1.43c-2.09-.85-4.91-1.91-7.72-3-5.64-2.1-11.35-4-11.35-4l-2.73,7.6s5.58,1.9,11.1,3.95c2.75,1.06,5.5,2.1,7.55,2.93Z" transform="translate(-477.84 -248.73)"/><path class="cls-1" d="M999.58,459.8l4.08-7-3.31-1.8c-2-1.06-4.68-2.42-7.35-3.8s-5.41-2.64-7.46-3.59L982.11,442l-3.5,7.3,3.34,1.52c2,.93,4.62,2.23,7.26,3.5l7.16,3.7Z" transform="translate(-477.84 -248.73)"/><path class="cls-1" d="M1028.92,478.41l5-6.43s-1.18-.91-3-2.19-4.28-3.07-6.82-4.69-5-3.32-7-4.47l-3.2-2-4.37,6.84,3.11,1.92c1.88,1.12,4.32,2.73,6.75,4.33s4.8,3.3,6.6,4.54S1028.92,478.41,1028.92,478.41Z" transform="translate(-477.84 -248.73)"/><path class="cls-1" d="M1055.05,500.9l6-5.57s-4.2-4.3-8.67-8.32c-2.2-2-4.53-3.94-6.22-5.43-.85-.75-1.59-1.33-2.1-1.74l-.81-.65-5.32,6.18s.29.22.78.62,1.21,1,2,1.68c1.63,1.43,3.88,3.27,6,5.23C1051,496.77,1055.05,500.9,1055.05,500.9Z" transform="translate(-477.84 -248.73)"/><path class="cls-1" d="M1076.81,527.27l6.92-4.42-2.16-3.05-2.22-3.13c-.82-1.14-1.77-2.3-2.68-3.49l-2.7-3.48-2.49-2.94-2.42-2.85-6.31,5.22,2.33,2.74,2.38,2.82,2.59,3.32c.87,1.14,1.78,2.26,2.57,3.34s1.5,2.13,2.12,3C1076,526.11,1076.81,527.27,1076.81,527.27Z" transform="translate(-477.84 -248.73)"/><path class="cls-1" d="M1093,557.15l7.68-3s-.13-.35-.39-1l-1.12-2.46c-1-2-2.07-4.8-3.5-7.43s-2.65-5.35-3.83-7.26l-1.87-3.24-7.2,4s.72,1.23,1.79,3.09,2.33,4.42,3.66,6.94,2.42,5.16,3.34,7.09l1.07,2.36C1092.86,556.82,1093,557.15,1093,557.15Z" transform="translate(-477.84 -248.73)"/><path class="cls-1" d="M1103,589.51l8.13-1.58s-.33-1.45-.83-3.62-1.1-5.08-2-7.92-1.54-5.74-2.31-7.84l-1.2-3.53-7.85,2.56s.45,1.35,1.14,3.37,1.41,4.78,2.21,7.5,1.41,5.52,1.89,7.6S1103,589.51,1103,589.51Z" transform="translate(-477.84 -248.73)"/><path class="cls-1" d="M1106.82,623.18l8.28-.25-.1-3.7c-.11-2.21-.37-5.16-.59-8.11s-.61-5.89-.87-8.09-.46-3.67-.46-3.67l-8.2,1.12s.17,1.41.44,3.53.69,4.94.84,7.79.46,5.68.56,7.81Z" transform="translate(-477.84 -248.73)"/><path class="cls-1" d="M1105.4,657.16l8.23.86.4-3.66c.29-2.2.47-5.14.65-8.08s.44-5.88.43-8.1.07-3.69.07-3.69l-8.29-.14s0,1.43-.06,3.57-.26,5-.42,7.84-.35,5.71-.63,7.84S1105.4,657.16,1105.4,657.16Z" transform="translate(-477.84 -248.73)"/><path class="cls-1" d="M1099.59,690.81l8.09,1.75s.34-1.43.84-3.58,1-5.05,1.59-7.93,1.18-5.77,1.46-8l.55-3.64-8.19-1.18s-.22,1.41-.54,3.54-.9,4.94-1.42,7.76-1,5.65-1.56,7.74Z" transform="translate(-477.84 -248.73)"/><path class="cls-1" d="M1090.34,723.83l7.89,2.46s1.76-5.61,3.51-11.22c.9-2.8,1.59-5.66,2.2-7.78l1-3.54-8-2-1,3.47c-.6,2.08-1.27,4.87-2.15,7.62C1092.06,718.33,1090.34,723.83,1090.34,723.83Z" transform="translate(-477.84 -248.73)"/><path class="cls-1" d="M1078.24,756l7.68,3,1.43-3.38c.84-2,1.87-4.79,3-7.53s2.12-5.48,2.92-7.53l1.22-3.47-7.83-2.66s-.47,1.37-1.19,3.41l-2.87,7.41c-1.06,2.69-2.07,5.4-2.9,7.4Z" transform="translate(-477.84 -248.73)"/><path class="cls-1" d="M604.58,701.38l-5.91,1.81s1.08,3.53,2.25,7c.58,1.75,1.18,3.51,1.65,4.82s.81,2.21.81,2.21l5.76-2.2-.75-2.08c-.46-1.27-1-3-1.61-4.7C605.64,704.85,604.58,701.38,604.58,701.38Z" transform="translate(-477.84 -248.73)"/><path class="cls-1" d="M598.82,680.54l-6,1.49.55,2.23c.35,1.34.82,3.13,1.28,4.91,1,3.56,2,7.1,2,7.1l5.94-1.7s-1-3.49-1.93-7l-1.26-4.83Z" transform="translate(-477.84 -248.73)"/><path class="cls-1" d="M594.16,659.42l-6.06,1.18s.17.91.44,2.26.65,3.16,1,5,.79,3.6,1.08,4.95.51,2.25.51,2.25l6-1.39-.5-2.21c-.29-1.33-.71-3.1-1.07-4.88s-.73-3.56-1-4.89Z" transform="translate(-477.84 -248.73)"/><path class="cls-1" d="M590.58,638.09l-6.12.86,1.1,7.29c.3,1.81.59,3.64.82,5l.4,2.26,6.08-1.07s-.16-.89-.39-2.24-.52-3.13-.81-4.92Z" transform="translate(-477.84 -248.73)"/><path class="cls-1" d="M588.19,616.61l-6.15.51s.07.92.18,2.3.32,3.21.49,5.05.41,3.66.56,5,.26,2.29.26,2.29l6.13-.75s-.1-.9-.26-2.26-.38-3.15-.54-4.95-.35-3.61-.48-5S588.19,616.61,588.19,616.61Z" transform="translate(-477.84 -248.73)"/><path class="cls-1" d="M587.07,595l-6.18.13s0,.92,0,2.31.13,3.22.2,5.07.16,3.68.25,5.07.13,2.3.13,2.3l6.16-.39s0-.9-.13-2.26-.19-3.17-.24-5-.14-3.62-.19-5S587.07,595,587.07,595Z" transform="translate(-477.84 -248.73)"/><path class="cls-1" d="M587.36,573.48l-6.17-.3s-.06.92-.12,2.31-.09,3.22-.15,5.07-.07,3.7-.08,5.08,0,2.31,0,2.31H587s0-.91,0-2.27,0-3.17.08-5,.11-3.63.15-5S587.36,573.48,587.36,573.48Z" transform="translate(-477.84 -248.73)"/><path class="cls-1" d="M589.22,552l-6.13-.78s-.13.92-.27,2.3-.36,3.22-.55,5.05-.32,3.69-.45,5.07-.19,2.3-.19,2.3l6.16.46s.07-.91.18-2.26.23-3.15.44-4.95.4-3.6.54-4.94S589.22,552,589.22,552Z" transform="translate(-477.84 -248.73)"/><path class="cls-1" d="M592.85,530.81l-6-1.31-1.48,7.26-1.24,7.3,6.11,1s.6-3.56,1.21-7.12S592.85,530.81,592.85,530.81Z" transform="translate(-477.84 -248.73)"/><path class="cls-1" d="M598.45,510.08l-5.88-1.9-.7,2.21c-.41,1.33-1,3.09-1.47,4.89l-1.35,4.91c-.19.67-.34,1.23-.43,1.63l-.14.62,6,1.5.14-.6c.08-.39.23-.93.41-1.58l1.32-4.78c.45-1.75,1-3.46,1.43-4.75S598.45,510.08,598.45,510.08Z" transform="translate(-477.84 -248.73)"/><path class="cls-1" d="M606.13,490.07l-5.64-2.53-1,2.12c-.6,1.26-1.25,3-2,4.71s-1.41,3.44-1.87,4.75l-.78,2.18,5.81,2.11.75-2.12c.45-1.28,1.16-2.93,1.82-4.6s1.31-3.36,1.9-4.58S606.13,490.07,606.13,490.07Z" transform="translate(-477.84 -248.73)"/><path class="cls-1" d="M616,471.06l-5.3-3.17-.34.54c-.22.35-.5.86-.84,1.46-.68,1.22-1.58,2.84-2.5,4.47s-1.74,3.28-2.37,4.52l-1,2.08,5.53,2.74,1-2c.6-1.2,1.38-2.83,2.29-4.38l2.41-4.31c.33-.59.6-1.09.82-1.41Z" transform="translate(-477.84 -248.73)"/><path class="cls-1" d="M628.06,453.4l-4.87-3.79-1.41,1.85c-.82,1.13-2,2.57-3,4.11-2.11,3.06-4.21,6.13-4.21,6.13l5.18,3.38,4.06-5.93c1-1.48,2.15-2.88,3-4Z" transform="translate(-477.84 -248.73)"/><path class="cls-1" d="M642.21,437.36,637.83,433l-1.66,1.63c-1,1-2.21,2.39-3.47,3.75l-1.86,2-.85.92-.72.87L627.78,444l4.72,4,1.44-1.73.69-.83.83-.89,1.79-1.94c1.22-1.32,2.42-2.65,3.35-3.63Z" transform="translate(-477.84 -248.73)"/><path class="cls-1" d="M658.19,423.12l-3.83-4.84-1.8,1.46c-1.08.88-2.56,2-3.95,3.24l-5.56,4.95,4.2,4.52,5.37-4.78c1.35-1.19,2.79-2.28,3.83-3.14S658.19,423.12,658.19,423.12Z" transform="translate(-477.84 -248.73)"/><path class="cls-1" d="M675.7,410.75l-3.28-5.24-6.2,4.09c-.77.51-1.56,1-2.27,1.51l-1.92,1.4-1.87,1.37,3.64,5,1.82-1.33,1.86-1.36c.69-.49,1.45-1,2.2-1.47Z" transform="translate(-477.84 -248.73)"/><path class="cls-1" d="M694.47,400.32l-2.75-5.53-.57.27c-.37.17-.89.41-1.5.75l-4.5,2.39c-1.63.89-3.29,1.73-4.49,2.42l-2,1.19,3.1,5.34L683.7,406c1.17-.68,2.78-1.5,4.37-2.35l4.37-2.33c.59-.33,1.11-.56,1.47-.73Z" transform="translate(-477.84 -248.73)"/><path class="cls-1" d="M714.15,391.65l-2.24-5.75-.6.22c-.37.15-.92.33-1.56.61l-4.69,2-4.68,2c-.65.26-1.16.54-1.53.7l-.57.28,2.57,5.61.56-.27c.36-.16.86-.42,1.48-.68l4.58-1.94,4.57-1.93c.62-.27,1.16-.44,1.53-.59Z" transform="translate(-477.84 -248.73)"/><path class="cls-1" d="M734.51,384.6l-1.79-5.91-.61.18-1.59.52L725.68,381l-4.82,1.58-2.17.81,2.09,5.82,2.12-.8,4.73-1.54,4.72-1.56,1.56-.51Z" transform="translate(-477.84 -248.73)"/><path class="cls-1" d="M755.37,379.07l-1.39-6-7.17,1.74-2.64.65c-.83.21-1.61.45-2.27.63l-2.23.64,1.66,5.94,2.18-.62c.66-.18,1.41-.41,2.23-.62l2.59-.63Z" transform="translate(-477.84 -248.73)"/><path class="cls-1" d="M776.56,374.86l-1-6.09-2.27.39c-1.36.24-3.19.5-5,.88L761,371.52l1.27,6,7.11-1.46c1.77-.36,3.57-.62,4.91-.86Z" transform="translate(-477.84 -248.73)"/></g><g id="Blooming"><path class="cls-2" d="M916.9,855.05c-16.94-15-9.24-49.87-9.24-49.87h-50.5s7.7,34.91-9.24,49.87a60.75,60.75,0,0,1-36.74,15v8.41H953.64V870A60.75,60.75,0,0,1,916.9,855.05Z" transform="translate(-477.84 -248.73)"/><rect class="cls-3" x="333.34" y="621.29" width="142.46" height="8.42"/><path class="cls-4" d="M238.73,328.26H570.42a22.44,22.44,0,0,1,22.44,22.44V534a22.44,22.44,0,0,1-22.44,22.44H238.73A22.44,22.44,0,0,1,216.29,534V350.7A22.45,22.45,0,0,1,238.73,328.26Z"/><path class="cls-5" d="M694.12,599.43v183.3a22.27,22.27,0,0,0,3.41,11.85h369.76a22.27,22.27,0,0,0,3.41-11.85V599.43a22.35,22.35,0,0,0-5.85-15.07H700A22.35,22.35,0,0,0,694.12,599.43Z" transform="translate(-477.84 -248.73)"/><rect class="cls-6" x="232.49" y="343.22" width="344.16" height="194.83"/><rect class="cls-7" x="253.32" y="387.01" width="54.02" height="49.97"/><rect class="cls-8" x="383.3" y="387.01" width="54.02" height="49.97"/><rect class="cls-9" x="498.7" y="387.01" width="54.02" height="49.97"/><rect class="cls-10" x="253.32" y="447.47" width="86.61" height="3.64"/><rect class="cls-11" x="253.32" y="458.4" width="86.61" height="3.64"/><rect class="cls-12" x="253.32" y="468.51" width="86.61" height="3.64"/><rect class="cls-11" x="338.58" y="491.57" width="71.1" height="3.64"/><rect class="cls-10" x="264.18" y="491.57" width="65.62" height="3.64"/><rect class="cls-11" x="264.18" y="501.69" width="65.62" height="3.64"/><rect class="cls-10" x="338.58" y="501.69" width="33.39" height="3.64"/><rect class="cls-10" x="264.18" y="521.26" width="65.62" height="3.64"/><rect class="cls-11" x="338.58" y="521.26" width="33.39" height="3.64"/><rect class="cls-11" x="410.43" y="511.4" width="23.87" height="3.64"/><rect class="cls-13" x="264.18" y="479.84" width="141.75" height="3.65"/><rect class="cls-13" x="264.18" y="511.4" width="141.75" height="3.64"/><rect class="cls-10" x="410.43" y="532.85" width="23.87" height="3.64"/><rect class="cls-10" x="264.18" y="532.85" width="141.75" height="3.64"/><rect class="cls-11" x="505.76" y="492.83" width="57.49" height="3.64"/><rect class="cls-10" x="445.6" y="492.83" width="53.06" height="3.64"/><rect class="cls-11" x="445.6" y="502.95" width="53.06" height="3.64"/><rect class="cls-10" x="505.76" y="502.95" width="27" height="3.64"/><rect class="cls-10" x="445.6" y="522.52" width="53.06" height="3.64"/><rect class="cls-11" x="505.76" y="522.52" width="27" height="3.64"/><rect class="cls-13" x="445.6" y="481.1" width="114.62" height="3.65"/><rect class="cls-13" x="445.6" y="512.66" width="114.62" height="3.64"/><rect class="cls-10" x="445.6" y="534.1" width="114.62" height="3.64"/><rect class="cls-14" x="232.56" y="343.09" width="344.31" height="34.1"/><path class="cls-15" d="M888.15,606.39a7.56,7.56,0,0,1-7.53,7.6H732.28a7.56,7.56,0,0,1-7.53-7.6h0a7.56,7.56,0,0,1,7.53-7.59H880.62a7.56,7.56,0,0,1,7.53,7.59Z" transform="translate(-477.84 -248.73)"/><path class="cls-16" d="M1008.41,603.7a4.87,4.87,0,1,1-4.87-4.9A4.89,4.89,0,0,1,1008.41,603.7Z" transform="translate(-477.84 -248.73)"/><path class="cls-17" d="M1024.49,603.7a4.87,4.87,0,1,1-4.86-4.9A4.88,4.88,0,0,1,1024.49,603.7Z" transform="translate(-477.84 -248.73)"/><path class="cls-18" d="M1041.25,603.7a4.87,4.87,0,1,1-4.86-4.9A4.88,4.88,0,0,1,1041.25,603.7Z" transform="translate(-477.84 -248.73)"/></g><g id="Phone"><rect class="cls-19" x="517.26" y="443.34" width="102.88" height="179.01" rx="6.07" ry="6.07"/><rect class="cls-20" x="526.75" y="464.58" width="83.9" height="122.37"/><rect class="cls-7" x="531.83" y="483.65" width="13.17" height="21.95"/><rect class="cls-8" x="563.51" y="483.65" width="13.17" height="21.95"/><rect class="cls-9" x="591.63" y="483.65" width="13.17" height="21.95"/><rect class="cls-10" x="531.83" y="510.2" width="21.11" height="1.6"/><rect class="cls-11" x="531.83" y="515" width="21.11" height="1.6"/><rect class="cls-12" x="531.83" y="519.44" width="21.11" height="1.6"/><rect class="cls-11" x="552.61" y="529.57" width="17.33" height="1.6"/><rect class="cls-10" x="534.47" y="529.57" width="16" height="1.6"/><rect class="cls-11" x="534.47" y="534.02" width="16" height="1.6"/><rect class="cls-10" x="552.61" y="534.02" width="8.14" height="1.6"/><rect class="cls-10" x="534.47" y="542.61" width="16" height="1.6"/><rect class="cls-11" x="552.61" y="542.61" width="8.14" height="1.6"/><rect class="cls-11" x="570.12" y="538.28" width="5.82" height="1.6"/><rect class="cls-13" x="534.47" y="524.42" width="34.55" height="1.6"/><rect class="cls-13" x="534.47" y="538.28" width="34.55" height="1.6"/><rect class="cls-10" x="570.12" y="547.7" width="5.82" height="1.6"/><rect class="cls-10" x="534.47" y="547.7" width="34.55" height="1.6"/><rect class="cls-11" x="593.35" y="530.13" width="14.01" height="1.6"/><rect class="cls-10" x="578.69" y="530.13" width="12.93" height="1.6"/><rect class="cls-11" x="578.69" y="534.57" width="12.93" height="1.6"/><rect class="cls-10" x="593.35" y="534.57" width="6.58" height="1.6"/><rect class="cls-10" x="578.69" y="543.17" width="12.93" height="1.6"/><rect class="cls-11" x="593.35" y="543.17" width="6.58" height="1.6"/><rect class="cls-13" x="578.69" y="524.97" width="27.94" height="1.6"/><rect class="cls-13" x="578.69" y="538.83" width="27.94" height="1.6"/><rect class="cls-10" x="578.69" y="548.25" width="27.94" height="1.6"/><rect class="cls-14" x="526.77" y="464.35" width="83.92" height="14.98"/><path class="cls-15" d="M1047.93,719.48c0,1.85-.82,3.34-1.84,3.34h-36.15c-1,0-1.84-1.49-1.84-3.34h0c0-1.84.82-3.33,1.84-3.33h36.15c1,0,1.84,1.49,1.84,3.33Z" transform="translate(-477.84 -248.73)"/><path class="cls-16" d="M1077.24,718.3c0,1.19-.53,2.16-1.19,2.16s-1.18-1-1.18-2.16.53-2.15,1.18-2.15S1077.24,717.11,1077.24,718.3Z" transform="translate(-477.84 -248.73)"/><path class="cls-17" d="M1081.16,718.3c0,1.19-.53,2.16-1.19,2.16s-1.18-1-1.18-2.16.53-2.15,1.18-2.15S1081.16,717.11,1081.16,718.3Z" transform="translate(-477.84 -248.73)"/><path class="cls-18" d="M1085.24,718.3c0,1.19-.53,2.16-1.18,2.16s-1.19-1-1.19-2.16.53-2.15,1.19-2.15S1085.24,717.11,1085.24,718.3Z" transform="translate(-477.84 -248.73)"/><polygon class="cls-21" points="610.65 464.58 609.1 464.58 526.75 582.01 526.75 586.95 610.65 586.95 610.65 464.58"/></g><g id="Web"><path class="cls-22" d="M902.74,460.77c0,5.33-3,9.65-6.62,9.65H736.72c-3.66,0-6.62-4.32-6.62-9.65V289.44c0-5.33,3-9.65,6.62-9.65h159.4c3.66,0,6.62,4.32,6.62,9.65Z" transform="translate(-477.84 -248.73)"/><path class="cls-14" d="M896.12,249.73H736.72c-3.66,0-6.62,3.91-6.62,8.74v33.86H902.74V258.47C902.74,253.64,899.78,249.73,896.12,249.73Z" transform="translate(-477.84 -248.73)"/><path class="cls-16" d="M875.34,256.65A3.32,3.32,0,1,1,872,253,3.46,3.46,0,0,1,875.34,256.65Z" transform="translate(-477.84 -248.73)"/><path class="cls-17" d="M886.29,256.65A3.32,3.32,0,1,1,883,253,3.47,3.47,0,0,1,886.29,256.65Z" transform="translate(-477.84 -248.73)"/><path class="cls-18" d="M897.68,256.65a3.32,3.32,0,1,1-3.31-3.61A3.46,3.46,0,0,1,897.68,256.65Z" transform="translate(-477.84 -248.73)"/><path class="cls-15" d="M849.86,261.11a5.38,5.38,0,0,1-5.13,5.59H743.84a5.37,5.37,0,0,1-5.12-5.59h0a5.37,5.37,0,0,1,5.12-5.59H844.73a5.38,5.38,0,0,1,5.13,5.59Z" transform="translate(-477.84 -248.73)"/><rect class="cls-7" x="265.44" y="58.35" width="36.74" height="36.74"/><rect class="cls-8" x="320.21" y="58.35" width="36.74" height="36.74"/><rect class="cls-9" x="372.52" y="58.35" width="36.74" height="36.74"/><rect class="cls-10" x="267.63" y="108.07" width="41.93" height="2.09"/><rect class="cls-11" x="267.63" y="114.32" width="41.93" height="2.09"/><rect class="cls-12" x="267.63" y="120.12" width="41.93" height="2.09"/><rect class="cls-10" x="267.63" y="173.94" width="41.93" height="2.09"/><rect class="cls-10" x="267.63" y="167.07" width="41.93" height="2.08"/><rect class="cls-10" x="267.63" y="181.05" width="41.93" height="2.09"/><rect class="cls-11" x="317.68" y="133.32" width="41.93" height="2.09"/><rect class="cls-10" x="273.42" y="133.32" width="41.94" height="2.09"/><rect class="cls-11" x="273.42" y="139.12" width="41.94" height="2.09"/><rect class="cls-10" x="317.68" y="139.12" width="19.69" height="2.09"/><rect class="cls-10" x="273.42" y="150.32" width="41.94" height="2.08"/><rect class="cls-11" x="317.68" y="150.32" width="19.69" height="2.08"/><rect class="cls-11" x="367.72" y="144.68" width="19.69" height="2.08"/><rect class="cls-13" x="273.42" y="126.6" width="90.59" height="2.08"/><rect class="cls-13" x="273.42" y="144.68" width="90.59" height="2.08"/><rect class="cls-10" x="367.72" y="156.95" width="19.69" height="2.09"/><rect class="cls-10" x="273.42" y="156.95" width="90.59" height="2.09"/><rect class="cls-23" x="361.93" y="186.84" width="19.69" height="2.08"/><rect class="cls-24" x="267.63" y="186.84" width="90.59" height="2.08"/><path class="cls-25" d="M896.12,248.73h-79.7V469.42h79.7c3.66,0,6.62-4.32,6.62-9.65V257.47C902.74,252.64,899.78,248.73,896.12,248.73Z" transform="translate(-477.84 -248.73)"/></g><g id="Tablet"><g id="Acces"><g id="Tablet-2" data-name="Tablet"><path class="cls-14" d="M761.58,828c0,20.44-2.69,19.28-23.13,19.28H500.2c-20.44,0-22.36-1.92-22.36-22.36V665.29c0-20.44,4.23-21.58,24.67-21.58l229-.24c20.44,0,29.86-4.06,29.86,16.38Z" transform="translate(-477.84 -248.73)"/><rect class="cls-26" x="17.6" y="413.93" width="248.55" height="165.09"/></g></g><rect class="cls-7" x="32.59" y="448.21" width="39" height="38.99"/><rect class="cls-8" x="126.42" y="448.21" width="39" height="38.99"/><rect class="cls-9" x="209.72" y="448.21" width="38.99" height="38.99"/><rect class="cls-10" x="32.59" y="495.38" width="62.52" height="2.84"/><rect class="cls-11" x="32.59" y="503.91" width="62.52" height="2.84"/><rect class="cls-12" x="32.59" y="511.8" width="62.52" height="2.84"/><rect class="cls-11" x="94.13" y="529.8" width="51.32" height="2.84"/><rect class="cls-10" x="40.42" y="529.8" width="47.37" height="2.84"/><rect class="cls-11" x="40.42" y="537.69" width="47.37" height="2.84"/><rect class="cls-10" x="94.13" y="537.69" width="24.1" height="2.84"/><rect class="cls-10" x="40.42" y="552.96" width="47.37" height="2.84"/><rect class="cls-11" x="94.13" y="552.96" width="24.1" height="2.84"/><rect class="cls-11" x="146" y="545.27" width="17.23" height="2.84"/><rect class="cls-13" x="40.42" y="520.64" width="102.33" height="2.84"/><rect class="cls-13" x="40.42" y="545.27" width="102.33" height="2.84"/><rect class="cls-10" x="146" y="562" width="17.23" height="2.84"/><rect class="cls-10" x="40.42" y="562" width="102.33" height="2.84"/><rect class="cls-11" x="214.82" y="530.78" width="41.5" height="2.84"/><rect class="cls-10" x="171.39" y="530.78" width="38.3" height="2.84"/><rect class="cls-11" x="171.39" y="538.68" width="38.3" height="2.84"/><rect class="cls-10" x="214.82" y="538.68" width="19.49" height="2.84"/><rect class="cls-10" x="171.39" y="553.95" width="38.3" height="2.84"/><rect class="cls-11" x="214.82" y="553.95" width="19.49" height="2.84"/><rect class="cls-13" x="171.39" y="521.63" width="82.74" height="2.84"/><rect class="cls-13" x="171.39" y="546.25" width="82.74" height="2.84"/><rect class="cls-10" x="171.39" y="562.99" width="82.74" height="2.84"/><rect class="cls-14" x="17.6" y="413.93" width="248.55" height="26.62"/><path class="cls-15" d="M623.75,674a5.7,5.7,0,0,1-5.44,5.93H511.23a5.71,5.71,0,0,1-5.44-5.93h0a5.71,5.71,0,0,1,5.44-5.94H618.31a5.7,5.7,0,0,1,5.44,5.94Z" transform="translate(-477.84 -248.73)"/><path class="cls-16" d="M710.56,671.93a3.52,3.52,0,1,1-3.51-3.83A3.69,3.69,0,0,1,710.56,671.93Z" transform="translate(-477.84 -248.73)"/><path class="cls-17" d="M722.18,671.93a3.53,3.53,0,1,1-3.52-3.83A3.69,3.69,0,0,1,722.18,671.93Z" transform="translate(-477.84 -248.73)"/><path class="cls-18" d="M734.27,671.93a3.52,3.52,0,1,1-3.51-3.83A3.69,3.69,0,0,1,734.27,671.93Z" transform="translate(-477.84 -248.73)"/></g></g></g></svg>