<svg id="Laag_1" data-name="Laag 1" xmlns="http://www.w3.org/2000/svg" viewBox="0 0 620.85 783.65"><defs><style>.cls-1{fill:#efefef;}.cls-2{fill:#e2c59d;}.cls-3{fill:#f9d5a5;}.cls-4{opacity:0.2;}.cls-18,.cls-5,.cls-8{opacity:0.1;}.cls-6{fill:#0b2e44;}.cls-6,.cls-8{fill-rule:evenodd;}.cls-7{fill:#39c3de;opacity:0.8;}.cls-9{fill:#0072bb;}.cls-10{fill:#ff4c3b;}.cls-11,.cls-12,.cls-18,.cls-19{fill:#fff;}.cls-11{opacity:0.5;}.cls-13{fill:#d6b71d;}.cls-14{fill:#ffd034;}.cls-15{fill:#dbdbdb;}.cls-16{fill:#4f4e4f;}.cls-17{fill:#1e2f47;}.cls-19{opacity:0.4;}.cls-20{fill:#ededed;}.cls-21{fill:#88604a;}.cls-22{fill:#785741;}</style></defs><title>shortlines</title><g id="E-Commerce"><g id="E-Commerce-2" data-name="E-Commerce"><g id="Line"><polygon class="cls-1" points="273.06 339.37 153.24 339.37 153.24 270.78 16.53 270.78 16.53 265.29 158.73 265.29 158.73 333.88 273.06 333.88 273.06 339.37"/><polygon class="cls-1" points="313.23 311.47 307.75 311.47 307.75 239.28 254.91 239.28 254.91 110.08 260.39 110.08 260.39 233.79 313.23 233.79 313.23 311.47"/><polygon class="cls-1" points="402.85 329.43 402.85 218.85 544.85 218.47 554.85 224.47 408.34 224.33 408.4 325.04 407.85 325.47 407.85 325.47 402.85 329.43"/><rect class="cls-1" x="319.17" y="325.04" width="83.68" height="4.39"/></g></g><g id="E-Commerce-3" data-name="E-Commerce"><g id="Acces"><path class="cls-2" d="M775.35,599.2h83.93l36.1,83.48V877.17H723V842s-68.47-49.65-73.43-89.36c0,0,22.6-3.21,86.23-4.11s68.87-35.58,104.07-55L827.7,652.9S777.16,654.25,775.35,599.2Z" transform="translate(-428.15 -93.53)"/><path class="cls-3" d="M664.08,546.35c-4.57,7.71-17.15,8.72-28.1,2.24l-28.9-17.12c-11-6.49-16.12-18-11.55-25.72l2.76-4.66c4.57-7.72,17.15-8.72,28.1-2.24L655.3,516c10.94,6.48,16.11,18,11.54,25.71Z" transform="translate(-428.15 -93.53)"/><path class="cls-4" d="M650.16,756A59.68,59.68,0,0,0,655,769.7H835.68l7.25-35.92h-48l-5,.44c-12.44,8.09-28.58,13.91-54.15,14.28-44.77.63-69.21,2.41-79.77,3.41Z" transform="translate(-428.15 -93.53)"/><path class="cls-5" d="M655.3,516l-9.74-5.77v42.11c7.92,1.61,15.26-.46,18.52-6l2.76-4.67C671.41,534,666.24,522.45,655.3,516Z" transform="translate(-428.15 -93.53)"/><g id="Phone"><path class="cls-6" d="M862.59,750.82A12.57,12.57,0,0,1,850,763.39H662a12.57,12.57,0,0,1-12.57-12.57V405.12A12.57,12.57,0,0,1,662,392.55H850a12.57,12.57,0,0,1,12.57,12.57Z" transform="translate(-428.15 -93.53)"/><rect class="cls-7" x="240.96" y="343.02" width="173.82" height="253.51"/><polygon class="cls-8" points="414.78 343.02 411.55 343.02 240.96 586.3 240.96 596.53 414.78 596.53 414.78 343.02"/></g><rect class="cls-1" x="240.96" y="343.02" width="173.82" height="253.51"/><rect class="cls-9" x="240.96" y="343.02" width="173.82" height="35.81"/><rect class="cls-10" x="669.11" y="504.16" width="173.82" height="64.7" transform="translate(-432.47 -87.39) rotate(-0.46)"/><rect class="cls-10" x="251.57" y="491.42" width="18.64" height="18.64"/><rect class="cls-10" x="251.57" y="527.07" width="18.64" height="18.64"/><rect class="cls-10" x="251.57" y="563.37" width="18.64" height="18.64"/><rect class="cls-9" x="283.56" y="491.42" width="86.82" height="2.01"/><rect class="cls-9" x="283.56" y="496.36" width="86.82" height="2.38"/><rect class="cls-9" x="283.56" y="502.57" width="86.82" height="2.01"/><rect class="cls-9" x="283.56" y="508.06" width="86.82" height="2.01"/><rect class="cls-9" x="283.56" y="527.07" width="86.82" height="2.01"/><rect class="cls-9" x="283.56" y="532" width="86.82" height="2.37"/><rect class="cls-9" x="283.56" y="538.21" width="86.82" height="2.01"/><rect class="cls-9" x="283.56" y="543.7" width="86.82" height="2.01"/><rect class="cls-9" x="283.56" y="563.37" width="86.82" height="2.01"/><rect class="cls-9" x="283.56" y="568.31" width="86.82" height="2.38"/><rect class="cls-9" x="283.56" y="574.52" width="86.82" height="2.01"/><rect class="cls-9" x="283.56" y="580.01" width="86.82" height="2.01"/><path class="cls-3" d="M913.11,682.68,877,599.2H793.08c1.8,55,52.34,53.7,52.34,53.7l12.18,40.61c-35.19,19.41-41.51,70.85-41.51,70.85S804,834.57,848.94,877.17h64.17Z" transform="translate(-428.15 -93.53)"/><path class="cls-3" d="M664.08,604.56a16.24,16.24,0,0,1-22.25,5.7l-20.39-12.08a16.24,16.24,0,0,1-5.7-22.25l2.76-4.66a16.25,16.25,0,0,1,22.26-5.7l20.38,12.07a16.24,16.24,0,0,1,5.7,22.25Z" transform="translate(-428.15 -93.53)"/><path class="cls-11" d="M658.9,580.15l-2-1.17-15.64,26.84,1.78,1.06a13.32,13.32,0,0,0,18.24-4.67l2.26-3.82A13.32,13.32,0,0,0,658.9,580.15Z" transform="translate(-428.15 -93.53)"/><path class="cls-3" d="M664.08,658.25A16.24,16.24,0,0,1,641.83,664l-20.39-12.07a16.25,16.25,0,0,1-5.7-22.26L618.5,625a16.25,16.25,0,0,1,22.26-5.7l20.38,12.07a16.24,16.24,0,0,1,5.7,22.25Z" transform="translate(-428.15 -93.53)"/><path class="cls-11" d="M658.9,633.85l-2-1.17-15.64,26.84,1.78,1.06a13.32,13.32,0,0,0,18.24-4.67l2.26-3.82A13.31,13.31,0,0,0,658.9,633.85Z" transform="translate(-428.15 -93.53)"/><path class="cls-3" d="M660,707.64a13.35,13.35,0,0,1-18.3,4.69L625,702.4a13.37,13.37,0,0,1-4.69-18.3l2.27-3.83a13.36,13.36,0,0,1,18.3-4.68l16.76,9.92a13.36,13.36,0,0,1,4.69,18.3Z" transform="translate(-428.15 -93.53)"/><path class="cls-11" d="M655.77,687.57l-1.62-1-12.86,22.07,1.47.86a10.94,10.94,0,0,0,15-3.84l1.86-3.14A11,11,0,0,0,655.77,687.57Z" transform="translate(-428.15 -93.53)"/><path class="cls-11" d="M829.44,600.26a9.28,9.28,0,0,0-.07-1.06H797.7a9.28,9.28,0,0,0-.07,1.06c0,6.6,7.12,12,15.9,12S829.44,606.86,829.44,600.26Z" transform="translate(-428.15 -93.53)"/><path class="cls-9" d="M964.48,334.45a42.75,42.75,0,0,1-69.77,33.15l-18.23,3.56L883.65,354a42.77,42.77,0,0,1,36.4-62.23c.56,0,1.11,0,1.67,0a42.68,42.68,0,0,1,42.76,42.76" transform="translate(-428.15 -93.53)"/><path class="cls-12" d="M914.21,344a17.48,17.48,0,0,1,1.21-6.65,11.06,11.06,0,0,1,5-5.13c.75-.46,1.68-1,2.79-1.55a22.53,22.53,0,0,0,3.25-2.08,12,12,0,0,0,2.68-2.83,6.52,6.52,0,0,0,1.09-3.74,6.19,6.19,0,0,0-.6-2.79,6.31,6.31,0,0,0-1.59-2,6.64,6.64,0,0,0-2.3-1.25,9.13,9.13,0,0,0-2.68-.41,7.89,7.89,0,0,0-3,.56,10.32,10.32,0,0,0-2.46,1.44,12.11,12.11,0,0,0-2,2,21.41,21.41,0,0,0-1.47,2.08l-6.57-4.53a14.49,14.49,0,0,1,2.6-4.15,16.18,16.18,0,0,1,3.7-3.06,17.43,17.43,0,0,1,4.5-1.89,19.21,19.21,0,0,1,5-.64,19.88,19.88,0,0,1,5.66.83,14.23,14.23,0,0,1,5,2.64,13.64,13.64,0,0,1,3.63,4.65,15.11,15.11,0,0,1,1.4,6.75,14.52,14.52,0,0,1-.57,4.27,12.15,12.15,0,0,1-1.62,3.36,14.3,14.3,0,0,1-2.5,2.72,28.83,28.83,0,0,1-3.24,2.34c-1,.6-2,1.18-3,1.73a18.48,18.48,0,0,0-2.76,1.86,8.89,8.89,0,0,0-2,2.34,6.11,6.11,0,0,0-.79,3.21h-8.31m.16,17.59V351.18h8.38V361.6h-8.38" transform="translate(-428.15 -93.53)"/><polygon class="cls-13" points="504.76 307.78 509.41 317.6 547.53 290.6 538.49 283.87 504.76 307.78"/><polygon class="cls-13" points="601.98 210.56 578.07 244.29 584.8 253.33 611.8 215.21 601.98 210.56"/><path class="cls-14" d="M937.56,411.13l22,9.05A140.11,140.11,0,0,0,1049,330.71l-9-22-27,38.12,9,2.79a115.46,115.46,0,0,1-43.46,43.46l-2.8-9Z" transform="translate(-428.15 -93.53)"/><path class="cls-15" d="M925.18,307.39a42.85,42.85,0,0,0,13.88,14.88v-.09a15.11,15.11,0,0,0-1.4-6.75,13.64,13.64,0,0,0-3.63-4.65,14.23,14.23,0,0,0-5-2.64,19.51,19.51,0,0,0-3.83-.75" transform="translate(-428.15 -93.53)"/><path class="cls-10" d="M926.4,281.47a42.75,42.75,0,0,0,69.77,33.15l18.24,3.56L1007.24,301a42.77,42.77,0,1,0-80.84-19.5Z" transform="translate(-428.15 -93.53)"/><path class="cls-12" d="M953.85,277.94a10,10,0,1,1,10-10A10,10,0,0,1,953.85,277.94Zm0-15.68a5.72,5.72,0,1,0,5.72,5.72A5.73,5.73,0,0,0,953.85,262.26Z" transform="translate(-428.15 -93.53)"/><path class="cls-12" d="M984.48,304.92a10,10,0,1,1,10-10A10,10,0,0,1,984.48,304.92Zm0-15.68A5.72,5.72,0,1,0,990.2,295,5.73,5.73,0,0,0,984.48,289.24Z" transform="translate(-428.15 -93.53)"/><rect class="cls-12" x="943.89" y="279.35" width="50.55" height="4.24" transform="translate(76.24 1083.76) rotate(-78.77)"/></g></g><g id="Lamp"><path class="cls-14" d="M686.44,167.71c-5.39-.14-53.12.19-53.2,53.72,0,21.09,29.11,64.76,29.11,64.76h48.19s29.14-43.67,29.11-64.76C739.58,167.9,691.84,167.57,686.44,167.71Z" transform="translate(-428.15 -93.53)"/><path class="cls-16" d="M693.16,287.65c0-.1-2.19-10-2.36-28.44,0-5.32.39-9.38,1.31-12.12a11.44,11.44,0,0,1-4,0,3.9,3.9,0,0,1-2.3-1.17,10.06,10.06,0,0,1-4.66,1.74l.54.79c3.77,5.83,1.39,37.76,1.28,39.12l-1.5-.12c.69-9.09,1.86-33.69-1-38.18-.37-.58-.72-1.06-1-1.47-.38,0-.74,0-1.09,0-3.14-.13-3.28-1-3.33-1.3a1.9,1.9,0,0,1,1.19-2c.83-.32,2.13-.19,3.89,1.78a11.54,11.54,0,0,0,3.22-.66,6.14,6.14,0,0,0,1.85-1,.17.17,0,0,0,0-.07,4.38,4.38,0,0,1,1.37-4,1,1,0,0,1,1.12,0c.52.37.59,1.11.21,2.54a4.84,4.84,0,0,1-.9,1.85,2.39,2.39,0,0,0,1.48.74,10,10,0,0,0,4.49-.19,5.14,5.14,0,0,1,1.82-2.07,3,3,0,0,1,3-.17l.89.48-.72.71a10.58,10.58,0,0,1-3.88,2.29c-.88,2-1.64,5.68-1.58,12.57.16,18.27,2.3,28,2.32,28.11ZM676.47,246a7.36,7.36,0,0,0,1.33.22c-.55-.39-.94-.45-1.15-.38A.35.35,0,0,0,676.47,246Z" transform="translate(-428.15 -93.53)"/><path class="cls-17" d="M662.35,286.19v25.43a5.89,5.89,0,0,0,5.74,6h36.7a5.88,5.88,0,0,0,5.75-6V286.19Z" transform="translate(-428.15 -93.53)"/><path class="cls-18" d="M710.54,290.08a1.74,1.74,0,0,1-1.82,1.63H664.18a1.74,1.74,0,0,1-1.83-1.63h0a1.74,1.74,0,0,1,1.83-1.63h44.54a1.74,1.74,0,0,1,1.82,1.63Z" transform="translate(-428.15 -93.53)"/><path class="cls-18" d="M710.54,296.6a1.74,1.74,0,0,1-1.82,1.64H664.18a1.74,1.74,0,0,1-1.83-1.64h0a1.74,1.74,0,0,1,1.83-1.63h44.54a1.74,1.74,0,0,1,1.82,1.63Z" transform="translate(-428.15 -93.53)"/><path class="cls-18" d="M710.54,303.13a1.74,1.74,0,0,1-1.82,1.63H664.18a1.74,1.74,0,0,1-1.83-1.63h0a1.74,1.74,0,0,1,1.83-1.63h44.54a1.74,1.74,0,0,1,1.82,1.63Z" transform="translate(-428.15 -93.53)"/><path class="cls-18" d="M710.54,309.66a1.74,1.74,0,0,1-1.82,1.62H664.18a1.74,1.74,0,0,1-1.83-1.62h0a1.74,1.74,0,0,1,1.83-1.64h44.54a1.74,1.74,0,0,1,1.82,1.64Z" transform="translate(-428.15 -93.53)"/><path class="cls-5" d="M710.54,293.34a1.74,1.74,0,0,1-1.82,1.63H664.18a1.74,1.74,0,0,1-1.83-1.63h0a1.74,1.74,0,0,1,1.83-1.63h44.54a1.74,1.74,0,0,1,1.82,1.63Z" transform="translate(-428.15 -93.53)"/><path class="cls-5" d="M710.54,299.86a1.74,1.74,0,0,1-1.82,1.64H664.18a1.74,1.74,0,0,1-1.83-1.64h0a1.74,1.74,0,0,1,1.83-1.62h44.54a1.74,1.74,0,0,1,1.82,1.62Z" transform="translate(-428.15 -93.53)"/><path class="cls-5" d="M710.54,306.39a1.74,1.74,0,0,1-1.82,1.63H664.18a1.74,1.74,0,0,1-1.83-1.63h0a1.74,1.74,0,0,1,1.83-1.63h44.54a1.74,1.74,0,0,1,1.82,1.63Z" transform="translate(-428.15 -93.53)"/><path class="cls-5" d="M710.54,312.92a1.74,1.74,0,0,1-1.82,1.63H664.18a1.74,1.74,0,0,1-1.83-1.63h0a1.75,1.75,0,0,1,1.83-1.64h44.54a1.74,1.74,0,0,1,1.82,1.64Z" transform="translate(-428.15 -93.53)"/><path class="cls-5" d="M701.44,169.48c7.61,17,25.49,67.29-1.32,116.8h10.42s29.14-43.67,29.11-64.75C739.6,184.93,717.28,173.2,701.44,169.48Z" transform="translate(-428.15 -93.53)"/><path class="cls-19" d="M661,211.48c1,2.84-1.69,6.38-6,7.9s-8.62.44-9.63-2.4,1.69-6.38,6-7.9S660,208.63,661,211.48Z" transform="translate(-428.15 -93.53)"/><path class="cls-19" d="M679.1,187.62c1.93,5.48-3.26,12.31-11.59,15.24s-16.65.86-18.58-4.63,3.26-12.31,11.59-15.24S677.17,182.13,679.1,187.62Z" transform="translate(-428.15 -93.53)"/><polygon class="cls-14" points="176.62 28.5 178.28 27.02 223.17 72.69 221.51 74.17 176.62 28.5"/><polygon class="cls-14" points="128.01 92.95 128.32 90.78 192.93 99.07 192.63 101.23 128.01 92.95"/><polygon class="cls-14" points="130.57 154.03 130.12 151.88 193.99 139.46 194.45 141.6 130.57 154.03"/><polygon class="cls-14" points="334.78 28.5 333.12 27.02 288.22 72.69 289.88 74.17 334.78 28.5"/><polygon class="cls-14" points="387.85 96.33 387.54 94.17 322.93 102.46 323.24 104.62 387.85 96.33"/><polygon class="cls-14" points="383.47 148.91 383.93 146.78 320.06 134.35 319.6 136.49 383.47 148.91"/><polygon class="cls-14" points="259.81 61.97 257.51 62.01 256.29 0.04 258.58 0 259.81 61.97"/></g></g><g id="Cup"><path class="cls-20" d="M521.13,394.75A52.14,52.14,0,1,0,443.8,381.7a7.35,7.35,0,0,0-1.07.71l-11.9,9.72a7.3,7.3,0,0,0,9.23,11.3L452,393.7a7.26,7.26,0,0,0,1-1A52.1,52.1,0,0,0,521.13,394.75Z" transform="translate(-428.15 -93.53)"/><path class="cls-21" d="M515.4,387.73a43.07,43.07,0,1,1,6.1-60.61A43.08,43.08,0,0,1,515.4,387.73Z" transform="translate(-428.15 -93.53)"/><path class="cls-22" d="M503.44,373.1a24.18,24.18,0,1,1,3.43-34A24.18,24.18,0,0,1,503.44,373.1Z" transform="translate(-428.15 -93.53)"/><path class="cls-4" d="M526.23,334.26a44.16,44.16,0,0,0-4.73-7.14,42.93,42.93,0,0,0-68.19,2C469.37,326.11,497.11,323.78,526.23,334.26Z" transform="translate(-428.15 -93.53)"/></g></svg>