<svg id="Laag_1" data-name="Laag 1" xmlns="http://www.w3.org/2000/svg" viewBox="0 0 915.85 799.64"><defs><style>.cls-1{fill:#e6e6e6;}.cls-2{fill:#0072bb;}</style></defs><title>Tekengebied 1</title><path class="cls-1" d="M457.56,196.23l-66.14,134a2.79,2.79,0,0,1-2.11,1.53l-147.9,21.5a2.8,2.8,0,0,0-1.55,4.78l107,104.32a2.78,2.78,0,0,1,.8,2.48L322.42,612.15a2.8,2.8,0,0,0,4.06,3l87.61-46.05h0l44.68-23.49a2.78,2.78,0,0,1,2.6,0l44.69,23.49h0l87.6,46.05a2.8,2.8,0,0,0,4.06-3L572.46,464.86a2.78,2.78,0,0,1,.8-2.48l107-104.32a2.81,2.81,0,0,0-1.56-4.78l-147.9-21.5a2.76,2.76,0,0,1-2.1-1.53l-66.15-134A2.8,2.8,0,0,0,457.56,196.23ZM548.93,519h0L554,548.4a2.8,2.8,0,0,1-4.06,3l-88.55-46.56a2.78,2.78,0,0,0-2.6,0l-60.66,31.89h0l-27.89,14.67a2.8,2.8,0,0,1-4.06-3l5-29.45h0l11.86-69.15a2.78,2.78,0,0,0-.8-2.48l-71.64-69.83a2.8,2.8,0,0,1,1.55-4.78l99-14.39a2.76,2.76,0,0,0,2.1-1.53l44.28-89.7a2.8,2.8,0,0,1,5,0l44.28,89.72a2.78,2.78,0,0,0,2.1,1.53l67,9.73h0l32,4.64a2.8,2.8,0,0,1,1.55,4.78l-25,24.42h0l-46.58,45.41a2.82,2.82,0,0,0-.81,2.48Z"/><path class="cls-2" d="M457.47,178.46l-66.15,134a2.78,2.78,0,0,1-2.1,1.53l-147.9,21.5a2.8,2.8,0,0,0-1.56,4.77l107,104.33a2.81,2.81,0,0,1,.81,2.47l-25.27,147.3a2.8,2.8,0,0,0,4.07,3L414,551.28h0l44.68-23.49a2.8,2.8,0,0,1,2.61,0L506,551.28h0l87.61,46.05a2.8,2.8,0,0,0,4.06-3l-25.27-147.3a2.81,2.81,0,0,1,.81-2.47l107-104.33a2.8,2.8,0,0,0-1.55-4.77L530.74,314a2.79,2.79,0,0,1-2.11-1.53l-66.14-134A2.8,2.8,0,0,0,457.47,178.46Zm91.37,322.72h0l5,29.45a2.8,2.8,0,0,1-4.06,3L461.28,487a2.8,2.8,0,0,0-2.61,0L398,518.91h0l-27.9,14.67a2.8,2.8,0,0,1-4.06-3l5.06-29.45h0L383,432a2.82,2.82,0,0,0-.81-2.48l-71.64-69.83a2.81,2.81,0,0,1,1.56-4.78l99-14.39a2.79,2.79,0,0,0,2.11-1.53l44.28-89.7a2.8,2.8,0,0,1,5,0L506.76,339a2.84,2.84,0,0,0,2.11,1.53l67,9.73h0l32,4.64a2.81,2.81,0,0,1,1.55,4.78l-25,24.42h0l-46.59,45.41A2.78,2.78,0,0,0,537,432Z"/></svg>