<svg id="Laag_1" data-name="Laag 1" xmlns="http://www.w3.org/2000/svg" viewBox="0 0 915.85 799.64"><defs><style>.cls-1{fill:#e6e6e6;}.cls-2{fill:#0072bb;}.cls-3{fill:#ff4c3b;}</style></defs><title>Tekengebied 1</title><path class="cls-1" d="M219.56,196.23l-66.14,134a2.79,2.79,0,0,1-2.11,1.53L3.41,353.28a2.8,2.8,0,0,0-1.55,4.78l107,104.32a2.78,2.78,0,0,1,.8,2.48L84.42,612.15a2.8,2.8,0,0,0,4.06,3l87.61-46.05h0l44.68-23.49a2.78,2.78,0,0,1,2.6,0l44.69,23.49h0l87.6,46.05a2.8,2.8,0,0,0,4.06-3L334.46,464.86a2.78,2.78,0,0,1,.8-2.48l107-104.32a2.81,2.81,0,0,0-1.56-4.78l-147.9-21.5a2.76,2.76,0,0,1-2.1-1.53l-66.15-134A2.8,2.8,0,0,0,219.56,196.23ZM310.93,519h0L316,548.4a2.8,2.8,0,0,1-4.06,3l-88.55-46.56a2.78,2.78,0,0,0-2.6,0l-60.66,31.89h0l-27.89,14.67a2.8,2.8,0,0,1-4.06-3L133.21,519h0l11.86-69.15a2.78,2.78,0,0,0-.8-2.48L72.63,377.49a2.8,2.8,0,0,1,1.55-4.78l99-14.39a2.76,2.76,0,0,0,2.1-1.53l44.28-89.7a2.8,2.8,0,0,1,5,0l44.28,89.72a2.78,2.78,0,0,0,2.1,1.53l67,9.73h0l32,4.64a2.8,2.8,0,0,1,1.55,4.78l-25.05,24.42h0l-46.58,45.41a2.82,2.82,0,0,0-.81,2.48Z"/><path class="cls-2" d="M219.47,178.46l-66.15,134a2.78,2.78,0,0,1-2.1,1.53L3.32,335.51a2.8,2.8,0,0,0-1.56,4.77l107,104.33a2.81,2.81,0,0,1,.81,2.47L84.32,594.38a2.8,2.8,0,0,0,4.07,3L176,551.28h0l44.68-23.49a2.8,2.8,0,0,1,2.61,0L268,551.28h0l87.61,46.05a2.8,2.8,0,0,0,4.06-3l-25.27-147.3a2.81,2.81,0,0,1,.81-2.47l107-104.33a2.8,2.8,0,0,0-1.55-4.77L292.74,314a2.79,2.79,0,0,1-2.11-1.53l-66.14-134A2.8,2.8,0,0,0,219.47,178.46Zm91.37,322.72h0l5.05,29.45a2.8,2.8,0,0,1-4.06,3L223.28,487a2.8,2.8,0,0,0-2.61,0L160,518.91h0l-27.9,14.67a2.8,2.8,0,0,1-4.06-3l5.06-29.45h0L145,432a2.82,2.82,0,0,0-.81-2.48L72.53,359.72a2.81,2.81,0,0,1,1.56-4.78l99-14.39a2.79,2.79,0,0,0,2.11-1.53l44.28-89.7a2.8,2.8,0,0,1,5,0L268.76,339a2.84,2.84,0,0,0,2.11,1.53l67,9.73h0l32,4.64a2.81,2.81,0,0,1,1.55,4.78l-25.05,24.42h0l-46.59,45.41A2.78,2.78,0,0,0,299,432Z"/><path class="cls-1" d="M690.68,196.23l-66.14,134a2.79,2.79,0,0,1-2.11,1.53l-147.9,21.5a2.8,2.8,0,0,0-1.55,4.78L580,462.38a2.78,2.78,0,0,1,.8,2.48L555.54,612.15a2.8,2.8,0,0,0,4.06,3l87.61-46.05h0l44.68-23.49a2.78,2.78,0,0,1,2.6,0l44.69,23.49h0l87.6,46.05a2.8,2.8,0,0,0,4.06-3L805.58,464.86a2.78,2.78,0,0,1,.8-2.48l107-104.32a2.81,2.81,0,0,0-1.56-4.78L764,331.78a2.76,2.76,0,0,1-2.1-1.53l-66.15-134A2.8,2.8,0,0,0,690.68,196.23ZM782.05,519h0l5.05,29.44a2.8,2.8,0,0,1-4.06,3l-88.55-46.56a2.78,2.78,0,0,0-2.6,0l-60.66,31.89h0l-27.89,14.67a2.8,2.8,0,0,1-4.06-3L604.33,519h0l11.86-69.15a2.78,2.78,0,0,0-.8-2.48l-71.64-69.83a2.8,2.8,0,0,1,1.55-4.78l99-14.39a2.76,2.76,0,0,0,2.1-1.53l44.28-89.7a2.8,2.8,0,0,1,5,0L740,356.81a2.78,2.78,0,0,0,2.1,1.53l67,9.73h0l32,4.64a2.8,2.8,0,0,1,1.55,4.78l-25,24.42h0L771,447.32a2.82,2.82,0,0,0-.81,2.48Z"/><path class="cls-3" d="M690.59,178.46l-66.15,134a2.76,2.76,0,0,1-2.1,1.53l-147.9,21.5a2.8,2.8,0,0,0-1.56,4.77l107,104.33a2.81,2.81,0,0,1,.81,2.47l-25.26,147.3a2.79,2.79,0,0,0,4.06,3l87.6-46.05h0l44.68-23.49a2.8,2.8,0,0,1,2.61,0l44.68,23.49h0l87.61,46.05a2.8,2.8,0,0,0,4.06-3l-25.27-147.3a2.81,2.81,0,0,1,.81-2.47l107-104.33a2.8,2.8,0,0,0-1.55-4.77L763.86,314a2.79,2.79,0,0,1-2.11-1.53l-66.14-134A2.8,2.8,0,0,0,690.59,178.46ZM782,501.18h0l5,29.45a2.8,2.8,0,0,1-4.06,3L694.4,487a2.8,2.8,0,0,0-2.61,0l-60.65,31.89h0l-27.9,14.67a2.8,2.8,0,0,1-4.06-3l5.06-29.45h0L616.1,432a2.82,2.82,0,0,0-.81-2.48l-71.63-69.83a2.8,2.8,0,0,1,1.55-4.78l99-14.39a2.78,2.78,0,0,0,2.11-1.53l44.28-89.7a2.8,2.8,0,0,1,5,0L739.88,339a2.84,2.84,0,0,0,2.11,1.53l67,9.73h0l32,4.64a2.81,2.81,0,0,1,1.55,4.78l-25,24.42h0L770.9,429.55a2.78,2.78,0,0,0-.8,2.48Z"/></svg>