<svg id="Laag_1" data-name="Laag 1" xmlns="http://www.w3.org/2000/svg" viewBox="0 0 915.85 825.37"><defs><style>.cls-1{fill:#e6e6e6;}.cls-2{fill:#0072bb;}.cls-3{fill:#ff4c3b;}.cls-4{fill:#ffd034;}</style></defs><title>Tekengebied 1</title><path class="cls-1" d="M219.56,403,153.42,537a2.79,2.79,0,0,1-2.11,1.53L3.41,560A2.8,2.8,0,0,0,1,563.18a2.84,2.84,0,0,0,.82,1.61l107,104.32a2.78,2.78,0,0,1,.8,2.48L84.42,818.88a2.81,2.81,0,0,0,2.23,3.28,2.83,2.83,0,0,0,1.83-.28l87.61-46h0l44.68-23.49a2.78,2.78,0,0,1,2.6,0l44.69,23.49h0l87.6,46a2.81,2.81,0,0,0,4.06-3L334.46,671.59a2.78,2.78,0,0,1,.8-2.48l107-104.32A2.81,2.81,0,0,0,440.7,560l-147.9-21.5a2.76,2.76,0,0,1-2.1-1.53L224.55,403a2.8,2.8,0,0,0-5,0Zm91.37,322.77h0l5.07,29.4a2.81,2.81,0,0,1-2.23,3.28,2.83,2.83,0,0,1-1.83-.28l-88.55-46.56a2.78,2.78,0,0,0-2.6,0l-60.66,31.89h0l-27.89,14.67a2.81,2.81,0,0,1-4.06-3l5-29.4h0l11.86-69.15a2.78,2.78,0,0,0-.8-2.48L72.63,584.22a2.8,2.8,0,0,1-.06-4,2.84,2.84,0,0,1,1.61-.82l99-14.39a2.76,2.76,0,0,0,2.1-1.53l44.28-89.7a2.8,2.8,0,0,1,3.76-1.24,2.76,2.76,0,0,1,1.24,1.24l44.28,89.72a2.76,2.76,0,0,0,2.1,1.53l67,9.73h0l32,4.64a2.8,2.8,0,0,1,2.37,3.17,2.84,2.84,0,0,1-.82,1.61l-25.05,24.42h0l-46.58,45.41a2.82,2.82,0,0,0-.81,2.48Z"/><path class="cls-2" d="M219.47,385.19l-66.15,134a2.76,2.76,0,0,1-2.1,1.53L3.32,542.24A2.8,2.8,0,0,0,1.76,547l107,104.33a2.8,2.8,0,0,1,.81,2.47L84.32,801.11a2.8,2.8,0,0,0,2.22,3.28,2.83,2.83,0,0,0,1.85-.28L176,758h0l44.68-23.49a2.8,2.8,0,0,1,2.61,0L268,758h0l87.61,46a2.81,2.81,0,0,0,4.06-3L334.4,653.76a2.8,2.8,0,0,1,.81-2.47L442.21,547a2.8,2.8,0,0,0-1.55-4.77L292.74,520.73a2.79,2.79,0,0,1-2.11-1.53l-66.14-134a2.8,2.8,0,0,0-5,0Zm91.37,322.72h0l5.05,29.45a2.81,2.81,0,0,1-2.23,3.28,2.83,2.83,0,0,1-1.83-.28l-88.55-46.63a2.8,2.8,0,0,0-2.61,0L160,725.64h0l-27.9,14.67a2.81,2.81,0,0,1-4.06-3l5.06-29.45h0L145,638.73a2.82,2.82,0,0,0-.81-2.48l-71.66-69.8a2.81,2.81,0,0,1,1.56-4.78l99-14.39a2.79,2.79,0,0,0,2.11-1.53l44.28-89.7a2.8,2.8,0,0,1,3.76-1.24,2.76,2.76,0,0,1,1.24,1.24l44.28,89.68a2.84,2.84,0,0,0,2.11,1.53l67,9.73h0l32,4.64a2.81,2.81,0,0,1,1.55,4.78l-25.05,24.42h0l-46.59,45.41a2.77,2.77,0,0,0-.78,2.49Z"/><path class="cls-1" d="M690.68,403,624.54,537a2.79,2.79,0,0,1-2.11,1.53L474.53,560a2.8,2.8,0,0,0-2.37,3.17,2.84,2.84,0,0,0,.82,1.61L580,669.11a2.78,2.78,0,0,1,.8,2.48L555.54,818.88a2.81,2.81,0,0,0,2.23,3.28,2.83,2.83,0,0,0,1.83-.28l87.61-46h0l44.68-23.49a2.78,2.78,0,0,1,2.6,0l44.69,23.49h0l87.6,46a2.81,2.81,0,0,0,4.06-3L805.58,671.59a2.78,2.78,0,0,1,.8-2.48l107-104.32a2.81,2.81,0,0,0-1.56-4.78L764,538.51a2.76,2.76,0,0,1-2.1-1.53L695.75,403a2.8,2.8,0,0,0-5.07,0Zm91.37,322.77h0l5.05,29.44a2.81,2.81,0,0,1-2.23,3.28,2.83,2.83,0,0,1-1.83-.28l-88.55-46.56a2.78,2.78,0,0,0-2.6,0L631.23,743.5h0l-27.89,14.67a2.81,2.81,0,0,1-4.06-3l5.05-29.44h0l11.86-69.15a2.78,2.78,0,0,0-.8-2.48l-71.64-69.83a2.8,2.8,0,0,1-.06-4,2.84,2.84,0,0,1,1.61-.82l99-14.39a2.76,2.76,0,0,0,2.1-1.53l44.28-89.7a2.8,2.8,0,0,1,3.76-1.24,2.76,2.76,0,0,1,1.24,1.24L740,563.54a2.76,2.76,0,0,0,2.1,1.53l67,9.73h0l32,4.64a2.8,2.8,0,0,1,2.37,3.17,2.84,2.84,0,0,1-.82,1.61l-25,24.42h0L771,654.05a2.82,2.82,0,0,0-.81,2.48Z"/><path class="cls-3" d="M690.59,385.19l-66.15,134a2.76,2.76,0,0,1-2.1,1.53l-147.9,21.5a2.8,2.8,0,0,0-1.56,4.77l107,104.33a2.8,2.8,0,0,1,.81,2.47l-25.26,147.3a2.79,2.79,0,0,0,2.19,3.28,2.76,2.76,0,0,0,1.87-.28L647.09,758h0l44.68-23.49a2.8,2.8,0,0,1,2.61,0L739.06,758h0l87.61,46.05a2.81,2.81,0,0,0,4.06-3l-25.27-147.3a2.8,2.8,0,0,1,.81-2.47L913.27,547a2.8,2.8,0,0,0-1.55-4.77L763.86,520.73a2.79,2.79,0,0,1-2.11-1.53l-66.14-134a2.8,2.8,0,0,0-5,0ZM782,707.91h0l5,29.45a2.81,2.81,0,0,1-2.23,3.28,2.83,2.83,0,0,1-1.83-.28L694.4,693.73a2.8,2.8,0,0,0-2.61,0l-60.65,31.89h0l-27.9,14.67a2.81,2.81,0,0,1-4.06-3l5.06-29.45h0l11.86-69.11a2.82,2.82,0,0,0-.81-2.48l-71.63-69.83a2.8,2.8,0,0,1-.06-4,2.84,2.84,0,0,1,1.61-.82l99-14.39a2.79,2.79,0,0,0,2.11-1.53L690.6,456a2.8,2.8,0,0,1,3.76-1.24A2.76,2.76,0,0,1,695.6,456l44.28,89.71a2.84,2.84,0,0,0,2.11,1.53L809,557h0l32,4.64a2.81,2.81,0,0,1,1.55,4.78l-25,24.42h0L770.9,636.28a2.78,2.78,0,0,0-.8,2.48Z"/><path class="cls-1" d="M456.56,25,390.42,159a2.79,2.79,0,0,1-2.11,1.53L240.41,182a2.8,2.8,0,0,0-2.37,3.17,2.84,2.84,0,0,0,.82,1.61l107,104.32a2.78,2.78,0,0,1,.8,2.48L321.42,440.88a2.81,2.81,0,0,0,2.23,3.28,2.83,2.83,0,0,0,1.83-.28l87.61-46.05h0l44.68-23.49a2.78,2.78,0,0,1,2.6,0l44.69,23.49h0l87.6,46.05a2.81,2.81,0,0,0,4.06-3L571.46,293.59a2.78,2.78,0,0,1,.8-2.48l107-104.32A2.81,2.81,0,0,0,677.7,182l-147.9-21.5a2.76,2.76,0,0,1-2.1-1.53L461.55,25a2.8,2.8,0,0,0-5,0Zm91.37,322.77h0l5.07,29.4a2.81,2.81,0,0,1-2.23,3.28,2.83,2.83,0,0,1-1.83-.28l-88.55-46.56a2.78,2.78,0,0,0-2.6,0l-60.66,31.89h0l-27.89,14.67a2.81,2.81,0,0,1-4.06-3l5-29.45h0L382,278.53a2.78,2.78,0,0,0-.8-2.48L309.6,206.22a2.8,2.8,0,0,1-.06-4,2.84,2.84,0,0,1,1.61-.82l99-14.39a2.76,2.76,0,0,0,2.1-1.53l44.28-89.7a2.8,2.8,0,0,1,3.76-1.24,2.76,2.76,0,0,1,1.24,1.24l44.28,89.72a2.76,2.76,0,0,0,2.1,1.53l67,9.73h0l32,4.64a2.8,2.8,0,0,1,2.37,3.17,2.84,2.84,0,0,1-.82,1.61l-25,24.42h0l-46.58,45.41a2.82,2.82,0,0,0-.81,2.48Z"/><path class="cls-4" d="M456.47,7.19l-66.15,134a2.76,2.76,0,0,1-2.1,1.53l-147.9,21.5a2.8,2.8,0,0,0-1.56,4.77l107,104.33a2.8,2.8,0,0,1,.81,2.47L321.3,423.09a2.8,2.8,0,0,0,4.07,3L413,380h0l44.68-23.49a2.8,2.8,0,0,1,2.61,0L505,380h0l87.61,46.05a2.8,2.8,0,0,0,3.78-1.18,2.85,2.85,0,0,0,.28-1.77L571.4,275.81a2.8,2.8,0,0,1,.81-2.47L679.21,169a2.8,2.8,0,0,0-1.55-4.77L529.74,142.73a2.79,2.79,0,0,1-2.11-1.53L461.49,7.2a2.8,2.8,0,0,0-5,0Zm91.37,322.72h0l5,29.45a2.81,2.81,0,0,1-2.29,3.23,2.85,2.85,0,0,1-1.77-.28l-88.5-46.58a2.8,2.8,0,0,0-2.61,0L397,347.64h0l-27.9,14.67a2.8,2.8,0,0,1-3.78-1.18,2.85,2.85,0,0,1-.28-1.77l5.06-29.45h0L382,260.73a2.82,2.82,0,0,0-.81-2.48l-71.64-69.83a2.81,2.81,0,0,1,1.56-4.78l99-14.39a2.79,2.79,0,0,0,2.11-1.53L456.5,78a2.8,2.8,0,0,1,3.76-1.24A2.76,2.76,0,0,1,461.5,78l44.26,89.71a2.84,2.84,0,0,0,2.11,1.53l67,9.73h0l32,4.64a2.81,2.81,0,0,1,1.55,4.78l-25,24.42h0l-46.59,45.41a2.76,2.76,0,0,0-.83,2.49Z"/></svg>