<svg id="Laag_1" data-name="Laag 1" xmlns="http://www.w3.org/2000/svg" viewBox="0 0 87.01 86.49"><defs><style>.cls-1{fill:none;stroke:#fff;stroke-linecap:round;stroke-linejoin:round;stroke-width:2px;}</style></defs><title>aircraft</title><path class="cls-1" d="M960,583h0c-3.43,0-6.31-8.86-6.42-11.91L951,514.44c0-4.18,2.32-16,8.94-16h0c6.78,0,8.95,11.77,8.95,16l-2.52,56.63C966.28,574.12,963.4,583,960,583Z" transform="translate(-916.46 -497.49)"/><path class="cls-1" d="M951.37,523.4l-31.57,12a2.86,2.86,0,0,0-2.34,2.87v4.35a4.58,4.58,0,0,0,4.45,4.7h30.24" transform="translate(-916.46 -497.49)"/><path class="cls-1" d="M968.64,523.44l31.49,11.95a2.86,2.86,0,0,1,2.34,2.87v4.35a4.58,4.58,0,0,1-4.45,4.7H967.66" transform="translate(-916.46 -497.49)"/><path class="cls-1" d="M952.75,559l-13.21,5.86a4.93,4.93,0,0,0-2.94,4.52c0,3.58,2.3,4.85,6.95,4.53l9.2-.12" transform="translate(-916.46 -497.49)"/><path class="cls-1" d="M967,559l13.21,5.86a4.94,4.94,0,0,1,2.95,4.52c0,3.58-2.3,4.85-7,4.53l-9.2-.12" transform="translate(-916.46 -497.49)"/></svg>