<svg id="Laag_1" data-name="Laag 1" xmlns="http://www.w3.org/2000/svg" viewBox="0 0 672.6 641.98"><defs><style>.cls-1{fill:#ddd;}.cls-2{fill:#ff4c3b;}.cls-3{fill:#ff614f;}.cls-4{fill:#0e78c1;}.cls-5{fill:#f1c40f;}.cls-6{fill:#e2e1e0;}.cls-7{fill:#ededed;}.cls-16,.cls-8{fill:#ffd034;}.cls-8{opacity:0.7;}.cls-9{opacity:0.06;}.cls-10{fill:#0072bb;}.cls-11,.cls-28{opacity:0.1;}.cls-12{fill:#f2f2f2;}.cls-13,.cls-29{fill:#fff;}.cls-14{opacity:0.3;}.cls-15{fill:#333;}.cls-15,.cls-16,.cls-21,.cls-22,.cls-23{fill-rule:evenodd;}.cls-17{fill:#ff63a4;}.cls-18{fill:#00aecb;}.cls-19{fill:#00f345;}.cls-20{fill:#ffac13;}.cls-21{fill:#f9b710;}.cls-22{opacity:0.2;}.cls-23{fill:#ef6f00;}.cls-24,.cls-28{fill:#231f20;}.cls-24,.cls-29{opacity:0.5;}.cls-25{fill:#033d6d;}.cls-26{fill:#f68817;}.cls-27{fill:#f99841;}</style></defs><title>design</title><g id="Design_Web" data-name="Design Web"><g id="Design_Web-2" data-name="Design Web"><g id="Web"><path class="cls-1" d="M341.31,200.76H659.39A13.2,13.2,0,0,1,672.6,214V448.41a13.2,13.2,0,0,1-13.2,13.2H341.31a13.2,13.2,0,0,1-13.2-13.2V214A13.21,13.21,0,0,1,341.31,200.76Z"/><path class="cls-2" d="M1109.54,411.56H791.46a13.21,13.21,0,0,0-13.21,13.21V476h344.5V424.77A13.22,13.22,0,0,0,1109.54,411.56Z" transform="translate(-450.15 -210.8)"/><path class="cls-3" d="M1068.09,423.3a6.61,6.61,0,1,1-6.61-6.6A6.61,6.61,0,0,1,1068.09,423.3Z" transform="translate(-450.15 -210.8)"/><path class="cls-4" d="M1089.91,423.3a6.61,6.61,0,1,1-6.6-6.6A6.6,6.6,0,0,1,1089.91,423.3Z" transform="translate(-450.15 -210.8)"/><path class="cls-5" d="M1112.66,423.3a6.61,6.61,0,1,1-6.6-6.6A6.61,6.61,0,0,1,1112.66,423.3Z" transform="translate(-450.15 -210.8)"/><path class="cls-6" d="M1036.9,433.53a10.23,10.23,0,0,1-10.23,10.23H825.35a10.23,10.23,0,0,1-10.23-10.23h0a10.23,10.23,0,0,1,10.23-10.23h201.32a10.23,10.23,0,0,1,10.23,10.23Z" transform="translate(-450.15 -210.8)"/><rect class="cls-7" x="345.16" y="277.26" width="205.45" height="104.19"/><rect class="cls-8" x="345.16" y="400.53" width="310.75" height="19.07"/><rect class="cls-8" x="344.97" y="428.41" width="310.75" height="19.08"/><path class="cls-9" d="M1109.54,411.56H950.68V672.41h158.86a13.21,13.21,0,0,0,13.21-13.2V424.77A13.22,13.22,0,0,0,1109.54,411.56Z" transform="translate(-450.15 -210.8)"/></g><g id="Line"><polygon class="cls-10" points="47.57 187.43 47.57 563.41 319.7 563.41 319.7 250.64 259.2 187.43 47.57 187.43"/><polygon class="cls-11" points="260.33 248.76 321.75 310.18 321.75 248.76 277.23 223.68 260.33 248.76"/><polygon class="cls-12" points="319.7 250.64 259.2 251.58 259.2 187.43 319.7 250.64"/><path class="cls-13" d="M569.86,529.67,586.54,542l12.32-16.68L582.18,513ZM594.19,526l-8.35,11.29L574.53,529l8.35-11.3Z" transform="translate(-450.15 -210.8)"/><path class="cls-13" d="M660.24,596.43l16.68,12.32,12.32-16.68-16.68-12.32Zm24.32-3.65-8.34,11.3-11.31-8.35,8.35-11.31Z" transform="translate(-450.15 -210.8)"/><path class="cls-13" d="M666,600.71a53.44,53.44,0,0,1-84.34-62.31L577,534.94a59.15,59.15,0,0,0,93.7,69.22Z" transform="translate(-450.15 -210.8)"/><path class="cls-13" d="M589.32,518.26l4.67,3.46A53.45,53.45,0,0,1,678.35,584l4.68,3.45a59.16,59.16,0,0,0-93.71-69.22Z" transform="translate(-450.15 -210.8)"/></g><g id="Keyboard"><rect class="cls-1" x="152.03" y="471.71" width="452.44" height="170.27"/><g id="Keyboard-2" data-name="Keyboard" class="cls-14"><path class="cls-15" d="M626.79,703.52h20.08c1.19,0,2.12,1.27,2.12,2.79v21.63c0,1.53-.93,2.79-2.12,2.79H626.79c-1.2,0-2.17-1.26-2.17-2.79V706.31c0-1.52,1-2.79,2.17-2.79Z" transform="translate(-450.15 -210.8)"/><path class="cls-15" d="M659.36,703.52h20.08c1.19,0,2.17,1.27,2.17,2.79v21.63c0,1.53-1,2.79-2.17,2.79H659.36c-1.18,0-2.17-1.26-2.17-2.79V706.31c0-1.52,1-2.79,2.17-2.79Z" transform="translate(-450.15 -210.8)"/><path class="cls-15" d="M692,703.52h20c1.19,0,2.17,1.27,2.17,2.79v21.63c0,1.53-1,2.79-2.17,2.79H692c-1.19,0-2.18-1.26-2.18-2.79V706.31c0-1.52,1-2.79,2.18-2.79Z" transform="translate(-450.15 -210.8)"/><path class="cls-15" d="M724.55,703.52h20c1.23,0,2.17,1.27,2.17,2.79v21.63c0,1.53-.94,2.79-2.17,2.79h-20c-1.18,0-2.17-1.26-2.17-2.79V706.31c0-1.52,1-2.79,2.17-2.79Z" transform="translate(-450.15 -210.8)"/><path class="cls-15" d="M757.13,703.52h20.08c1.19,0,2.17,1.27,2.17,2.79v21.63c0,1.53-1,2.79-2.17,2.79H757.13c-1.18,0-2.17-1.26-2.17-2.79V706.31c0-1.52,1-2.79,2.17-2.79Z" transform="translate(-450.15 -210.8)"/><path class="cls-15" d="M789.75,703.52h20c1.2,0,2.17,1.27,2.17,2.79v21.63c0,1.53-1,2.79-2.17,2.79h-20c-1.19,0-2.18-1.26-2.18-2.79V706.31c0-1.52,1-2.79,2.18-2.79Z" transform="translate(-450.15 -210.8)"/><path class="cls-15" d="M822.32,703.52h20c1.23,0,2.17,1.27,2.17,2.79v21.63c0,1.53-.94,2.79-2.17,2.79h-20c-1.19,0-2.17-1.26-2.17-2.79V706.31c0-1.52,1-2.79,2.17-2.79Z" transform="translate(-450.15 -210.8)"/><path class="cls-15" d="M854.89,703.52H875c1.18,0,2.17,1.27,2.17,2.79v21.63c0,1.53-1,2.79-2.17,2.79H854.89c-1.18,0-2.16-1.26-2.16-2.79V706.31c0-1.52,1-2.79,2.16-2.79Z" transform="translate(-450.15 -210.8)"/><path class="cls-15" d="M887.52,703.52h20c1.19,0,2.18,1.27,2.18,2.79v21.63c0,1.53-1,2.79-2.18,2.79h-20c-1.24,0-2.17-1.26-2.17-2.79V706.31c0-1.52.93-2.79,2.17-2.79Z" transform="translate(-450.15 -210.8)"/><path class="cls-15" d="M920.09,703.52h20c1.23,0,2.17,1.27,2.17,2.79v21.63c0,1.53-.94,2.79-2.17,2.79h-20c-1.19,0-2.17-1.26-2.17-2.79V706.31c0-1.52,1-2.79,2.17-2.79Z" transform="translate(-450.15 -210.8)"/><path class="cls-15" d="M952.67,703.52h20.08c1.19,0,2.16,1.27,2.16,2.79v21.63c0,1.53-1,2.79-2.16,2.79H952.67c-1.19,0-2.17-1.26-2.17-2.79V706.31c0-1.52,1-2.79,2.17-2.79Z" transform="translate(-450.15 -210.8)"/><path class="cls-15" d="M675.71,741.29h20c1.19,0,2.17,1.26,2.17,2.79V765.7c0,1.53-1,2.8-2.17,2.8h-20c-1.19,0-2.17-1.27-2.17-2.8V744.08c0-1.53,1-2.79,2.17-2.79Z" transform="translate(-450.15 -210.8)"/><path class="cls-15" d="M708.29,741.29h20.08c1.18,0,2.17,1.26,2.17,2.79V765.7c0,1.53-1,2.8-2.17,2.8H708.29c-1.19,0-2.17-1.27-2.17-2.8V744.08c0-1.53,1-2.79,2.17-2.79Z" transform="translate(-450.15 -210.8)"/><path class="cls-15" d="M740.87,741.29h20.07c1.19,0,2.17,1.26,2.17,2.79V765.7c0,1.53-1,2.8-2.17,2.8H740.87c-1.2,0-2.14-1.27-2.14-2.8V744.08c0-1.53.94-2.79,2.14-2.79Z" transform="translate(-450.15 -210.8)"/><path class="cls-15" d="M773.48,741.29h20c1.18,0,2.17,1.26,2.17,2.79V765.7c0,1.53-1,2.8-2.17,2.8h-20c-1.18,0-2.17-1.27-2.17-2.8V744.08c0-1.53,1-2.79,2.17-2.79Z" transform="translate(-450.15 -210.8)"/><path class="cls-15" d="M806.05,741.29h20.08c1.19,0,2.14,1.26,2.14,2.79V765.7c0,1.53-.95,2.8-2.14,2.8H806.05c-1.18,0-2.16-1.27-2.16-2.8V744.08c0-1.53,1-2.79,2.16-2.79Z" transform="translate(-450.15 -210.8)"/><path class="cls-15" d="M838.63,741.29h20.08c1.19,0,2.17,1.26,2.17,2.79V765.7c0,1.53-1,2.8-2.17,2.8H838.63c-1.19,0-2.17-1.27-2.17-2.8V744.08c0-1.53,1-2.79,2.17-2.79Z" transform="translate(-450.15 -210.8)"/><path class="cls-15" d="M871.25,741.29h20c1.19,0,2.16,1.26,2.16,2.79V765.7c0,1.53-1,2.8-2.16,2.8h-20c-1.19,0-2.17-1.27-2.17-2.8V744.08c0-1.53,1-2.79,2.17-2.79Z" transform="translate(-450.15 -210.8)"/><path class="cls-15" d="M903.82,741.29H923.9c1.19,0,2.13,1.26,2.13,2.79V765.7c0,1.53-.94,2.8-2.13,2.8H903.82c-1.19,0-2.17-1.27-2.17-2.8V744.08c0-1.53,1-2.79,2.17-2.79Z" transform="translate(-450.15 -210.8)"/><path class="cls-15" d="M936.4,741.29h20.08c1.19,0,2.17,1.26,2.17,2.79V765.7c0,1.53-1,2.8-2.17,2.8H936.4c-1.19,0-2.18-1.27-2.18-2.8V744.08c0-1.53,1-2.79,2.18-2.79Z" transform="translate(-450.15 -210.8)"/><path class="cls-15" d="M969,741.29h20c1.19,0,2.17,1.26,2.17,2.79V765.7c0,1.53-1,2.8-2.17,2.8H969c-1.18,0-2.17-1.27-2.17-2.8V744.08c0-1.53,1-2.79,2.17-2.79Z" transform="translate(-450.15 -210.8)"/><path class="cls-15" d="M985.29,703.52h20c1.18,0,2.17,1.27,2.17,2.79v21.63c0,1.53-1,2.79-2.17,2.79h-20c-1.23,0-2.18-1.26-2.18-2.79V706.31c0-1.52.95-2.79,2.18-2.79Z" transform="translate(-450.15 -210.8)"/><path class="cls-15" d="M1017.86,703.52h20c1.18,0,2.17,1.27,2.17,2.79v21.63c0,1.53-1,2.79-2.17,2.79h-20c-1.19,0-2.17-1.26-2.17-2.79V706.31c0-1.52,1-2.79,2.17-2.79Z" transform="translate(-450.15 -210.8)"/><path class="cls-15" d="M1002.13,741.29h35.77c1.18,0,2.17,1.26,2.17,2.79V765.7c0,1.53-1,2.8-2.17,2.8h-35.77c-1.19,0-2.18-1.27-2.18-2.8V744.08c0-1.53,1-2.79,2.18-2.79Z" transform="translate(-450.15 -210.8)"/><path class="cls-15" d="M627.11,741.29h37.13c1.19,0,2.17,1.26,2.17,2.79V765.7c0,1.53-1,2.8-2.17,2.8H627.11c-1.23,0-2.17-1.27-2.17-2.8V744.08c0-1.53.94-2.79,2.17-2.79Z" transform="translate(-450.15 -210.8)"/><path class="cls-15" d="M627.11,779.05h44.34c1.19,0,2.17,1.27,2.17,2.79v21.63c0,1.53-1,2.79-2.17,2.79H627.11c-1.23,0-2.17-1.26-2.17-2.79V781.84c0-1.52.94-2.79,2.17-2.79Z" transform="translate(-450.15 -210.8)"/><path class="cls-15" d="M627.11,816.81h20c1.19,0,2.17,1.27,2.17,2.8v21.62c0,1.53-1,2.8-2.17,2.8h-20c-1.23,0-2.17-1.27-2.17-2.8V819.61c0-1.53.94-2.8,2.17-2.8Z" transform="translate(-450.15 -210.8)"/><path class="cls-15" d="M659.65,816.81h20c1.19,0,2.18,1.27,2.18,2.8v21.62c0,1.53-1,2.8-2.18,2.8h-20c-1.18,0-2.17-1.27-2.17-2.8V819.61c0-1.53,1-2.8,2.17-2.8Z" transform="translate(-450.15 -210.8)"/><path class="cls-15" d="M692.18,816.81h20c1.24,0,2.18,1.27,2.18,2.8v21.62c0,1.53-.94,2.8-2.18,2.8h-20c-1.18,0-2.16-1.27-2.16-2.8V819.61c0-1.53,1-2.8,2.16-2.8Z" transform="translate(-450.15 -210.8)"/><path class="cls-15" d="M724.72,816.81H933.08c1.22,0,2.18,1.27,2.18,2.8v21.62c0,1.53-1,2.8-2.18,2.8H724.72c-1.18,0-2.17-1.27-2.17-2.8V819.61c0-1.53,1-2.8,2.17-2.8Z" transform="translate(-450.15 -210.8)"/><path class="cls-15" d="M683.5,779.42h20c1.2,0,2.18,1.26,2.18,2.79v21.63c0,1.53-1,2.79-2.18,2.79h-20c-1.2,0-2.18-1.26-2.18-2.79V782.21c0-1.53,1-2.79,2.18-2.79Z" transform="translate(-450.15 -210.8)"/><path class="cls-15" d="M716.07,779.42h20.08c1.19,0,2.17,1.26,2.17,2.79v21.63c0,1.53-1,2.79-2.17,2.79H716.07c-1.19,0-2.17-1.26-2.17-2.79V782.21c0-1.53,1-2.79,2.17-2.79Z" transform="translate(-450.15 -210.8)"/><path class="cls-15" d="M748.65,779.42h20.08c1.18,0,2.17,1.26,2.17,2.79v21.63c0,1.53-1,2.79-2.17,2.79H748.65c-1.19,0-2.13-1.26-2.13-2.79V782.21c0-1.53.94-2.79,2.13-2.79Z" transform="translate(-450.15 -210.8)"/><path class="cls-15" d="M781.26,779.42h20c1.19,0,2.17,1.26,2.17,2.79v21.63c0,1.53-1,2.79-2.17,2.79h-20c-1.19,0-2.17-1.26-2.17-2.79V782.21c0-1.53,1-2.79,2.17-2.79Z" transform="translate(-450.15 -210.8)"/><path class="cls-15" d="M813.84,779.42h20.08c1.19,0,2.13,1.26,2.13,2.79v21.63c0,1.53-.94,2.79-2.13,2.79H813.84c-1.18,0-2.17-1.26-2.17-2.79V782.21c0-1.53,1-2.79,2.17-2.79Z" transform="translate(-450.15 -210.8)"/><path class="cls-15" d="M846.42,779.42h20.07c1.19,0,2.18,1.26,2.18,2.79v21.63c0,1.53-1,2.79-2.18,2.79H846.42c-1.19,0-2.17-1.26-2.17-2.79V782.21c0-1.53,1-2.79,2.17-2.79Z" transform="translate(-450.15 -210.8)"/><path class="cls-15" d="M879,779.42h20c1.19,0,2.17,1.26,2.17,2.79v21.63c0,1.53-1,2.79-2.17,2.79H879c-1.19,0-2.17-1.26-2.17-2.79V782.21c0-1.53,1-2.79,2.17-2.79Z" transform="translate(-450.15 -210.8)"/><path class="cls-15" d="M911.61,779.42h20.07c1.19,0,2.14,1.26,2.14,2.79v21.63c0,1.53-1,2.79-2.14,2.79H911.61c-1.19,0-2.17-1.26-2.17-2.79V782.21c0-1.53,1-2.79,2.17-2.79Z" transform="translate(-450.15 -210.8)"/><path class="cls-15" d="M944.18,779.42h37.33c1.19,0,2.18,1.26,2.18,2.79v21.63c0,1.53-1,2.79-2.18,2.79H944.18c-1.19,0-2.16-1.26-2.16-2.79V782.21c0-1.53,1-2.79,2.16-2.79Z" transform="translate(-450.15 -210.8)"/><path class="cls-15" d="M993.31,779.05h44.38c1.19,0,2.17,1.27,2.17,2.79v21.63c0,1.53-1,2.79-2.17,2.79H993.31c-1.19,0-2.16-1.26-2.16-2.79V781.84c0-1.52,1-2.79,2.16-2.79Z" transform="translate(-450.15 -210.8)"/><path class="cls-15" d="M997.29,816.81H1014a.9.9,0,0,1,.78,1v7.49a.89.89,0,0,1-.78,1H997.29a.86.86,0,0,1-.73-1v-7.49a.87.87,0,0,1,.73-1Z" transform="translate(-450.15 -210.8)"/><path class="cls-15" d="M997.29,833.11H1014a.89.89,0,0,1,.78.95v7.44a.9.9,0,0,1-.78,1H997.29a.87.87,0,0,1-.73-1v-7.44a.86.86,0,0,1,.73-.95Z" transform="translate(-450.15 -210.8)"/><path class="cls-15" d="M972.5,833.11h16.72a.89.89,0,0,1,.78.95v7.44a.9.9,0,0,1-.78,1H972.5a.87.87,0,0,1-.74-1v-7.44a.86.86,0,0,1,.74-.95Z" transform="translate(-450.15 -210.8)"/><path class="cls-15" d="M1022,833.11h16.72c.41,0,.73.42.73.95v7.44a.86.86,0,0,1-.73,1H1022a.9.9,0,0,1-.78-1v-7.44a.89.89,0,0,1,.78-.95Z" transform="translate(-450.15 -210.8)"/><path class="cls-15" d="M943.4,816.81h20.08c1.19,0,2.18,1.27,2.18,2.8v21.62c0,1.53-1,2.8-2.18,2.8H943.4c-1.18,0-2.16-1.27-2.16-2.8V819.61c0-1.53,1-2.8,2.16-2.8Z" transform="translate(-450.15 -210.8)"/></g><g id="Keyboard-3" data-name="Keyboard"><path class="cls-15" d="M624.49,700.5h20.08c1.19,0,2.13,1.27,2.13,2.79v21.63c0,1.53-.94,2.79-2.13,2.79H624.49c-1.2,0-2.17-1.26-2.17-2.79V703.29c0-1.52,1-2.79,2.17-2.79Z" transform="translate(-450.15 -210.8)"/><path class="cls-15" d="M657.06,700.5h20.08c1.19,0,2.17,1.27,2.17,2.79v21.63c0,1.53-1,2.79-2.17,2.79H657.06c-1.18,0-2.17-1.26-2.17-2.79V703.29c0-1.52,1-2.79,2.17-2.79Z" transform="translate(-450.15 -210.8)"/><path class="cls-15" d="M689.68,700.5h20c1.19,0,2.17,1.27,2.17,2.79v21.63c0,1.53-1,2.79-2.17,2.79h-20c-1.18,0-2.17-1.26-2.17-2.79V703.29c0-1.52,1-2.79,2.17-2.79Z" transform="translate(-450.15 -210.8)"/><path class="cls-15" d="M722.25,700.5h20c1.22,0,2.16,1.27,2.16,2.79v21.63c0,1.53-.94,2.79-2.16,2.79h-20c-1.19,0-2.16-1.26-2.16-2.79V703.29c0-1.52,1-2.79,2.16-2.79Z" transform="translate(-450.15 -210.8)"/><path class="cls-15" d="M754.84,700.5h20.07c1.19,0,2.17,1.27,2.17,2.79v21.63c0,1.53-1,2.79-2.17,2.79H754.84c-1.2,0-2.18-1.26-2.18-2.79V703.29c0-1.52,1-2.79,2.18-2.79Z" transform="translate(-450.15 -210.8)"/><path class="cls-15" d="M787.45,700.5h20c1.19,0,2.16,1.27,2.16,2.79v21.63c0,1.53-1,2.79-2.16,2.79h-20c-1.19,0-2.18-1.26-2.18-2.79V703.29c0-1.52,1-2.79,2.18-2.79Z" transform="translate(-450.15 -210.8)"/><path class="cls-15" d="M820,700.5h20c1.23,0,2.17,1.27,2.17,2.79v21.63c0,1.53-.94,2.79-2.17,2.79H820c-1.19,0-2.16-1.26-2.16-2.79V703.29c0-1.52,1-2.79,2.16-2.79Z" transform="translate(-450.15 -210.8)"/><path class="cls-15" d="M852.6,700.5h20.08c1.19,0,2.17,1.27,2.17,2.79v21.63c0,1.53-1,2.79-2.17,2.79H852.6c-1.19,0-2.17-1.26-2.17-2.79V703.29c0-1.52,1-2.79,2.17-2.79Z" transform="translate(-450.15 -210.8)"/><path class="cls-15" d="M885.22,700.5h20c1.19,0,2.17,1.27,2.17,2.79v21.63c0,1.53-1,2.79-2.17,2.79h-20c-1.24,0-2.18-1.26-2.18-2.79V703.29c0-1.52.94-2.79,2.18-2.79Z" transform="translate(-450.15 -210.8)"/><path class="cls-15" d="M917.79,700.5h20c1.23,0,2.17,1.27,2.17,2.79v21.63c0,1.53-.94,2.79-2.17,2.79h-20c-1.19,0-2.17-1.26-2.17-2.79V703.29c0-1.52,1-2.79,2.17-2.79Z" transform="translate(-450.15 -210.8)"/><path class="cls-15" d="M950.37,700.5h20.08c1.19,0,2.16,1.27,2.16,2.79v21.63c0,1.53-1,2.79-2.16,2.79H950.37c-1.18,0-2.17-1.26-2.17-2.79V703.29c0-1.52,1-2.79,2.17-2.79Z" transform="translate(-450.15 -210.8)"/><path class="cls-15" d="M673.41,738.27h20c1.19,0,2.17,1.26,2.17,2.79v21.62c0,1.53-1,2.8-2.17,2.8h-20c-1.19,0-2.17-1.27-2.17-2.8V741.06c0-1.53,1-2.79,2.17-2.79Z" transform="translate(-450.15 -210.8)"/><path class="cls-15" d="M706,738.27h20.09c1.19,0,2.17,1.26,2.17,2.79v21.62c0,1.53-1,2.8-2.17,2.8H706c-1.18,0-2.16-1.27-2.16-2.8V741.06c0-1.53,1-2.79,2.16-2.79Z" transform="translate(-450.15 -210.8)"/><path class="cls-15" d="M738.57,738.27h20.07c1.19,0,2.18,1.26,2.18,2.79v21.62c0,1.53-1,2.8-2.18,2.8H738.57c-1.2,0-2.14-1.27-2.14-2.8V741.06c0-1.53.94-2.79,2.14-2.79Z" transform="translate(-450.15 -210.8)"/><path class="cls-15" d="M771.18,738.27h20c1.19,0,2.17,1.26,2.17,2.79v21.62c0,1.53-1,2.8-2.17,2.8h-20c-1.19,0-2.17-1.27-2.17-2.8V741.06c0-1.53,1-2.79,2.17-2.79Z" transform="translate(-450.15 -210.8)"/><path class="cls-15" d="M803.75,738.27h20.09c1.18,0,2.12,1.26,2.12,2.79v21.62c0,1.53-.94,2.8-2.12,2.8H803.75c-1.18,0-2.16-1.27-2.16-2.8V741.06c0-1.53,1-2.79,2.16-2.79Z" transform="translate(-450.15 -210.8)"/><path class="cls-15" d="M836.33,738.27h20.08c1.19,0,2.17,1.26,2.17,2.79v21.62c0,1.53-1,2.8-2.17,2.8H836.33c-1.18,0-2.17-1.27-2.17-2.8V741.06c0-1.53,1-2.79,2.17-2.79Z" transform="translate(-450.15 -210.8)"/><path class="cls-15" d="M869,738.27h20c1.2,0,2.17,1.26,2.17,2.79v21.62c0,1.53-1,2.8-2.17,2.8H869c-1.19,0-2.17-1.27-2.17-2.8V741.06c0-1.53,1-2.79,2.17-2.79Z" transform="translate(-450.15 -210.8)"/><path class="cls-15" d="M901.53,738.27H921.6c1.19,0,2.14,1.26,2.14,2.79v21.62c0,1.53-1,2.8-2.14,2.8H901.53c-1.2,0-2.17-1.27-2.17-2.8V741.06c0-1.53,1-2.79,2.17-2.79Z" transform="translate(-450.15 -210.8)"/><path class="cls-15" d="M934.1,738.27h20.08c1.18,0,2.17,1.26,2.17,2.79v21.62c0,1.53-1,2.8-2.17,2.8H934.1c-1.19,0-2.18-1.27-2.18-2.8V741.06c0-1.53,1-2.79,2.18-2.79Z" transform="translate(-450.15 -210.8)"/><path class="cls-15" d="M966.72,738.27h20c1.18,0,2.17,1.26,2.17,2.79v21.62c0,1.53-1,2.8-2.17,2.8h-20c-1.19,0-2.17-1.27-2.17-2.8V741.06c0-1.53,1-2.79,2.17-2.79Z" transform="translate(-450.15 -210.8)"/><path class="cls-15" d="M983,700.5h20c1.18,0,2.17,1.27,2.17,2.79v21.63c0,1.53-1,2.79-2.17,2.79H983c-1.23,0-2.18-1.26-2.18-2.79V703.29c0-1.52,1-2.79,2.18-2.79Z" transform="translate(-450.15 -210.8)"/><path class="cls-15" d="M1015.56,700.5h20c1.19,0,2.17,1.27,2.17,2.79v21.63c0,1.53-1,2.79-2.17,2.79h-20c-1.19,0-2.17-1.26-2.17-2.79V703.29c0-1.52,1-2.79,2.17-2.79Z" transform="translate(-450.15 -210.8)"/><path class="cls-15" d="M999.83,738.27h35.77c1.19,0,2.17,1.26,2.17,2.79v21.62c0,1.53-1,2.8-2.17,2.8H999.83c-1.19,0-2.18-1.27-2.18-2.8V741.06c0-1.53,1-2.79,2.18-2.79Z" transform="translate(-450.15 -210.8)"/><path class="cls-15" d="M624.81,738.27h37.13c1.19,0,2.17,1.26,2.17,2.79v21.62c0,1.53-1,2.8-2.17,2.8H624.81c-1.23,0-2.16-1.27-2.16-2.8V741.06c0-1.53.93-2.79,2.16-2.79Z" transform="translate(-450.15 -210.8)"/><path class="cls-15" d="M624.81,776h44.34c1.19,0,2.18,1.27,2.18,2.8v21.62c0,1.53-1,2.8-2.18,2.8H624.81c-1.23,0-2.16-1.27-2.16-2.8V778.83c0-1.53.93-2.8,2.16-2.8Z" transform="translate(-450.15 -210.8)"/><path class="cls-15" d="M624.81,813.8h20c1.19,0,2.17,1.26,2.17,2.79v21.62c0,1.54-1,2.8-2.17,2.8h-20c-1.23,0-2.16-1.26-2.16-2.8V816.59c0-1.53.93-2.79,2.16-2.79Z" transform="translate(-450.15 -210.8)"/><path class="cls-15" d="M657.35,813.8h20c1.19,0,2.17,1.26,2.17,2.79v21.62c0,1.54-1,2.8-2.17,2.8h-20c-1.18,0-2.17-1.26-2.17-2.8V816.59c0-1.53,1-2.79,2.17-2.79Z" transform="translate(-450.15 -210.8)"/><path class="cls-15" d="M689.88,813.8h20c1.23,0,2.18,1.26,2.18,2.79v21.62c0,1.54-.95,2.8-2.18,2.8h-20c-1.18,0-2.16-1.26-2.16-2.8V816.59c0-1.53,1-2.79,2.16-2.79Z" transform="translate(-450.15 -210.8)"/><path class="cls-15" d="M722.42,813.8H930.78c1.23,0,2.18,1.26,2.18,2.79v21.62c0,1.54-1,2.8-2.18,2.8H722.42c-1.18,0-2.17-1.26-2.17-2.8V816.59c0-1.53,1-2.79,2.17-2.79Z" transform="translate(-450.15 -210.8)"/><path class="cls-15" d="M681.2,776.4h20c1.19,0,2.17,1.26,2.17,2.8v21.62c0,1.53-1,2.8-2.17,2.8h-20c-1.19,0-2.18-1.27-2.18-2.8V779.2c0-1.54,1-2.8,2.18-2.8Z" transform="translate(-450.15 -210.8)"/><path class="cls-15" d="M713.77,776.4h20.08c1.19,0,2.17,1.26,2.17,2.8v21.62c0,1.53-1,2.8-2.17,2.8H713.77c-1.18,0-2.17-1.27-2.17-2.8V779.2c0-1.54,1-2.8,2.17-2.8Z" transform="translate(-450.15 -210.8)"/><path class="cls-15" d="M746.35,776.4h20.08c1.19,0,2.17,1.26,2.17,2.8v21.62c0,1.53-1,2.8-2.17,2.8H746.35c-1.19,0-2.13-1.27-2.13-2.8V779.2c0-1.54.94-2.8,2.13-2.8Z" transform="translate(-450.15 -210.8)"/><path class="cls-15" d="M779,776.4h20c1.19,0,2.18,1.26,2.18,2.8v21.62c0,1.53-1,2.8-2.18,2.8H779c-1.19,0-2.18-1.27-2.18-2.8V779.2c0-1.54,1-2.8,2.18-2.8Z" transform="translate(-450.15 -210.8)"/><path class="cls-15" d="M811.54,776.4h20.09c1.18,0,2.12,1.26,2.12,2.8v21.62c0,1.53-.94,2.8-2.12,2.8H811.54c-1.18,0-2.17-1.27-2.17-2.8V779.2c0-1.54,1-2.8,2.17-2.8Z" transform="translate(-450.15 -210.8)"/><path class="cls-15" d="M844.11,776.4h20.08c1.19,0,2.18,1.26,2.18,2.8v21.62c0,1.53-1,2.8-2.18,2.8H844.11c-1.18,0-2.16-1.27-2.16-2.8V779.2c0-1.54,1-2.8,2.16-2.8Z" transform="translate(-450.15 -210.8)"/><path class="cls-15" d="M876.74,776.4h20c1.19,0,2.18,1.26,2.18,2.8v21.62c0,1.53-1,2.8-2.18,2.8h-20c-1.2,0-2.18-1.27-2.18-2.8V779.2c0-1.54,1-2.8,2.18-2.8Z" transform="translate(-450.15 -210.8)"/><path class="cls-15" d="M909.3,776.4h20.09c1.18,0,2.13,1.26,2.13,2.8v21.62c0,1.53-.95,2.8-2.13,2.8H909.3c-1.18,0-2.16-1.27-2.16-2.8V779.2c0-1.54,1-2.8,2.16-2.8Z" transform="translate(-450.15 -210.8)"/><path class="cls-15" d="M941.88,776.4h37.33c1.2,0,2.18,1.26,2.18,2.8v21.62c0,1.53-1,2.8-2.18,2.8H941.88c-1.18,0-2.16-1.27-2.16-2.8V779.2c0-1.54,1-2.8,2.16-2.8Z" transform="translate(-450.15 -210.8)"/><path class="cls-15" d="M991,776h44.38c1.19,0,2.18,1.27,2.18,2.8v21.62c0,1.53-1,2.8-2.18,2.8H991c-1.19,0-2.16-1.27-2.16-2.8V778.83c0-1.53,1-2.8,2.16-2.8Z" transform="translate(-450.15 -210.8)"/><path class="cls-15" d="M995,813.8h16.72a.89.89,0,0,1,.78.94v7.49a.89.89,0,0,1-.78.95H995a.86.86,0,0,1-.73-.95v-7.49a.86.86,0,0,1,.73-.94Z" transform="translate(-450.15 -210.8)"/><path class="cls-15" d="M995,830.1h16.72a.89.89,0,0,1,.78.95v7.43a.9.9,0,0,1-.78.95H995a.87.87,0,0,1-.73-.95v-7.43a.86.86,0,0,1,.73-.95Z" transform="translate(-450.15 -210.8)"/><path class="cls-15" d="M970.2,830.1h16.72a.89.89,0,0,1,.78.95v7.43a.9.9,0,0,1-.78.95H970.2a.87.87,0,0,1-.74-.95v-7.43a.86.86,0,0,1,.74-.95Z" transform="translate(-450.15 -210.8)"/><path class="cls-15" d="M1019.74,830.1h16.72c.41,0,.73.42.73.95v7.43a.86.86,0,0,1-.73.95h-16.72a.9.9,0,0,1-.78-.95v-7.43a.89.89,0,0,1,.78-.95Z" transform="translate(-450.15 -210.8)"/><path class="cls-15" d="M941.1,813.8h20.09c1.19,0,2.17,1.26,2.17,2.79v21.62c0,1.54-1,2.8-2.17,2.8H941.1c-1.18,0-2.17-1.26-2.17-2.8V816.59c0-1.53,1-2.79,2.17-2.79Z" transform="translate(-450.15 -210.8)"/></g></g><g id="Brush"><path class="cls-16" d="M878.42,479.44c-33.06-8.28-42.4,6.4-18.3,22,20.84,13.47-9.44,16.19-9.44,16.19-25.8-.33-44.47,22.43-31.91,46.37,7.23,13.76,29,26.37,56.23,20.58C925.27,573.87,945.42,496.22,878.42,479.44Zm-20.63,64.64c-5.59-3.1-8.73-8.15-7-11.28s7.66-3.17,13.25-.07,8.71,8.14,7,11.27S863.38,547.17,857.79,544.08Z" transform="translate(-450.15 -210.8)"/><path class="cls-17" d="M867.89,573.61c-2.56.51-5.36-2.69-6.26-7.18s.46-8.51,3-9,5.36,2.7,6.25,7.17S870.45,573.1,867.89,573.61Z" transform="translate(-450.15 -210.8)"/><path class="cls-18" d="M909.22,542.66c-.71,2.51-4.85,3.53-9.24,2.27s-7.36-4.31-6.64-6.82,4.86-3.52,9.24-2.27S909.94,540.15,909.22,542.66Z" transform="translate(-450.15 -210.8)"/><path class="cls-19" d="M899,528.46c-2.47.87-5.69-1.91-7.21-6.21s-.76-8.5,1.7-9.37,5.69,1.91,7.21,6.22S901.44,527.59,899,528.46Z" transform="translate(-450.15 -210.8)"/><path class="cls-20" d="M874.75,502.33c-2.34-1.17-2.57-5.43-.53-9.5s5.59-6.44,7.92-5.27,2.57,5.43.53,9.51S877.08,503.5,874.75,502.33Z" transform="translate(-450.15 -210.8)"/><path class="cls-21" d="M914.88,489.35s15.78,19-5.15,34.87-24.58,21.25-24.58,21.25-15.75-48.79,23-60.63l3.26-.53Z" transform="translate(-450.15 -210.8)"/><path class="cls-22" d="M884.45,543c3-12.53,10.93-38.59,27.49-57.93l-.53-.76-3.26.53C874.61,495.09,881.88,533,884.45,543Z" transform="translate(-450.15 -210.8)"/><path class="cls-23" d="M1095.13,218.88c-34.9,38.1-124.6,137-161.19,186.67-45.93,62.29-26.07,80.29-26.07,80.29l2.36,1.34,4.37,3.17s24.81,10.81,66.65-54.1c33.35-51.74,93.36-169.79,116.34-215.59l5-9.86Z" transform="translate(-450.15 -210.8)"/><path class="cls-22" d="M933.94,405.55c-45.93,62.29-26.07,80.29-26.07,80.29l.78.44L1102.54,210.8l-7.41,8.08C1060.23,257,970.53,355.92,933.94,405.55Z" transform="translate(-450.15 -210.8)"/></g><g id="Pen"><path class="cls-24" d="M641.33,561.48l-4.21-3L613.91,589.8c1.87,8.48-5.19,8.86-6.08,8.87l-1.23-.93h0l-1.3-1c-.22-.86-1.73-7.78,7-8.22l24-30.69-4-3.27S612.37,570.63,596,565.08c0,0-10.21,33.5-19,36.94l.15.12c-.8-.6-2.18-.11-3.1,1.09s-1,2.68-.22,3.29l1.06.8L466.62,750.15a7.79,7.79,0,0,0-9.52,2.41l-.87,1.16a7.8,7.8,0,0,0,1.59,10.91L472,775.2h0l12.91,9.63a7.79,7.79,0,0,0,10.91-1.58l.87-1.16a7.79,7.79,0,0,0,.62-8.34l108.32-143,1.18.89c.8.61,2.19.13,3.11-1.08s1-2.67.22-3.29l-.1-.07.27.2c1-9.42,30.55-28.16,30.55-28.16C631.13,584.92,641.33,561.48,641.33,561.48Z" transform="translate(-450.15 -210.8)"/><path class="cls-25" d="M636.31,599.26c-9.71-14.34.49-37.78.49-37.78l-4.21-3L609.38,589.8c1.87,8.48-5.19,8.86-6.09,8.87l-2.52-1.92c-.23-.86-1.73-7.78,7-8.22l24-30.69-4-3.27s-19.89,16.06-36.3,10.51c0,0-10.2,33.5-19,36.94l13.94,10.69h0l4.71,3.58h0l14.71,11.13C606.72,618,636.31,599.26,636.31,599.26Z" transform="translate(-450.15 -210.8)"/><path class="cls-26" d="M602.47,628.92l-30.84-23.36L462.09,750.15a7.81,7.81,0,0,0-9.53,2.41l-.86,1.16a7.78,7.78,0,0,0,1.59,10.91l27.07,20.2a7.79,7.79,0,0,0,10.91-1.58l.87-1.16a7.81,7.81,0,0,0,.62-8.34Z" transform="translate(-450.15 -210.8)"/><path class="cls-27" d="M605.37,630.58c-.92,1.21-2.31,1.69-3.12,1.08l-33-25.14c-.8-.61-.7-2.09.22-3.29h0c.92-1.21,2.31-1.69,3.11-1.08l33,25.14c.8.62.71,2.09-.21,3.29Z" transform="translate(-450.15 -210.8)"/><path class="cls-28" d="M636.8,561.48l-4.21-3L609.38,589.8c1.87,8.48-5.19,8.86-6.09,8.87l-1.23-.93L467.45,775.2l12.91,9.63a7.79,7.79,0,0,0,10.91-1.58l.87-1.16a7.81,7.81,0,0,0,.62-8.34l108.32-143,1.17.89c.81.61,2.2.13,3.12-1.08s1-2.67.21-3.29l-.14-.1.31.23c1-9.42,30.56-28.16,30.56-28.16C626.6,584.92,636.8,561.48,636.8,561.48Z" transform="translate(-450.15 -210.8)"/><path class="cls-29" d="M477,746.12a3.11,3.11,0,0,1-4.35.73h0a3.12,3.12,0,0,1-.46-4.38l94.22-124.21a3.11,3.11,0,0,1,4.34-.73h0a3.12,3.12,0,0,1,.47,4.39Z" transform="translate(-450.15 -210.8)"/></g></g></g></svg>