<svg id="Laag_1" data-name="Laag 1" xmlns="http://www.w3.org/2000/svg" viewBox="0 0 639.36 550.84"><defs><style>.cls-1{fill:#09c6a2;}.cls-2{fill:#0072bb;}.cls-3{fill:#e2e2e2;}.cls-4{fill:#231f20;}.cls-4,.cls-8{opacity:0.1;}.cls-5{fill:#e2e2e0;}.cls-6{fill:#ff4c3b;}.cls-7{fill:#ffd034;}.cls-9{fill:#e5e5e5;}.cls-10{fill:#c0003b;}.cls-11{opacity:0.2;}.cls-12{fill:#4c4c4b;}.cls-13{fill:#ecf0f1;}</style></defs><title>hosting</title><g id="Domain_Registration" data-name="Domain Registration"><g id="Background"><path id="Background_1" data-name="Background 1" class="cls-1" d="M1644.53,146" transform="translate(-280.4 -293)"/></g></g><g id="Network_Security" data-name="Network Security"><g id="Speed_Acces" data-name="Speed Acces"><g id="Globe"><g id="Globe-2" data-name="Globe"><path class="cls-2" d="M880.31,588.58A172.48,172.48,0,1,1,707.83,416.09,172.48,172.48,0,0,1,880.31,588.58Z" transform="translate(-280.4 -293)"/><path class="cls-3" d="M807.16,676c-1.09,0-2.4-2.07-3.82-3.38s-9,.37-10.83.37-2.76-.81-4.43-1.83-3.49.23-4.8.51-1.89-.87-1.09-2.32-2.69-1.09-5.31-.59-1.6,1.82-3.7,1.1,2.47-3.13,4-4.94-.3-4.88-1.17-5.17-2.54-2.9-5.16-4.94-4.58-.51-7.7-.51-3.86-1.38-5.31-2.47-1-3.26-6.83-6.32-3.34-1.39-3-2,.94-.5-1.09-1.45-3.71,1.09-5.74,1.89a10.2,10.2,0,0,1-5.38.36c-.87-.22-1.89-2.32-2.91-2.76a6.08,6.08,0,0,1-2.54-2.4,1.56,1.56,0,0,0-2.69,1.32c.07,1.88-1,3-3.06,3.77s-1.16-2.25-1.16-3.19,1.82-1.9,2-3.35-1.81,1.38-3.7,3.42-3.2.14-6.83.51-1.9,4.14-1.9,6.25-3,2.83-3.56,2.32-.51-1.66-1.6-1.66-1.38-1.76-1.67-2.41-4-1.31-5.38,1.31-2.83.51-4.5,0-4.95-7.05-4.22-8.21.73-1.68-.07-2.48-.44-1.38.22-2.61,2.4-2.4-1.09-4.65-8.94-.29-11.85-.59-.58-2.4,0-3a14.75,14.75,0,0,0,2.33-4.36c.58-1.74-.51-1.88.5-4.21s.73-3.93-1.59-4.07-4.51,1.6-4.66,4.94-3.49,3.2-11.19,2.62-7-6.69-7.85-11.64,1.6-9.15,1.74-11.62,3.2-5.24,6.11-7.42,7.05-1.61,7.05-1.61,5.6,1.18,7.34,1,.29-1.46.43-3.21,8.58-.58,10-.58,1.16,1.16,2.76,2.75,1.31-1.59,2.91-1.29.29,1.31,2.62,5.08,1.88,5.09,2.61,8.29,2.33,1.6,3.34-1-1.16-11-1.74-15.41,3.34-2.76,7.12-6.83,7.7-4.35,9.45-7.27-.14-7.7.88-5.08,1.16-1,1.3-3.78,1.6-3.93,2.33-2.33,1.6.44,2.18-2.32,3.05-5.6,4.21-7,3.49-.07,6.69,0,.15-.57-.8-3.77,2-4.29,3.27-4.29,6.54-2.83,7.71-3.56,2.69-.66,4.72.87-1.89.36-3.19,2.61,1.88,2.55,3.26.51,4.44-1.09,7.05-3.7-3-1.68-4.21-2-2-3.41-1.89-4.39a6.89,6.89,0,0,0-2.07-4.58c-1.31-1.09-4.69.1-7.64,1.3s-3.81,2.3-3.59.87,5.12-4.68,6.43-4.9a15,15,0,0,0,6.76-3.71c1.75-2,6.76.33,9,.54s5.56,1.53,6.76-.1,2.18-1.64,4.58-2,2.83-3.81,1.2-5.34-4-7.08-7.42-8.83-2.07-2.83-1-4.25-3.42-4.91-4.88-8.54.15-4.51-1.6-4.65-.58,2.62-1.45,5.08-4.51,1.17-5.09,1-2.61-2.62-2.47-4.94.73-4.36,0-5.09-2.32-.14-3.2-1-2-3.48-3.34-4.64-4.22-.44-6.25-.88-3.93.29-3.49,1.6.14,3.05-.58,7.71-2.18,2.18-3.35,3.34.73,1.45,1.75,4.8-1.31,5.81-2.33,6.83-4.36,1.74-6.54,2.47.15,3.49.44,5.81-1.9,5.67-3,6.11-5-4.36-5.24-7.13,2.32-5.81,1.16-6.68-5.66-.87-9.88-4.36-9.31-5.38-11-9.59,1.74-8,3.2-11,4.36-2.62,9-4.36,1.74-3.35,2.91-3.35,4.94-.58,5.81-1.75,2.91-2.32,4.8-3.33,2.33-3.06,3.06-4.22,2.76,1.6,5.08,1.31,2.18.43,5.38-1,.43-2.33.15-3.93,2-1.16,1.31-2.9-3.93-3.5-6-3.2.66,2.32-1.52,4.36-1.75,3.34-2.48,3.63-3.92-.73-3.92-1.74,1.45-1.89,2-2.33-.44-2.61-.73-3.34-1.6.87-1.9,2.33-1.88,1.6-1.44.29-1.17-2.91-2.33-4.51,1.16-1.45,2.47-3.49.87-2.91-.87-3.93-3.78.58-5.82,2.77-1.31,2-.58,4.79,0,0,.43,2.62-3.34,2.33-3.34,2.33a13.43,13.43,0,0,1-2.61-.44c-.73-.29,0-1.31-1.6-1.89s-2.33,2-2.33,2-4.36-.15-6.1-.15-4.22-.87-4.65-1.6a6.6,6.6,0,0,0-4.51-2.18c-1.89,0-2.62,1.6-2.62,3.49s-3.2,2-3,1.17a21.45,21.45,0,0,0-.44-3.93l-1.74,1s-4.8-.3-6.4-.44-1-2.18-1-2.18l3.2-.29L676,448a5.59,5.59,0,0,0-1.75-1.16c-.87-.29-4.65-1-4.65-1l-1.16-1.6H666c-.73,0-1.89,1.46-2.47,1.46s-.59-1.6-.59-1.6l.29-1.31-1.45.73c-1.45.72-2,.14-2,.14l.58-1.46.14-1.59s-.87-1-.87-.29a3,3,0,0,1-2.76,2.18c-1.31-.15-2.18,1.16-4.07.72s-5.52.88-7.56,2.62-3.34,2.33-2.91.29-5.67-1.74-6.68-2.18a33,33,0,0,0-6.11-1,3.52,3.52,0,0,1-3.05-2.32l-1-3.59a172.18,172.18,0,0,0-34.95,25.18,32.27,32.27,0,0,0,3.25,5.3,1.79,1.79,0,0,0,2,0A122.78,122.78,0,0,0,585.14,476c-6.54,5.77-4.36,6.43-4.36,8.61s1.31,1.32,1.31,1.32-5.09,5.22-6.54,6.68-4.07,3.49-4.07,3.49l-2.62,3.2,1.16.43,15.81-13.26s1-.22,1.09-.77a6.69,6.69,0,0,1,1.31-2.5,14.42,14.42,0,0,0,1.74-2.4,9.24,9.24,0,0,0,2.19-1.53c1.2-1.09,2.39-2.72,3.37-2.83s0,1.41-1.74,2.83a26.09,26.09,0,0,0-3.82,4.47s5.78-3,7.75-4.36,1.3-3.27,2.07-3.38,2.51,1.53,3.05,3.16,1.2-.33,4.14,0,1,2.62,2.08,4.14,1.09,2,3.92,1.31-1.09,6.11-1.09,6.11l-.22,2.18a12.15,12.15,0,0,1,1.09,1.75c0,.21-1.31,4.14-1.31,4.14h2.19a8.64,8.64,0,0,1-2,1.74c-1.09.66.22,2.4,1.31,3.27s0,0-1.53,3.49,0,2.4,1.75,4.8a60.76,60.76,0,0,0,4.14,5c1.31,1.53,0,5-1.31,5.24s-4.14-2-4.14-2c.22,32.71-2,10.91-3,13.74s-2.62,4.37-2.62,6.11a10.83,10.83,0,0,1-1.74,6.76c-1.75,2.4-.22,7.85,0,8.5s1.59,3.49,1.59,3.49V568c0,2.91,5.23,4.37,7,6.84s1.31,7.27,1.46,8.06a9.34,9.34,0,0,0,2.25,3.71c1,.94,1.09,2.54,1.89,4s-1.24.94-1.45,2.83,1.81,2,2.9,2.4,2.18,1.09,1.6,3.13-.29,1.31.8,2.46.58.44,1.16,2.62,2,1.24,2,1.24v1.31c0,.36,1.31.73,1.31.73l.87-1.32s-.65-.28-.65-.5-.15-1.31-.15-1.31l-2-.81a9.51,9.51,0,0,1-.29-1.52v-1.89c0-.29-.73-.5-.73-.5s-.07-2-.07-3.13-1.89-2.26-2-2.76a8,8,0,0,0-1-3.27c-.73-1.1-2.47-3.42-2.4-5.89s-.58-4.07.37-4.07,2.54,2.4,3,2.83.07,3.35,1.88,6,6.53,8.22,6.09,8.66-1.63.27-1,1.91,2.24,2,3.43,2.34,3.17,7,4.47,9.16-.32,2.18-.65,3.6.11,2.17,2.29,3.16,1.74,3.38,4.26,4.14,7.41,4,8.72,4.25,1.16,1.46,2.9,1.62a4.6,4.6,0,0,1,2.91,1.29c.87.58,3.92-.58,4.51-1s1.16-.29,2.76,0,6.25,5.24,7.7,6.69,2.62-.58,3.78,0,3.34,1.88,4.22,1.74.87-.88,1.45-.88.15,1.17,2.33,3.94,1.74,3.34,1.74,3.77,1,2.62,2.47,2.33,2.91,1.23,2.91,1.23v2.41s5,.29,6,.58,1.18,2.46,1.61,2.76,2.18-1.75,1.89-2.91,1.89-1.74,2.76-2.61,2,1,2.76,1.89,2.33,3,2.33,4.79-.15,4.36-.15,7.12-2.18,4.07-3.77,6-3.06,2.75-3.78,3.63a8.48,8.48,0,0,0-1,5.23c.29,1.6,2.32.15,2.32,2s-1.89.87-4.07,2.61.3,1.9,1,3.35-1,.29-1,2,2.62,1.46,5.09,2.18,5.09,7.13,6.55,10.47,2.9,6.25,4.36,6.83,1.59,1.9,4.65,2.62,5.45,3.12,7.16,3.12,1.67,2.95,1.12,4.15-.11,1.53.33,5.88-1,14.18-1.45,15.27-.33.87.47,1.67-1.31,4.29-1.38,5.38-2.11,1.74-2.53,2.76,1,1,1.29,2-.58,3.27.29,4.14,1.67.58,1.9,2a2.3,2.3,0,0,1-2.26,2.69c-1.45,0-1.46,1.53-.8,1a1.49,1.49,0,0,1,1.53,0l1.17,2.06q5.34-.55,10.57-1.43c.75-.87,1.4-1.56,1.92-1.65,1.75-.29.87-2-.15-5.67s2.48-.58,4.66-1.45,1.45-3.78,4.5-4.22,6.4-3.2,7.71-5.23-.58-3,4.21-2.48,9.16-5.51,12.94-10,.44-6,7.13-10.17,17.51-15.66,18.17-19.26-1.2-3.71,2.61-6.22,8.62-9.48,9-11.45S808.25,676,807.16,676Z" transform="translate(-280.4 -293)"/><path class="cls-3" d="M770.34,436.83c-5.52,0-6.68,5.52-1.74,6.39s15.12.88,16.86,8.14-5.23,9.31,0,12.8-1.16,7.27-1.16,12.2A14.33,14.33,0,0,0,790.12,488c3.48,2.62,7,6.1,7.26,8.14s3.78,1.46,3.78,1.46a7.86,7.86,0,0,1,0-2.91c.29-1.75,3.2-3.79,3.2-8.72s2.6-4.66,4.64-4.37,6.12-.29,7.28,0,8.14.29,8.72-3.2-4.65-8.72-4.65-8.72,2.94-4.87,2.91-7.09a12.86,12.86,0,0,0-.82-2.9,172.32,172.32,0,0,0-47.64-30.11C774.8,432.32,774.19,436.83,770.34,436.83Z" transform="translate(-280.4 -293)"/><path class="cls-3" d="M873.56,578.86c-10-8.29-16.58-8.29-17.45-6.11s7,10,0,19.62-12.21,13.52-9.59,21.38-11,14.82-.69,21.8,8.1,7,15.52,6.54,6.33,11.09,5.79,12.69a171.81,171.81,0,0,0,13.17-66.2c0-.72,0-1.44,0-2.15A28.82,28.82,0,0,0,873.56,578.86Z" transform="translate(-280.4 -293)"/><path class="cls-4" d="M723.8,760.31a172.49,172.49,0,0,0,14-341.62C837.8,458.92,887.51,703.15,723.8,760.31Z" transform="translate(-280.4 -293)"/></g></g><g id="Speed"><path class="cls-2" d="M597.12,798.18a146.81,146.81,0,1,0-249.28,0Z" transform="translate(-280.4 -293)"/><path class="cls-5" d="M589.3,791.13a137.6,137.6,0,1,0-233.63,0Z" transform="translate(-280.4 -293)"/><path class="cls-2" d="M529.68,791.13a67.37,67.37,0,1,0-114.4,0Z" transform="translate(-280.4 -293)"/><path class="cls-6" d="M493.25,742.9a20.77,20.77,0,1,1-20.77-20.77A20.77,20.77,0,0,1,493.25,742.9Z" transform="translate(-280.4 -293)"/><polygon class="cls-7" points="192.08 447.44 276.58 368.93 278.34 370.69 195.17 450.86 192.08 447.44"/><rect class="cls-6" x="190.76" y="296.32" width="2.64" height="14.26"/><rect class="cls-6" x="589.45" y="685.98" width="2.64" height="14.26" transform="translate(-390.67 981.44) rotate(-89.22)"/><rect class="cls-6" x="353.58" y="688.82" width="2.64" height="14.26" transform="translate(-626.18 748.4) rotate(-89.23)"/><path class="cls-8" d="M472.32,573.6l-1.32,0V798H597A146.82,146.82,0,0,0,472.32,573.6Z" transform="translate(-280.4 -293)"/></g><g id="Line"><path class="cls-9" d="M656.11,586.32l1.6,5s3.62-1.16,7.21-2.47c1.79-.66,3.57-1.33,4.91-1.87l2.25-.92L670,581.24l-2.1.87c-1.28.51-3,1.17-4.76,1.8C659.65,585.19,656.11,586.32,656.11,586.32Z" transform="translate(-280.4 -293)"/><path class="cls-9" d="M634.72,592l1.07,5.09,2.33-.49c1.39-.34,3.26-.73,5.1-1.21,3.7-.91,7.36-2,7.36-2l-1.44-5s-3.57,1-7.18,1.93c-1.8.46-3.62.85-5,1.18Z" transform="translate(-280.4 -293)"/><path class="cls-9" d="M612.89,595.23l.39,5.19s1,0,2.39-.19,3.34-.32,5.23-.57,3.79-.49,5.2-.74l2.36-.38-.87-5.13-2.29.36c-1.38.24-3.21.47-5,.72s-3.68.4-5,.55S612.89,595.23,612.89,595.23Z" transform="translate(-280.4 -293)"/><path class="cls-9" d="M591.2,595l-1,5.14s.24,0,.67.07l1.76.16,2.48.23c.92.06,1.89.09,2.87.14s1.94.1,2.86.1h4.26c.41,0,.65,0,.65,0l-.1-5.21s-.23,0-.64,0h-4c-.84,0-1.75-.07-2.66-.1s-1.8-.06-2.65-.13l-2.31-.2-1.63-.15A5.34,5.34,0,0,1,591.2,595Z" transform="translate(-280.4 -293)"/><path class="cls-9" d="M570.39,589.61l-2.56,4.66,2.26.93c1.33.6,3.21,1.13,5,1.76s3.77,1,5.18,1.41c.7.2,1.31.28,1.72.37l.66.13,1.51-5-.62-.12c-.38-.09-.94-.16-1.6-.34-1.31-.36-3.08-.74-4.8-1.29s-3.47-1.07-4.71-1.63Z" transform="translate(-280.4 -293)"/><path class="cls-9" d="M552.66,577.58l-3.87,3.71,1.7,1.74c1.11,1,2.56,2.25,4.08,3.47l2.32,1.66c.75.53,1.42,1.05,2.06,1.41l2.09,1.25,3-4.39-1.94-1.16a21.8,21.8,0,0,1-1.92-1.3L558,582.42c-1.42-1.13-2.76-2.34-3.8-3.22Z" transform="translate(-280.4 -293)"/><path class="cls-9" d="M541.54,559.33l-4.77,2.34.87,2.27c.13.34.26.72.42,1.1s.37.78.56,1.2l1.2,2.59,1.41,2.49c.22.4.44.78.65,1.14s.45.68.65,1l1.37,2,4.22-3.29-1.27-1.88c-.19-.28-.41-.58-.61-.91s-.39-.7-.59-1.07l-1.3-2.32c-.38-.82-.76-1.64-1.11-2.41l-.51-1.11c-.15-.36-.27-.71-.39-1Z" transform="translate(-280.4 -293)"/><path class="cls-9" d="M537.39,538.22l-5.16.73s.07,1,.24,2.42.38,3.4.69,5.33.67,3.83.93,5.27c.12.72.28,1.31.38,1.73l.16.65,5-1.83-.14-.61c-.09-.38-.24-.93-.35-1.6-.24-1.34-.63-3.11-.85-4.9s-.48-3.59-.62-4.94S537.39,538.22,537.39,538.22Z" transform="translate(-280.4 -293)"/><path class="cls-9" d="M536.16,516l-5.2.36s0,.92.12,2.29.15,3.29.24,5.17l.36,7.55,5.2-.29Z" transform="translate(-280.4 -293)"/><path class="cls-9" d="M533.05,493l-4.91,2s.26.87.53,2.21c.14.66.31,1.44.49,2.27l.44,2.63c.3,1.79.48,3.59.65,4.94s.21,2.26.21,2.26l5.15-.92s-.09-1-.23-2.43-.39-3.39-.73-5.32c-.16-1-.32-1.92-.48-2.83s-.38-1.72-.54-2.44C533.33,493.93,533.05,493,533.05,493Z" transform="translate(-280.4 -293)"/><path class="cls-9" d="M522,472.89l-4.09,3.41a13.3,13.3,0,0,1,1.56,1.65l1.52,1.75,1.53,2.18a21.85,21.85,0,0,1,1.38,2.27,21.1,21.1,0,0,1,1.09,2.05l.94,2.07,4.7-2.5s-.41-.89-1-2.22c-.28-.68-.76-1.39-1.19-2.2a23.47,23.47,0,0,0-1.49-2.44l-1.64-2.35c-.6-.69-1.16-1.34-1.63-1.9A15.92,15.92,0,0,0,522,472.89Z" transform="translate(-280.4 -293)"/><path class="cls-9" d="M502.63,460.06l-2.76,4.41c.91.56,1.79,1.15,2.72,1.67,3.27,1.87,6.58,3.68,9.78,5.68l3.7-3.79c-3.41-2.18-7-4.14-10.49-6.18C504.58,461.3,503.61,460.65,502.63,460.06Z" transform="translate(-280.4 -293)"/><path class="cls-9" d="M484.67,447.3l-3.36,4,1.85,1.53c1.1.95,2.65,2.07,4.18,3.23l2.25,1.68,2,1.38,2,1.35,2.9-4.32-1.91-1.31-2-1.33-2.17-1.63c-1.47-1.11-3-2.19-4-3.1Z" transform="translate(-280.4 -293)"/><path class="cls-9" d="M470,431.49l-4.38,2.81.36.58,1,1.46c.42.61.93,1.31,1.51,2s1.17,1.5,1.81,2.23c1.3,1.46,2.58,2.93,3.62,3.93s1.71,1.72,1.71,1.72l3.62-3.73-1.6-1.62c-1-.95-2.18-2.32-3.38-3.67-.61-.68-1.14-1.41-1.67-2.06s-1-1.29-1.38-1.84l-.93-1.32C470.16,431.67,470,431.49,470,431.49Z" transform="translate(-280.4 -293)"/></g><g id="Rocket"><path class="cls-6" d="M336.05,293.15s-7.27,108,98.41,148.67L460,416.08l25.53-25.74C444,285,336.05,293.15,336.05,293.15Z" transform="translate(-280.4 -293)"/><path class="cls-2" d="M461.91,414.14l-.56.57-26.89,27.11s15.55,1.83,23.12-2.16l14.34-14.47.56-.57L485,412c3.22-6.88.43-21.58.43-21.58Z" transform="translate(-280.4 -293)"/><rect class="cls-6" x="455.54" y="424.99" width="37.71" height="10.91" transform="translate(-445.69 171.14) rotate(-45.23)"/><rect class="cls-10" x="465.2" y="433.53" width="29.78" height="5.12" transform="translate(-448.01 176.89) rotate(-45.24)"/><polygon class="cls-7" points="109.64 112.27 120.51 176.2 155.71 138.13 109.64 112.27"/><polygon class="cls-7" points="163.28 53.03 227.29 63.37 189.5 98.89 163.28 53.03"/><path class="cls-2" d="M371.66,296c-20.78-4-35.61-2.83-35.61-2.83s-1,14.83,3.13,35.58Z" transform="translate(-280.4 -293)"/><polygon class="cls-6" points="232.31 175.45 225.72 151.27 219.15 127.1 201.5 144.89 183.86 162.68 208.09 169.06 232.31 175.45"/><polygon class="cls-6" points="222.71 166.76 218.41 149.47 214.1 132.19 201.09 145.31 188.07 158.44 205.39 162.59 222.71 166.76"/><polygon class="cls-7" points="211.2 155.76 210.54 146.17 209.89 136.57 200.95 145.44 192.02 154.31 201.61 155.04 211.2 155.76"/><path class="cls-11" d="M371.66,296h0a156.75,156.75,0,0,0-34.07-2.91h-.07l-1.27.06h-.2a.94.94,0,0,1,0,.12v.08c0,.14,0,.38,0,.67L511.57,468.14l1.14.31-6.59-24.18-6.58-24.17-5,5.09-2.12,2.13-3.63-3.6,2.8-2.82-7.75-7.68L485,412c3.22-6.88.43-21.58.43-21.58l.09-.08q-1.92-4.84-4-9.38l26.17-24.59L462,349C434.55,314.38,398.24,301,371.66,296Z" transform="translate(-280.4 -293)"/></g><g id="Cloud"><path class="cls-12" d="M397.81,502.64a17.76,17.76,0,0,0-4,.47c-4.09-17.44-17.53-30.23-33.47-30.23-11.75,0-22.14,6.95-28.43,17.59a30.05,30.05,0,0,0-13.26-3.06,29.59,29.59,0,0,0-29.13,36.34H414.73a16.89,16.89,0,0,0,.46-3.92A17.29,17.29,0,0,0,397.81,502.64Z" transform="translate(-280.4 -293)"/><path class="cls-13" d="M389.5,502.64a17.85,17.85,0,0,0-4,.47C381.38,485.67,368,472.88,352,472.88c-11.75,0-22.13,6.95-28.42,17.59a30.06,30.06,0,0,0-13.27-3.06A29.74,29.74,0,0,0,280.4,517a29,29,0,0,0,.79,6.76H406.42a17.2,17.2,0,0,0-16.92-21.11Z" transform="translate(-280.4 -293)"/><path class="cls-11" d="M389.5,502.64a17.85,17.85,0,0,0-4,.47C381.38,485.67,368,472.88,352,472.88c-.49,0-1,0-1.47,0v50.83h55.89a17.2,17.2,0,0,0-16.92-21.11Z" transform="translate(-280.4 -293)"/><path class="cls-12" d="M655.52,370.78a17.06,17.06,0,0,0-4,.47C647.41,353.81,634,341,618,341c-11.75,0-22.14,7-28.43,17.59a30,30,0,0,0-43.18,26.52,29.65,29.65,0,0,0,.79,6.77H672.45a17.6,17.6,0,0,0,.45-3.93A17.28,17.28,0,0,0,655.52,370.78Z" transform="translate(-280.4 -293)"/><path class="cls-13" d="M647.21,370.78a17.15,17.15,0,0,0-4,.47c-4.1-17.44-17.53-30.23-33.47-30.23-11.76,0-22.15,7-28.43,17.59A30.05,30.05,0,0,0,568,355.55a29.6,29.6,0,0,0-29.14,36.35H664.13a17,17,0,0,0,.46-3.93A17.28,17.28,0,0,0,647.21,370.78Z" transform="translate(-280.4 -293)"/><path class="cls-11" d="M647.21,370.78a17.15,17.15,0,0,0-4,.47c-4.1-17.44-17.53-30.23-33.47-30.23-.5,0-1,0-1.48.05V391.9h55.89a17,17,0,0,0,.46-3.93A17.28,17.28,0,0,0,647.21,370.78Z" transform="translate(-280.4 -293)"/><path class="cls-12" d="M497.55,805.93a31.16,31.16,0,0,0-7.22.85c-7.35-31.31-31.47-54.27-60.09-54.27-21.1,0-39.75,12.48-51,31.57a53.94,53.94,0,0,0-23.81-5.5c-29.66,0-53.71,23.78-53.71,53.12a52.86,52.86,0,0,0,1.41,12.14H527.93a30.88,30.88,0,0,0-30.38-37.91Z" transform="translate(-280.4 -293)"/><path class="cls-13" d="M482.62,805.93a31.22,31.22,0,0,0-7.22.85c-7.35-31.31-31.47-54.27-60.09-54.27-21.1,0-39.75,12.48-51,31.57a53.94,53.94,0,0,0-23.81-5.5c-29.66,0-53.71,23.78-53.71,53.12a52.86,52.86,0,0,0,1.41,12.14H513a30.43,30.43,0,0,0,.83-7.05A31,31,0,0,0,482.62,805.93Z" transform="translate(-280.4 -293)"/><path class="cls-11" d="M482.62,805.93a31.22,31.22,0,0,0-7.22.85c-7.35-31.31-31.47-54.27-60.09-54.27-.89,0-1.78,0-2.65.08v91.25H513a30.43,30.43,0,0,0,.83-7.05A31,31,0,0,0,482.62,805.93Z" transform="translate(-280.4 -293)"/><path class="cls-12" d="M880.76,736a39.5,39.5,0,0,0-9,1c-9.19-39.14-39.34-67.84-75.12-67.84-26.38,0-49.7,15.59-63.81,39.47A67.46,67.46,0,0,0,703,701.81c-37.09,0-67.15,29.73-67.15,66.4a66.1,66.1,0,0,0,1.77,15.18H918.73a37.75,37.75,0,0,0,1-8.82A38.79,38.79,0,0,0,880.76,736Z" transform="translate(-280.4 -293)"/><path class="cls-13" d="M862.09,736a39.35,39.35,0,0,0-9,1c-9.19-39.14-39.35-67.84-75.13-67.84-26.38,0-49.69,15.59-63.81,39.47a67.43,67.43,0,0,0-29.77-6.87c-37.08,0-67.14,29.73-67.14,66.4A65.56,65.56,0,0,0,619,783.39H900.07a38.29,38.29,0,0,0,1-8.82A38.79,38.79,0,0,0,862.09,736Z" transform="translate(-280.4 -293)"/><path class="cls-11" d="M862.09,736a39.35,39.35,0,0,0-9,1c-9.19-39.14-39.35-67.84-75.13-67.84-1.11,0-2.22,0-3.32.09V783.39H900.07a38.29,38.29,0,0,0,1-8.82A38.79,38.79,0,0,0,862.09,736Z" transform="translate(-280.4 -293)"/></g></g></g></svg>