<svg id="Laag_1" data-name="Laag 1" xmlns="http://www.w3.org/2000/svg" viewBox="0 0 1194.87 906.22"><defs><style>.cls-1{fill:#033;}.cls-2{fill:#34495e;}.cls-2,.cls-3,.cls-4,.cls-5,.cls-8{fill-rule:evenodd;}.cls-3,.cls-7{opacity:0.5;}.cls-4,.cls-7{fill:#fff;}.cls-4{opacity:0.8;}.cls-5{fill:#ecf0f1;}.cls-6{opacity:0.3;}.cls-8{fill:#333;}.cls-9{fill:#f7c7b0;}.cls-10{fill:#efefef;}.cls-11{fill:#ffd034;}.cls-12{fill:#ff4c3b;}.cls-13{fill:#ededed;}.cls-14{fill:#88604a;}.cls-15{fill:#785741;}.cls-16{opacity:0.2;}.cls-17{fill:#0072bb;}.cls-18{fill:#f2f0e3;}.cls-19{fill:#293543;}.cls-20{fill:#ff69ce;}.cls-21{fill:#91c9ff;}.cls-22{fill:#f2f2f2;}.cls-23{fill:#95ffb6;}</style></defs><title>maatwerk</title><g id="Creat_Idea" data-name="Creat Idea"><g id="Laptop"><rect class="cls-1" x="326.06" y="295.91" width="523.67" height="24.32"/><path class="cls-2" d="M1390.84,87.05H603.18c-36.1,0-47.25,22.67-40.28,49.46,0-.33.05-.64.06-1a18.4,18.4,0,0,0,.57,5.52l57,215.18c8.62,32.67,16.34,33.69,58.84,33.62L1338,389.8c34.2,0,50.87.06,57.64-32.74l44.4-216a20.64,20.64,0,0,0,.3-2.46s0,0,0,.06l2.16-18.3C1445.5,94.08,1410.91,87.05,1390.84,87.05ZM563.3,132.68a15.25,15.25,0,0,0-.25,1.53A15.25,15.25,0,0,1,563.3,132.68Zm1.71-5c-.12.25-.26.49-.38.74C564.75,128.16,564.89,127.92,565,127.67ZM564,130c-.15.42-.31.83-.42,1.25C563.74,130.83,563.89,130.42,564,130Zm32.15-21.07c1.19-.1,2.38-.16,3.57-.16C598.57,108.77,597.38,108.83,596.19,108.93Zm-21.9,8.15.24-.18Zm2.58-1.73.51-.32Zm2.83-1.59.75-.39Zm3-1.42,1-.41Zm3.19-1.22,1.29-.4Zm3.33-1c.53-.14,1.07-.25,1.61-.37C590.31,109.89,589.77,110,589.24,110.14Zm3.43-.74c.7-.12,1.4-.2,2.09-.28C594.07,109.2,593.37,109.28,592.67,109.4Z" transform="translate(-413.73 -87.05)"/><path class="cls-3" d="M603.18,87.05h787.66c20.07,0,54.66,7,51.62,33.31l-2.16,18.3c-2.9-13.61-19.88-29.89-36.53-29.89h-804c-18.11,0-37,12.54-36.86,27.74-7-26.79,4.18-49.46,40.28-49.46Z" transform="translate(-413.73 -87.05)"/><polygon class="cls-4" points="189.25 36.92 991.1 36.03 947.84 286.67 239.54 286.86 189.25 36.92"/><path class="cls-5" d="M642.39,397.21H1365.5A21.86,21.86,0,0,1,1387.29,419V817.74a21.87,21.87,0,0,1-21.79,21.79H642.39a21.87,21.87,0,0,1-21.79-21.79V419a21.86,21.86,0,0,1,21.79-21.78Z" transform="translate(-413.73 -87.05)"/><rect class="cls-1" x="487.77" y="617.59" width="204.83" height="107.21"/><rect class="cls-6" x="244.88" y="347.51" width="690.66" height="251.05"/><path class="cls-6" d="M1087.29,759.25c0,25.52-4.41,46.23-9.85,46.23h-152c-5.45,0-9.87-20.71-9.87-46.23h0c0-25.52,4.42-46.23,9.87-46.23h152c5.44,0,9.85,20.71,9.85,46.23Z" transform="translate(-413.73 -87.05)"/><g id="Light"><polygon class="cls-7" points="678.72 36.06 509.8 36.03 332.73 286.8 451.02 286.75 678.72 36.06"/><polygon class="cls-7" points="762.45 36.28 542.14 286.75 565.83 286.75 843.38 36.09 762.45 36.28"/></g><g id="Keyboard"><path class="cls-8" d="M673.57,449.41h32.06c1.9,0,3.4,2,3.4,4.47V488.4c0,2.45-1.5,4.47-3.4,4.47H673.57c-1.9,0-3.47-2-3.47-4.47V453.88c0-2.45,1.57-4.47,3.47-4.47Z" transform="translate(-413.73 -87.05)"/><path class="cls-8" d="M725.59,449.41h32c1.9,0,3.47,2,3.47,4.47V488.4c0,2.45-1.57,4.47-3.47,4.47h-32c-1.9,0-3.47-2-3.47-4.47V453.88c0-2.45,1.57-4.47,3.47-4.47Z" transform="translate(-413.73 -87.05)"/><path class="cls-8" d="M777.67,449.41h32c1.9,0,3.47,2,3.47,4.47V488.4c0,2.45-1.57,4.47-3.47,4.47h-32c-1.9,0-3.47-2-3.47-4.47V453.88c0-2.45,1.57-4.47,3.47-4.47Z" transform="translate(-413.73 -87.05)"/><path class="cls-8" d="M829.68,449.41h32c2,0,3.46,2,3.46,4.47V488.4c0,2.45-1.5,4.47-3.46,4.47h-32c-1.9,0-3.47-2-3.47-4.47V453.88c0-2.45,1.57-4.47,3.47-4.47Z" transform="translate(-413.73 -87.05)"/><path class="cls-8" d="M881.7,449.41h32.06c1.9,0,3.47,2,3.47,4.47V488.4c0,2.45-1.57,4.47-3.47,4.47H881.7c-1.9,0-3.47-2-3.47-4.47V453.88c0-2.45,1.57-4.47,3.47-4.47Z" transform="translate(-413.73 -87.05)"/><path class="cls-8" d="M933.78,449.41h32c1.89,0,3.46,2,3.46,4.47V488.4c0,2.45-1.57,4.47-3.46,4.47h-32c-1.9,0-3.47-2-3.47-4.47V453.88c0-2.45,1.57-4.47,3.47-4.47Z" transform="translate(-413.73 -87.05)"/><path class="cls-8" d="M985.8,449.41h32c2,0,3.46,2,3.46,4.47V488.4c0,2.45-1.5,4.47-3.46,4.47h-32c-1.9,0-3.47-2-3.47-4.47V453.88c0-2.45,1.57-4.47,3.47-4.47Z" transform="translate(-413.73 -87.05)"/><path class="cls-8" d="M1037.81,449.41h32.06c1.9,0,3.47,2,3.47,4.47V488.4c0,2.45-1.57,4.47-3.47,4.47h-32.06c-1.9,0-3.47-2-3.47-4.47V453.88c0-2.45,1.57-4.47,3.47-4.47Z" transform="translate(-413.73 -87.05)"/><path class="cls-8" d="M1089.9,449.41h32c1.9,0,3.46,2,3.46,4.47V488.4c0,2.45-1.56,4.47-3.46,4.47h-32c-2,0-3.48-2-3.48-4.47V453.88c0-2.45,1.51-4.47,3.48-4.47Z" transform="translate(-413.73 -87.05)"/><path class="cls-8" d="M1141.91,449.41h32c2,0,3.47,2,3.47,4.47V488.4c0,2.45-1.51,4.47-3.47,4.47h-32c-1.9,0-3.47-2-3.47-4.47V453.88c0-2.45,1.57-4.47,3.47-4.47Z" transform="translate(-413.73 -87.05)"/><path class="cls-8" d="M1193.92,449.41H1226c1.9,0,3.46,2,3.46,4.47V488.4c0,2.45-1.56,4.47-3.46,4.47h-32.07c-1.89,0-3.46-2-3.46-4.47V453.88c0-2.45,1.57-4.47,3.46-4.47Z" transform="translate(-413.73 -87.05)"/><path class="cls-8" d="M751.69,509.71h32c1.9,0,3.46,2,3.46,4.47v34.53c0,2.44-1.56,4.46-3.46,4.46h-32c-1.9,0-3.47-2-3.47-4.46V514.18c0-2.45,1.57-4.47,3.47-4.47Z" transform="translate(-413.73 -87.05)"/><path class="cls-8" d="M803.7,509.71h32.06c1.9,0,3.47,2,3.47,4.47v34.53c0,2.44-1.57,4.46-3.47,4.46H803.7c-1.89,0-3.46-2-3.46-4.46V514.18c0-2.45,1.57-4.47,3.46-4.47Z" transform="translate(-413.73 -87.05)"/><path class="cls-8" d="M855.72,509.71h32.06c1.9,0,3.47,2,3.47,4.47v34.53c0,2.44-1.57,4.46-3.47,4.46H855.72c-1.9,0-3.4-2-3.4-4.46V514.18c0-2.45,1.5-4.47,3.4-4.47Z" transform="translate(-413.73 -87.05)"/><path class="cls-8" d="M907.8,509.71h32c1.9,0,3.46,2,3.46,4.47v34.53c0,2.44-1.56,4.46-3.46,4.46h-32c-1.9,0-3.46-2-3.46-4.46V514.18c0-2.45,1.56-4.47,3.46-4.47Z" transform="translate(-413.73 -87.05)"/><path class="cls-8" d="M959.82,509.71h32.06c1.9,0,3.41,2,3.41,4.47v34.53c0,2.44-1.51,4.46-3.41,4.46H959.82c-1.9,0-3.47-2-3.47-4.46V514.18c0-2.45,1.57-4.47,3.47-4.47Z" transform="translate(-413.73 -87.05)"/><path class="cls-8" d="M1011.84,509.71h32.06c1.9,0,3.47,2,3.47,4.47v34.53c0,2.44-1.57,4.46-3.47,4.46h-32.06c-1.9,0-3.48-2-3.48-4.46V514.18c0-2.45,1.58-4.47,3.48-4.47Z" transform="translate(-413.73 -87.05)"/><path class="cls-8" d="M1063.92,509.71h32c1.9,0,3.47,2,3.47,4.47v34.53c0,2.44-1.57,4.46-3.47,4.46h-32c-1.9,0-3.47-2-3.47-4.46V514.18c0-2.45,1.57-4.47,3.47-4.47Z" transform="translate(-413.73 -87.05)"/><path class="cls-8" d="M1115.93,509.71H1148c1.88,0,3.4,2,3.4,4.47v34.53c0,2.44-1.52,4.46-3.4,4.46h-32.07c-1.9,0-3.47-2-3.47-4.46V514.18c0-2.45,1.57-4.47,3.47-4.47Z" transform="translate(-413.73 -87.05)"/><path class="cls-8" d="M1168,509.71H1200c1.89,0,3.46,2,3.46,4.47v34.53c0,2.44-1.57,4.46-3.46,4.46H1168c-1.9,0-3.47-2-3.47-4.46V514.18c0-2.45,1.57-4.47,3.47-4.47Z" transform="translate(-413.73 -87.05)"/><path class="cls-8" d="M1220,509.71h32c1.9,0,3.46,2,3.46,4.47v34.53c0,2.44-1.56,4.46-3.46,4.46h-32c-1.9,0-3.48-2-3.48-4.46V514.18c0-2.45,1.58-4.47,3.48-4.47Z" transform="translate(-413.73 -87.05)"/><path class="cls-8" d="M1246,449.41h32c1.9,0,3.47,2,3.47,4.47V488.4c0,2.45-1.57,4.47-3.47,4.47h-32c-2,0-3.47-2-3.47-4.47V453.88c0-2.45,1.51-4.47,3.47-4.47Z" transform="translate(-413.73 -87.05)"/><path class="cls-8" d="M1298,449.41h32c1.9,0,3.46,2,3.46,4.47V488.4c0,2.45-1.56,4.47-3.46,4.47h-32c-1.9,0-3.47-2-3.47-4.47V453.88c0-2.45,1.57-4.47,3.47-4.47Z" transform="translate(-413.73 -87.05)"/><path class="cls-8" d="M1272.9,509.71H1330c1.9,0,3.46,2,3.46,4.47v34.53c0,2.44-1.56,4.46-3.46,4.46H1272.9c-1.9,0-3.48-2-3.48-4.46V514.18c0-2.45,1.58-4.47,3.48-4.47Z" transform="translate(-413.73 -87.05)"/><path class="cls-8" d="M674.09,509.71h59.28c1.9,0,3.46,2,3.46,4.47v34.53c0,2.44-1.56,4.46-3.46,4.46H674.09c-2,0-3.47-2-3.47-4.46V514.18c0-2.45,1.5-4.47,3.47-4.47Z" transform="translate(-413.73 -87.05)"/><path class="cls-8" d="M674.09,570h70.8c1.89,0,3.46,2,3.46,4.46V609c0,2.44-1.57,4.46-3.46,4.46h-70.8c-2,0-3.47-2-3.47-4.46V574.47c0-2.44,1.5-4.46,3.47-4.46Z" transform="translate(-413.73 -87.05)"/><path class="cls-8" d="M674.09,630.32H706c1.9,0,3.47,2,3.47,4.46v34.53c0,2.44-1.57,4.47-3.47,4.47H674.09c-2,0-3.47-2-3.47-4.47V634.78c0-2.44,1.5-4.46,3.47-4.46Z" transform="translate(-413.73 -87.05)"/><path class="cls-8" d="M726,630.32H758c1.9,0,3.47,2,3.47,4.46v34.53c0,2.44-1.57,4.47-3.47,4.47H726c-1.89,0-3.47-2-3.47-4.47V634.78c0-2.44,1.58-4.46,3.47-4.46Z" transform="translate(-413.73 -87.05)"/><path class="cls-8" d="M778,630.32h31.93c2,0,3.47,2,3.47,4.46v34.53c0,2.44-1.5,4.47-3.47,4.47H778c-1.89,0-3.46-2-3.46-4.47V634.78c0-2.44,1.57-4.46,3.46-4.46Z" transform="translate(-413.73 -87.05)"/><path class="cls-8" d="M829.94,630.32h332.71c2,0,3.47,2,3.47,4.46v34.53c0,2.44-1.51,4.47-3.47,4.47H829.94c-1.89,0-3.46-2-3.46-4.47V634.78c0-2.44,1.57-4.46,3.46-4.46Z" transform="translate(-413.73 -87.05)"/><path class="cls-8" d="M764.12,570.61h32c1.91,0,3.47,2,3.47,4.46V609.6c0,2.44-1.56,4.46-3.47,4.46h-32c-1.9,0-3.47-2-3.47-4.46V575.07c0-2.45,1.57-4.46,3.47-4.46Z" transform="translate(-413.73 -87.05)"/><path class="cls-8" d="M816.14,570.61H848.2c1.89,0,3.46,2,3.46,4.46V609.6c0,2.44-1.57,4.46-3.46,4.46H816.14c-1.9,0-3.47-2-3.47-4.46V575.07c0-2.45,1.57-4.46,3.47-4.46Z" transform="translate(-413.73 -87.05)"/><path class="cls-8" d="M868.15,570.61h32.06c1.9,0,3.47,2,3.47,4.46V609.6c0,2.44-1.57,4.46-3.47,4.46H868.15c-1.89,0-3.4-2-3.4-4.46V575.07c0-2.45,1.51-4.46,3.4-4.46Z" transform="translate(-413.73 -87.05)"/><path class="cls-8" d="M920.23,570.61h32c1.9,0,3.47,2,3.47,4.46V609.6c0,2.44-1.57,4.46-3.47,4.46h-32c-1.89,0-3.46-2-3.46-4.46V575.07c0-2.45,1.57-4.46,3.46-4.46Z" transform="translate(-413.73 -87.05)"/><path class="cls-8" d="M972.25,570.61h32.06c1.9,0,3.4,2,3.4,4.46V609.6c0,2.44-1.5,4.46-3.4,4.46H972.25c-1.89,0-3.46-2-3.46-4.46V575.07c0-2.45,1.57-4.46,3.46-4.46Z" transform="translate(-413.73 -87.05)"/><path class="cls-8" d="M1024.27,570.61h32c1.9,0,3.47,2,3.47,4.46V609.6c0,2.44-1.57,4.46-3.47,4.46h-32c-1.9,0-3.47-2-3.47-4.46V575.07c0-2.45,1.57-4.46,3.47-4.46Z" transform="translate(-413.73 -87.05)"/><path class="cls-8" d="M1076.34,570.61h32c1.89,0,3.46,2,3.46,4.46V609.6c0,2.44-1.57,4.46-3.46,4.46h-32c-1.9,0-3.46-2-3.46-4.46V575.07c0-2.45,1.56-4.46,3.46-4.46Z" transform="translate(-413.73 -87.05)"/><path class="cls-8" d="M1128.36,570.61h32.06c1.9,0,3.41,2,3.41,4.46V609.6c0,2.44-1.51,4.46-3.41,4.46h-32.06c-1.9,0-3.46-2-3.46-4.46V575.07c0-2.45,1.56-4.46,3.46-4.46Z" transform="translate(-413.73 -87.05)"/><path class="cls-8" d="M1180.38,570.61H1240c1.9,0,3.48,2,3.48,4.46V609.6c0,2.44-1.58,4.46-3.48,4.46h-59.6c-1.9,0-3.46-2-3.46-4.46V575.07c0-2.45,1.56-4.46,3.46-4.46Z" transform="translate(-413.73 -87.05)"/><path class="cls-8" d="M1258.82,570h70.87c1.89,0,3.47,2,3.47,4.46V609c0,2.44-1.58,4.46-3.47,4.46h-70.87c-1.89,0-3.46-2-3.46-4.46V574.47c0-2.44,1.57-4.46,3.46-4.46Z" transform="translate(-413.73 -87.05)"/><path class="cls-8" d="M1265.18,630.32h26.7a1.42,1.42,0,0,1,1.24,1.5v12a1.43,1.43,0,0,1-1.24,1.52h-26.7a1.38,1.38,0,0,1-1.18-1.52v-12a1.38,1.38,0,0,1,1.18-1.5Z" transform="translate(-413.73 -87.05)"/><path class="cls-8" d="M1265.18,656.34h26.7a1.42,1.42,0,0,1,1.24,1.52v11.87a1.42,1.42,0,0,1-1.24,1.51h-26.7a1.37,1.37,0,0,1-1.18-1.51V657.86a1.38,1.38,0,0,1,1.18-1.52Z" transform="translate(-413.73 -87.05)"/><path class="cls-8" d="M1225.59,656.34h26.7a1.41,1.41,0,0,1,1.24,1.52v11.87a1.41,1.41,0,0,1-1.24,1.51h-26.7a1.37,1.37,0,0,1-1.17-1.51V657.86a1.37,1.37,0,0,1,1.17-1.52Z" transform="translate(-413.73 -87.05)"/><path class="cls-8" d="M1304.7,656.34h26.69a1.37,1.37,0,0,1,1.18,1.52v11.87a1.37,1.37,0,0,1-1.18,1.51H1304.7a1.42,1.42,0,0,1-1.25-1.51V657.86a1.42,1.42,0,0,1,1.25-1.52Z" transform="translate(-413.73 -87.05)"/><path class="cls-8" d="M1179.13,630.32h32.07c1.9,0,3.47,2,3.47,4.46v34.53c0,2.44-1.57,4.47-3.47,4.47h-32.07c-1.89,0-3.46-2-3.46-4.47V634.78c0-2.44,1.57-4.46,3.46-4.46Z" transform="translate(-413.73 -87.05)"/></g></g><g id="Hand"><path class="cls-9" d="M961.54,784.25l.11,10.3s-9,6.21-9.77,6.16l0-4.42V666.73a13.18,13.18,0,0,0-13.18-13.17h-.73a13.17,13.17,0,0,0-13.17,13.17v67.8c-2.84,1.69-6.46,1.73-8.42-.62v-103a13.17,13.17,0,0,0-13.17-13.17h-.73a13.17,13.17,0,0,0-13.18,13.17v103.6c-1.92,1.37-5.11,1.13-7.32,0V658.69a13.18,13.18,0,0,0-13.17-13.18H868a13.18,13.18,0,0,0-13.17,13.18v79a7,7,0,0,1-8.05-.22V696a13.18,13.18,0,0,0-13.18-13.17h-.73A13.17,13.17,0,0,0,819.73,696V843.13L834,864.38l-.12,101.06A406.77,406.77,0,0,0,930,993.27l.71-125.6,21.18-24.54V830.26c9.4-4.25,19.54-13.74,28.82-24.87l-1.14-37.61C970.46,762.84,961.27,774.1,961.54,784.25Z" transform="translate(-413.73 -87.05)"/><path class="cls-9" d="M1175,748.44h-.73a13.18,13.18,0,0,0-13.18,13.18v41.47a7,7,0,0,1-8,.22v-79a13.18,13.18,0,0,0-13.17-13.18h-.74A13.18,13.18,0,0,0,1126,724.29V800c-2.21,1.16-5.4,1.4-7.32,0V696.47a13.17,13.17,0,0,0-13.18-13.17h-.73a13.18,13.18,0,0,0-13.18,13.17v103c-2,2.35-5.57,2.31-8.41.61V732.34A13.17,13.17,0,0,0,1070,719.16h-.74a13.18,13.18,0,0,0-13.17,13.18V861.89l0,4.43c-.75,0-9.76-6.18-9.76-6.18l.11-10.29c.27-10.15-8.92-21.41-18-16.47l-1.15,37.6c9.28,11.14,19.43,20.63,28.82,24.88v12.87l21.18,24.54.32,56.92a406.58,406.58,0,0,0,96.38-32.67l0-27.54,14.27-21.25V761.62A13.18,13.18,0,0,0,1175,748.44Z" transform="translate(-413.73 -87.05)"/><path class="cls-10" d="M841.9,702.33a8.67,8.67,0,0,1-8.67,8.67h0a8.67,8.67,0,0,1-8.67-8.67v-6.4a8.67,8.67,0,0,1,8.67-8.66h0a8.67,8.67,0,0,1,8.67,8.66Z" transform="translate(-413.73 -87.05)"/><path class="cls-10" d="M876,665a8.67,8.67,0,0,1-8.67,8.67h0a8.67,8.67,0,0,1-8.67-8.67v-6.4a8.67,8.67,0,0,1,8.67-8.66h0A8.67,8.67,0,0,1,876,658.6Z" transform="translate(-413.73 -87.05)"/><path class="cls-10" d="M911.76,638.6a8.67,8.67,0,0,1-8.67,8.67h0a8.67,8.67,0,0,1-8.66-8.67v-6.4a8.66,8.66,0,0,1,8.66-8.66h0a8.67,8.67,0,0,1,8.67,8.66Z" transform="translate(-413.73 -87.05)"/><path class="cls-10" d="M946.7,674.63A8.67,8.67,0,0,1,938,683.3h0a8.67,8.67,0,0,1-8.67-8.67v-6.4a8.67,8.67,0,0,1,8.67-8.67h0a8.67,8.67,0,0,1,8.67,8.67Z" transform="translate(-413.73 -87.05)"/><path class="cls-10" d="M972,775.57V782a8.67,8.67,0,0,0,8.22,8.65l-.69-22.83a9.89,9.89,0,0,0-1.21-.55A8.67,8.67,0,0,0,972,775.57Z" transform="translate(-413.73 -87.05)"/><path class="cls-10" d="M1035.92,841.22v6.39a8.66,8.66,0,0,1-8.22,8.65l.7-22.83a10.66,10.66,0,0,1,1.2-.55A8.66,8.66,0,0,1,1035.92,841.22Z" transform="translate(-413.73 -87.05)"/><path class="cls-10" d="M1077.89,741.3a8.67,8.67,0,0,1-8.66,8.67h0a8.67,8.67,0,0,1-8.67-8.67v-6.4a8.67,8.67,0,0,1,8.67-8.67h0a8.67,8.67,0,0,1,8.66,8.67Z" transform="translate(-413.73 -87.05)"/><path class="cls-10" d="M1114.16,704.5a8.67,8.67,0,0,1-8.66,8.67h0a8.67,8.67,0,0,1-8.67-8.67v-6.4a8.67,8.67,0,0,1,8.67-8.67h0a8.67,8.67,0,0,1,8.66,8.67Z" transform="translate(-413.73 -87.05)"/><path class="cls-10" d="M1148.3,731.7a8.67,8.67,0,0,1-8.68,8.67h0a8.66,8.66,0,0,1-8.65-8.67v-6.4a8.66,8.66,0,0,1,8.65-8.66h0a8.67,8.67,0,0,1,8.68,8.66Z" transform="translate(-413.73 -87.05)"/><path class="cls-10" d="M1183.49,770.1a8.66,8.66,0,0,1-8.66,8.66h0a8.67,8.67,0,0,1-8.67-8.66v-6.4a8.67,8.67,0,0,1,8.67-8.67h0a8.67,8.67,0,0,1,8.66,8.67Z" transform="translate(-413.73 -87.05)"/></g><g id="Point"><polygon class="cls-11" points="131.37 416.1 132.84 413.79 164.75 434.94 163.29 437.25 131.37 416.1"/><polygon class="cls-11" points="167.39 428.76 164.66 429.13 158.64 391.43 161.36 391.06 167.39 428.76"/><polygon class="cls-11" points="129.28 413.22 127.47 411.06 156 387.04 157.81 389.2 129.28 413.22"/><path class="cls-12" d="M574.65,516a10.06,10.06,0,0,1,13.77,3.34,10,10,0,0,1-2.91,13.81A10.15,10.15,0,0,1,574.65,516Z" transform="translate(-413.73 -87.05)"/><path class="cls-12" d="M538.13,492.1a8.36,8.36,0,0,1,11.45,2.77,8.27,8.27,0,0,1-2.42,11.47,8.43,8.43,0,0,1-9-14.24Z" transform="translate(-413.73 -87.05)"/><path class="cls-12" d="M565.43,459.84a12.69,12.69,0,0,1,17.38,4.22,12.56,12.56,0,0,1-3.67,17.42,12.71,12.71,0,0,1-17.39-4.21A12.57,12.57,0,0,1,565.43,459.84Z" transform="translate(-413.73 -87.05)"/><polygon class="cls-11" points="92.54 313.86 89.69 317.86 33.17 279.75 36.02 275.75 92.54 313.86"/><polygon class="cls-11" points="25.78 344.62 20.76 344.33 24.24 277.85 29.25 278.13 25.78 344.62"/><polygon class="cls-11" points="32.11 345.41 30.88 340.67 97.38 324.84 98.62 329.57 32.11 345.41"/><path class="cls-12" d="M498.64,409.61c1.84-9.54,11.31-15.76,21.15-13.9a17.78,17.78,0,0,1,14.47,20.64,18,18,0,0,1-21.15,13.9A17.76,17.76,0,0,1,498.64,409.61Z" transform="translate(-413.73 -87.05)"/><path class="cls-12" d="M422.92,428.07a15.06,15.06,0,1,1,12,17.15A14.9,14.9,0,0,1,422.92,428.07Z" transform="translate(-413.73 -87.05)"/><path class="cls-12" d="M414.13,353.13c2.33-12,14.28-19.88,26.69-17.53s20.57,14,18.25,26-14.28,19.89-26.68,17.55S411.8,365.17,414.13,353.13Z" transform="translate(-413.73 -87.05)"/></g><g id="Cup"><path class="cls-13" d="M576.3,719.16A84.45,84.45,0,1,0,451,698a12,12,0,0,0-1.73,1.14L430,714.92a11.82,11.82,0,0,0,15,18.3l19.28-15.76a11.35,11.35,0,0,0,1.55-1.55A84.4,84.4,0,0,0,576.3,719.16Z" transform="translate(-413.73 -87.05)"/><path class="cls-14" d="M567,707.79a69.77,69.77,0,1,1,9.88-98.17A69.78,69.78,0,0,1,567,707.79Z" transform="translate(-413.73 -87.05)"/><path class="cls-15" d="M547.65,684.1A39.17,39.17,0,1,1,553.19,629,39.18,39.18,0,0,1,547.65,684.1Z" transform="translate(-413.73 -87.05)"/><path class="cls-16" d="M584.56,621.18a70.87,70.87,0,0,0-7.67-11.56,69.52,69.52,0,0,0-110.45,3.21C492.45,608,537.39,604.2,584.56,621.18Z" transform="translate(-413.73 -87.05)"/></g><path class="cls-17" d="M1606.17,618.81a149.59,149.59,0,0,0-149.8-176.17l-1.54,298.87A149.51,149.51,0,0,0,1606.17,618.81ZM1490.76,481.66a114.94,114.94,0,0,1-1.14,221.27Z" transform="translate(-413.73 -87.05)"/><rect class="cls-18" x="1591.95" y="580.96" width="3.32" height="23.66" transform="translate(579.01 2096.33) rotate(-89.71)"/><rect class="cls-18" x="1593.56" y="578.91" width="11.41" height="3.32" transform="translate(-456.03 46.31) rotate(-4.71)"/><rect class="cls-18" x="1579.86" y="567.77" width="23.66" height="3.32" transform="translate(-486.94 189.38) rotate(-9.7)"/><rect class="cls-18" x="1589.42" y="554.75" width="11.41" height="3.32" transform="translate(-502.74 336.25) rotate(-14.71)"/><rect class="cls-18" x="1573.9" y="545.09" width="23.66" height="3.32" transform="translate(-505.23 479.48) rotate(-19.7)"/><rect class="cls-18" x="1581.16" y="531.67" width="11.41" height="3.32" transform="translate(-491.38 625.11) rotate(-24.71)"/><rect class="cls-18" x="1564.11" y="523.79" width="23.66" height="3.32" transform="translate(-467.02 762.9) rotate(-29.7)"/><rect class="cls-18" x="1569.01" y="510.38" width="11.41" height="3.32" transform="translate(-425.12 900.6) rotate(-34.7)"/><rect class="cls-18" x="1550.76" y="504.52" width="23.66" height="3.32" transform="matrix(0.77, -0.64, 0.64, 0.77, -376.71, 1027.85)"/><rect class="cls-18" x="1553.36" y="491.52" width="11.41" height="3.32" transform="translate(-309.7 1152.32) rotate(-44.7)"/><rect class="cls-18" x="1534.27" y="487.86" width="23.66" height="3.32" transform="matrix(0.65, -0.76, 0.76, 0.65, -240.9, 1265.14)"/><rect class="cls-18" x="1534.66" y="475.67" width="11.41" height="3.32" transform="matrix(0.58, -0.82, 0.82, 0.58, -152.74, 1372)"/><rect class="cls-18" x="1515.13" y="474.31" width="23.66" height="3.32" transform="matrix(0.5, -0.86, 0.86, 0.5, -68.09, 1467.19)"/><rect class="cls-18" x="1513.5" y="463.3" width="11.41" height="3.32" transform="translate(36.01 1552.83) rotate(-64.71)"/><rect class="cls-18" x="1493.94" y="464.29" width="23.66" height="3.32" transform="translate(132.75 1629.59) rotate(-69.71)"/><rect class="cls-18" x="1490.51" y="454.8" width="11.41" height="3.32" transform="translate(247.62 1692.3) rotate(-74.71)"/><rect class="cls-18" x="1471.32" y="458.11" width="23.66" height="3.32" transform="translate(351.92 1749.79) rotate(-79.7)"/><rect class="cls-18" x="1466.39" y="450.42" width="11.41" height="3.32" transform="translate(472.28 1789.09) rotate(-84.7)"/><rect class="cls-18" x="1447.98" y="455.95" width="23.66" height="3.32" transform="translate(580.78 1827.93) rotate(-89.7)"/><rect class="cls-18" x="1446.59" y="724.93" width="23.66" height="3.32" transform="translate(310.58 2094.19) rotate(-89.7)"/><rect class="cls-18" x="1468.99" y="726.54" width="3.32" height="11.41" transform="translate(-468.86 36.09) rotate(-4.71)"/><rect class="cls-18" x="1480.13" y="712.84" width="3.32" height="23.66" transform="translate(-514.71 173.19) rotate(-9.71)"/><rect class="cls-18" x="1493.15" y="722.4" width="3.32" height="11.41" transform="translate(-549.61 316.3) rotate(-14.71)"/><rect class="cls-18" x="1502.8" y="706.89" width="3.32" height="23.66" transform="translate(-567.99 462.48) rotate(-19.71)"/><rect class="cls-18" x="1516.23" y="714.14" width="3.32" height="11.41" transform="translate(-575.66 613.19) rotate(-24.7)"/><rect class="cls-18" x="1524.1" y="697.09" width="3.32" height="23.66" transform="translate(-564.52 762.2) rotate(-29.71)"/><rect class="cls-18" x="1537.52" y="701.99" width="3.32" height="11.41" transform="translate(-542.81 915.34) rotate(-34.71)"/><rect class="cls-18" x="1543.37" y="683.74" width="3.32" height="23.66" transform="translate(-501.7 1060.45) rotate(-39.71)"/><rect class="cls-18" x="1556.37" y="686.34" width="3.32" height="11.41" transform="translate(-449.89 1209.1) rotate(-44.7)"/><rect class="cls-18" x="1560.04" y="667.25" width="3.32" height="23.66" transform="translate(-379.96 1344.01) rotate(-49.71)"/><rect class="cls-18" x="1572.23" y="667.64" width="3.32" height="11.41" transform="translate(-299.37 1480.89) rotate(-54.67)"/><rect class="cls-18" x="1573.58" y="648.11" width="3.32" height="23.66" transform="translate(-203.04 1599.98) rotate(-59.7)"/><rect class="cls-18" x="1584.59" y="646.48" width="3.32" height="11.41" transform="translate(-94.69 1720.86) rotate(-64.72)"/><rect class="cls-18" x="1583.6" y="626.92" width="3.32" height="23.66" transform="translate(22.77 1817.16) rotate(-69.71)"/><rect class="cls-18" x="1593.09" y="623.49" width="3.32" height="11.41" transform="translate(154.26 1915.05) rotate(-74.74)"/><rect class="cls-18" x="1589.79" y="604.31" width="3.32" height="23.66" transform="translate(287.21 1984.88) rotate(-79.71)"/><rect class="cls-18" x="1597.47" y="599.37" width="3.32" height="11.41" transform="translate(435.91 2054.78) rotate(-84.73)"/><path class="cls-18" d="M1472.54,592.17a13.42,13.42,0,0,0-13.35-13.5,14,14,0,0,0-3.52.46l-.14,25.9a13.66,13.66,0,0,0,3.52.5A13.42,13.42,0,0,0,1472.54,592.17Z" transform="translate(-413.73 -87.05)"/></g><rect class="cls-19" x="460.88" y="926.85" width="1.48" height="2.35" transform="translate(-901.72 1256.37) rotate(-87.18)"/><polygon class="cls-19" points="15.65 832.95 36.27 832.68 36.3 835.29 15.65 832.95"/><polygon class="cls-18" points="82.68 696.93 73.61 693.73 73.72 693.77 74.22 695.4 72.54 695.12 76.82 703.59 82.68 696.93"/><path class="cls-20" d="M553.82,834.46a2.83,2.83,0,0,1,.49,4L552,841.1a2.82,2.82,0,0,1-4,0l-5-4.4a2.83,2.83,0,0,1-.49-4l2.35-2.68a2.84,2.84,0,0,1,4,0Z" transform="translate(-413.73 -87.05)"/><path class="cls-12" d="M554.85,835.38a2.82,2.82,0,0,1,.5,4L553,842a2.82,2.82,0,0,1-4,0l-5-4.4a2.83,2.83,0,0,1-.49-4l2.36-2.69a2.83,2.83,0,0,1,4,0Z" transform="translate(-413.73 -87.05)"/><polygon class="cls-17" points="80.17 696.51 80.91 698.94 78.59 701.58 76.08 701.15 76.83 703.59 129.76 750.13 135.61 743.48 82.68 696.93 82.68 696.93 80.17 696.51"/><polygon class="cls-21" points="72.54 695.12 72.54 695.12 72.41 694.86 72.54 695.12"/><polygon class="cls-19" points="73.61 693.73 73 693.52 71.46 692.97 72.41 694.86 72.54 695.12 74.22 695.4 73.72 693.77 73.61 693.73"/><polygon class="cls-12" points="78.13 698.83 78.59 701.57 131.53 748.12 133.84 745.49 80.91 698.95 80.91 698.94 78.13 698.83"/><rect class="cls-19" x="541.12" y="831.94" width="8.86" height="2.3" transform="translate(-854.05 605.58) rotate(-48.67)"/><path class="cls-22" d="M449.29,923.48l0-.79A4.19,4.19,0,0,0,449.29,923.48Z" transform="translate(-413.73 -87.05)"/><path class="cls-23" d="M450.63,918.21l.39,0A1.28,1.28,0,0,0,450.63,918.21Z" transform="translate(-413.73 -87.05)"/><path class="cls-23" d="M449.48,919.66l0-.46A1.2,1.2,0,0,0,449.48,919.66Z" transform="translate(-413.73 -87.05)"/><path class="cls-12" d="M452.44,926.92a3.68,3.68,0,0,0,.74,0l189.59,9,.41-8.6L451,918.23l-.39,0a1.32,1.32,0,0,0-1.08.8,1.8,1.8,0,0,0-.05.19l0,.46-.15,3,0,.79a3.65,3.65,0,0,0,3.15,3.44Z" transform="translate(-413.73 -87.05)"/><path class="cls-18" d="M458.48,932.31a1.9,1.9,0,0,1-1.8-2h0a1.91,1.91,0,0,1,2-1.8l5.86.29a1.89,1.89,0,0,1,1.8,2h0a1.89,1.89,0,0,1-2,1.8Z" transform="translate(-413.73 -87.05)"/><rect class="cls-19" x="521.06" y="802.62" width="1.48" height="2.35" transform="translate(-840.92 583.37) rotate(-49.01)"/><path class="cls-18" d="M522.5,798.52a1.88,1.88,0,0,0-2.66.19h0a1.9,1.9,0,0,0,.18,2.67l4.43,3.85a1.9,1.9,0,0,0,2.67-.18h0a1.89,1.89,0,0,0-.18-2.67Z" transform="translate(-413.73 -87.05)"/><rect class="cls-19" x="512.32" y="810.49" width="1.48" height="2.35" transform="translate(-849.84 579.29) rotate(-49)"/><path class="cls-22" d="M497.57,803.46l-.52.6A3.73,3.73,0,0,1,497.57,803.46Z" transform="translate(-413.73 -87.05)"/><path class="cls-23" d="M494.89,808.19l.29.25A1,1,0,0,1,494.89,808.19Z" transform="translate(-413.73 -87.05)"/><path class="cls-23" d="M495.06,806.35l-.3.34A1.1,1.1,0,0,1,495.06,806.35Z" transform="translate(-413.73 -87.05)"/><path class="cls-12" d="M502.23,803.16a5.11,5.11,0,0,1,.55.48L645.83,928.4l-5.66,6.49-145-126.45-.29-.25a1.27,1.27,0,0,1-.22-1.32.51.51,0,0,1,.09-.18l.3-.34,2-2.29.52-.6a3.71,3.71,0,0,1,3.9-.72A4.32,4.32,0,0,1,502.23,803.16Z" transform="translate(-413.73 -87.05)"/><path class="cls-18" d="M518.23,814.29a2.35,2.35,0,0,0,.23-.32,1.83,1.83,0,0,0,.33-.3,2.27,2.27,0,0,0,.22-.32,1.87,1.87,0,0,0,.33-.3,1.72,1.72,0,0,0,.23-.32,1.87,1.87,0,0,0,.33-.3,2.27,2.27,0,0,0,.22-.32,1.87,1.87,0,0,0,.33-.3,1.72,1.72,0,0,0,.23-.32,2.35,2.35,0,0,0,.33-.3,2.27,2.27,0,0,0,.22-.32,2.35,2.35,0,0,0,.33-.3,1.83,1.83,0,0,0,.13-.16,2.61,2.61,0,0,0,.24-.23l.13-.17a1.31,1.31,0,0,0,.24-.23,1.83,1.83,0,0,0,.13-.16,1.75,1.75,0,0,0,.24-.23l.13-.17A1.73,1.73,0,0,0,523,809l.06-.07a2.61,2.61,0,0,0,.24-.23l.06-.08a1.65,1.65,0,0,0,.24-.22,1.91,1.91,0,0,0-.19-2.68L519,801.86a1.9,1.9,0,0,0-2.67.19l-.06.07-.24.23,0,.07a1.75,1.75,0,0,0-.24.23,1.83,1.83,0,0,0-.13.16,1.36,1.36,0,0,0-.24.24,1,1,0,0,0-.13.16,1.75,1.75,0,0,0-.24.23,1.09,1.09,0,0,0-.13.17,1,1,0,0,0-.24.23,1,1,0,0,0-.13.16,1.75,1.75,0,0,0-.24.23,1.72,1.72,0,0,0-.23.32,2.35,2.35,0,0,0-.33.3,1.94,1.94,0,0,0-.23.33,2.15,2.15,0,0,0-.32.29,1.5,1.5,0,0,0-.23.33,1.81,1.81,0,0,0-.33.29,3.29,3.29,0,0,0-.23.33,1.81,1.81,0,0,0-.33.29,2.37,2.37,0,0,0-.22.33,1.53,1.53,0,0,0-.33.29,3.29,3.29,0,0,0-.23.33,1.55,1.55,0,0,0-.33.3,1.9,1.9,0,0,0,.19,2.67l4.43,3.85A1.89,1.89,0,0,0,518.23,814.29Z" transform="translate(-413.73 -87.05)"/><path class="cls-17" d="M661.31,943.4c-1.51-.61-2-2.92-1.09-5.16h0c.9-2.24,2.85-3.56,4.35-3l23.61,9.5c1.51.61,2,2.91,1.1,5.15h0c-.91,2.24-2.86,3.57-4.36,3Z" transform="translate(-413.73 -87.05)"/><path class="cls-19" d="M626.93,937.54c-4.82-1.94-6.75-8.4-4.33-14.43h0c2.43-6,8.3-9.34,13.11-7.41l23.89,9.61c4.81,1.94,6.75,8.4,4.33,14.43h0c-2.43,6-8.3,9.34-13.11,7.41Z" transform="translate(-413.73 -87.05)"/><path class="cls-18" d="M641.88,934.86a3.7,3.7,0,1,1,4.82-2.06A3.71,3.71,0,0,1,641.88,934.86Z" transform="translate(-413.73 -87.05)"/><polygon class="cls-18" points="1055.53 728.33 1054.94 706.44 1054.95 706.71 1051.88 709.1 1051.12 705.28 1036.58 721.31 1055.53 728.33"/><path class="cls-18" d="M1407.63,981.7c-1.31,3.52-4.89,5.43-8,4.28l-7.63-2.83c-3.12-1.16-4.59-4.95-3.29-8.47l5.27-14.23c1.31-3.52,4.9-5.43,8-4.28l7.64,2.83c3.11,1.15,4.59,5,3.28,8.47Z" transform="translate(-413.73 -87.05)"/><polygon class="cls-12" points="1054.38 722.64 1049.81 726.21 1042.31 723.43 1041.16 717.75 1036.59 721.32 980.78 871.94 999.71 878.96 1055.52 728.33 1055.53 728.33 1054.38 722.64"/><polygon class="cls-21" points="1051.12 705.28 1051.12 705.28 1051.56 704.79 1051.12 705.28"/><polygon class="cls-19" points="1054.94 706.44 1054.9 704.95 1054.8 701.22 1051.56 704.79 1051.12 705.28 1051.88 709.1 1054.95 706.71 1054.94 706.44"/><polygon class="cls-17" points="1047.78 720.2 1042.32 723.44 986.51 874.07 993.98 876.84 1049.79 726.21 1049.81 726.21 1047.78 720.2"/><rect class="cls-19" x="1402.27" y="949.95" width="5.24" height="20.19" transform="translate(-397.2 1856.79) rotate(-69.67)"/></svg>