<svg xmlns="http://www.w3.org/2000/svg" viewBox="0 0 100.52 84.63"><defs><style>.cls-1{fill:#fff;}</style></defs><title>Middel 5</title><g id="Laag_2" data-name="Laag 2"><g id="Layer_1" data-name="Layer 1"><path class="cls-1" d="M86.12,36.3a12.68,12.68,0,0,0-4.54-16.07,11.84,11.84,0,0,0-14.86,1.63C65.91,5.19,44.18-3.54,29.32,1.35,12.38,6.93,8,25.54,15.93,39.67,7.46,37.59-1.25,44.14.15,54.24,2,67.38,15.58,68,26.12,67.73c1.93-.06,1.93-3.06,0-3-7.06.18-16.39,1-21-5.57C2.8,55.8,2.13,50.7,4.1,47c3-5.64,10.46-6.18,15.15-2.52a1.5,1.5,0,0,0,2.12-2.12c-10.64-12.58-7.92-32.6,8.75-38.1C44.22-.41,67.3,8.58,63.34,26.7c-.34,1.57,2,2.77,2.74,1.15,2.27-4.74,6.9-8.08,12.3-5.85,6.13,2.53,8.2,11,3,15.57-1.08,1,.06,3.06,1.46,2.51,12.27-4.81,19.88,13.6,9.66,20.69-5.15,3.58-12.48,4.2-18.6,4.08-1.94,0-1.94,3,0,3,9.37.19,22.64-1.68,25.92-12.06C102.8,46.51,95.5,35.83,86.12,36.3Z"/><path class="cls-1" d="M40.53,48.56a1.13,1.13,0,0,0-1.59,0C36.05,52,33.09,55.41,30.39,59c-.53.7.19,1.7,1,1.69s1.85,0,2.78,0c.06,5.8-.1,11.61,0,17.41a1,1,0,0,0,.52.9,1.07,1.07,0,0,0,.61.22,87.05,87.05,0,0,0,9.28,0,1.15,1.15,0,0,0,1.13-1.12c-.1-5.8,0-11.59,0-17.38.81,0,1.61,0,2.44,0s1.53-1,1-1.69C46.33,55.45,43.41,52,40.53,48.56ZM36.38,77c-.06-5.81.09-11.63,0-17.44a1.14,1.14,0,0,0-1.12-1.13H33.65c2-2.5,4-4.92,6.08-7.35,2.05,2.45,4.11,4.89,6.09,7.38l-1.28,0a1.14,1.14,0,0,0-1.12,1.13c0,5.81-.08,11.63,0,17.45C41.07,77.13,38.72,77.11,36.38,77Z"/><path class="cls-1" d="M69.25,72.16c-.83,0-1.63,0-2.44,0,0-5.79-.1-11.58,0-17.38a1.15,1.15,0,0,0-1.13-1.12,87.05,87.05,0,0,0-9.28,0,1,1,0,0,0-.6.22,1,1,0,0,0-.53.9c-.09,5.81.07,11.61,0,17.41-.93,0-1.85,0-2.78,0s-1.5,1-1,1.69c2.71,3.6,5.72,6.94,8.55,10.45a1.13,1.13,0,0,0,1.59,0c2.86-3.35,5.52-6.87,8.38-10.22A1.14,1.14,0,0,0,69.25,72.16ZM54.8,74.41h1.6a1.14,1.14,0,0,0,1.12-1.13c.09-5.81-.06-11.63,0-17.44,2.34-.09,4.69-.11,7,0-.07,5.82,0,11.64,0,17.45a1.14,1.14,0,0,0,1.12,1.13l1.2,0c-2,2.45-4,4.94-6,7.37C58.86,79.3,56.77,76.9,54.8,74.41Z"/><path class="cls-1" d="M34.11,11.18c1.43-.15,1.44-2.41,0-2.25C25.9,9.79,19,18.92,21,27c.33,1.41,2.5.81,2.17-.6C21.56,19.88,27.4,11.89,34.11,11.18Z"/><path class="cls-1" d="M34.26,13.61a11.32,11.32,0,0,0-5.75,2.83C27.43,17.42,29,19,30.1,18a9.17,9.17,0,0,1,4.76-2.25C36.29,15.55,35.68,13.38,34.26,13.61Z"/></g></g></svg>