<?xml version="1.0"?>
<svg xmlns="http://www.w3.org/2000/svg" xmlns:xlink="http://www.w3.org/1999/xlink" version="1.1" id="Capa_1" x="0px" y="0px" viewBox="0 0 512 512" style="enable-background:new 0 0 512 512;" xml:space="preserve" width="512px" height="512px" class=""><g><g>
	<g>
		<path d="M388.597,105.556l-38.34-9.918c-2.3-7.183-8.955-12.434-16.845-12.634V67.826c0-15.432-12.556-27.988-27.988-27.988    c-5.649,0-10.912,1.682-15.316,4.573c-4.337-9.851-14.194-16.746-25.63-16.746c-4.673,0-9.082,1.151-12.958,3.185v-2.864    C251.521,12.556,238.966,0,223.533,0s-27.988,12.556-27.988,27.988v2.864c-3.877-2.034-8.285-3.185-12.958-3.185    c-15.432,0-27.988,12.556-27.988,27.988v27.542c-8.755,1.299-15.493,8.864-15.493,17.974v46.144    c-1.055-0.086-2.121-0.13-3.197-0.13h-6.701c-10.712,0-19.428,8.715-19.428,19.428v162.084c0,25.971,21.128,47.1,47.1,47.1h2.146    v121.176h-17.938c-4.15,0-7.515,3.365-7.515,7.515c0,4.15,3.365,7.515,7.515,7.515h192.555c4.15,0,7.515-3.365,7.515-7.515    c0-4.15-3.365-7.515-7.515-7.515h-20.704V382.434h4.835c17.776,0,32.237-14.462,32.237-32.238V327.35    c0.43-1.17,0.742-2.397,0.924-3.665L401.638,127.7C404.148,117.999,398.298,108.066,388.597,105.556z M292.467,67.826    c0-7.145,5.813-12.958,12.958-12.958c7.145,0,12.958,5.813,12.958,12.958v15.172h-25.917V67.826z M251.521,55.654    c0-7.145,5.813-12.958,12.958-12.958s12.958,5.813,12.958,12.958v27.344h-25.917V55.654z M210.575,27.988    c0-7.145,5.813-12.958,12.958-12.958s12.958,5.813,12.958,12.958v55.01h-25.917V27.988z M169.63,55.654    c0-7.145,5.813-12.958,12.958-12.958c7.145,0,12.958,5.813,12.958,12.958v27.344H169.63V55.654z M334.984,350.195    c-0.001,9.49-7.721,17.21-17.21,17.21h-12.35c-4.15,0-7.515,3.365-7.515,7.515v122.051H174.057V375.794h25.431    c4.15,0,7.515-3.365,7.515-7.515s-3.365-7.515-7.515-7.515h-42.605c-17.684,0-32.071-14.386-32.071-32.071V166.61    c0-2.425,1.973-4.399,4.399-4.399h6.701c13.227,0,23.988,10.761,23.988,23.988v71.414c0,4.15,3.365,7.515,7.515,7.515h27.577    c20.443,0,37.075,18.714,37.075,41.715v38.195c0,4.15,3.365,7.515,7.515,7.515c4.15,0,7.515-3.365,7.515-7.515v-5.765h85.853    c0.688,0,1.368-0.039,2.036-0.113V350.195z M387.089,123.936l-35.97,139.037v-62.824c0-4.15-3.365-7.515-7.515-7.515    c-4.15,0-7.515,3.365-7.515,7.515v120.953c0,0.459-0.099,0.895-0.278,1.289c-0.036,0.07-0.071,0.142-0.105,0.213    c-0.534,0.977-1.57,1.64-2.759,1.64h-85.853v-17.4c0-31.289-23.375-56.745-52.105-56.745h-20.062v-63.9    c0-14.935-8.434-27.937-20.791-34.492V101.17c0-1.732,1.41-3.142,3.142-3.142h175.668c1.732,0,3.142,1.41,3.142,3.142v0.385    c-0.002,0.091-0.002,0.181,0,0.272v42.501c0,4.15,3.365,7.515,7.515,7.515c4.15,0,7.515-3.365,7.515-7.515v-32.942l33.715,8.722    C386.511,120.541,387.523,122.259,387.089,123.936z" data-original="#000000" class="active-path" data-old_color="#0072bb" fill="#0072bb"/>
	</g>
</g><g>
	<g>
		<path d="M288.3,173.525l-28.013-28.013c-1.409-1.41-3.32-2.201-5.313-2.201c-1.993,0-3.905,0.792-5.313,2.201l-28.005,28.005    c-10.892,10.891-11.14,28.505-0.552,39.264c2.864,2.907,6.26,5.097,9.957,6.484l-2.417,4.318c-2.31,4.13-2.631,9.022-0.881,13.421    c1.749,4.397,5.339,7.729,9.851,9.143c5.792,1.816,11.625,2.722,17.457,2.722c5.831,0,11.665-0.907,17.456-2.721    c4.512-1.414,8.103-4.746,9.852-9.143c1.75-4.401,1.429-9.292-0.882-13.422l-2.449-4.378c3.691-1.414,7.078-3.63,9.924-6.561    C299.419,201.889,299.116,184.34,288.3,173.525z M278.192,202.173c-2.683,2.763-6.424,4.131-10.263,3.753    c-2.79-0.278-5.493,1.023-7.025,3.364c-1.532,2.342-1.636,5.341-0.27,7.784l7.747,13.846c0.039,0.07,0.142,0.254,0.033,0.53    c-0.107,0.272-0.306,0.334-0.38,0.356c-8.723,2.733-17.204,2.733-25.927,0c-0.074-0.023-0.273-0.085-0.38-0.356    c-0.109-0.276-0.006-0.46,0.033-0.529l7.764-13.878c1.374-2.455,1.26-5.472-0.293-7.817c-1.401-2.116-3.762-3.367-6.264-3.367    c-0.271,0-0.544,0.015-0.818,0.044c-3.859,0.422-7.627-0.915-10.335-3.667c-4.822-4.899-4.612-13.015,0.466-18.093l22.69-22.69    l22.699,22.699C282.713,189.193,282.947,197.277,278.192,202.173z" data-original="#000000" class="active-path" data-old_color="#0072bb" fill="#0072bb"/>
	</g>
</g></g> </svg>
