<svg id="Laag_1" data-name="Laag 1" xmlns="http://www.w3.org/2000/svg" viewBox="0 0 55.56 81.88"><defs><style>.cls-1{fill:none;stroke:#fff;stroke-linecap:round;stroke-linejoin:round;stroke-width:2px;}</style></defs><title>rocket</title><path class="cls-1" d="M953.46,563.33a12.46,12.46,0,0,0-.76,4.31c0,5.39,7.45,13.07,7.45,13.07s7.42-7.71,7.41-13.1a12.52,12.52,0,0,0-.77-4.28" transform="translate(-932.44 -499.83)"/><path class="cls-1" d="M948.15,559.51c-6.93,2.12-7.67,12.63-9,18.78a1.45,1.45,0,0,1-2.71.2c-8.21-20.32,2.85-33.58,5.84-36.66A41.91,41.91,0,0,0,948.15,559.51Z" transform="translate(-932.44 -499.83)"/><path class="cls-1" d="M984.08,578.39a1.45,1.45,0,0,1-2.71-.18c-1.39-6.17-2.17-16.7-9.16-18.77v-.11A41.92,41.92,0,0,0,978,541.62C980.73,544.4,992.34,557.71,984.08,578.39Z" transform="translate(-932.44 -499.83)"/><path class="cls-1" d="M960.06,500.87l0,0,0,0c-4.69,4.19-29.63,30.17-11.16,59.72a4.76,4.76,0,0,0,4.07,2.26h7.3l7.22,0a4.77,4.77,0,0,0,4.06-2.28C989.81,530.92,964.77,505,960.06,500.87Z" transform="translate(-932.44 -499.83)"/><line class="cls-1" x1="14.87" y1="18.7" x2="40.46" y2="18.7"/><path class="cls-1" d="M967.54,532.44a7.32,7.32,0,1,1-7.32-7.32A7.32,7.32,0,0,1,967.54,532.44Z" transform="translate(-932.44 -499.83)"/></svg>