<?xml version="1.0"?>
<svg xmlns="http://www.w3.org/2000/svg" xmlns:xlink="http://www.w3.org/1999/xlink" version="1.1" id="Capa_1" x="0px" y="0px" viewBox="0 0 512 512" style="enable-background:new 0 0 512 512;" xml:space="preserve" width="512px" height="512px"><g><g>
	<g>
		<path d="M122.423,60.018c1.882-3.698,0.409-8.223-3.29-10.105c-3.699-1.882-8.224-0.409-10.105,3.29l-28.919,56.851    c-0.023,0.046-0.046,0.092-0.068,0.138c-9.944,20.579-9.149,44.735,2.128,64.617l11.047,19.477    c1.384,2.44,3.926,3.808,6.543,3.808c1.256,0,2.529-0.315,3.7-0.98c3.61-2.047,4.877-6.633,2.829-10.244l-11.047-19.477    c-8.829-15.567-9.464-34.476-1.7-50.598L122.423,60.018z" data-original="#000000" class="active-path" data-old_color="#0072bb" fill="#0072bb"/>
	</g>
</g><g>
	<g>
		<path d="M112.564,147.552c-2.952-2.908-2.988-7.676-0.08-10.628c2.912-2.957,2.876-7.714-0.081-10.627    c-2.958-2.913-7.715-2.876-10.627,0.081c-8.722,8.855-8.615,23.157,0.24,31.88c1.464,1.442,3.369,2.161,5.274,2.161    c1.942,0,3.883-0.748,5.353-2.24C115.556,155.223,115.52,150.465,112.564,147.552z" data-original="#000000" class="active-path" data-old_color="#0072bb" fill="#0072bb"/>
	</g>
</g><g>
	<g>
		<path d="M184.417,270.387l-5.01-9.018c-2.016-3.626-6.588-4.933-10.219-2.92c-3.628,2.016-4.935,6.591-2.92,10.219l5.01,9.018    c1.373,2.471,3.935,3.866,6.576,3.866c1.234,0,2.486-0.305,3.643-0.946C185.126,278.59,186.432,274.015,184.417,270.387z" data-original="#000000" class="active-path" data-old_color="#0072bb" fill="#0072bb"/>
	</g>
</g><g>
	<g>
		<path d="M206.264,263.039l-5.01-8.016c-2.199-3.522-6.837-4.59-10.355-2.391c-3.52,2.199-4.59,6.836-2.391,10.355l5.01,8.017    c1.426,2.281,3.875,3.533,6.379,3.533c1.36,0,2.737-0.369,3.976-1.143C207.393,271.195,208.463,266.558,206.264,263.039z" data-original="#000000" class="active-path" data-old_color="#0072bb" fill="#0072bb"/>
	</g>
</g><g>
	<g>
		<g>
			<path d="M267.379,271.477C267.415,271.533,267.345,271.42,267.379,271.477L267.379,271.477z" data-original="#000000" class="active-path" data-old_color="#0072bb" fill="#0072bb"/>
			<path d="M400.282,447.876H253.076l78.224-56.354c4.887-3.519,8.109-8.731,9.074-14.678c0.965-5.945-0.442-11.907-3.96-16.792     c-4.947-6.868-13.078-10.123-20.951-9.2l-48.084-79.375c-3.881-6.095-10.592-9.288-17.338-8.895     c-0.443-0.604-0.984-1.151-1.619-1.618L219.698,239.9l-50.703-91.84l25.994-77.019c1.327-3.933-0.785-8.196-4.717-9.524     c-3.93-1.327-8.195,0.786-9.524,4.717l-25.327,75.045h-15.648c-4.151,0-7.515,3.364-7.515,7.515s3.364,7.515,7.515,7.515h16.606     l30.312,54.906l-48.999,31.032l-13.762-24.265c-2.048-3.611-6.632-4.878-10.244-2.829c-3.61,2.047-4.877,6.633-2.829,10.244     l17.627,31.081c0.012,0.021,0.024,0.042,0.036,0.063l13.506,23.815l17.959,43.102c-4.313,6.216-4.662,14.596-0.289,21.367     l5.73,8.869h-55.965c-27.976,0-50.736,22.76-50.736,50.737v17.461c-5.818,4.08-9.632,10.838-9.632,18.471     c0,2.633,0.454,5.163,1.288,7.515H7.515c-4.151,0-7.515,3.364-7.515,7.515s3.364,7.515,7.515,7.515h392.767     c4.151,0,7.515-3.364,7.515-7.515S404.433,447.876,400.282,447.876z M285.624,330.332l16.139,26.898L285.66,368.83l-3.19-4.164     c-4.337-5.661-6.072-12.652-4.885-19.684C278.557,339.225,281.37,334.14,285.624,330.332z M155.727,274.151     c-0.116-0.28-0.25-0.553-0.401-0.817l-10.21-18.002l48.852-30.939l13.371,24.218c0.526,0.954,1.255,1.782,2.134,2.428     l25.168,18.457c-3.884,3.375-6.196,8.323-6.196,13.563v7.795c0,1.166-0.627,2.252-1.636,2.836l-34.136,19.722     c-1.466,0.848-3.275,0.964-4.84,0.314l-6.095-2.539c-2.351-0.981-5.033-0.703-7.133,0.734l-2.445,1.672L155.727,274.151z      M131.727,405.956l-0.615-37.234h9.837v7.515c0,4.151,3.364,7.515,7.515,7.515c4.151,0,7.515-3.364,7.515-7.515v-7.515h9.344     v7.515c0,4.151,3.364,7.515,7.515,7.515s7.515-3.364,7.515-7.515v-7.515h19.538c4.151,0,7.515-3.364,7.515-7.515     c0-4.151-3.364-7.515-7.515-7.515h-16.565l-11-17.025c-1.06-1.641-0.854-3.714,0.396-5.1c0.533-0.322,1.014-0.702,1.439-1.13     l5.567-3.808l2.329,0.97c5.861,2.443,12.642,2.004,18.139-1.172l34.136-19.724c5.642-3.26,9.146-9.333,9.146-15.848v-7.795     c0-1.039,0.559-2.007,1.458-2.527l4.094-2.371c1.965-1.138,4.454-0.529,5.671,1.384l23.107,37.757     c-7.935,6.184-13.354,15.2-15.039,25.178c-1.863,11.03,0.971,22.448,7.774,31.328l2.921,3.811l-55.796,40.198h-88.651     c1.737-3.546,2.714-7.53,2.714-11.738C131.728,406.039,131.728,405.997,131.727,405.956z M73.759,404.429     c0-19.689,16.018-35.708,35.707-35.708h6.615l0.618,37.413c-0.029,6.448-5.283,11.683-11.738,11.683H73.759V404.429z      M224.938,447.875H71.64v0.001c-4.144,0-7.515-3.371-7.515-7.515c0-3.151,1.949-5.854,4.704-6.97     c0.078-0.028,0.155-0.059,0.232-0.09c0.805-0.295,1.672-0.456,2.578-0.456h150.875l91.207-65.709     c3.369-2.421,8.078-1.66,10.495,1.697c1.173,1.629,1.642,3.618,1.32,5.602c-0.321,1.982-1.395,3.718-3.022,4.891l-93.176,67.126     C228.044,447.383,226.522,447.875,224.938,447.875z" data-original="#000000" class="active-path" data-old_color="#0072bb" fill="#0072bb"/>
		</g>
	</g>
</g><g>
	<g>
		<path d="M504.485,447.876h-72.141c-4.151,0-7.515,3.364-7.515,7.515s3.364,7.515,7.515,7.515h72.141    c4.151,0,7.515-3.364,7.515-7.515S508.636,447.876,504.485,447.876z" data-original="#000000" class="active-path" data-old_color="#0072bb" fill="#0072bb"/>
	</g>
</g><g>
	<g>
		<path d="M443.366,394.772h-87.17c-4.151,0-7.515,3.364-7.515,7.515c0,4.151,3.364,7.515,7.515,7.515h87.17    c4.151,0,7.515-3.364,7.515-7.515C450.881,398.136,447.517,394.772,443.366,394.772z" data-original="#000000" class="active-path" data-old_color="#0072bb" fill="#0072bb"/>
	</g>
</g><g>
	<g>
		<path d="M488.454,394.772h-13.025c-4.151,0-7.515,3.364-7.515,7.515c0,4.151,3.364,7.515,7.515,7.515h13.025    c4.151,0,7.515-3.364,7.515-7.515C495.969,398.136,492.605,394.772,488.454,394.772z" data-original="#000000" class="active-path" data-old_color="#0072bb" fill="#0072bb"/>
	</g>
</g><g>
	<g>
		<path d="M383.249,305.598h-46.09c-4.151,0-7.515,3.364-7.515,7.515s3.364,7.515,7.515,7.515h46.09    c4.151,0,7.515-3.364,7.515-7.515S387.4,305.598,383.249,305.598z" data-original="#000000" class="active-path" data-old_color="#0072bb" fill="#0072bb"/>
	</g>
</g><g>
	<g>
		<path d="M488.454,341.668h-64.125c-4.151,0-7.515,3.364-7.515,7.515s3.364,7.515,7.515,7.515h64.125    c4.151,0,7.515-3.364,7.515-7.515S492.605,341.668,488.454,341.668z" data-original="#000000" class="active-path" data-old_color="#0072bb" fill="#0072bb"/>
	</g>
</g><g>
	<g>
		<path d="M496.47,245.48h-96.188c-4.151,0-7.515,3.364-7.515,7.515c0,4.15,3.364,7.515,7.515,7.515h96.188    c4.151,0,7.515-3.364,7.515-7.515S500.621,245.48,496.47,245.48z" data-original="#000000" class="active-path" data-old_color="#0072bb" fill="#0072bb"/>
	</g>
</g><g>
	<g>
		<path d="M323.131,245.48h-25.049c-4.151,0-7.515,3.364-7.515,7.515c0,4.15,3.364,7.515,7.515,7.515h25.049    c4.151,0,7.515-3.364,7.515-7.515S327.282,245.48,323.131,245.48z" data-original="#000000" class="active-path" data-old_color="#0072bb" fill="#0072bb"/>
	</g>
</g><g>
	<g>
		<path d="M73.644,260.51H35.569c-4.151,0-7.515,3.364-7.515,7.515s3.364,7.515,7.515,7.515h38.074c4.151,0,7.515-3.364,7.515-7.515    S77.795,260.51,73.644,260.51z" data-original="#000000" class="active-path" data-old_color="#0072bb" fill="#0072bb"/>
	</g>
</g><g>
	<g>
		<path d="M107.71,311.61H73.644c-4.151,0-7.515,3.364-7.515,7.515c0,4.151,3.364,7.515,7.515,7.515h34.067    c4.151,0,7.515-3.364,7.515-7.515C115.225,314.973,111.861,311.61,107.71,311.61z" data-original="#000000" class="active-path" data-old_color="#0072bb" fill="#0072bb"/>
	</g>
</g></g> </svg>
