<svg id="Laag_1" data-name="Laag 1" xmlns="http://www.w3.org/2000/svg" xmlns:xlink="http://www.w3.org/1999/xlink" viewBox="0 0 783 163.09"><defs><style>.cls-1{fill:#fff;}.cls-2{fill:#0072bb;}.cls-3{fill:url(#Naamloos_verloop_35);}.cls-4{fill:#ff4c3b;}.cls-5{fill:#ffd034;}</style><linearGradient id="Naamloos_verloop_35" x1="120.3" y1="87.46" x2="132.85" y2="87.46" gradientUnits="userSpaceOnUse"><stop offset="0" stop-color="#0072bb"/><stop offset="1" stop-color="#ff4b3b"/></linearGradient></defs><title>side-whitetext-coloremblem</title><path class="cls-1" d="M464.08,126.69h7.62l8.43,22.16,8.52-22.16h7.63l-11,27.72,10.95,26.28,21.52-54.36h8.79L499.86,190h-7L480.22,160,467.48,190h-7l-26.55-63.69h8.7l21.62,54.36,10.85-26.28Z" transform="translate(-106.34 -126.1)"/><path class="cls-1" d="M537.64,190V143.68h7.9V190Zm7.9-59.88a4,4,0,1,1-3.95-3.95A3.95,3.95,0,0,1,545.54,130.14Z" transform="translate(-106.34 -126.1)"/><path class="cls-1" d="M588,190.91a23.78,23.78,0,0,1-9.69-1.93,22.8,22.8,0,0,1-7.53-5.24,23.85,23.85,0,0,1-4.89-7.76,25.24,25.24,0,0,1-1.75-9.37,24.92,24.92,0,0,1,1.75-9.33,23.87,23.87,0,0,1,4.93-7.72,23.43,23.43,0,0,1,7.58-5.24,23.78,23.78,0,0,1,9.69-1.93,22.77,22.77,0,0,1,21.75,14.84,25,25,0,0,1,1.66,9c0,.66,0,1.25,0,1.79a9.64,9.64,0,0,1-.13,1.26H572.51a18.05,18.05,0,0,0,1.62,6.36,16.19,16.19,0,0,0,8.38,8.17A14.78,14.78,0,0,0,588.3,185a15.33,15.33,0,0,0,4.21-.58,18.26,18.26,0,0,0,3.86-1.57,13.11,13.11,0,0,0,3.18-2.42,9.86,9.86,0,0,0,2.11-3.23l6.82,1.88a17.39,17.39,0,0,1-3.18,4.76,21.6,21.6,0,0,1-4.67,3.72,24,24,0,0,1-5.87,2.47A25.41,25.41,0,0,1,588,190.91Zm16.05-27.44a17.09,17.09,0,0,0-1.65-6.15,16.7,16.7,0,0,0-3.5-4.8,15.87,15.87,0,0,0-4.89-3.09,16.21,16.21,0,0,0-11.84,0,15.3,15.3,0,0,0-4.89,3.14,15.89,15.89,0,0,0-3.41,4.8,17.81,17.81,0,0,0-1.57,6.1Z" transform="translate(-106.34 -126.1)"/><path class="cls-1" d="M651.62,150.1a20.32,20.32,0,0,0-10.45,3.05,15.57,15.57,0,0,0-6.41,8V190h-7.9V143.2h7.36v10.85a23.79,23.79,0,0,1,6.37-8,13.2,13.2,0,0,1,8.43-3.18h1.52a5.59,5.59,0,0,1,1.08.09Z" transform="translate(-106.34 -126.1)"/><path class="cls-1" d="M691.26,190.91A18.46,18.46,0,0,1,681,188a21.79,21.79,0,0,1-7-7.26v28.34h-7.89V143.2h7V152a21.75,21.75,0,0,1,7.22-7,18.85,18.85,0,0,1,9.82-2.64,20,20,0,0,1,8.88,2,22.3,22.3,0,0,1,7,5.34,24.72,24.72,0,0,1,4.62,7.76,25.61,25.61,0,0,1,1.66,9.15,29.08,29.08,0,0,1-1.52,9.46,23.73,23.73,0,0,1-4.31,7.71,20.65,20.65,0,0,1-6.64,5.2A18.72,18.72,0,0,1,691.26,190.91Zm-2.42-6.81a13.48,13.48,0,0,0,6.32-1.48,15.59,15.59,0,0,0,4.85-4,17.81,17.81,0,0,0,3.09-5.61,19.67,19.67,0,0,0,1.08-6.45,18.47,18.47,0,0,0-4.66-12.25,16.2,16.2,0,0,0-5.07-3.76,14.48,14.48,0,0,0-6.33-1.39,12.68,12.68,0,0,0-4.44.85,19.55,19.55,0,0,0-4.3,2.24,15.34,15.34,0,0,0-3.5,3.32A9.93,9.93,0,0,0,674,159.7v13.36a20.43,20.43,0,0,0,2.51,4.35,17.85,17.85,0,0,0,3.5,3.5,16.8,16.8,0,0,0,4.22,2.33A13,13,0,0,0,688.84,184.1Z" transform="translate(-106.34 -126.1)"/><path class="cls-1" d="M749.29,190.91a23.77,23.77,0,0,1-9.68-1.93,22.94,22.94,0,0,1-7.54-5.24,24,24,0,0,1-4.89-7.76,25.44,25.44,0,0,1-1.74-9.37,25.11,25.11,0,0,1,1.74-9.33,23.73,23.73,0,0,1,4.94-7.72,23.32,23.32,0,0,1,7.58-5.24,23.74,23.74,0,0,1,9.68-1.93,22.74,22.74,0,0,1,21.75,14.84,25,25,0,0,1,1.66,9c0,.66,0,1.25,0,1.79a9.34,9.34,0,0,1-.14,1.26H733.78a18,18,0,0,0,1.61,6.36,16.37,16.37,0,0,0,3.5,4.94,16.2,16.2,0,0,0,4.89,3.23,14.7,14.7,0,0,0,5.78,1.16,15.4,15.4,0,0,0,4.22-.58,18.48,18.48,0,0,0,3.86-1.57,13.51,13.51,0,0,0,3.18-2.42,9.86,9.86,0,0,0,2.11-3.23l6.81,1.88a17,17,0,0,1-3.18,4.76,21.54,21.54,0,0,1-4.66,3.72A24.22,24.22,0,0,1,756,190,25.3,25.3,0,0,1,749.29,190.91Zm16.06-27.44a16.9,16.9,0,0,0-1.66-6.15,16.52,16.52,0,0,0-3.5-4.8,16.06,16.06,0,0,0-16.73-3.09,15.14,15.14,0,0,0-4.88,3.14,15.56,15.56,0,0,0-3.41,4.8,17.58,17.58,0,0,0-1.57,6.1Z" transform="translate(-106.34 -126.1)"/><path class="cls-1" d="M811.09,150.1a20.32,20.32,0,0,0-10.45,3.05,15.57,15.57,0,0,0-6.41,8V190h-7.89V143.2h7.35v10.85a23.91,23.91,0,0,1,6.37-8,13.2,13.2,0,0,1,8.43-3.18H810a5.59,5.59,0,0,1,1.08.09Z" transform="translate(-106.34 -126.1)"/><path class="cls-1" d="M409.08,225h4.49l9.51,23.14,9.5-23.14h4.49l-11.21,26.82,13.36,31,24.4-58.3h5l-27.27,63.68h-4.21l-14-32.73-14.09,32.73h-4.21l-27.18-63.68h4.94l24.48,58.3,13.19-31Z" transform="translate(-106.34 -126.1)"/><path class="cls-1" d="M498.84,289.16a21.66,21.66,0,0,1-9.15-1.93,22.52,22.52,0,0,1-7.31-5.29,24.91,24.91,0,0,1-4.84-7.76,25.16,25.16,0,0,1-1.75-9.42,24.59,24.59,0,0,1,1.75-9.28,24.17,24.17,0,0,1,4.8-7.62,22.23,22.23,0,0,1,7.26-5.16,21.88,21.88,0,0,1,9.06-1.88,21.48,21.48,0,0,1,9.1,1.92A22.83,22.83,0,0,1,515,248a24.69,24.69,0,0,1,6.55,16.81c0,.3,0,.68,0,1.13s0,.73,0,.85h-41a20.72,20.72,0,0,0,1.89,7.49,21,21,0,0,0,4.08,6,18.29,18.29,0,0,0,5.69,3.95,16.93,16.93,0,0,0,6.91,1.43,17.54,17.54,0,0,0,4.8-.67,19.09,19.09,0,0,0,4.39-1.84,16,16,0,0,0,3.59-2.82,13.25,13.25,0,0,0,2.47-3.64l3.94,1.08a16.66,16.66,0,0,1-3,4.62,19.69,19.69,0,0,1-4.49,3.63,22.82,22.82,0,0,1-5.6,2.38A23.21,23.21,0,0,1,498.84,289.16Zm18.3-26a21.26,21.26,0,0,0-1.84-7.53,20.27,20.27,0,0,0-4-5.88,18.2,18.2,0,0,0-5.69-3.86,17.87,17.87,0,0,0-13.82,0,18.2,18.2,0,0,0-5.69,3.86,18.72,18.72,0,0,0-3.95,5.92,22.88,22.88,0,0,0-1.75,7.49Z" transform="translate(-106.34 -126.1)"/><path class="cls-1" d="M559.52,289.16a19.58,19.58,0,0,1-10.31-2.87,21.41,21.41,0,0,1-7.45-7.35v9.32h-4V222.79h4.48v29a29.59,29.59,0,0,1,7.8-7.89,18,18,0,0,1,10.41-3.05,18.85,18.85,0,0,1,8.92,2.1,21,21,0,0,1,6.73,5.57,25.76,25.76,0,0,1,4.21,7.8,27.14,27.14,0,0,1,1.48,8.83,24.92,24.92,0,0,1-1.7,9.2,24.3,24.3,0,0,1-4.71,7.62,23.34,23.34,0,0,1-7.08,5.25A20,20,0,0,1,559.52,289.16Zm-.9-4a16.41,16.41,0,0,0,7.45-1.7,19.06,19.06,0,0,0,5.87-4.53,21.37,21.37,0,0,0,3.86-6.41,20.15,20.15,0,0,0,1.39-7.36,22.29,22.29,0,0,0-1.3-7.58,21.45,21.45,0,0,0-3.63-6.45,17.85,17.85,0,0,0-5.61-4.53,15.94,15.94,0,0,0-12.82-.68,19.28,19.28,0,0,0-4.85,2.74,21.46,21.46,0,0,0-3.9,3.95,27.09,27.09,0,0,0-2.87,4.66v15.43a10,10,0,0,0,1.93,4.89,16.29,16.29,0,0,0,4.08,3.94,22.36,22.36,0,0,0,5.2,2.65A15.52,15.52,0,0,0,558.62,285.12Z" transform="translate(-106.34 -126.1)"/><path class="cls-1" d="M617.44,225h4.48l9.51,23.14,9.5-23.14h4.49l-11.21,26.82,13.36,31,24.4-58.3h5l-27.27,63.68h-4.21l-14-32.73-14.08,32.73h-4.22L586,224.58H591l24.48,58.3,13.19-31Z" transform="translate(-106.34 -126.1)"/><path class="cls-1" d="M707,289.16a21.34,21.34,0,0,1-9.1-1.93,22.46,22.46,0,0,1-7.22-5.24,24.29,24.29,0,0,1-4.76-7.72,25.46,25.46,0,0,1-1.7-9.24,24.91,24.91,0,0,1,1.75-9.32,24.56,24.56,0,0,1,4.84-7.72,23.32,23.32,0,0,1,7.22-5.25,21,21,0,0,1,9-1.92,21.32,21.32,0,0,1,9,1.92,23.14,23.14,0,0,1,7.26,5.25,24.38,24.38,0,0,1,4.84,7.72A25.33,25.33,0,0,1,723.29,282a22.45,22.45,0,0,1-7.27,5.24A21.45,21.45,0,0,1,707,289.16Zm-18.21-24a20.86,20.86,0,0,0,1.44,7.76,20.38,20.38,0,0,0,3.9,6.32,18.2,18.2,0,0,0,5.79,4.26,16.77,16.77,0,0,0,14.17,0,17.67,17.67,0,0,0,5.78-4.35,22.11,22.11,0,0,0,3.95-6.41,21.32,21.32,0,0,0,0-15.61,21.46,21.46,0,0,0-3.95-6.36,18.54,18.54,0,0,0-5.78-4.35,16,16,0,0,0-7.09-1.62,15.72,15.72,0,0,0-7,1.62,18.79,18.79,0,0,0-5.83,4.39,20.75,20.75,0,0,0-3.95,6.5A21.61,21.61,0,0,0,688.75,265.21Z" transform="translate(-106.34 -126.1)"/><path class="cls-1" d="M771.21,245.66a18.22,18.22,0,0,0-17.58,13.45v29.15h-4.49V241.62h4.22V253.1a22.5,22.5,0,0,1,6.41-8,16.4,16.4,0,0,1,8.57-3.55c.59,0,1.13,0,1.61,0s.9-.05,1.26-.05Z" transform="translate(-106.34 -126.1)"/><path class="cls-1" d="M822.07,288.26l-18.2-24.93-11,10.13v14.8h-4.49V222.79h4.49v45.74l28.34-26.82h5.2l-19.55,18.93L827,288.26Z" transform="translate(-106.34 -126.1)"/><path class="cls-1" d="M858.17,289.16a30,30,0,0,1-10.31-1.79,23.9,23.9,0,0,1-8.61-5.38l2.24-3.05a26.28,26.28,0,0,0,7.8,5,23.82,23.82,0,0,0,8.88,1.61q6.11,0,9.82-2.55a8.19,8.19,0,0,0,3.73-7.13,6.64,6.64,0,0,0-1-3.64,7.57,7.57,0,0,0-2.82-2.51,23.91,23.91,0,0,0-4.67-1.84q-2.78-.79-6.45-1.7c-2.64-.6-4.92-1.2-6.86-1.79a18.24,18.24,0,0,1-4.8-2.16,8.22,8.22,0,0,1-2.83-3.05,9.75,9.75,0,0,1-.94-4.57,13.22,13.22,0,0,1,1.34-6.1,12,12,0,0,1,3.73-4.3,16.92,16.92,0,0,1,5.47-2.56,24.63,24.63,0,0,1,6.59-.85,24,24,0,0,1,9.69,1.84,16.88,16.88,0,0,1,6.54,4.7l-2.51,2.43a14.17,14.17,0,0,0-6-4,23.11,23.11,0,0,0-7.94-1.35,21.3,21.3,0,0,0-4.89.54,11.81,11.81,0,0,0-4,1.71,8.35,8.35,0,0,0-2.69,3,9.07,9.07,0,0,0-1,4.35,7,7,0,0,0,.68,3.32,5.61,5.61,0,0,0,2.15,2.15,16,16,0,0,0,3.81,1.57q2.34.68,5.56,1.48,4.4,1.08,7.81,2.06A22.37,22.37,0,0,1,871.4,267a10.57,10.57,0,0,1,3.5,3.4,9.49,9.49,0,0,1,1.21,5,11.93,11.93,0,0,1-4.89,10Q866.33,289.16,858.17,289.16Z" transform="translate(-106.34 -126.1)"/><circle class="cls-1" cx="780.25" cy="160.04" r="2.75"/><polygon class="cls-2" points="0 66.19 40.4 163.09 51.04 163.09 70.42 117.37 89.67 163.09 100.31 163.09 126.58 102.24 120.3 87.69 94.71 148.9 78.06 108.91 85.41 89.39 79.14 74.72 70.28 100.45 57.46 66.74 45.86 66.74 62.64 108.91 46.13 148.9 13.24 66.19 0 66.19"/><polygon class="cls-3" points="120.3 87.69 126.58 102.24 132.85 87.69 126.58 72.67 120.3 87.69"/><polygon class="cls-4" points="132.85 87.69 126.58 102.24 152.84 163.09 163.49 163.09 182.73 117.37 202.11 163.09 212.75 163.09 253.15 66.19 239.91 66.19 207.02 148.9 190.51 108.91 207.29 66.74 195.69 66.74 182.86 100.45 174 74.72 167.74 89.39 175.09 108.91 158.44 148.9 132.85 87.69"/><path class="cls-5" d="M232.9,177.28l-24.29,59L162.48,126.1h13.24l32.89,82.7,16.51-40-16.79-42.17h11.6l12.83,33.71,13-33.71h11.6l-16.79,42.17,16.65,38.62L290,126.1h13.37L257.19,236.31" transform="translate(-106.34 -126.1)"/></svg>