<svg xmlns="http://www.w3.org/2000/svg" viewBox="0 0 744.81 520.67"><defs><style>.cls-1{isolation:isolate;}.cls-10,.cls-16,.cls-18,.cls-19,.cls-2,.cls-20,.cls-21,.cls-22,.cls-23,.cls-24,.cls-25,.cls-26,.cls-28,.cls-3,.cls-37,.cls-4,.cls-47,.cls-48,.cls-49,.cls-5,.cls-54,.cls-6,.cls-7,.cls-8,.cls-9{fill:none;}.cls-10,.cls-2,.cls-3,.cls-4,.cls-5,.cls-6,.cls-7,.cls-8,.cls-9{stroke:#a7c5ee;}.cls-10,.cls-16,.cls-18,.cls-19,.cls-2,.cls-20,.cls-21,.cls-22,.cls-23,.cls-24,.cls-25,.cls-26,.cls-28,.cls-3,.cls-37,.cls-4,.cls-45,.cls-47,.cls-48,.cls-49,.cls-5,.cls-50,.cls-51,.cls-54,.cls-6,.cls-7,.cls-8,.cls-9{stroke-miterlimit:10;}.cls-10,.cls-16,.cls-18,.cls-19,.cls-2,.cls-23,.cls-24,.cls-25,.cls-3,.cls-4,.cls-45,.cls-5,.cls-51,.cls-6,.cls-7,.cls-8,.cls-9{stroke-width:3px;}.cls-3{stroke-dasharray:12.12 12.12;}.cls-4{stroke-dasharray:14.25 14.25;}.cls-5{stroke-dasharray:11.41 11.41;}.cls-6{stroke-dasharray:13.2 13.2;}.cls-7{stroke-dasharray:12.19 12.19;}.cls-8{stroke-dasharray:12;}.cls-9{stroke-dasharray:11.75 11.75;}.cls-10{stroke-dasharray:11.17 11.17;}.cls-11{fill:#c3c6c8;}.cls-12{fill:#7d868c;}.cls-13{fill:#a9acad;}.cls-14{fill:#1e252b;}.cls-15,.cls-33,.cls-35{fill:#fff;}.cls-16,.cls-18,.cls-19,.cls-22,.cls-23,.cls-24{stroke:#a9acad;}.cls-16{stroke-dasharray:11.76 11.76;}.cls-17,.cls-41,.cls-52{fill:#ffd034;}.cls-19{stroke-dasharray:11.98 11.98;}.cls-20,.cls-21,.cls-26,.cls-28,.cls-45{stroke:#1e252b;}.cls-20,.cls-21,.cls-22,.cls-26,.cls-28,.cls-37,.cls-47,.cls-48,.cls-49{stroke-width:2px;}.cls-21{stroke-dasharray:12.7 12.7;}.cls-23{stroke-dasharray:11.24 11.24;}.cls-24{stroke-dasharray:13.56 13.56;}.cls-25{stroke:#5c6670;}.cls-26{stroke-dasharray:9.33 9.33;}.cls-27,.cls-45,.cls-46,.cls-50,.cls-51{fill:#0072bb;}.cls-28{stroke-dasharray:8.57 8.57;}.cls-29{fill:#5c6670;}.cls-30,.cls-34{fill:#ccc;}.cls-30,.cls-34,.cls-36,.cls-40,.cls-41,.cls-42,.cls-43,.cls-46,.cls-52,.cls-53{mix-blend-mode:multiply;}.cls-31{fill:#333e48;}.cls-32{fill:#003764;}.cls-33,.cls-53{opacity:0.4;}.cls-34,.cls-42{opacity:0.5;}.cls-35,.cls-43,.cls-52{opacity:0.6;}.cls-35{mix-blend-mode:soft-light;}.cls-36,.cls-40,.cls-42,.cls-43,.cls-53{fill:#a4a9ad;}.cls-37{stroke:#333e48;}.cls-38{fill:#ffa400;}.cls-39{fill:#a66b00;}.cls-40,.cls-46{opacity:0.7;}.cls-44{fill:#ff4c3b;}.cls-47,.cls-48,.cls-49,.cls-50,.cls-51{stroke:#fff;}.cls-48{stroke-dasharray:4.35 4.35;}.cls-49{stroke-dasharray:5.07 5.07;}.cls-50{stroke-width:5px;}.cls-54{stroke:#69c9ba;}.cls-55{fill:#c6c8ca;}</style></defs><title>44405-O4HRWW</title><g class="cls-1"><g id="Obejct"><polyline class="cls-2" points="271.14 121.61 271.14 127.61 277.14 127.61"/><line class="cls-3" x1="289.26" y1="127.61" x2="331.67" y2="127.61"/><polyline class="cls-2" points="337.73 127.61 343.73 127.61 343.73 121.61"/><line class="cls-4" x1="343.73" y1="107.36" x2="343.73" y2="85.98"/><polyline class="cls-2" points="343.73 78.86 343.73 72.86 337.73 72.86"/><line class="cls-3" x1="325.61" y1="72.86" x2="283.2" y2="72.86"/><polyline class="cls-2" points="277.14 72.86 271.14 72.86 271.14 78.86"/><line class="cls-4" x1="271.14" y1="93.11" x2="271.14" y2="114.49"/><polyline class="cls-2" points="268.14 508.89 268.14 514.89 262.14 514.89"/><line class="cls-5" x1="250.74" y1="514.89" x2="165.18" y2="514.89"/><polyline class="cls-2" points="159.48 514.89 153.48 514.89 153.48 508.89"/><line class="cls-6" x1="153.48" y1="495.69" x2="153.48" y2="449.5"/><polyline class="cls-2" points="153.48 442.9 153.48 436.9 159.48 436.9"/><line class="cls-5" x1="170.89" y1="436.91" x2="256.44" y2="436.91"/><polyline class="cls-2" points="262.14 436.9 268.14 436.9 268.14 442.9"/><line class="cls-6" x1="268.14" y1="456.1" x2="268.14" y2="502.29"/><circle class="cls-7" cx="152.79" cy="126.71" r="100.9"/><circle class="cls-8" cx="171" cy="215.15" r="36.4" transform="translate(-73.21 -40.33) rotate(-13.11)"/><polyline class="cls-2" points="639.72 175.1 639.72 181.1 633.72 181.1"/><line class="cls-9" x1="621.97" y1="181.1" x2="369.42" y2="181.1"/><polyline class="cls-2" points="363.55 181.1 357.55 181.1 357.55 175.1"/><line class="cls-10" x1="357.55" y1="163.92" x2="357.55" y2="13.09"/><polyline class="cls-2" points="357.55 7.5 357.55 1.5 363.55 1.5"/><line class="cls-9" x1="375.29" y1="1.5" x2="627.85" y2="1.5"/><polyline class="cls-2" points="633.72 1.5 639.72 1.5 639.72 7.5"/><line class="cls-10" x1="639.72" y1="18.67" x2="639.72" y2="169.51"/><rect class="cls-11" x="369.24" y="14.48" width="132.76" height="58.38"/><rect class="cls-12" x="512.3" y="47.81" width="113.54" height="25.05"/><rect class="cls-11" x="512.3" y="14.48" width="113.54" height="23.33"/><rect class="cls-13" x="369.24" y="83.08" width="59.89" height="59.63"/><path class="cls-14" d="M618.36,211.46H181.65A16.56,16.56,0,0,0,165.08,228V495.9H634.92V228A16.56,16.56,0,0,0,618.36,211.46Z" transform="translate(-28.85 -84.75)"/><rect class="cls-15" x="160.66" y="151.14" width="420.98" height="235.58"/><circle class="cls-16" cx="517.89" cy="353.18" r="59.9" transform="translate(-110.81 86.41) rotate(-17.41)"/><path class="cls-17" d="M372.59,471.47a29.37,29.37,0,1,0-58.74,0Z" transform="translate(-28.85 -84.75)"/><polyline class="cls-18" points="548.93 182.27 548.93 188.27 542.93 188.27"/><line class="cls-19" x1="530.95" y1="188.27" x2="441.12" y2="188.27"/><polyline class="cls-18" points="435.13 188.27 429.13 188.27 429.13 182.27"/><polyline class="cls-18" points="429.13 171.86 429.13 165.86 435.13 165.86"/><line class="cls-19" x1="447.11" y1="165.86" x2="536.94" y2="165.86"/><polyline class="cls-18" points="542.93 165.86 548.93 165.86 548.93 171.86"/><polyline class="cls-20" points="264.28 175.01 264.28 181.01 258.28 181.01"/><line class="cls-21" x1="245.58" y1="181.01" x2="226.53" y2="181.01"/><polyline class="cls-20" points="220.18 181.01 214.18 181.01 214.18 175.01"/><polyline class="cls-20" points="214.18 171.09 214.18 165.09 220.18 165.09"/><line class="cls-21" x1="232.88" y1="165.09" x2="251.93" y2="165.09"/><polyline class="cls-20" points="258.28 165.09 264.28 165.09 264.28 171.09"/><rect class="cls-13" x="160.66" y="353.26" width="27.56" height="33.46"/><rect class="cls-14" x="160.66" y="347.24" width="27.56" height="6.02"/><line class="cls-22" x1="188.22" y1="151.14" x2="188.22" y2="386.72"/><line class="cls-22" x1="188.22" y1="181.01" x2="160.66" y2="181.01"/><line class="cls-22" x1="188.22" y1="207.61" x2="160.66" y2="207.61"/><line class="cls-22" x1="188.22" y1="234.22" x2="160.66" y2="234.22"/><line class="cls-22" x1="188.22" y1="260.82" x2="160.66" y2="260.82"/><line class="cls-22" x1="188.22" y1="287.43" x2="160.66" y2="287.43"/><line class="cls-22" x1="188.22" y1="314.03" x2="160.66" y2="314.03"/><line class="cls-22" x1="181.62" y1="161.79" x2="165.32" y2="161.79"/><line class="cls-22" x1="181.62" y1="165.86" x2="165.32" y2="165.86"/><line class="cls-22" x1="181.62" y1="169.94" x2="165.32" y2="169.94"/><polyline class="cls-18" points="385.79 316.03 385.79 322.03 379.79 322.03"/><line class="cls-23" x1="368.55" y1="322.03" x2="216.77" y2="322.03"/><polyline class="cls-18" points="211.15 322.03 205.15 322.03 205.15 316.03"/><line class="cls-24" x1="205.15" y1="302.47" x2="205.15" y2="255"/><polyline class="cls-18" points="205.15 248.22 205.15 242.22 211.15 242.22"/><line class="cls-23" x1="222.39" y1="242.22" x2="374.17" y2="242.22"/><polyline class="cls-18" points="379.79 242.22 385.79 242.22 385.79 248.22"/><line class="cls-24" x1="385.79" y1="261.78" x2="385.79" y2="309.25"/><line class="cls-25" x1="205.15" y1="224.82" x2="385.79" y2="224.82"/><line class="cls-25" x1="205.15" y1="230.22" x2="205.15" y2="219.42"/><line class="cls-25" x1="385.79" y1="230.22" x2="385.79" y2="219.42"/><path class="cls-26" d="M484.28,378.3a20.79,20.79,0,1,0-20.79,20.79A20.78,20.78,0,0,0,484.28,378.3Z" transform="translate(-28.85 -84.75)"/><path class="cls-27" d="M394.17,433.93a10.49,10.49,0,1,0-10.48,10.48A10.49,10.49,0,0,0,394.17,433.93Z" transform="translate(-28.85 -84.75)"/><path class="cls-28" d="M448.93,293.28a13.64,13.64,0,1,0-13.64,13.65A13.64,13.64,0,0,0,448.93,293.28Z" transform="translate(-28.85 -84.75)"/><circle class="cls-29" cx="542.15" cy="439.77" r="13.64" transform="translate(-90.17 4.09) rotate(-8.87)"/><path class="cls-11" d="M165.08,531.4A16.56,16.56,0,0,0,181.65,548H618.36a16.56,16.56,0,0,0,16.56-16.56V495.9H165.08Z" transform="translate(-28.85 -84.75)"/><path class="cls-14" d="M407.06,521.93a7.06,7.06,0,1,1-7.06-7.06A7.06,7.06,0,0,1,407.06,521.93Z" transform="translate(-28.85 -84.75)"/><rect class="cls-13" x="328.67" y="463.21" width="84.96" height="46.28"/><rect class="cls-30" x="328.67" y="463.21" width="84.96" height="14.16"/><path class="cls-31" d="M401.91,223.9a1.91,1.91,0,1,0-1.91,1.9A1.91,1.91,0,0,0,401.91,223.9Z" transform="translate(-28.85 -84.75)"/><path class="cls-14" d="M401.57,223.9a1.57,1.57,0,1,0-1.57,1.56A1.57,1.57,0,0,0,401.57,223.9Z" transform="translate(-28.85 -84.75)"/><path class="cls-32" d="M401.17,223.9a1.17,1.17,0,1,0-1.17,1.16A1.17,1.17,0,0,0,401.17,223.9Z" transform="translate(-28.85 -84.75)"/><path class="cls-14" d="M400.81,223.9a.81.81,0,1,0-.81.8A.81.81,0,0,0,400.81,223.9Z" transform="translate(-28.85 -84.75)"/><path class="cls-33" d="M401.27,223.26a.64.64,0,0,0-.63-.64.64.64,0,1,0,0,1.28A.64.64,0,0,0,401.27,223.26Z" transform="translate(-28.85 -84.75)"/><rect class="cls-11" x="304.87" y="509.39" width="132.55" height="10.99"/><path class="cls-34" d="M181.65,210.94a16.57,16.57,0,0,0-16.57,16.56V530.88a16.56,16.56,0,0,0,16.57,16.56H357.52v46.18h-23.8v11H400V210.94Z" transform="translate(-28.85 -84.75)"/><path class="cls-35" d="M189.51,379.09l92.38,92.38h73.27L189.51,305.82ZM550.1,235.89H397.4L610.49,449V296.27Z" transform="translate(-28.85 -84.75)"/><line class="cls-25" x1="626.21" y1="151.14" x2="626.21" y2="386.72"/><line class="cls-25" x1="614.65" y1="151.14" x2="637.77" y2="151.14"/><line class="cls-25" x1="614.65" y1="386.72" x2="637.77" y2="386.72"/><rect class="cls-12" x="503.36" y="440.23" width="241.45" height="47.25" rx="9.01" ry="9.01"/><path class="cls-36" d="M621.31,572.22a37,37,0,1,0-73.9,0Z" transform="translate(-28.85 -84.75)"/><path class="cls-36" d="M678.93,572.22a36.95,36.95,0,0,1,73.9,0Z" transform="translate(-28.85 -84.75)"/><rect class="cls-14" x="601.9" y="453.9" width="41.31" height="19.9"/><path class="cls-14" d="M617.56,572.22a33.2,33.2,0,1,0-33.2,33.2A33.2,33.2,0,0,0,617.56,572.22Z" transform="translate(-28.85 -84.75)"/><path class="cls-17" d="M600.46,572.22a16.1,16.1,0,1,0-16.1,16.1A16.09,16.09,0,0,0,600.46,572.22Z" transform="translate(-28.85 -84.75)"/><path class="cls-36" d="M584.36,539a33.2,33.2,0,1,0,0,66.39Z" transform="translate(-28.85 -84.75)"/><path class="cls-14" d="M682.69,572.22a33.2,33.2,0,1,1,33.19,33.2A33.19,33.19,0,0,1,682.69,572.22Z" transform="translate(-28.85 -84.75)"/><path class="cls-17" d="M699.79,572.22a16.1,16.1,0,1,1,16.09,16.1A16.09,16.09,0,0,1,699.79,572.22Z" transform="translate(-28.85 -84.75)"/><path class="cls-36" d="M715.88,605.42a33.2,33.2,0,0,1,0-66.39Z" transform="translate(-28.85 -84.75)"/><line class="cls-37" x1="495.27" y1="230.57" x2="495.27" y2="185.8"/><path class="cls-14" d="M524.12,338a7,7,0,0,1-7-7,1.5,1.5,0,0,1,3,0,4,4,0,1,0,4-4,1.5,1.5,0,0,1-1.5-1.5v-4.09a1.5,1.5,0,1,1,3,0v2.75a7,7,0,0,1-1.5,13.79Z" transform="translate(-28.85 -84.75)"/><path class="cls-14" d="M532,315.32a7.92,7.92,0,1,0-7.92,7.91A7.92,7.92,0,0,0,532,315.32Z" transform="translate(-28.85 -84.75)"/><rect class="cls-38" x="620.5" y="248.43" width="39.92" height="269.54" transform="translate(-129.59 385.97) rotate(-37.63)"/><rect class="cls-38" x="620.5" y="248.43" width="39.92" height="269.54" transform="translate(-129.59 385.97) rotate(-37.63)"/><rect class="cls-17" x="620.5" y="248.43" width="39.92" height="269.54" transform="translate(-129.59 385.97) rotate(-37.63)"/><rect class="cls-39" x="549.24" y="288.76" width="39.92" height="4" transform="translate(-87.98 323.22) rotate(-37.63)"/><rect class="cls-39" x="596.56" y="350.16" width="39.92" height="4" transform="translate(-115.62 364.88) rotate(-37.63)"/><rect class="cls-39" x="643.89" y="411.55" width="39.92" height="4" transform="translate(-143.26 406.54) rotate(-37.63)"/><circle class="cls-39" cx="622.65" cy="328.67" r="1.75"/><circle class="cls-39" cx="637.4" cy="317.29" r="1.75"/><circle class="cls-39" cx="632.15" cy="340.82" r="1.75"/><circle class="cls-39" cx="646.9" cy="329.45" r="1.75"/><circle class="cls-39" cx="575.54" cy="267.02" r="1.75"/><circle class="cls-39" cx="590.29" cy="255.65" r="1.75"/><circle class="cls-39" cx="585.04" cy="279.18" r="1.75"/><circle class="cls-39" cx="599.79" cy="267.8" r="1.75"/><circle class="cls-39" cx="528.22" cy="205.63" r="1.75"/><circle class="cls-39" cx="542.97" cy="194.25" r="1.75"/><circle class="cls-39" cx="537.72" cy="217.78" r="1.75"/><circle class="cls-39" cx="552.47" cy="206.41" r="1.75"/><path class="cls-40" d="M700.78,469.44,687.66,441a21.24,21.24,0,0,0-18.23-11.67H650.78l49.7,64.48,1.15-3.11A31.1,31.1,0,0,0,700.78,469.44Z" transform="translate(-28.85 -84.75)"/><polygon class="cls-36" points="701.81 382.79 651.41 382.79 678.08 417.39 709.69 393.01 701.81 382.79"/><rect class="cls-14" x="523.88" y="261.35" width="12.1" height="18.39" transform="translate(-83.81 295.03) rotate(-37.62)"/><rect class="cls-14" x="533.47" y="251.57" width="32.44" height="27.79" transform="translate(-76.59 306.05) rotate(-37.63)"/><rect class="cls-17" x="659.57" y="387.97" width="62.98" height="23.66"/><path class="cls-41" d="M701.58,472.72H688.42v23.66h10.71l2.15-5.85C703.14,485.46,703.19,478.35,701.58,472.72Z" transform="translate(-28.85 -84.75)"/><rect class="cls-38" x="722.55" y="391.35" width="7.42" height="20.28"/><rect class="cls-41" x="722.55" y="391.35" width="2.92" height="20.28"/><rect class="cls-29" x="650.08" y="411.63" width="81.96" height="28.6"/><polygon class="cls-36" points="650.08 411.63 650.08 440.23 659.72 440.23 670.27 411.63 650.08 411.63"/><rect class="cls-36" x="650.08" y="434.16" width="81.96" height="6.07"/><path class="cls-17" d="M682.57,525,696,488.59a25.15,25.15,0,0,0-.66-16.64l-13.12-28.48a15.35,15.35,0,0,0-12.78-8.18H612.06a13.92,13.92,0,0,0-12.13,8.45L582.15,492c-1.71,4.65-1.11,12,1.33,16.3L593,525Z" transform="translate(-28.85 -84.75)"/><path class="cls-39" d="M598.25,516l-6.94-12.18a13.6,13.6,0,0,1-.7-8.72l17.78-48.21a5.22,5.22,0,0,1,3.67-2.56H647c1.45,0,4.06,1.16,4.06,5s.86,33.74,0,36.15L639.76,516Z" transform="translate(-28.85 -84.75)"/><path class="cls-42" d="M612.06,435.29a13.92,13.92,0,0,0-12.13,8.45L582.15,492c-1.71,4.65-1.11,12,1.33,16.3L593,525h46.13V435.29Z" transform="translate(-28.85 -84.75)"/><path class="cls-15" d="M600.21,512.59l-6-10.48a10.76,10.76,0,0,1-.47-5.87l17.69-48a3.45,3.45,0,0,1,.84-.59H647c.31,0,.68.5.68,1.66,0,.88,0,3.07.1,6,.14,7.24.52,26.34,0,29.17l-10.37,28.12Z" transform="translate(-28.85 -84.75)"/><path class="cls-39" d="M601.21,476.1l-1.49,4H648c0-1.19,0-2.56,0-4Z" transform="translate(-28.85 -84.75)"/><polygon class="cls-43" points="560.7 434.16 564.16 440.23 653.72 440.23 655.96 434.16 560.7 434.16"/><path class="cls-44" d="M585.77,399.29a61.65,61.65,0,1,0-61.65,61.65A61.65,61.65,0,0,0,585.77,399.29Z" transform="translate(-28.85 -84.75)"/><path class="cls-40" d="M524.12,337.64a61.65,61.65,0,1,0,0,123.3Z" transform="translate(-28.85 -84.75)"/><rect class="cls-27" x="106.9" y="330.54" width="177.92" height="38.3"/><line class="cls-45" x1="113.48" y1="330.54" x2="113.48" y2="342.12"/><line class="cls-45" x1="120.65" y1="330.54" x2="120.65" y2="342.12"/><line class="cls-45" x1="127.81" y1="330.54" x2="127.81" y2="342.12"/><line class="cls-45" x1="134.98" y1="330.54" x2="134.98" y2="353.12"/><line class="cls-45" x1="142.15" y1="330.54" x2="142.15" y2="342.12"/><line class="cls-45" x1="149.31" y1="330.54" x2="149.31" y2="342.12"/><line class="cls-45" x1="156.48" y1="330.54" x2="156.48" y2="342.12"/><line class="cls-45" x1="163.64" y1="330.54" x2="163.64" y2="353.12"/><line class="cls-45" x1="170.81" y1="330.54" x2="170.81" y2="342.12"/><line class="cls-45" x1="177.98" y1="330.54" x2="177.98" y2="342.12"/><line class="cls-45" x1="185.14" y1="330.54" x2="185.14" y2="342.12"/><line class="cls-45" x1="192.31" y1="330.54" x2="192.31" y2="353.12"/><line class="cls-45" x1="199.48" y1="330.54" x2="199.48" y2="342.12"/><line class="cls-45" x1="206.64" y1="330.54" x2="206.64" y2="342.12"/><line class="cls-45" x1="213.81" y1="330.54" x2="213.81" y2="342.12"/><line class="cls-45" x1="220.98" y1="330.54" x2="220.98" y2="353.12"/><line class="cls-45" x1="228.14" y1="330.54" x2="228.14" y2="342.12"/><line class="cls-45" x1="235.31" y1="330.54" x2="235.31" y2="342.12"/><line class="cls-45" x1="242.48" y1="330.54" x2="242.48" y2="342.12"/><line class="cls-45" x1="249.64" y1="330.54" x2="249.64" y2="353.12"/><line class="cls-45" x1="256.81" y1="330.54" x2="256.81" y2="342.12"/><line class="cls-45" x1="263.98" y1="330.54" x2="263.98" y2="342.12"/><line class="cls-45" x1="271.14" y1="330.54" x2="271.14" y2="342.12"/><line class="cls-45" x1="278.31" y1="330.54" x2="278.31" y2="353.12"/><rect class="cls-46" x="106.9" y="330.54" width="88.96" height="38.3"/><rect class="cls-44" x="30" y="176.96" width="73.9" height="61.31"/><rect class="cls-40" x="30" y="176.96" width="36.95" height="61.31"/><rect class="cls-27" x="10.79" y="191.96" width="82.21" height="68.13"/><rect class="cls-27" x="19.65" y="201" width="26.75" height="40.5"/><polyline class="cls-47" points="46.4 239 46.4 241.5 43.9 241.5"/><line class="cls-48" x1="39.55" y1="241.5" x2="24.32" y2="241.5"/><polyline class="cls-47" points="22.15 241.5 19.65 241.5 19.65 239"/><line class="cls-49" x1="19.65" y1="233.93" x2="19.65" y2="206.04"/><polyline class="cls-47" points="19.65 203.5 19.65 201 22.15 201"/><line class="cls-48" x1="26.5" y1="201" x2="41.72" y2="201"/><polyline class="cls-47" points="43.9 201 46.4 201 46.4 203.5"/><line class="cls-49" x1="46.4" y1="208.57" x2="46.4" y2="236.47"/><line class="cls-50" x1="54.9" y1="203.25" x2="86.4" y2="203.25"/><line class="cls-51" x1="54.9" y1="216.75" x2="86.4" y2="216.75"/><line class="cls-51" x1="54.9" y1="224.25" x2="86.4" y2="224.25"/><line class="cls-51" x1="54.9" y1="231.75" x2="86.4" y2="231.75"/><line class="cls-51" x1="54.9" y1="239.25" x2="86.4" y2="239.25"/><rect class="cls-46" x="10.79" y="191.96" width="41.11" height="68.13"/><path class="cls-29" d="M122.52,566.77a2.86,2.86,0,0,1-1.26-.29L50.45,533.39A3,3,0,0,1,53,528l70.8,33.1a3,3,0,0,1-1.28,5.72Z" transform="translate(-28.85 -84.75)"/><path class="cls-12" d="M51.73,566.77a3,3,0,0,1-1.28-5.72L121.26,528a3,3,0,0,1,2.54,5.44L53,566.48A2.94,2.94,0,0,1,51.73,566.77Z" transform="translate(-28.85 -84.75)"/><path class="cls-29" d="M122.52,533.67a3,3,0,0,1-1.26-.28l-70.81-33.1A3,3,0,0,1,53,494.85L123.8,528a3,3,0,0,1-1.28,5.72Z" transform="translate(-28.85 -84.75)"/><path class="cls-12" d="M51.73,533.67A3,3,0,0,1,50.45,528l70.81-33.1a3,3,0,0,1,2.54,5.44L53,533.39A3.07,3.07,0,0,1,51.73,533.67Z" transform="translate(-28.85 -84.75)"/><path class="cls-29" d="M122.52,500.57a3,3,0,0,1-1.26-.28l-70.81-33.1A3,3,0,0,1,53,461.75l70.8,33.1a3,3,0,0,1-1.28,5.72Z" transform="translate(-28.85 -84.75)"/><path class="cls-12" d="M51.73,500.57a3,3,0,0,1-1.28-5.72l70.81-33.1a3,3,0,0,1,2.54,5.44L53,500.29A3.07,3.07,0,0,1,51.73,500.57Z" transform="translate(-28.85 -84.75)"/><path class="cls-29" d="M122.52,467.47a3,3,0,0,1-1.26-.28l-70.81-33.1A3,3,0,0,1,53,428.65l70.8,33.1a3,3,0,0,1-1.28,5.72Z" transform="translate(-28.85 -84.75)"/><path class="cls-12" d="M51.73,467.47a3,3,0,0,1-1.28-5.72l70.81-33.1a3,3,0,0,1,2.54,5.44L53,467.19A3.07,3.07,0,0,1,51.73,467.47Z" transform="translate(-28.85 -84.75)"/><path class="cls-29" d="M122.52,434.37a3,3,0,0,1-1.26-.28L50.45,401A3,3,0,0,1,53,395.56l70.8,33.09a3,3,0,0,1-1.28,5.72Z" transform="translate(-28.85 -84.75)"/><path class="cls-12" d="M51.73,434.37a3,3,0,0,1-1.28-5.72l70.81-33.09A3,3,0,0,1,123.8,401L53,434.09A3.07,3.07,0,0,1,51.73,434.37Z" transform="translate(-28.85 -84.75)"/><path class="cls-29" d="M122.52,401.27a3,3,0,0,1-1.26-.28l-70.81-33.1A3,3,0,0,1,53,362.46l70.8,33.1a3,3,0,0,1-1.28,5.71Z" transform="translate(-28.85 -84.75)"/><path class="cls-12" d="M51.73,401.27a3,3,0,0,1-1.28-5.71l70.81-33.1a3,3,0,0,1,2.54,5.43L53,401A3.07,3.07,0,0,1,51.73,401.27Z" transform="translate(-28.85 -84.75)"/><path class="cls-12" d="M35.78,347.33a2.49,2.49,0,0,1-2.5-2.5V316a2.5,2.5,0,0,1,5,0v28.83A2.49,2.49,0,0,1,35.78,347.33Z" transform="translate(-28.85 -84.75)"/><path class="cls-12" d="M61.45,347.33a2.49,2.49,0,0,1-2.5-2.5V316a2.5,2.5,0,0,1,5,0v28.83A2.49,2.49,0,0,1,61.45,347.33Z" transform="translate(-28.85 -84.75)"/><path class="cls-12" d="M87.12,347.33a2.49,2.49,0,0,1-2.5-2.5V316a2.5,2.5,0,0,1,5,0v28.83A2.49,2.49,0,0,1,87.12,347.33Z" transform="translate(-28.85 -84.75)"/><path class="cls-12" d="M112.8,347.33a2.49,2.49,0,0,1-2.5-2.5V316a2.5,2.5,0,0,1,5,0v28.83A2.49,2.49,0,0,1,112.8,347.33Z" transform="translate(-28.85 -84.75)"/><path class="cls-12" d="M138.47,347.33a2.49,2.49,0,0,1-2.5-2.5V316a2.5,2.5,0,0,1,5,0v28.83A2.49,2.49,0,0,1,138.47,347.33Z" transform="translate(-28.85 -84.75)"/><path class="cls-29" d="M142.9,318.5H31.35a2.5,2.5,0,0,1,0-5H142.9a2.5,2.5,0,0,1,0,5Z" transform="translate(-28.85 -84.75)"/><path class="cls-29" d="M142.9,333.92H31.35a2.5,2.5,0,0,1,0-5H142.9a2.5,2.5,0,1,1,0,5Z" transform="translate(-28.85 -84.75)"/><rect class="cls-17" x="1.73" y="260.09" width="113.08" height="16.7"/><rect class="cls-39" x="23.16" y="260.09" width="4.45" height="16.7"/><rect class="cls-39" x="56.05" y="260.09" width="4.45" height="16.7"/><rect class="cls-39" x="88.93" y="260.09" width="4.45" height="16.7"/><rect class="cls-43" x="1.73" y="260.09" width="56.54" height="16.7"/><rect class="cls-14" x="6.42" y="276.78" width="103.7" height="9.35"/><rect class="cls-40" x="6.42" y="276.78" width="51.85" height="9.35"/><rect class="cls-36" x="6.42" y="276.78" width="103.7" height="4.67"/><rect class="cls-17" x="1.73" y="467.62" width="113.08" height="22.3"/><rect class="cls-52" x="1.73" y="467.62" width="56.54" height="22.3"/><rect class="cls-14" x="6.42" y="458.27" width="103.7" height="9.35"/><rect class="cls-40" x="6.42" y="458.27" width="51.85" height="9.35"/><rect class="cls-36" x="6.42" y="462.95" width="103.7" height="4.67"/><circle class="cls-14" cx="28.25" cy="500.08" r="20.3"/><path class="cls-17" d="M67,584.83a9.85,9.85,0,1,0-9.85,9.84A9.84,9.84,0,0,0,67,584.83Z" transform="translate(-28.85 -84.75)"/><path class="cls-36" d="M57.1,564.53a20.3,20.3,0,1,0,0,40.6Z" transform="translate(-28.85 -84.75)"/><circle class="cls-14" cx="88.29" cy="500.08" r="20.3"/><path class="cls-17" d="M127,584.83a9.85,9.85,0,1,0-9.84,9.84A9.84,9.84,0,0,0,127,584.83Z" transform="translate(-28.85 -84.75)"/><path class="cls-36" d="M117.15,564.53a20.3,20.3,0,0,0,0,40.6Z" transform="translate(-28.85 -84.75)"/><rect class="cls-40" x="181.56" y="431.93" width="64.5" height="22.68"/><rect class="cls-15" x="184.29" y="428.93" width="64.5" height="22.68"/><rect class="cls-53" x="184.29" y="428.93" width="32.25" height="22.68"/><rect class="cls-44" x="188.28" y="433.71" width="25.27" height="5.56"/><rect class="cls-44" x="181.47" y="484.74" width="58.71" height="20.65"/><rect class="cls-36" x="181.47" y="484.74" width="29.02" height="20.65"/><rect class="cls-15" x="185.1" y="489.09" width="23" height="5.06"/><rect class="cls-15" x="185.1" y="497.01" width="23" height="5.06"/><rect class="cls-27" x="164.53" y="468.44" width="58.71" height="20.65"/><rect class="cls-40" x="164.53" y="468.44" width="29.35" height="20.65"/><rect class="cls-14" x="168.16" y="472.79" width="23" height="5.06"/><circle class="cls-54" cx="233.67" cy="437.67" r="10.6"/><path class="cls-54" d="M268.12,522.42a5.6,5.6,0,1,0-5.6,5.6A5.61,5.61,0,0,0,268.12,522.42Z" transform="translate(-28.85 -84.75)"/><path class="cls-14" d="M279.19,556.72l11.85.54-28.52-34.84-1.32,45.06,9.15-7.79L278,582.42a1.7,1.7,0,0,0,2.15,1.06l5.62-1.92a1.72,1.72,0,0,0,1.06-2.16Z" transform="translate(-28.85 -84.75)"/><path class="cls-36" d="M262.52,522.42l-1.32,45.06,9.15-7.79L278,582.42a1.7,1.7,0,0,0,2.15,1.06l2.75-.94Z" transform="translate(-28.85 -84.75)"/><rect class="cls-8" x="644.27" y="192.16" width="63.84" height="103.57"/><rect class="cls-27" x="653.95" y="208.69" width="44.47" height="10.85"/><rect class="cls-44" x="653.95" y="228.65" width="44.47" height="10.85"/><rect class="cls-17" x="653.95" y="248.61" width="44.47" height="10.85"/><rect class="cls-55" x="653.95" y="268.58" width="44.47" height="10.85"/></g></g></svg>