<svg id="Laag_1" data-name="Laag 1" xmlns="http://www.w3.org/2000/svg" viewBox="0 0 942.87 837.23"><defs><style>.cls-1{fill:#ecf0f1;}.cls-2,.cls-20{fill:#0072bb;}.cls-3{fill:#ff614f;}.cls-4{fill:#f7d546;}.cls-5{fill:#11c1a7;}.cls-6{fill:#e2e1e0;}.cls-16,.cls-7{fill:#ff4c3b;}.cls-17,.cls-18,.cls-8{opacity:0.5;}.cls-9{fill:#0061fa;opacity:0.06;}.cls-10{fill:#0f0f0f;opacity:0.6;}.cls-11{fill:#e8e8e6;}.cls-12{opacity:0.2;}.cls-13{opacity:0.4;}.cls-14{opacity:0.7;}.cls-15,.cls-19{fill:#ffd034;}.cls-16,.cls-17,.cls-18,.cls-19,.cls-20{fill-rule:evenodd;}.cls-18,.cls-23{fill:#fff;}.cls-21{fill:#f7c7b0;}.cls-22{fill:#586771;}.cls-23{opacity:0.3;}.cls-24{opacity:0.1;}</style></defs><title>cms</title><g id="Web"><path class="cls-1" d="M1078,724.73c0,10.73-8,19.43-17.82,19.43H631c-9.85,0-17.83-8.7-17.83-19.43V379.84c0-10.73,8-19.43,17.83-19.43h429.22c9.84,0,17.82,8.7,17.82,19.43Z" transform="translate(-374.56 -184.09)"/><path class="cls-2" d="M1060.18,360.41H631c-9.85,0-17.83,8.7-17.83,19.43v75.29H1078V379.84C1078,369.11,1070,360.41,1060.18,360.41Z" transform="translate(-374.56 -184.09)"/><path class="cls-3" d="M1004.24,377.68c0,5.37-4,9.72-8.91,9.72s-8.92-4.35-8.92-9.72,4-9.71,8.92-9.71S1004.24,372.32,1004.24,377.68Z" transform="translate(-374.56 -184.09)"/><path class="cls-4" d="M1033.69,377.68c0,5.37-4,9.72-8.91,9.72s-8.91-4.35-8.91-9.72,4-9.71,8.91-9.71S1033.69,372.32,1033.69,377.68Z" transform="translate(-374.56 -184.09)"/><path class="cls-5" d="M1064.39,377.68c0,5.37-4,9.72-8.91,9.72s-8.91-4.35-8.91-9.72,4-9.71,8.91-9.71S1064.39,372.32,1064.39,377.68Z" transform="translate(-374.56 -184.09)"/><path class="cls-6" d="M962.15,392.73c0,8.31-6.17,15-13.79,15H676.69c-7.63,0-13.8-6.73-13.8-15h0c0-8.31,6.17-15.05,13.8-15.05H948.36c7.62,0,13.79,6.74,13.79,15.05Z" transform="translate(-374.56 -184.09)"/><rect class="cls-7" x="261.59" y="288.85" width="277.24" height="153.28"/><rect class="cls-8" x="261.59" y="470.2" width="419.33" height="28.06"/><rect class="cls-8" x="261.35" y="511.22" width="419.32" height="28.07"/><path class="cls-9" d="M1060.18,360.41H845.82V744.16h214.36c9.84,0,17.82-8.7,17.82-19.43V379.84C1078,369.11,1070,360.41,1060.18,360.41Z" transform="translate(-374.56 -184.09)"/></g><g id="Envelop"><g id="Envelop-2" data-name="Envelop"><g id="Envelop-3" data-name="Envelop"><rect class="cls-2" x="1065.85" y="314.71" width="176.25" height="164.66" rx="10.43" ry="10.43" transform="translate(123.7 1242.19) rotate(-76.49)"/><path class="cls-10" d="M1230.39,415.41l-156.46-37.6,47.36,54.76s44,21.74,53.42,17.75,42.88-16.52,42.88-16.52Z" transform="translate(-374.56 -184.09)"/><rect class="cls-11" x="1081.29" y="329.88" width="145.67" height="133.06" transform="translate(124.43 1241.85) rotate(-76.49)"/><path class="cls-7" d="M1230.39,415.41l3.64.88-18.16,75.54a10.43,10.43,0,0,1-12.58,7.7l-139.81-33.6a10.43,10.43,0,0,1-7.71-12.58l18.16-75.54,69.75,62.08Z" transform="translate(-374.56 -184.09)"/><path class="cls-12" d="M1203.29,499.53l-139.81-33.6a10.43,10.43,0,0,1-7.71-12.58l18.16-75.54,69.75,62.08,67.83,58.17A10.37,10.37,0,0,1,1203.29,499.53Z" transform="translate(-374.56 -184.09)"/></g><g id="Text" class="cls-13"><rect class="cls-14" x="1162.52" y="286.82" width="3.92" height="106.97" transform="translate(186.91 1208.93) rotate(-76.49)"/><rect class="cls-14" x="1160.9" y="293.58" width="3.91" height="106.97" transform="translate(179.09 1212.53) rotate(-76.49)"/><rect class="cls-14" x="1159.17" y="300.77" width="3.91" height="106.97" transform="translate(170.77 1216.36) rotate(-76.49)"/><rect class="cls-14" x="1157.49" y="307.75" width="3.91" height="106.97" transform="translate(162.7 1220.07) rotate(-76.49)"/><rect class="cls-14" x="1155.36" y="316.63" width="3.91" height="106.97" transform="translate(152.43 1224.8) rotate(-76.49)"/><rect class="cls-14" x="1152.82" y="327.2" width="3.91" height="106.97" transform="translate(140.21 1230.43) rotate(-76.49)"/><rect class="cls-14" x="1151.04" y="334.6" width="3.91" height="106.97" transform="translate(131.65 1234.37) rotate(-76.49)"/><rect class="cls-14" x="1149.36" y="341.57" width="3.91" height="106.97" transform="translate(123.59 1238.09) rotate(-76.49)"/><rect class="cls-14" x="1147.43" y="349.61" width="3.92" height="106.97" transform="translate(114.29 1242.37) rotate(-76.49)"/></g></g><g id="Envelop-4" data-name="Envelop"><g id="Envelop-5" data-name="Envelop"><path class="cls-2" d="M982,348.15a10.43,10.43,0,0,0,7.7,12.59l139.81,33.6a10.43,10.43,0,0,0,12.59-7.71l36.32-151.08a10.45,10.45,0,0,0-7.72-12.59l-139.81-33.6a10.43,10.43,0,0,0-12.58,7.7Z" transform="translate(-374.56 -184.09)"/><path class="cls-10" d="M1156.66,310.22l-156.48-37.61,47.36,54.77s44,21.74,53.43,17.75,42.88-16.52,42.88-16.52Z" transform="translate(-374.56 -184.09)"/><rect class="cls-11" x="1007.55" y="224.68" width="145.67" height="133.06" transform="translate(170.2 1089.54) rotate(-76.49)"/><path class="cls-15" d="M1156.66,310.22l3.63.87-18.16,75.54a10.43,10.43,0,0,1-12.59,7.71l-139.81-33.6a10.43,10.43,0,0,1-7.7-12.59l18.15-75.54,69.76,62.08Z" transform="translate(-374.56 -184.09)"/><path class="cls-12" d="M1129.54,394.34l-139.81-33.6a10.43,10.43,0,0,1-7.7-12.59l18.15-75.54,69.76,62.08,67.83,58.18A10.42,10.42,0,0,1,1129.54,394.34Z" transform="translate(-374.56 -184.09)"/></g><g id="Text-2" data-name="Text" class="cls-13"><rect class="cls-14" x="1088.78" y="181.63" width="3.91" height="106.97" transform="translate(232.68 1056.62) rotate(-76.49)"/><rect class="cls-14" x="1087.16" y="188.4" width="3.91" height="106.97" transform="translate(224.86 1060.22) rotate(-76.49)"/><rect class="cls-14" x="1085.43" y="195.58" width="3.91" height="106.97" transform="translate(216.54 1064.05) rotate(-76.49)"/><rect class="cls-14" x="1083.75" y="202.56" width="3.91" height="106.97" transform="translate(208.48 1067.77) rotate(-76.49)"/><rect class="cls-14" x="1081.62" y="211.44" width="3.91" height="106.97" transform="translate(198.21 1072.49) rotate(-76.49)"/><rect class="cls-14" x="1079.08" y="222.01" width="3.91" height="106.97" transform="translate(185.99 1078.12) rotate(-76.49)"/><rect class="cls-14" x="1077.3" y="229.41" width="3.92" height="106.97" transform="translate(177.43 1082.07) rotate(-76.49)"/><rect class="cls-14" x="1075.62" y="236.38" width="3.91" height="106.97" transform="translate(169.36 1085.78) rotate(-76.49)"/><rect class="cls-14" x="1073.69" y="244.42" width="3.91" height="106.97" transform="translate(160.07 1090.06) rotate(-76.49)"/></g></g></g><g id="Controlling"><g id="Correction"><g id="Active"><g id="Active1"><path class="cls-16" d="M571.66,445.13a55.73,55.73,0,0,1,16.61,9.57l23-9.49L626.78,472l-19.29,16a57,57,0,0,1,.85,9.82,55.2,55.2,0,0,1-.67,8.69L627.73,522l-15.47,26.81-23.14-8.56a55.48,55.48,0,0,1-16.39,9.9l-3.26,24.48h-31l-4.1-24.08A54.83,54.83,0,0,1,517.8,541l-23,9.48-15.47-26.8,19.29-16a56.59,56.59,0,0,1-.19-18.51l-20.06-15.44,15.47-26.81,23.13,8.57a55.4,55.4,0,0,1,16.4-9.9l3.26-24.47h31Z" transform="translate(-374.56 -184.09)"/><path class="cls-17" d="M553,538.06a40.24,40.24,0,1,0-40.25-40.24A40.33,40.33,0,0,0,553,538.06Z" transform="translate(-374.56 -184.09)"/><path class="cls-18" d="M553,524.51a26.69,26.69,0,1,0-26.69-26.69A26.74,26.74,0,0,0,553,524.51Z" transform="translate(-374.56 -184.09)"/></g><g id="Active-2" data-name="Active"><path class="cls-19" d="M627.23,216.17A82.2,82.2,0,0,1,655,222.11l28.17-23.85,34,30.77-19.93,31.33a85,85,0,0,1,5.67,13.45,83.41,83.41,0,0,1,3,12.57L741.25,299l-9.64,44.86-36.53-1.58a81.46,81.46,0,0,1-18.6,21.42l6.51,36-43.68,14.07-16.72-32.09a81.29,81.29,0,0,1-27.77-5.93l-28.18,23.86-34-30.78,19.94-31.33a84.51,84.51,0,0,1-5.67-13.44,85.71,85.71,0,0,1-3-12.58l-35.31-12.66L518.21,254l36.53,1.57a81.75,81.75,0,0,1,18.61-21.41l-6.52-36,43.67-14.07Z" transform="translate(-374.56 -184.09)"/><path class="cls-17" d="M624.9,363.83A64.88,64.88,0,1,0,560,299a65,65,0,0,0,64.89,64.88Z" transform="translate(-374.56 -184.09)"/><path class="cls-18" d="M637,336.59a39.55,39.55,0,1,0-49.78-25.5A39.63,39.63,0,0,0,637,336.59Z" transform="translate(-374.56 -184.09)"/></g></g><g id="Active-3" data-name="Active"><g id="Active-4" data-name="Active"><path class="cls-20" d="M441.84,343.54A34,34,0,0,1,452,337.49l1.84-15.24,19.07-.25,2.79,15.18a35.88,35.88,0,0,1,5.53,2.5,33.4,33.4,0,0,1,4.47,3L500,336.52l9.76,16.4-11.58,9.87a34.05,34.05,0,0,1,.38,11.79l12.18,9.13-9.32,16.64-14.18-5.05a33.64,33.64,0,0,1-10.15,6.05l-1.83,15.25-19.08.25-2.78-15.2a33.33,33.33,0,0,1-5.54-2.5,34.62,34.62,0,0,1-4.47-3l-14.35,6.13-9.75-16.41,11.57-9.85a34.05,34.05,0,0,1-.38-11.79l-12.18-9.13,9.33-16.64Z" transform="translate(-374.56 -184.09)"/><path class="cls-17" d="M481.66,390.29a27,27,0,1,0-38-3.75,27,27,0,0,0,38,3.75Z" transform="translate(-374.56 -184.09)"/><path class="cls-18" d="M478.9,377.46a16.45,16.45,0,1,0-22.39,6.32,16.47,16.47,0,0,0,22.39-6.32Z" transform="translate(-374.56 -184.09)"/></g></g></g></g><g id="Tablet"><path class="cls-21" d="M464.18,825.39l25.42-115s1.33-18.72,34.78-52.16S614,551.85,614,551.85V652.29L588.58,699l70.89-80.93s48.16-24.22,40.43,29.36c0,0-60.5,85.67-61.83,92.36s-2.68,41.47-29.43,78.92-28.09,49.49-28.09,49.49l-5.35,8Z" transform="translate(-374.56 -184.09)"/><path class="cls-22" d="M448.13,820,596.6,876.21s-12,57.52-32.1,107-189.94,36.12-189.94,36.12l16.06-53.5Z" transform="translate(-374.56 -184.09)"/><path class="cls-2" d="M596.6,876.21,448.13,820l-13.19,33.45L588.13,911C593.61,890.51,596.6,876.21,596.6,876.21Z" transform="translate(-374.56 -184.09)"/><path class="cls-23" d="M656.8,625.32l36.59,27S705.59,599,656.8,625.32Z" transform="translate(-374.56 -184.09)"/><path class="cls-12" d="M596.6,876.21,521,847.61l-63.31,172.47c46.22-2.53,96.46-11.31,106.82-36.86,19.19-47.34,31-102,32-106.65C596.58,876.36,596.6,876.21,596.6,876.21Z" transform="translate(-374.56 -184.09)"/><path class="cls-21" d="M1227.81,825.72l-25.41-115s-1.34-18.73-34.78-52.17S1078,552.18,1078,552.18V652.61l25.42,46.7-70.9-80.92s-49.11-26.15-40.47,29.29c0,0,60.53,85.75,61.87,92.43s2.68,41.47,29.43,78.92,28.09,49.49,28.09,49.49l5.36,8Z" transform="translate(-374.56 -184.09)"/><path class="cls-22" d="M1243.87,820.37l-148.48,56.17s12,57.52,32.1,107,189.94,36.11,189.94,36.11l-16-53.5Z" transform="translate(-374.56 -184.09)"/><path class="cls-2" d="M1095.39,876.54l148.48-56.17,13.19,33.45L1103.87,911.3C1098.38,890.84,1095.39,876.54,1095.39,876.54Z" transform="translate(-374.56 -184.09)"/><path class="cls-23" d="M1035.2,625.65l-36.6,27S986.41,599.33,1035.2,625.65Z" transform="translate(-374.56 -184.09)"/><path class="cls-12" d="M1095.39,876.54,1171,847.93l63.31,172.48c-46.22-2.53-96.47-11.31-106.83-36.85-19.19-47.35-31-102-32-106.66Z" transform="translate(-374.56 -184.09)"/></g><g id="Loading"><path class="cls-15" d="M947.38,829.28s-.37-1.29-1-3.54c-.34-1.14-.75-2.52-1.23-4.11s-1.08-3.34-1.73-5.3a203.6,203.6,0,0,0-12.1-28.56c-1.37-2.57-2.75-5.19-4.27-7.7-.75-1.27-1.51-2.53-2.24-3.77l-2.36-3.64c-1.55-2.42-3.17-4.69-4.76-6.87s-3.18-4.19-4.68-6.06-3-3.56-4.28-5.05-2.48-2.82-3.5-3.84L902,747.55l1,2c.65,1.29,1.59,3.09,2.6,5.31s2.11,4.79,3.22,7.52S911,768.13,912,771s1.8,5.89,2.54,8.61,1.3,5.32,1.78,7.49.8,4,1,5.26.35,2,.35,2l-1.95-1.15c-1.25-.78-3.19-1.77-5.6-3.1a154.91,154.91,0,0,0-21-9.21,123.51,123.51,0,0,0-31.67-6.73,110.37,110.37,0,0,0-36.61,3.43,118.69,118.69,0,0,0-17.47,6.12A136.62,136.62,0,0,0,787.66,792a155.1,155.1,0,0,0-24.76,18.93,166,166,0,0,0-15,16c-3.33,4.09-5,6.59-5,6.59s1.89-2.35,5.54-6.12a163.08,163.08,0,0,1,16.14-14.48,150.9,150.9,0,0,1,25.61-16.33A128.76,128.76,0,0,1,805.84,790a110.71,110.71,0,0,1,16.8-4.32,100.52,100.52,0,0,1,33.57-.29,111.12,111.12,0,0,1,27.84,8.46,140.19,140.19,0,0,1,18.14,9.9c2.09,1.4,3.75,2.44,4.83,3.24l1.68,1.2-1.84.57c-1.17.38-2.81.88-4.78,1.61s-4.21,1.55-6.56,2.51-4.83,2.12-7.21,3.26-4.73,2.46-6.84,3.65-4,2.48-5.61,3.52-2.86,2-3.74,2.67l-1.37,1,2.72-.88c.88-.3,2-.54,3.23-.87s2.72-.68,4.34-1a110.32,110.32,0,0,1,25.6-1.66,174.22,174.22,0,0,1,27.79,3.6c1.93.41,3.73.77,5.3,1.15l4.07,1Z" transform="translate(-374.56 -184.09)"/><path class="cls-7" d="M742.9,866.43l1,3.54c.34,1.14.75,2.52,1.23,4.11s1.09,3.34,1.74,5.3A201.66,201.66,0,0,0,759,907.93c1.36,2.58,2.75,5.19,4.26,7.71.76,1.27,1.51,2.52,2.25,3.77l2.35,3.64c1.55,2.41,3.18,4.69,4.77,6.86s3.17,4.19,4.67,6.07,3,3.56,4.28,5,2.48,2.82,3.5,3.84l3.22,3.29-1-2c-.65-1.29-1.59-3.08-2.59-5.3s-2.12-4.79-3.23-7.53-2.14-5.72-3.12-8.63-1.79-5.9-2.54-8.62-1.3-5.31-1.78-7.48-.8-4-1-5.26-.35-2-.35-2l2,1.14c1.25.78,3.19,1.78,5.6,3.11a156.19,156.19,0,0,0,21,9.21,123.93,123.93,0,0,0,31.67,6.73,110.9,110.9,0,0,0,36.61-3.43A118.69,118.69,0,0,0,886.88,912a136.62,136.62,0,0,0,15.74-8.25,156.28,156.28,0,0,0,24.76-18.93,164.66,164.66,0,0,0,15-16c3.34-4.09,5-6.59,5-6.59s-1.88,2.35-5.54,6.12a162.66,162.66,0,0,1-16.13,14.48,150.69,150.69,0,0,1-25.61,16.34,131.71,131.71,0,0,1-15.65,6.57,110,110,0,0,1-16.81,4.32,100.52,100.52,0,0,1-33.57.3,111.66,111.66,0,0,1-27.84-8.46A138.84,138.84,0,0,1,788.09,892c-2.08-1.39-3.75-2.43-4.83-3.24l-1.67-1.2,1.84-.57c1.16-.37,2.8-.88,4.77-1.6s4.21-1.56,6.57-2.52,4.82-2.11,7.21-3.25,4.72-2.46,6.83-3.66,4-2.47,5.61-3.52,2.87-2,3.75-2.67l1.37-1-2.72.88c-.89.3-2,.54-3.23.87s-2.73.68-4.35,1a111.43,111.43,0,0,1-25.6,1.66,176.55,176.55,0,0,1-27.79-3.6c-1.93-.41-3.73-.77-5.3-1.15l-4.07-1Z" transform="translate(-374.56 -184.09)"/><path class="cls-24" d="M879.19,915c-5.2.27-11.45.84-19,1.81-51.72,6.6-99.33-34.22-115.56-50l-1.76-.45,1,3.54c.34,1.14.75,2.52,1.23,4.11s1.09,3.34,1.74,5.3A201.66,201.66,0,0,0,759,907.93c1.36,2.58,2.75,5.19,4.26,7.71.76,1.27,1.51,2.52,2.25,3.77l2.35,3.64c1.55,2.41,3.18,4.69,4.77,6.86s3.17,4.19,4.67,6.07,3,3.56,4.28,5,2.48,2.82,3.5,3.84l3.22,3.29-1-2c-.65-1.29-1.59-3.08-2.59-5.3s-2.12-4.79-3.23-7.53-2.14-5.72-3.12-8.63-1.79-5.9-2.54-8.62-1.3-5.31-1.78-7.48-.8-4-1-5.26-.35-2-.35-2l2,1.14c1.25.78,3.19,1.78,5.6,3.11a156.19,156.19,0,0,0,21,9.21,123.93,123.93,0,0,0,31.67,6.73,110.9,110.9,0,0,0,36.61-3.43C872.73,917.21,876,916.17,879.19,915Z" transform="translate(-374.56 -184.09)"/><path class="cls-24" d="M945.12,821.63c-.47-1.59-1.08-3.34-1.73-5.3a203.6,203.6,0,0,0-12.1-28.56c-1.37-2.57-2.75-5.19-4.27-7.7-.75-1.27-1.51-2.53-2.24-3.77l-2.36-3.64c-1.55-2.42-3.17-4.69-4.76-6.87s-3.18-4.19-4.68-6.06-3-3.56-4.28-5.05-2.48-2.82-3.5-3.84L902,747.55l1,2c.65,1.29,1.59,3.09,2.6,5.31s2.11,4.79,3.22,7.52S911,768.13,912,771s1.8,5.89,2.54,8.61,1.3,5.32,1.78,7.49.8,4,1,5.26.35,2,.35,2l-1.95-1.15c-1.25-.78-3.19-1.77-5.6-3.1a154.91,154.91,0,0,0-21-9.21,123.51,123.51,0,0,0-31.67-6.73,110.37,110.37,0,0,0-36.61,3.43,118.69,118.69,0,0,0-17.47,6.12c-1.37.6-2.72,1.23-4,1.87,4.88-1.07,10.38-2.24,16.59-3.53,73.62-15.21,131.44,47.2,131.44,47.2s-.37-1.29-1-3.54C946,824.6,945.6,823.22,945.12,821.63Z" transform="translate(-374.56 -184.09)"/></g></svg>