<svg id="Laag_1" data-name="Laag 1" xmlns="http://www.w3.org/2000/svg" viewBox="0 0 34.4 45.2"><defs><style>.cls-1{fill:#e9e9e0;}.cls-2{fill:#d9d7ca;}.cls-3{fill:#0072bb;}.cls-4{font-size:12.3px;fill:#fff;font-family:MyriadPro-Regular, Myriad Pro;}</style></defs><title>sql</title><path class="cls-1" d="M966.39,518H943.17c-.65,0-1.17.52-1.17,1.54V562c0,.28.52.8,1.17.8h32.06c.65,0,1.17-.52,1.17-.8V528.38c0-.56-.08-.73-.21-.86l-9.3-9.31a.7.7,0,0,0-.5-.21Zm0,0" transform="translate(-942 -518)"/><path class="cls-2" d="M966.8,518.12v9.48h9.48Zm0,0" transform="translate(-942 -518)"/><path class="cls-3" d="M975.23,562.8H943.17a1.17,1.17,0,0,1-1.17-1.17V549.2h34.4v12.43a1.17,1.17,0,0,1-1.17,1.17Zm0,0" transform="translate(-942 -518)"/><text class="cls-4" transform="translate(7.06 42.13)">SQL</text><path class="cls-3" d="M959.84,536.54h-1.28a14.64,14.64,0,0,1-4.29-.67,5,5,0,0,1-1.23-.58v2.31c.7.74,3.06,1.41,6.16,1.41s5.45-.67,6.15-1.41v-2.31a4.86,4.86,0,0,1-1.23.58A14.3,14.3,0,0,1,959.84,536.54Z" transform="translate(-942 -518)"/><path class="cls-3" d="M953,532.06v2.32c.65.67,2.72,1.3,5.49,1.39h1.34c2.77-.09,4.84-.72,5.48-1.39v-2.32c-1.19.83-3.73,1.26-6.15,1.26S954.24,532.89,953,532.06Z" transform="translate(-942 -518)"/><path class="cls-3" d="M965.32,530.5c-.27-1.06-2.4-2.1-6.12-2.1s-5.84,1-6.12,2.09a.28.28,0,0,0,0,.12v.57c.7.73,3,1.4,6.16,1.4s5.46-.67,6.15-1.4v-.57A.2.2,0,0,0,965.32,530.5Z" transform="translate(-942 -518)"/><path class="cls-3" d="M953,538.49v2a.2.2,0,0,0,0,.11c.29,1.21,2.89,2.11,6.13,2.11s5.82-.9,6.12-2.1a.27.27,0,0,0,0-.12v-2c-1,.72-3.11,1.28-6.15,1.28S954.06,539.21,953,538.49Z" transform="translate(-942 -518)"/></svg>