<svg id="Laag_1" data-name="Laag 1" xmlns="http://www.w3.org/2000/svg" viewBox="0 0 685.38 713.51"><defs><style>.cls-1{fill:#e8e8e8;}.cls-15,.cls-2,.cls-26{fill:#ff4c3b;}.cls-3,.cls-4{opacity:0.4;}.cls-13,.cls-18,.cls-22,.cls-29,.cls-35,.cls-4{fill:#fff;}.cls-12,.cls-13,.cls-22,.cls-30,.cls-5{opacity:0.5;}.cls-6{fill:#0072bb;}.cls-7{fill:#34495e;}.cls-8{fill:#f99c1d;}.cls-26,.cls-9{opacity:0.2;}.cls-10{opacity:0.1;}.cls-11{fill:#595959;}.cls-11,.cls-12,.cls-13,.cls-14,.cls-15,.cls-17,.cls-18,.cls-19,.cls-21{fill-rule:evenodd;}.cls-14,.cls-39{fill:#ffd034;}.cls-16{fill:#033;}.cls-17{fill:#366;}.cls-18{opacity:0.8;}.cls-19,.cls-33{fill:#cecece;}.cls-20,.cls-35{opacity:0.3;}.cls-21{fill:#333;}.cls-23{fill:#a5a5a5;}.cls-24{fill:#0f0f0f;opacity:0.6;}.cls-25{fill:#e8e8e6;}.cls-27{opacity:0.7;}.cls-28{fill:#eaeaea;}.cls-30,.cls-31{fill:#4b4c4b;}.cls-32{fill:#213b51;}.cls-34{fill:#3a3939;}.cls-36{fill:#ccc;}.cls-37{fill:#223666;}.cls-38{fill:#e2e2e2;}.cls-40{fill:#0cc1b0;}</style></defs><title>tech</title><g id="Setting_System" data-name="Setting System"><g id="Setting_System-2" data-name="Setting System"><g id="Line"><path class="cls-1" d="M1169.23,583.9l9.77.83.3-3.94c.09-1.18.19-2.56.3-4,.06-.74.11-1.5.17-2.28l.06-2.35.32-12.65h-9.8s-.15,6.12-.31,12.23c0,.76,0,1.53,0,2.28s-.12,1.49-.17,2.21c-.11,1.42-.21,2.76-.3,3.9C1169.35,582.38,1169.23,583.9,1169.23,583.9Z" transform="translate(-536.15 -202.32)"/><path class="cls-1" d="M1163.85,619.89l9.58,2.08s.08-.39.24-1.07.4-1.63.61-2.79c.42-2.34,1-5.45,1.53-8.57.28-1.55.56-3.11.82-4.57s.38-2.84.55-4l.5-3.92-9.72-1.25s-.19,1.52-.48,3.8c-.16,1.13-.28,2.47-.53,3.88s-.52,2.91-.79,4.42c-.54,3-1.08,6-1.48,8.27-.2,1.13-.46,2.05-.59,2.71S1163.85,619.89,1163.85,619.89Z" transform="translate(-536.15 -202.32)"/><path class="cls-1" d="M1153.88,654.88l9.23,3.3s.5-1.5,1.26-3.75,1.81-5.23,2.76-8.25c1.73-6.08,3.45-12.17,3.45-12.17l-9.47-2.48s-1.68,5.88-3.34,11.76c-.92,2.92-2,5.8-2.67,8Z" transform="translate(-536.15 -202.32)"/><path class="cls-1" d="M1139.44,688.29l8.72,4.45,1.81-3.52c1.13-2.08,2.38-5,3.7-7.87s2.62-5.75,3.56-7.93l1.45-3.68-9.08-3.68s-.56,1.43-1.41,3.56-2.19,4.87-3.44,7.66-2.47,5.59-3.57,7.61S1139.44,688.29,1139.44,688.29Z" transform="translate(-536.15 -202.32)"/><path class="cls-1" d="M1120.9,719.61l8.09,5.53s1-1.27,2.2-3.29,3-4.65,4.69-7.32,3.27-5.41,4.47-7.46l2-3.42-8.53-4.82-1.91,3.31c-1.15,2-2.61,4.67-4.31,7.21s-3.31,5.15-4.54,7.08S1120.9,719.61,1120.9,719.61Z" transform="translate(-536.15 -202.32)"/><path class="cls-1" d="M1098.45,748.27l7.32,6.51,2.59-3,2.65-3.07c1-1.12,2-2.29,3-3.55,3.9-5,7.81-9.95,7.81-9.95l-7.85-5.86-7.55,9.61c-.92,1.22-2,2.35-2.89,3.44l-2.56,3Z" transform="translate(-536.15 -202.32)"/><path class="cls-1" d="M1072.56,773.82l6.42,7.4,3-2.59c1.83-1.51,4.08-3.74,6.38-5.91s4.6-4.34,6.26-6l2.73-2.85-7-6.82-2.63,2.77c-1.61,1.63-3.86,3.7-6.06,5.82s-4.39,4.26-6.16,5.71Z" transform="translate(-536.15 -202.32)"/><path class="cls-1" d="M1043.65,796l5.43,8.15.92-.59c.59-.35,1.38-.94,2.35-1.63l7.08-5c2.62-1.78,5.07-3.79,6.94-5.25l3.11-2.44-6.12-7.65-3,2.36c-1.81,1.41-4.17,3.35-6.7,5.07l-6.85,4.87c-.94.66-1.71,1.24-2.28,1.58Z" transform="translate(-536.15 -202.32)"/><path class="cls-1" d="M1012.12,814.14l4.35,8.78,3.51-1.8,3.61-1.85c1.31-.69,2.75-1.36,4.1-2.18l11-6.31-5.09-8.37L1023,808.5c-1.31.79-2.69,1.45-4,2.11l-3.49,1.78Z" transform="translate(-536.15 -202.32)"/><path class="cls-1" d="M978.53,828.12l3.18,9.26,3.74-1.26,1.82-.62,2-.78,4.32-1.7c2.93-1.18,5.9-2.27,8.07-3.24l3.6-1.63-4-8.95-3.49,1.57c-2.09.93-5,2-7.8,3.13l-4.17,1.64-1.93.76-1.75.59Z" transform="translate(-536.15 -202.32)"/><path class="cls-1" d="M943.44,837.76l2,9.6,12.32-2.83c.77-.19,1.55-.35,2.3-.55l2.2-.62,3.89-1.11,3.81-1.08-2.79-9.4-3.67,1.05-3.77,1.07-2.12.6c-.73.2-1.48.35-2.22.53Z" transform="translate(-536.15 -202.32)"/><path class="cls-1" d="M907.37,842.65l.72,9.77,3.94-.3,4-.31c1.47-.16,3-.37,4.61-.57l8.63-1.09c1.17-.14,2.15-.28,2.83-.42l1.07-.19-1.55-9.67-1,.18c-.66.13-1.61.27-2.74.4l-8.35,1.06c-1.52.19-3,.4-4.45.56l-3.91.29Z" transform="translate(-536.15 -202.32)"/><path class="cls-1" d="M871,843.09l-.52,9.78s.4,0,1.09.06l2.86.08,8.69.22c3.16.14,6.32,0,8.69-.06l4-.1-.3-9.79-3.83.09c-2.29,0-5.34.21-8.4.06l-8.41-.21-2.77-.07C871.35,843.13,871,843.09,871,843.09Z" transform="translate(-536.15 -202.32)"/><path class="cls-1" d="M834.83,838.77l-1.76,9.63,3.89.7,4,.71c1.46.25,3,.4,4.6.62l8.62,1.1c1.18.14,2.16.28,2.85.32l1.08.08.93-9.75-1-.08c-.66,0-1.61-.18-2.74-.31l-8.34-1.07c-1.52-.2-3-.35-4.45-.59l-3.86-.69Z" transform="translate(-536.15 -202.32)"/><path class="cls-1" d="M799.52,830l-3,9.33,1,.35c.65.23,1.59.55,2.74.85l8.36,2.38c1.53.42,3,.87,4.47,1.25l4,.92,3.85.89,2.18-9.56-3.72-.86-3.82-.88c-1.39-.36-2.85-.8-4.32-1.21l-8.09-2.3c-1.11-.29-2-.6-2.64-.82Z" transform="translate(-536.15 -202.32)"/><path class="cls-1" d="M765.66,816.63l-4.17,8.86,3.6,1.63,3.69,1.67,2.09.94,1.07.49,1.1.43,11.77,4.64,3.39-9.2-11.38-4.48-1.06-.42-1-.47-2-.91-3.57-1.61Z" transform="translate(-536.15 -202.32)"/><path class="cls-1" d="M733.81,799l-5.28,8.26,3.33,2.13c2,1.34,4.75,2.85,7.48,4.44s5.47,3.18,7.56,4.3l3.52,1.8,4.54-8.68-3.41-1.74c-2-1.08-4.64-2.65-7.3-4.16s-5.33-3-7.23-4.29Z" transform="translate(-536.15 -202.32)"/><path class="cls-1" d="M704.41,777.58l-6.29,7.52s1.18,1.06,3.06,2.5L708,793c2.44,2,5.07,3.77,7,5.16l3.22,2.29,5.61-8-3.11-2.21c-1.86-1.34-4.39-3-6.76-5L707.36,780C705.54,778.61,704.41,777.58,704.41,777.58Z" transform="translate(-536.15 -202.32)"/><path class="cls-1" d="M678,752.5l-7.19,6.66,2.73,2.87,2.8,2.93c1,1.06,2.09,2.24,3.25,3.31l9.16,8.73,6.59-7.25-8.85-8.44c-1.13-1-2.15-2.18-3.15-3.21l-2.7-2.83Z" transform="translate(-536.15 -202.32)"/><path class="cls-1" d="M655.05,724.27l-8,5.69,2.29,3.22c1.33,2,3.33,4.42,5.27,6.91s3.89,5,5.4,6.82,2.59,3,2.59,3l7.46-6.36-2.5-2.88c-1.47-1.77-3.32-4.2-5.22-6.6s-3.82-4.77-5.1-6.68S655.05,724.27,655.05,724.27Z" transform="translate(-536.15 -202.32)"/><path class="cls-1" d="M635.8,693.39,627.16,698s.69,1.42,1.9,3.46,2.76,4.8,4.34,7.54,3.29,5.4,4.56,7.4l2.13,3.33,8.21-5.36s-.83-1.28-2.06-3.21-2.94-4.47-4.41-7.16l-4.19-7.28C636.46,694.77,635.8,693.39,635.8,693.39Z" transform="translate(-536.15 -202.32)"/><path class="cls-1" d="M620.74,660.25l-9.16,3.48,1.45,3.68c.43,1.1.94,2.39,1.49,3.77s1.1,2.85,1.78,4.28L621.52,687l8.82-4.26-5-11.14c-.66-1.38-1.19-2.81-1.72-4.14s-1-2.58-1.44-3.64Z" transform="translate(-536.15 -202.32)"/><path class="cls-1" d="M610.07,625.47l-9.53,2.26s.35,1.55.89,3.86c.24,1.16.64,2.49,1,3.91s.83,3,1.26,4.47.87,3,1.28,4.47.77,2.76,1.18,3.87c.76,2.25,1.26,3.75,1.26,3.75l9.3-3.08-1.22-3.62c-.4-1.08-.76-2.37-1.15-3.75s-.8-2.85-1.22-4.32-.83-2.94-1.23-4.32-.77-2.66-1-3.78Z" transform="translate(-536.15 -202.32)"/><path class="cls-1" d="M603.88,589.61l-9.74,1s.79,6.28,1.59,12.55c.46,3.13,1.09,6.23,1.48,8.57s.69,3.89.69,3.89l9.63-1.86s-.27-1.51-.68-3.76-1-5.26-1.43-8.28Z" transform="translate(-536.15 -202.32)"/><path class="cls-1" d="M602.44,553.23l-9.8-.21-.1,4c-.12,2.37,0,5.53.09,8.69s.17,6.32.23,8.69.28,3.94.28,3.94l9.78-.62s-.11-1.52-.28-3.81-.13-5.35-.21-8.41-.21-6.11-.09-8.4S602.44,553.23,602.44,553.23Z" transform="translate(-536.15 -202.32)"/><path class="cls-1" d="M605.45,517l-9.68-1.45-1.6,12.55c-.23,1.56-.29,3.15-.42,4.62s-.22,2.86-.31,4l-.3,3.94,9.78.62s.12-1.52.29-3.81c.09-1.14.19-2.47.3-3.9s.17-3,.4-4.47Z" transform="translate(-536.15 -202.32)"/><path class="cls-1" d="M613.23,481.4l-9.42-2.69-1.08,3.8c-.31,1.15-.72,2.47-1.09,3.91s-.69,3-1,4.52c-.71,3.08-1.43,6.17-2,8.48-.29,1.15-.4,2.13-.55,2.81l-.19,1.07,9.63,1.86s.06-.37.18-1,.24-1.61.53-2.72c.51-2.23,1.2-5.21,1.89-8.19l1-4.37c.36-1.39.76-2.67,1.06-3.78C612.81,482.87,613.23,481.4,613.23,481.4Z" transform="translate(-536.15 -202.32)"/><path class="cls-1" d="M625.41,447.12l-9-3.88-.45,1c-.3.62-.66,1.54-1.09,2.65L611.68,455c-.56,1.48-1.2,2.93-1.66,4.33l-1.3,3.84-1.27,3.75,9.3,3.08,1.22-3.62,1.26-3.7c.44-1.37,1.06-2.77,1.61-4.2l3.08-7.82c.41-1.06.76-1.95,1.05-2.55Z" transform="translate(-536.15 -202.32)"/><path class="cls-1" d="M642,414.69l-8.42-5-2,3.43-2,3.52c-.73,1.29-1.56,2.63-2.26,4.06L621.52,432l8.82,4.25,5.58-10.88c.66-1.38,1.48-2.68,2.18-3.93l1.95-3.39C641.2,416,642,414.69,642,414.69Z" transform="translate(-536.15 -202.32)"/><path class="cls-1" d="M662.52,384.67l-7.71-6-2.45,3.1c-1.51,1.83-3.28,4.45-5.13,7s-3.7,5.14-5,7.11l-2.13,3.33,8.2,5.35,2.07-3.22c1.26-1.91,3.08-4.37,4.84-6.87s3.49-5,5-6.78S662.52,384.67,662.52,384.67Z" transform="translate(-536.15 -202.32)"/><path class="cls-1" d="M686.69,357.46l-6.89-7s-1.17,1.06-2.78,2.81l-6,6.29c-2.23,2.24-4.25,4.69-5.81,6.47l-2.59,3,7.46,6.35,2.5-2.89c1.51-1.72,3.46-4.08,5.62-6.25l5.8-6.09C685.56,358.49,686.69,357.46,686.69,357.46Z" transform="translate(-536.15 -202.32)"/><path class="cls-1" d="M714.17,333.59l-5.94-7.79-3.11,2.44-3.18,2.5c-1.16.93-2.44,1.87-3.61,2.93L688.77,342l6.59,7.25,9.24-8c1.13-1,2.37-1.92,3.49-2.82l3.08-2.42Z" transform="translate(-536.15 -202.32)"/><path class="cls-1" d="M744.47,313.43l-4.9-8.49-3.43,2c-2.09,1.14-4.71,2.9-7.38,4.6s-5.35,3.38-7.3,4.72l-3.23,2.29,5.61,8,3.12-2.22c1.89-1.29,4.49-2.9,7.06-4.56s5.12-3.35,7.14-4.44Z" transform="translate(-536.15 -202.32)"/><path class="cls-1" d="M777.07,297.24l-3.78-9.05-1,.4c-.64.25-1.53.68-2.61,1.17l-7.93,3.58c-2.91,1.24-5.68,2.76-7.81,3.83l-3.51,1.8,4.54,8.68,3.39-1.74c2-1,4.73-2.5,7.55-3.7l7.66-3.46c1.05-.47,1.91-.89,2.53-1.13Z" transform="translate(-536.15 -202.32)"/><path class="cls-1" d="M811.49,285.46,808.92,276l-3.8,1.08-3.9,1.11-2.2.62-2.24.75-8.24,2.79-2.71.92c-.66.21-1,.37-1,.37l3.39,9.2a8.48,8.48,0,0,1,1-.36l2.62-.89,8-2.69,2.16-.73,2.12-.6,3.77-1.07Z" transform="translate(-536.15 -202.32)"/><path class="cls-1" d="M847.15,278.19l-1.34-9.71-3.92.5c-2.34.39-5.45,1-8.56,1.51s-6.24,1.05-8.54,1.65l-3.86.89,2.18,9.55,3.72-.86c2.22-.58,5.25-1,8.25-1.59s6-1.09,8.28-1.46Z" transform="translate(-536.15 -202.32)"/><path class="cls-1" d="M883.45,275.51l-.09-9.8-12.65.35L858.1,267l.93,9.76,12.2-.93Z" transform="translate(-536.15 -202.32)"/><path class="cls-1" d="M919.8,277.47l1.14-9.73-3.92-.5c-2.36-.25-5.52-.44-8.67-.7l-4.63-.35-2.13-.16-1.91-.06-4-.1-.3,9.8,3.82.09c.57,0,1.19,0,1.85.06l2.06.15,4.48.34c3,.25,6.09.43,8.38.67Z" transform="translate(-536.15 -202.32)"/><path class="cls-1" d="M955.61,284l2.37-9.5-12.32-2.84-12.45-2.23-1.55,9.67,12,2.15Z" transform="translate(-536.15 -202.32)"/><path class="cls-1" d="M990.24,295.14l3.59-9.12-3.68-1.45c-1.11-.41-2.38-1-3.79-1.44l-4.4-1.48-8.24-2.79-3.8-1.08-2.79,9.39,3.68,1,8,2.7,4.25,1.44c1.37.43,2.59,1,3.66,1.39Z" transform="translate(-536.15 -202.32)"/><path class="cls-1" d="M1023.2,310.57l4.73-8.57-1-.55c-.59-.36-1.48-.79-2.53-1.33l-7.74-4c-2.78-1.5-5.69-2.75-7.86-3.73l-3.6-1.63-4,9,3.47,1.57c2.09.95,4.9,2.16,7.59,3.61l7.49,3.83c1,.53,1.88.94,2.45,1.29Z" transform="translate(-536.15 -202.32)"/><path class="cls-1" d="M1053.87,330.16l5.78-7.9-3.22-2.3-3.3-2.34c-1.21-.85-2.48-1.81-3.83-2.63l-10.65-6.82-5.08,8.37,10.29,6.6c1.3.79,2.53,1.71,3.7,2.54l3.19,2.27Z" transform="translate(-536.15 -202.32)"/><path class="cls-1" d="M1081.79,353.51l6.75-7.1-2.86-2.73c-1.68-1.68-4.12-3.7-6.49-5.78s-4.76-4.17-6.6-5.67l-3.11-2.44-6.12,7.66,3,2.36c1.78,1.44,4.06,3.48,6.38,5.47s4.66,4,6.28,5.59Z" transform="translate(-536.15 -202.32)"/><path class="cls-1" d="M1106.57,380.17l7.59-6.19-.67-.85c-.41-.56-1.08-1.29-1.85-2.19l-5.69-6.57c-2-2.44-4.26-4.68-5.88-6.4l-2.73-2.86-7,6.81,2.64,2.77c1.57,1.67,3.74,3.83,5.69,6.19s4,4.62,5.51,6.35c.74.87,1.39,1.58,1.78,2.12Z" transform="translate(-536.15 -202.32)"/><path class="cls-1" d="M1127.7,409.8l8.32-5.16-2.13-3.34-2.19-3.41c-.81-1.23-1.61-2.6-2.56-3.87-3.67-5.15-7.33-10.31-7.33-10.31l-7.85,5.87s3.55,5,7.09,10c.92,1.22,1.69,2.54,2.48,3.74l2.11,3.3Z" transform="translate(-536.15 -202.32)"/><path class="cls-1" d="M1144.86,441.9l8.92-4.06-1.63-3.6c-.92-2.19-2.44-5-3.86-7.8s-2.85-5.64-4-7.71l-2-3.43-8.53,4.81,1.9,3.32c1.11,2,2.46,4.75,3.87,7.46s2.84,5.41,3.73,7.53Z" transform="translate(-536.15 -202.32)"/><path class="cls-1" d="M1157.83,475.89l9.37-2.87-.3-1c-.23-.65-.54-1.59-.92-2.71-.76-2.25-1.77-5.25-2.79-8.24-.25-.75-.51-1.5-.76-2.24s-.55-1.44-.82-2.13l-1.48-3.77c-.88-2.2-1.45-3.68-1.45-3.68l-9.08,3.68,1.4,3.56,1.43,3.64c.26.67.56,1.35.8,2.06s.48,1.44.73,2.16l2.69,8c.37,1.09.68,2,.89,2.63S1157.83,475.89,1157.83,475.89Z" transform="translate(-536.15 -202.32)"/><path class="cls-1" d="M1166.2,511.32l9.66-1.65s-.28-1.56-.69-3.89-.91-5.47-1.68-8.53-1.43-6.17-2-8.48c-.27-1.15-.49-2.12-.65-2.79l-.3-1.05-9.47,2.48.28,1c.15.66.37,1.58.63,2.7.51,2.24,1.2,5.21,1.89,8.19s1.2,6,1.62,8.25Z" transform="translate(-536.15 -202.32)"/><path class="cls-1" d="M1170.05,547.5l9.79-.41s0-.39,0-1.08,0-1.68-.13-2.86l-.66-8.67c-.12-1.58-.24-3.16-.36-4.63s-.34-2.85-.48-4c-.3-2.36-.51-3.93-.51-3.93l-9.71,1.25.48,3.79c.14,1.13.33,2.46.48,3.88s.22,3,.33,4.48c.24,3.05.47,6.1.64,8.38.11,1.15.11,2.1.13,2.77S1170.05,547.5,1170.05,547.5Z" transform="translate(-536.15 -202.32)"/></g><g id="Setting"><path class="cls-2" d="M830.56,584.35c.18-.14.37-.26.55-.41l170.21-140a15.46,15.46,0,0,0,2.12-21.77L988.7,404.23a15.47,15.47,0,0,0-21.76-2.12l-170.22,140c-.18.15-.34.32-.51.47a82.49,82.49,0,0,0-121.72,95.08l65-53.5a15.48,15.48,0,0,1,21.77,2.12l19.65,23.89A15.46,15.46,0,0,1,778.82,632l-65,53.5A82.49,82.49,0,0,0,830.56,584.35Z" transform="translate(-536.15 -202.32)"/><path class="cls-3" d="M800.49,611.64,765,568.46a15.47,15.47,0,0,0-21.78-2.12l-71.56,58.87a82.09,82.09,0,0,0,2.86,12.47l65-53.5a15.48,15.48,0,0,1,21.77,2.12l19.65,23.89A15.46,15.46,0,0,1,778.82,632l-65,53.5a82.89,82.89,0,0,0,14,6l70.57-58.05A15.46,15.46,0,0,0,800.49,611.64Z" transform="translate(-536.15 -202.32)"/><path class="cls-4" d="M1005.51,425.46a15.37,15.37,0,0,0-2.07-3.31L988.7,404.23a15.47,15.47,0,0,0-2.84-2.66L810.26,546c-7.53,6.19-9.23,16.56-3.81,23.16s15.93,6.92,23.46.73Z" transform="translate(-536.15 -202.32)"/><path class="cls-5" d="M985.68,438.85a12.73,12.73,0,1,1,1.74-17.92A12.74,12.74,0,0,1,985.68,438.85Z" transform="translate(-536.15 -202.32)"/></g><polygon class="cls-6" points="174.64 176.2 171.18 180.36 167.72 184.52 187.31 214.16 204.47 217.75 204.47 217.75 370.27 351.07 380.86 338.35 215.06 205.03 208.08 189.2 174.64 176.2"/><path class="cls-7" d="M1079.57,633.59s-88.11-71.74-99-79.53-16.74-2.42-16.74-2.42c-.76-7.23-5.37-14.07-5.37-14.07s-20.81-16.31-27.06-20.44-13-.58-13-.58L899.6,537.22l.28.23L884,558.55s-2.18,7.2,3.19,12.39S913,592.88,913,592.88s7.75,3,15.11,2.33c0,0-4.17,6.76,5.79,15.63s99.18,79.24,99.18,79.24a22.54,22.54,0,0,0,25.29-2.48c12.87-10.15,16-14.9,16-14.9l-.36-.28a130.63,130.63,0,0,0,8.24-14A21.55,21.55,0,0,0,1079.57,633.59Z" transform="translate(-536.15 -202.32)"/><path class="cls-8" d="M1083.43,655.69c-8.32-2.57-18.63.74-25.46,8.94-6.7,8-8,18.37-4.12,25.85a26.32,26.32,0,0,0,4.51-2.88c12.87-10.15,16-14.9,16-14.9l-.36-.28a130.63,130.63,0,0,0,8.24-14A26.06,26.06,0,0,0,1083.43,655.69Z" transform="translate(-536.15 -202.32)"/><path class="cls-9" d="M963.87,551.64c-.76-7.23-5.37-14.07-5.37-14.07s-20.81-16.31-27.06-20.44-13-.58-13-.58L899.6,537.22l.28.23,0,0,171.91,138.23a26.53,26.53,0,0,0,2.55-3l-.36-.28a130.63,130.63,0,0,0,8.24-14,21.55,21.55,0,0,0-2.62-24.83s-88.11-71.74-99-79.53S963.87,551.64,963.87,551.64Z" transform="translate(-536.15 -202.32)"/><path class="cls-10" d="M1046.32,670.38a5.15,5.15,0,0,1,.75,7.34h0a5.38,5.38,0,0,1-7.47.74l-94.85-76.27a5.15,5.15,0,0,1-.74-7.34h0a5.38,5.38,0,0,1,7.47-.74Z" transform="translate(-536.15 -202.32)"/><path class="cls-10" d="M1066,646.71a5.16,5.16,0,0,1,.75,7.34h0a5.38,5.38,0,0,1-7.47.74l-94.85-76.27a5.16,5.16,0,0,1-.75-7.34h0a5.37,5.37,0,0,1,7.47-.73Z" transform="translate(-536.15 -202.32)"/><polygon class="cls-10" points="380.86 338.35 215.06 205.03 208.08 189.2 174.64 176.2 171.18 180.36 375.57 344.71 380.86 338.35"/><g id="Active"><g id="Active2"><path class="cls-11" d="M580.51,682.29a26.46,26.46,0,0,1,7.84,4.51l10.87-4.48L606.53,695l-9.1,7.55a27.24,27.24,0,0,1,.4,4.64,26.47,26.47,0,0,1-.32,4.1l9.48,7.29-7.31,12.66-10.92-4a26.06,26.06,0,0,1-7.74,4.67l-1.54,11.55H564.86L562.93,732a25.9,25.9,0,0,1-7.85-4.52L544.21,732l-7.31-12.66L546,711.8a27.21,27.21,0,0,1-.41-4.63,26.51,26.51,0,0,1,.32-4.11l-9.47-7.29,7.3-12.66,10.93,4a26,26,0,0,1,7.73-4.68L564,670.93h14.62Z" transform="translate(-536.15 -202.32)"/><path class="cls-12" d="M571.72,725.81a18.65,18.65,0,1,0-18.66-18.64,18.69,18.69,0,0,0,18.66,18.64Z" transform="translate(-536.15 -202.32)"/><path class="cls-13" d="M571.72,719.76a12.6,12.6,0,1,0-12.61-12.59,12.62,12.62,0,0,0,12.61,12.59Z" transform="translate(-536.15 -202.32)"/></g><g id="Active1"><path class="cls-14" d="M620.23,732.39a20.3,20.3,0,0,1,6,3.48l8.37-3.46,5.63,9.75-7,5.82a21,21,0,0,1,.31,3.57,20.62,20.62,0,0,1-.25,3.16l7.3,5.61L635,770.07,626.58,767a20.2,20.2,0,0,1-6,3.6l-1.19,8.9H608.18l-1.49-8.76a19.81,19.81,0,0,1-6.05-3.48l-8.37,3.46-5.63-9.75,7-5.82a20,20,0,0,1-.31-3.56,22,22,0,0,1,.23-3.17l-7.29-5.61,5.63-9.75,8.41,3.12a20.14,20.14,0,0,1,6-3.61l1.19-8.89h11.26Z" transform="translate(-536.15 -202.32)"/><path class="cls-12" d="M613.46,766.17a14.63,14.63,0,1,0-14.64-14.62,14.66,14.66,0,0,0,14.64,14.62Z" transform="translate(-536.15 -202.32)"/><path class="cls-13" d="M613.46,761.25a9.71,9.71,0,1,0-9.71-9.7,9.72,9.72,0,0,0,9.71,9.7Z" transform="translate(-536.15 -202.32)"/></g><g id="Active-2" data-name="Active"><path class="cls-15" d="M640.44,649.14a29.63,29.63,0,0,1,10.09,2.16l10.24-8.68,12.37,11.19L665.9,665.2a30.73,30.73,0,0,1,2.05,4.89,29.18,29.18,0,0,1,1.1,4.57l12.85,4.61-3.51,16.31L665.1,695a29.7,29.7,0,0,1-6.76,7.78l2.37,13.09L644.83,721l-6.08-11.67a29.45,29.45,0,0,1-10.1-2.16l-10.24,8.68L606,704.66l7.25-11.39a31.31,31.31,0,0,1-2.06-4.89,30.3,30.3,0,0,1-1.09-4.57l-12.84-4.61,3.5-16.31,13.29.58a29.44,29.44,0,0,1,6.77-7.79l-2.38-13.09,15.88-5.12Z" transform="translate(-536.15 -202.32)"/><path class="cls-12" d="M639.59,702.82A23.59,23.59,0,1,0,616,679.24a23.64,23.64,0,0,0,23.6,23.58Z" transform="translate(-536.15 -202.32)"/><path class="cls-13" d="M644,692.92a14.38,14.38,0,1,0-18.1-9.27,14.4,14.4,0,0,0,18.1,9.27Z" transform="translate(-536.15 -202.32)"/></g></g><g id="Laptop"><rect class="cls-16" x="34.2" y="134.59" width="100.12" height="4.65"/><path class="cls-17" d="M694.82,280.34H544.22c-6.9,0-9,4.34-7.7,9.45a1.1,1.1,0,0,1,0-.18,3.53,3.53,0,0,0,.1,1.06l10.9,41.14c1.65,6.24,3.12,6.44,11.25,6.42H684.71c6.53,0,9.72,0,11-6.26l8.49-41.29c0-.16,0-.32.06-.48v0l.41-3.5C705.27,281.68,698.66,280.34,694.82,280.34ZM536.6,289.06c0,.1,0,.2-.05.3C536.56,289.26,536.58,289.16,536.6,289.06Zm.32-.95-.06.14Zm-.18.44c0,.08-.06.16-.08.24C536.68,288.71,536.72,288.63,536.74,288.55Zm6.15-4c.23,0,.45,0,.68,0C543.34,284.49,543.12,284.5,542.89,284.52Zm-4.19,1.56,0,0Zm.49-.33.1-.06Zm.55-.3.14-.08Zm.57-.28.19-.08Zm.61-.23.25-.07Zm.64-.19a2.84,2.84,0,0,1,.31-.06A2.84,2.84,0,0,0,541.56,284.75Zm.66-.14.4-.05Z" transform="translate(-536.15 -202.32)"/><path class="cls-12" d="M544.22,280.34h150.6c3.84,0,10.45,1.34,9.87,6.37l-.41,3.5c-.56-2.61-3.8-5.72-7-5.72H543.57c-3.46,0-7.08,2.4-7.05,5.3-1.33-5.11.8-9.45,7.7-9.45Z" transform="translate(-536.15 -202.32)"/><polygon class="cls-18" points="8.04 85.08 161.35 84.91 153.08 132.82 17.66 132.86 8.04 85.08"/><path class="cls-19" d="M551.72,339.64H690a4.18,4.18,0,0,1,4.17,4.16V420a4.19,4.19,0,0,1-4.17,4.17H551.72a4.19,4.19,0,0,1-4.17-4.17V343.8a4.18,4.18,0,0,1,4.17-4.16Z" transform="translate(-536.15 -202.32)"/><path class="cls-9" d="M694.14,343.8a4.18,4.18,0,0,0-4.17-4.16H678.33l-88.12,84.57H690a4.19,4.19,0,0,0,4.17-4.17Z" transform="translate(-536.15 -202.32)"/><rect class="cls-16" x="65.11" y="196.1" width="39.17" height="20.5"/><rect class="cls-20" x="18.68" y="144.46" width="132.05" height="48"/><path class="cls-20" d="M636.78,408.86c0,4.88-.84,8.84-1.88,8.84H605.84c-1.05,0-1.89-4-1.89-8.84h0c0-4.88.84-8.84,1.89-8.84H634.9c1,0,1.88,4,1.88,8.84Z" transform="translate(-536.15 -202.32)"/><g id="Keyboard"><path class="cls-21" d="M557.68,349.62h6.13a.78.78,0,0,1,.65.85v6.6c0,.47-.29.86-.65.86h-6.13a.79.79,0,0,1-.66-.86v-6.6a.78.78,0,0,1,.66-.85Z" transform="translate(-536.15 -202.32)"/><path class="cls-21" d="M567.63,349.62h6.13a.78.78,0,0,1,.66.85v6.6a.79.79,0,0,1-.66.86h-6.13a.79.79,0,0,1-.66-.86v-6.6a.78.78,0,0,1,.66-.85Z" transform="translate(-536.15 -202.32)"/><path class="cls-21" d="M577.59,349.62h6.11a.78.78,0,0,1,.66.85v6.6a.79.79,0,0,1-.66.86h-6.11a.79.79,0,0,1-.67-.86v-6.6a.78.78,0,0,1,.67-.85Z" transform="translate(-536.15 -202.32)"/><path class="cls-21" d="M587.53,349.62h6.12a.77.77,0,0,1,.66.85v6.6c0,.47-.28.86-.66.86h-6.12a.79.79,0,0,1-.66-.86v-6.6a.78.78,0,0,1,.66-.85Z" transform="translate(-536.15 -202.32)"/><path class="cls-21" d="M597.47,349.62h6.14a.78.78,0,0,1,.66.85v6.6a.79.79,0,0,1-.66.86h-6.14a.79.79,0,0,1-.66-.86v-6.6a.78.78,0,0,1,.66-.85Z" transform="translate(-536.15 -202.32)"/><path class="cls-21" d="M607.43,349.62h6.12a.78.78,0,0,1,.66.85v6.6a.79.79,0,0,1-.66.86h-6.12a.79.79,0,0,1-.66-.86v-6.6a.78.78,0,0,1,.66-.85Z" transform="translate(-536.15 -202.32)"/><path class="cls-21" d="M617.37,349.62h6.12a.78.78,0,0,1,.67.85v6.6a.78.78,0,0,1-.67.86h-6.12c-.35,0-.65-.39-.65-.86v-6.6a.78.78,0,0,1,.65-.85Z" transform="translate(-536.15 -202.32)"/><path class="cls-21" d="M627.32,349.62h6.13a.79.79,0,0,1,.67.85v6.6a.79.79,0,0,1-.67.86h-6.13a.79.79,0,0,1-.66-.86v-6.6a.78.78,0,0,1,.66-.85Z" transform="translate(-536.15 -202.32)"/><path class="cls-21" d="M637.28,349.62h6.12a.78.78,0,0,1,.66.85v6.6a.79.79,0,0,1-.66.86h-6.12a.78.78,0,0,1-.66-.86v-6.6a.78.78,0,0,1,.66-.85Z" transform="translate(-536.15 -202.32)"/><path class="cls-21" d="M647.23,349.62h6.11a.78.78,0,0,1,.67.85v6.6a.78.78,0,0,1-.67.86h-6.11a.79.79,0,0,1-.67-.86v-6.6a.78.78,0,0,1,.67-.85Z" transform="translate(-536.15 -202.32)"/><path class="cls-21" d="M657.17,349.62h6.13a.78.78,0,0,1,.66.85v6.6a.78.78,0,0,1-.66.86h-6.13a.79.79,0,0,1-.66-.86v-6.6a.78.78,0,0,1,.66-.85Z" transform="translate(-536.15 -202.32)"/><path class="cls-21" d="M572.62,361.15h6.12a.78.78,0,0,1,.66.85v6.6a.79.79,0,0,1-.66.86h-6.12a.79.79,0,0,1-.66-.86V362a.78.78,0,0,1,.66-.85Z" transform="translate(-536.15 -202.32)"/><path class="cls-21" d="M582.56,361.15h6.13a.78.78,0,0,1,.67.85v6.6a.79.79,0,0,1-.67.86h-6.13a.79.79,0,0,1-.66-.86V362a.78.78,0,0,1,.66-.85Z" transform="translate(-536.15 -202.32)"/><path class="cls-21" d="M592.51,361.15h6.13a.78.78,0,0,1,.66.85v6.6a.79.79,0,0,1-.66.86h-6.13c-.36,0-.65-.39-.65-.86V362a.78.78,0,0,1,.65-.85Z" transform="translate(-536.15 -202.32)"/><path class="cls-21" d="M602.47,361.15h6.11a.78.78,0,0,1,.67.85v6.6a.79.79,0,0,1-.67.86h-6.11a.79.79,0,0,1-.67-.86V362a.78.78,0,0,1,.67-.85Z" transform="translate(-536.15 -202.32)"/><path class="cls-21" d="M612.41,361.15h6.13a.78.78,0,0,1,.65.85v6.6c0,.47-.29.86-.65.86h-6.13a.79.79,0,0,1-.66-.86V362a.78.78,0,0,1,.66-.85Z" transform="translate(-536.15 -202.32)"/><path class="cls-21" d="M622.36,361.15h6.13a.78.78,0,0,1,.66.85v6.6a.79.79,0,0,1-.66.86h-6.13a.79.79,0,0,1-.67-.86V362a.78.78,0,0,1,.67-.85Z" transform="translate(-536.15 -202.32)"/><path class="cls-21" d="M632.31,361.15h6.12a.78.78,0,0,1,.66.85v6.6a.79.79,0,0,1-.66.86h-6.12a.79.79,0,0,1-.66-.86V362a.78.78,0,0,1,.66-.85Z" transform="translate(-536.15 -202.32)"/><path class="cls-21" d="M642.26,361.15h6.13a.78.78,0,0,1,.65.85v6.6c0,.47-.29.86-.65.86h-6.13a.79.79,0,0,1-.66-.86V362a.78.78,0,0,1,.66-.85Z" transform="translate(-536.15 -202.32)"/><path class="cls-21" d="M652.2,361.15h6.14a.78.78,0,0,1,.65.85v6.6c0,.47-.29.86-.65.86H652.2a.79.79,0,0,1-.66-.86V362a.78.78,0,0,1,.66-.85Z" transform="translate(-536.15 -202.32)"/><path class="cls-21" d="M662.16,361.15h6.12a.78.78,0,0,1,.66.85v6.6a.79.79,0,0,1-.66.86h-6.12a.79.79,0,0,1-.66-.86V362a.78.78,0,0,1,.66-.85Z" transform="translate(-536.15 -202.32)"/><path class="cls-21" d="M667.13,349.62h6.12a.78.78,0,0,1,.66.85v6.6a.79.79,0,0,1-.66.86h-6.12a.78.78,0,0,1-.66-.86v-6.6a.78.78,0,0,1,.66-.85Z" transform="translate(-536.15 -202.32)"/><path class="cls-21" d="M677.07,349.62h6.12a.78.78,0,0,1,.66.85v6.6a.78.78,0,0,1-.66.86h-6.12a.79.79,0,0,1-.66-.86v-6.6a.78.78,0,0,1,.66-.85Z" transform="translate(-536.15 -202.32)"/><path class="cls-21" d="M672.27,361.15h10.92a.78.78,0,0,1,.66.85v6.6a.78.78,0,0,1-.66.86H672.27a.79.79,0,0,1-.67-.86V362a.79.79,0,0,1,.67-.85Z" transform="translate(-536.15 -202.32)"/><path class="cls-21" d="M557.78,361.15h11.33a.78.78,0,0,1,.67.85v6.6a.79.79,0,0,1-.67.86H557.78a.78.78,0,0,1-.66-.86V362a.78.78,0,0,1,.66-.85Z" transform="translate(-536.15 -202.32)"/><path class="cls-21" d="M557.78,372.68h13.54a.78.78,0,0,1,.66.85v6.61a.78.78,0,0,1-.66.85H557.78a.78.78,0,0,1-.66-.85v-6.61a.77.77,0,0,1,.66-.85Z" transform="translate(-536.15 -202.32)"/><path class="cls-21" d="M557.78,384.21h6.11a.78.78,0,0,1,.66.85v6.6a.79.79,0,0,1-.66.86h-6.11a.78.78,0,0,1-.66-.86v-6.6a.77.77,0,0,1,.66-.85Z" transform="translate(-536.15 -202.32)"/><path class="cls-21" d="M567.72,384.21h6.1a.78.78,0,0,1,.66.85v6.6a.79.79,0,0,1-.66.86h-6.1a.79.79,0,0,1-.67-.86v-6.6a.78.78,0,0,1,.67-.85Z" transform="translate(-536.15 -202.32)"/><path class="cls-21" d="M577.65,384.21h6.1a.77.77,0,0,1,.67.85v6.6a.78.78,0,0,1-.67.86h-6.1a.79.79,0,0,1-.67-.86v-6.6a.78.78,0,0,1,.67-.85Z" transform="translate(-536.15 -202.32)"/><path class="cls-21" d="M587.58,384.21h63.61c.38,0,.66.38.66.85v6.6c0,.47-.28.86-.66.86H587.58a.79.79,0,0,1-.66-.86v-6.6a.78.78,0,0,1,.66-.85Z" transform="translate(-536.15 -202.32)"/><path class="cls-21" d="M575,372.79h6.11a.78.78,0,0,1,.67.85v6.61a.78.78,0,0,1-.67.85H575a.78.78,0,0,1-.67-.85v-6.61a.78.78,0,0,1,.67-.85Z" transform="translate(-536.15 -202.32)"/><path class="cls-21" d="M584.94,372.79h6.13a.78.78,0,0,1,.66.85v6.61a.78.78,0,0,1-.66.85h-6.13a.78.78,0,0,1-.66-.85v-6.61a.78.78,0,0,1,.66-.85Z" transform="translate(-536.15 -202.32)"/><path class="cls-21" d="M594.89,372.79H601a.78.78,0,0,1,.67.85v6.61a.78.78,0,0,1-.67.85h-6.12a.77.77,0,0,1-.65-.85v-6.61a.77.77,0,0,1,.65-.85Z" transform="translate(-536.15 -202.32)"/><path class="cls-21" d="M604.84,372.79H611a.78.78,0,0,1,.66.85v6.61a.78.78,0,0,1-.66.85h-6.12a.78.78,0,0,1-.66-.85v-6.61a.78.78,0,0,1,.66-.85Z" transform="translate(-536.15 -202.32)"/><path class="cls-21" d="M614.79,372.79h6.13a.78.78,0,0,1,.65.85v6.61a.78.78,0,0,1-.65.85h-6.13a.78.78,0,0,1-.66-.85v-6.61a.78.78,0,0,1,.66-.85Z" transform="translate(-536.15 -202.32)"/><path class="cls-21" d="M624.73,372.79h6.13a.78.78,0,0,1,.67.85v6.61a.78.78,0,0,1-.67.85h-6.13a.78.78,0,0,1-.66-.85v-6.61a.78.78,0,0,1,.66-.85Z" transform="translate(-536.15 -202.32)"/><path class="cls-21" d="M634.69,372.79h6.12a.78.78,0,0,1,.66.85v6.61a.78.78,0,0,1-.66.85h-6.12a.78.78,0,0,1-.66-.85v-6.61a.78.78,0,0,1,.66-.85Z" transform="translate(-536.15 -202.32)"/><path class="cls-21" d="M644.64,372.79h6.13a.78.78,0,0,1,.65.85v6.61a.78.78,0,0,1-.65.85h-6.13a.79.79,0,0,1-.67-.85v-6.61a.79.79,0,0,1,.67-.85Z" transform="translate(-536.15 -202.32)"/><path class="cls-21" d="M654.58,372.79H666a.78.78,0,0,1,.66.85v6.61a.78.78,0,0,1-.66.85h-11.4a.78.78,0,0,1-.66-.85v-6.61a.78.78,0,0,1,.66-.85Z" transform="translate(-536.15 -202.32)"/><path class="cls-21" d="M669.58,372.68h13.55a.78.78,0,0,1,.66.85v6.61a.78.78,0,0,1-.66.85H669.58a.78.78,0,0,1-.66-.85v-6.61a.78.78,0,0,1,.66-.85Z" transform="translate(-536.15 -202.32)"/><path class="cls-21" d="M670.8,384.21h5.1a.28.28,0,0,1,.24.29v2.28a.29.29,0,0,1-.24.3h-5.1c-.13,0-.23-.14-.23-.3V384.5a.26.26,0,0,1,.23-.29Z" transform="translate(-536.15 -202.32)"/><path class="cls-21" d="M670.8,389.18h5.1a.28.28,0,0,1,.24.3v2.26a.28.28,0,0,1-.24.29h-5.1a.26.26,0,0,1-.23-.29v-2.26c0-.17.1-.3.23-.3Z" transform="translate(-536.15 -202.32)"/><path class="cls-21" d="M663.22,389.18h5.11a.27.27,0,0,1,.24.3v2.26a.27.27,0,0,1-.24.29h-5.11a.26.26,0,0,1-.22-.29v-2.26c0-.17.1-.3.22-.3Z" transform="translate(-536.15 -202.32)"/><path class="cls-21" d="M678.35,389.18h5.1c.13,0,.23.13.23.3v2.26a.26.26,0,0,1-.23.29h-5.1a.27.27,0,0,1-.24-.29v-2.26a.27.27,0,0,1,.24-.3Z" transform="translate(-536.15 -202.32)"/><path class="cls-21" d="M654.34,384.21h6.14a.78.78,0,0,1,.66.85v6.6a.79.79,0,0,1-.66.86h-6.14a.79.79,0,0,1-.66-.86v-6.6a.78.78,0,0,1,.66-.85Z" transform="translate(-536.15 -202.32)"/></g><g id="Light"><polygon class="cls-22" points="101.62 84.91 69.33 84.91 35.47 132.85 55.57 133.56 101.62 84.91"/><polygon class="cls-22" points="117.63 84.95 75.52 132.84 80.04 132.84 133.11 84.92 117.63 84.95"/></g></g><path class="cls-3" d="M1214.56,660.05h-96a7,7,0,0,0-7,7v103.7a7,7,0,0,0,2.91,5.65h0l.57.37,0,0a3.77,3.77,0,0,0,.57.28l.07,0a5.2,5.2,0,0,0,.55.21l.12.05.53.15.16,0,.55.08a1,1,0,0,0,.17,0,5.9,5.9,0,0,0,.74,0h96a7,7,0,0,0,7-7V667A7,7,0,0,0,1214.56,660.05Z" transform="translate(-536.15 -202.32)"/><g id="Envelop"><g id="Envelop-2" data-name="Envelop"><path class="cls-23" d="M576,453.13h96a7,7,0,0,1,7,7V563.8a7,7,0,0,1-7,7H576a7,7,0,0,1-7-7V460.09A7,7,0,0,1,576,453.13Z"/><path class="cls-24" d="M1107.69,714.27h107.4l-39.28,28.15s-31.92,7.26-37.43,3.19-25.25-17.41-25.25-17.41Z" transform="translate(-536.15 -202.32)"/><rect class="cls-25" x="579.6" y="462.9" width="88.8" height="97.22"/><path class="cls-6" d="M1107.69,714.27h-2.49v51.85a7,7,0,0,0,7,7h96a7,7,0,0,0,7-7V714.27l-54.95,29.41Z" transform="translate(-536.15 -202.32)"/><path class="cls-26" d="M1112.16,773.08h96a7,7,0,0,0,7-7V714.27l-54.95,29.41-53.08,27.16A6.9,6.9,0,0,0,1112.16,773.08Z" transform="translate(-536.15 -202.32)"/></g><g id="Text" class="cls-3"><rect class="cls-27" x="590.33" y="472.19" width="71.39" height="2.61"/><rect class="cls-27" x="590.33" y="476.83" width="71.39" height="2.61"/><rect class="cls-27" x="590.33" y="481.76" width="71.39" height="2.61"/><rect class="cls-27" x="590.33" y="486.55" width="71.39" height="2.61"/><rect class="cls-27" x="590.33" y="492.65" width="71.39" height="2.61"/><rect class="cls-27" x="590.33" y="499.9" width="71.39" height="2.61"/><rect class="cls-27" x="590.33" y="504.98" width="71.39" height="2.61"/><rect class="cls-27" x="590.33" y="509.77" width="71.39" height="2.61"/><rect class="cls-27" x="590.33" y="515.28" width="71.39" height="2.61"/></g></g><g id="Mouse"><path class="cls-28" d="M940.39,285.27c0,45.81-25.45,83-56.85,83s-56.86-37.14-56.86-83,25.46-82.95,56.86-82.95S940.39,239.46,940.39,285.27Z" transform="translate(-536.15 -202.32)"/><path class="cls-29" d="M937.36,285.27c0,43.37-24.1,78.52-53.82,78.52s-53.83-35.15-53.83-78.52,24.1-78.52,53.83-78.52S937.36,241.91,937.36,285.27Z" transform="translate(-536.15 -202.32)"/><path class="cls-30" d="M889.62,255.91a7,7,0,0,1-7,7h0a7,7,0,0,1-7-7v-19a7,7,0,0,1,7-7h0a7,7,0,0,1,7,7Z" transform="translate(-536.15 -202.32)"/><path class="cls-31" d="M888.85,254.87a6.24,6.24,0,0,1-6.24,6.24h0a6.24,6.24,0,0,1-6.24-6.24V238a6.24,6.24,0,0,1,6.24-6.24h0a6.24,6.24,0,0,1,6.24,6.24Z" transform="translate(-536.15 -202.32)"/><path class="cls-10" d="M940.39,285.27c0-45.81-25.45-82.95-56.85-82.95v165.9C914.94,368.22,940.39,331.08,940.39,285.27Z" transform="translate(-536.15 -202.32)"/></g><g id="Phone"><path class="cls-32" d="M1055.5,318.24a2.05,2.05,0,0,1-2,2.05h0a2.05,2.05,0,0,1-2-2.05V305.07a2,2,0,0,1,2-2h0a2.05,2.05,0,0,1,2,2Z" transform="translate(-536.15 -202.32)"/><path class="cls-32" d="M1055.5,340.5a2,2,0,0,1-2,2h0a2,2,0,0,1-2-2V327.33a2,2,0,0,1,2-2h0a2,2,0,0,1,2,2Z" transform="translate(-536.15 -202.32)"/><path class="cls-32" d="M1169.1,338.07a2,2,0,0,1-2,2.05h0a2,2,0,0,1-2-2.05V324.9a2,2,0,0,1,2-2h0a2,2,0,0,1,2,2Z" transform="translate(-536.15 -202.32)"/><path class="cls-7" d="M1167.19,466.67a10.9,10.9,0,0,1-10.9,10.9h-91.43a10.9,10.9,0,0,1-10.9-10.9V300.76a10.9,10.9,0,0,1,10.9-10.9h91.43a10.9,10.9,0,0,1,10.9,10.9Z" transform="translate(-536.15 -202.32)"/><rect class="cls-33" x="529.03" y="103.23" width="90.8" height="145.49"/><path class="cls-20" d="M1113.93,297a1.37,1.37,0,0,1-1.37,1.37h-19.4a1.37,1.37,0,0,1-1.37-1.37h0a1.37,1.37,0,0,1,1.37-1.37h19.4a1.37,1.37,0,0,1,1.37,1.37Z" transform="translate(-536.15 -202.32)"/><path class="cls-20" d="M1120.4,297a1.37,1.37,0,0,1-1.37,1.37h-1.28a1.36,1.36,0,0,1-1.36-1.37h0a1.37,1.37,0,0,1,1.36-1.37H1119a1.37,1.37,0,0,1,1.37,1.37Z" transform="translate(-536.15 -202.32)"/><path class="cls-6" d="M1115.28,356.33l6.13,6.14-20.09,20-6.13-6.14c-3.53,4.07-4.58,8.91-2.29,11.21l1.51,1.5c2.48,2.49,7.95,1.06,12.21-3.19l18.16-18.13c4.26-4.25,5.7-9.72,3.21-12.21l-1.5-1.5C1124.19,351.76,1119.35,352.81,1115.28,356.33Z" transform="translate(-536.15 -202.32)"/><path class="cls-34" d="M1089.33,401.9a8.84,8.84,0,0,1,1.72-.15,3.05,3.05,0,0,1,2,.53,1.52,1.52,0,0,1,.61,1.3,1.73,1.73,0,0,1-1.24,1.61v0a1.9,1.9,0,0,1,1.52,1.84,2,2,0,0,1-.62,1.47,3.71,3.71,0,0,1-2.54.69,9.84,9.84,0,0,1-1.47-.09Zm.94,3h.86c1,0,1.59-.51,1.59-1.22,0-.86-.65-1.2-1.61-1.2a3.54,3.54,0,0,0-.84.07Zm0,3.53a5.61,5.61,0,0,0,.8,0c1,0,1.88-.36,1.88-1.43s-.86-1.41-1.9-1.41h-.78Z" transform="translate(-536.15 -202.32)"/><path class="cls-34" d="M1099.61,407.71c0,.54,0,1,.05,1.44h-.85l-.06-.86h0a2,2,0,0,1-1.74,1c-.83,0-1.82-.46-1.82-2.32v-3.08h1v2.92c0,1,.3,1.68,1.17,1.68a1.41,1.41,0,0,0,1.27-.87,1.53,1.53,0,0,0,.08-.49v-3.24h1Z" transform="translate(-536.15 -202.32)"/><path class="cls-34" d="M1101.08,408.17a2.54,2.54,0,0,0,1.26.38c.7,0,1-.35,1-.79s-.27-.71-1-1c-.94-.33-1.39-.86-1.39-1.49a1.62,1.62,0,0,1,1.81-1.55,2.73,2.73,0,0,1,1.31.33l-.25.7a2,2,0,0,0-1.07-.31c-.57,0-.89.33-.89.72s.32.63,1,.89c.92.35,1.39.81,1.39,1.6s-.72,1.57-2,1.57a3,3,0,0,1-1.49-.36Z" transform="translate(-536.15 -202.32)"/><path class="cls-34" d="M1106.59,402.39a.6.6,0,0,1-1.19,0,.59.59,0,0,1,.6-.6A.58.58,0,0,1,1106.59,402.39Zm-1.07,6.76v-5.28h1v5.28Z" transform="translate(-536.15 -202.32)"/><path class="cls-34" d="M1108.07,405.3c0-.54,0-1,0-1.43h.85l0,.87h0a2,2,0,0,1,1.74-1c.74,0,1.87.44,1.87,2.25v3.15h-1v-3c0-.85-.31-1.56-1.22-1.56a1.37,1.37,0,0,0-1.29,1,1.46,1.46,0,0,0-.06.44v3.18h-1Z" transform="translate(-536.15 -202.32)"/><path class="cls-34" d="M1114.12,405.3c0-.54,0-1,0-1.43h.86l0,.87h0a1.94,1.94,0,0,1,1.74-1c.74,0,1.87.44,1.87,2.25v3.15h-1v-3c0-.85-.31-1.56-1.22-1.56a1.36,1.36,0,0,0-1.29,1,1.46,1.46,0,0,0-.06.44v3.18h-1Z" transform="translate(-536.15 -202.32)"/><path class="cls-34" d="M1120.7,406.68a1.69,1.69,0,0,0,1.81,1.83,3.5,3.5,0,0,0,1.46-.27l.16.69a4.28,4.28,0,0,1-1.75.32,2.45,2.45,0,0,1-2.59-2.65,2.56,2.56,0,0,1,2.47-2.85,2.24,2.24,0,0,1,2.18,2.49,3.94,3.94,0,0,1,0,.44Zm2.81-.68a1.37,1.37,0,0,0-1.32-1.56,1.58,1.58,0,0,0-1.47,1.56Z" transform="translate(-536.15 -202.32)"/><path class="cls-34" d="M1125.5,408.17a2.54,2.54,0,0,0,1.26.38c.7,0,1-.35,1-.79s-.28-.71-1-1c-1-.33-1.4-.86-1.4-1.49a1.63,1.63,0,0,1,1.82-1.55,2.72,2.72,0,0,1,1.3.33l-.25.7a2,2,0,0,0-1.07-.31c-.57,0-.88.33-.88.72s.31.63,1,.89c.92.35,1.38.81,1.38,1.6s-.72,1.57-2,1.57a3,3,0,0,1-1.48-.36Z" transform="translate(-536.15 -202.32)"/><path class="cls-34" d="M1090.27,414.88v7.34h-.94v-7.34Z" transform="translate(-536.15 -202.32)"/><path class="cls-34" d="M1092,418.38c0-.54,0-1,0-1.43h.85l0,.87h0a1.94,1.94,0,0,1,1.74-1c.73,0,1.86.44,1.86,2.25v3.14h-1v-3c0-.86-.31-1.56-1.21-1.56a1.37,1.37,0,0,0-1.29,1,1.2,1.2,0,0,0-.06.44v3.17h-1Z" transform="translate(-536.15 -202.32)"/><path class="cls-34" d="M1101.82,422a3.62,3.62,0,0,1-1.52.3,2.51,2.51,0,0,1-2.63-2.69,2.69,2.69,0,0,1,2.84-2.8,3.11,3.11,0,0,1,1.33.28l-.22.74a2.12,2.12,0,0,0-1.11-.26,1.83,1.83,0,0,0-1.86,2,1.8,1.8,0,0,0,1.82,2,2.71,2.71,0,0,0,1.18-.26Z" transform="translate(-536.15 -202.32)"/><path class="cls-34" d="M1107.64,419.54a2.58,2.58,0,0,1-2.62,2.81,2.51,2.51,0,0,1-2.53-2.72,2.58,2.58,0,0,1,2.62-2.8A2.49,2.49,0,0,1,1107.64,419.54Zm-4.18.06c0,1.15.67,2,1.6,2s1.6-.86,1.6-2c0-.9-.45-2-1.58-2S1103.46,418.59,1103.46,419.6Z" transform="translate(-536.15 -202.32)"/><path class="cls-34" d="M1108.86,418.38c0-.54,0-1,0-1.43h.84l0,.85h0a1.81,1.81,0,0,1,1.65-1,1.55,1.55,0,0,1,1.49,1.06h0a2.24,2.24,0,0,1,.58-.69,1.82,1.82,0,0,1,1.17-.37c.7,0,1.74.46,1.74,2.29v3.1h-.94v-3c0-1-.37-1.62-1.15-1.62a1.24,1.24,0,0,0-1.13.87,1.66,1.66,0,0,0-.08.48v3.25h-.93v-3.15c0-.85-.37-1.45-1.1-1.45a1.3,1.3,0,0,0-1.19,1,1.35,1.35,0,0,0-.07.46v3.18h-.94Z" transform="translate(-536.15 -202.32)"/><path class="cls-34" d="M1119,415.47a.56.56,0,0,1-.61.59.57.57,0,0,1-.57-.59.58.58,0,0,1,.6-.6A.56.56,0,0,1,1119,415.47Zm-1.06,6.75V417h1v5.27Z" transform="translate(-536.15 -202.32)"/><path class="cls-34" d="M1120.5,418.38c0-.54,0-1,0-1.43h.85l.06.87h0a1.94,1.94,0,0,1,1.74-1c.73,0,1.87.44,1.87,2.25v3.14h-1v-3c0-.86-.32-1.56-1.22-1.56a1.36,1.36,0,0,0-1.29,1,1.46,1.46,0,0,0-.06.44v3.17h-1Z" transform="translate(-536.15 -202.32)"/><path class="cls-34" d="M1131.09,417c0,.38,0,.81,0,1.45v3.06a3,3,0,0,1-.75,2.41,2.79,2.79,0,0,1-1.92.63,3.44,3.44,0,0,1-1.75-.43l.24-.73a3,3,0,0,0,1.55.41c1,0,1.7-.51,1.7-1.84v-.59h0a1.89,1.89,0,0,1-1.68.88,2.36,2.36,0,0,1-2.25-2.57,2.53,2.53,0,0,1,2.38-2.8,1.74,1.74,0,0,1,1.64.92h0l0-.8Zm-1,2.08a1.27,1.27,0,0,0,0-.44,1.38,1.38,0,0,0-1.34-1c-.91,0-1.57.78-1.57,2,0,1,.53,1.89,1.56,1.89a1.4,1.4,0,0,0,1.33-1,1.5,1.5,0,0,0,.07-.51Z" transform="translate(-536.15 -202.32)"/><path class="cls-34" d="M1094.45,435.06a4.54,4.54,0,0,1-1.93.35,3.43,3.43,0,0,1-3.63-3.71,3.66,3.66,0,0,1,3.83-3.86,4,4,0,0,1,1.75.33l-.23.77a3.52,3.52,0,0,0-1.48-.3,2.73,2.73,0,0,0-2.87,3,2.67,2.67,0,0,0,2.83,2.95,3.87,3.87,0,0,0,1.54-.3Z" transform="translate(-536.15 -202.32)"/><path class="cls-34" d="M1096.88,433l-.77,2.31h-1l2.5-7.34h1.14l2.51,7.34h-1l-.78-2.31Zm2.4-.74-.71-2.11a12.67,12.67,0,0,1-.38-1.34h0c-.11.43-.22.88-.37,1.33l-.71,2.12Z" transform="translate(-536.15 -202.32)"/><path class="cls-34" d="M1102.36,428h1v6.55h3.14v.79h-4.09Z" transform="translate(-536.15 -202.32)"/><path class="cls-34" d="M1107.51,428h.94v6.55h3.14v.79h-4.08Z" transform="translate(-536.15 -202.32)"/><path class="cls-34" d="M1114.7,434.73a.64.64,0,0,1,.65-.68.69.69,0,0,1,0,1.37A.64.64,0,0,1,1114.7,434.73Z" transform="translate(-536.15 -202.32)"/><path class="cls-34" d="M1117,434.73a.64.64,0,0,1,.65-.68.69.69,0,0,1,0,1.37A.65.65,0,0,1,1117,434.73Z" transform="translate(-536.15 -202.32)"/><path class="cls-34" d="M1119.21,434.73a.65.65,0,1,1,.64.69A.64.64,0,0,1,1119.21,434.73Z" transform="translate(-536.15 -202.32)"/></g><g id="Blooming"><path class="cls-23" d="M902.89,903.66c-8.81-7.79-4.8-26-4.8-26H871.81s4,18.17-4.81,26a31.63,31.63,0,0,1-19.13,7.79v4.38H922v-4.38A31.65,31.65,0,0,1,902.89,903.66Z" transform="translate(-536.15 -202.32)"/><rect class="cls-35" x="311.73" y="709.13" width="74.15" height="4.38"/><path class="cls-36" d="M982.94,866a11.68,11.68,0,0,1-11.68,11.68H798.63A11.68,11.68,0,0,1,787,866v-95.4a11.68,11.68,0,0,1,11.68-11.68H971.26a11.68,11.68,0,0,1,11.68,11.68Z" transform="translate(-536.15 -202.32)"/><path class="cls-37" d="M787,770.62V866a11.67,11.67,0,0,0,1.77,6.17H981.17a11.67,11.67,0,0,0,1.77-6.17v-95.4a11.63,11.63,0,0,0-3-7.84H790A11.63,11.63,0,0,0,787,770.62Z" transform="translate(-536.15 -202.32)"/><rect class="cls-38" x="259.24" y="564.41" width="179.12" height="101.4"/><rect class="cls-6" x="277.01" y="629.3" width="19.12" height="36.5"/><rect class="cls-6" x="309.46" y="618.29" width="19.12" height="47.51"/><rect class="cls-39" x="342.19" y="595.12" width="19.12" height="70.69"/><rect class="cls-2" x="376.37" y="582.95" width="19.12" height="82.86"/><rect class="cls-2" x="408.99" y="570.17" width="19.12" height="93.94"/><polygon class="cls-7" points="271.99 643.95 270.23 641.6 325.82 599.9 385.4 593.69 427.36 568.9 428.85 571.43 386.34 596.55 326.93 602.75 271.99 643.95"/><path class="cls-40" d="M812,845.1a4.78,4.78,0,1,1-4.77-4.78A4.78,4.78,0,0,1,812,845.1Z" transform="translate(-536.15 -202.32)"/><circle class="cls-40" cx="862.52" cy="803.65" r="4.78" transform="translate(-605.36 1323.59) rotate(-80.76)"/><circle class="cls-40" cx="385.87" cy="595.12" r="4.78"/><path class="cls-40" d="M969,772.49a4.78,4.78,0,1,1-4.78-4.78A4.78,4.78,0,0,1,969,772.49Z" transform="translate(-536.15 -202.32)"/></g></g></g></svg>